<?xml version="1.0" encoding="UTF-8" standalone="no"?>
<!-- Created with Inkscape (http://www.inkscape.org/) -->

<svg
   xmlns:dc="http://purl.org/dc/elements/1.1/"
   xmlns:cc="http://creativecommons.org/ns#"
   xmlns:rdf="http://www.w3.org/1999/02/22-rdf-syntax-ns#"
   xmlns:svg="http://www.w3.org/2000/svg"
   xmlns="http://www.w3.org/2000/svg"
   xmlns:xlink="http://www.w3.org/1999/xlink"
   xmlns:sodipodi="http://sodipodi.sourceforge.net/DTD/sodipodi-0.dtd"
   xmlns:inkscape="http://www.inkscape.org/namespaces/inkscape"
   width="488"
   height="270"
   id="svg11095"
   version="1.1"
   inkscape:version="0.48.5 r10040"
   sodipodi:docname="illustration-python-computer.svg">
  <defs
     id="defs11097">
    <linearGradient
       id="linearGradient15935">
      <stop
         style="stop-color:#ffffff;stop-opacity:1;"
         offset="0"
         id="stop15937" />
      <stop
         id="stop15943"
         offset="0.43081325"
         style="stop-color:#ffffff;stop-opacity:1;" />
      <stop
         style="stop-color:#e9e3e6;stop-opacity:1;"
         offset="1"
         id="stop15939" />
    </linearGradient>
    <linearGradient
       id="linearGradient15797">
      <stop
         style="stop-color:#483042;stop-opacity:1;"
         offset="0"
         id="stop15799" />
      <stop
         style="stop-color:#6f616d;stop-opacity:1;"
         offset="1"
         id="stop15801" />
    </linearGradient>
    <linearGradient
       id="linearGradient15729">
      <stop
         style="stop-color:#d939b1;stop-opacity:1;"
         offset="0"
         id="stop15731" />
      <stop
         id="stop15737"
         offset="0.5"
         style="stop-color:#ff7ddf;stop-opacity:1;" />
      <stop
         style="stop-color:#f4c4e8;stop-opacity:1;"
         offset="1"
         id="stop15733" />
    </linearGradient>
    <linearGradient
       id="linearGradient11502">
      <stop
         style="stop-color:#4e3e4b;stop-opacity:1;"
         offset="0"
         id="stop11504" />
      <stop
         style="stop-color:#382c36;stop-opacity:1;"
         offset="1"
         id="stop11506" />
    </linearGradient>
    <filter
       inkscape:collect="always"
       id="filter10632"
       x="-0.12"
       width="1.24"
       y="-0.12"
       height="1.24"
       color-interpolation-filters="sRGB">
      <feGaussianBlur
         inkscape:collect="always"
         stdDeviation="5"
         id="feGaussianBlur10634" />
    </filter>
    <filter
       inkscape:collect="always"
       id="filter10642"
       x="-0.30000001"
       width="1.6"
       y="-0.30000001"
       height="1.6"
       color-interpolation-filters="sRGB">
      <feGaussianBlur
         inkscape:collect="always"
         stdDeviation="15"
         id="feGaussianBlur10644" />
    </filter>
    <filter
       inkscape:collect="always"
       id="filter10646"
       x="-0.30000001"
       width="1.6"
       y="-0.30000001"
       height="1.6"
       color-interpolation-filters="sRGB">
      <feGaussianBlur
         inkscape:collect="always"
         stdDeviation="15"
         id="feGaussianBlur10648" />
    </filter>
    <filter
       inkscape:collect="always"
       id="filter10650"
       x="-0.30000001"
       width="1.6"
       y="-0.30000001"
       height="1.6"
       color-interpolation-filters="sRGB">
      <feGaussianBlur
         inkscape:collect="always"
         stdDeviation="15"
         id="feGaussianBlur10652" />
    </filter>
    <filter
       inkscape:collect="always"
       id="filter10660"
       x="-0.31999999"
       width="1.64"
       y="-0.95999998"
       height="2.9200001"
       color-interpolation-filters="sRGB">
      <feGaussianBlur
         inkscape:collect="always"
         stdDeviation="2"
         id="feGaussianBlur10662" />
    </filter>
    <filter
       inkscape:collect="always"
       id="filter10664"
       x="-0.31999999"
       width="1.64"
       y="-0.95999998"
       height="2.9200001"
       color-interpolation-filters="sRGB">
      <feGaussianBlur
         inkscape:collect="always"
         stdDeviation="2"
         id="feGaussianBlur10666" />
    </filter>
    <filter
       inkscape:collect="always"
       id="filter10668"
       x="-0.31999999"
       width="1.64"
       y="-0.95999998"
       height="2.9200001"
       color-interpolation-filters="sRGB">
      <feGaussianBlur
         inkscape:collect="always"
         stdDeviation="2"
         id="feGaussianBlur10670" />
    </filter>
    <linearGradient
       inkscape:collect="always"
       xlink:href="#linearGradient11502"
       id="linearGradient8727"
       gradientUnits="userSpaceOnUse"
       gradientTransform="matrix(0.21884222,0,0,0.21884222,-551.00857,983.92598)"
       x1="2774.2856"
       y1="-420.49496"
       x2="3332.8572"
       y2="296.64789" />
    <linearGradient
       id="linearGradient7692-8">
      <stop
         id="stop7694-3"
         offset="0"
         style="stop-color:#542451;stop-opacity:1;" />
      <stop
         style="stop-color:#461e43;stop-opacity:1;"
         offset="0.5"
         id="stop10797-5" />
      <stop
         id="stop7696-5"
         offset="1"
         style="stop-color:#381836;stop-opacity:1;" />
    </linearGradient>
    <radialGradient
       inkscape:collect="always"
       xlink:href="#linearGradient7692-8"
       id="radialGradient15502"
       gradientUnits="userSpaceOnUse"
       gradientTransform="matrix(0.2909456,0,0,0.20680528,173.72222,796.56354)"
       cx="440.89514"
       cy="733.70624"
       fx="440.89514"
       fy="733.70624"
       r="422.68622" />
    <linearGradient
       inkscape:collect="always"
       xlink:href="#linearGradient15729"
       id="linearGradient15735"
       x1="693.05103"
       y1="691.80804"
       x2="1239.1708"
       y2="691.80804"
       gradientUnits="userSpaceOnUse"
       gradientTransform="matrix(0.26195279,0,0,0.26195279,77.785595,767.07681)" />
    <linearGradient
       inkscape:collect="always"
       xlink:href="#linearGradient15797"
       id="linearGradient15803"
       x1="1409.1628"
       y1="1031.3418"
       x2="1409.1628"
       y2="998.8241"
       gradientUnits="userSpaceOnUse"
       gradientTransform="matrix(0.28862332,0,0,0.28862332,52.018911,748.62594)" />
    <radialGradient
       inkscape:collect="always"
       xlink:href="#linearGradient15935"
       id="radialGradient15995"
       gradientUnits="userSpaceOnUse"
       gradientTransform="matrix(-0.31892501,0,0,0.20884642,537.91043,795.71943)"
       cx="1181.5525"
       cy="431.66449"
       fx="1181.5525"
       fy="431.66449"
       r="495.55313" />
  </defs>
  <sodipodi:namedview
     id="base"
     pagecolor="#ffffff"
     bordercolor="#666666"
     borderopacity="1.0"
     inkscape:pageopacity="0.0"
     inkscape:pageshadow="2"
     inkscape:zoom="1.4"
     inkscape:cx="601.36403"
     inkscape:cy="61.254023"
     inkscape:document-units="px"
     inkscape:current-layer="layer1"
     showgrid="false"
     inkscape:window-width="3440"
     inkscape:window-height="1377"
     inkscape:window-x="1913"
     inkscape:window-y="879"
     inkscape:window-maximized="1"
     inkscape:showpageshadow="false"
     showguides="true"
     inkscape:guide-bbox="true" />
  <metadata
     id="metadata11100">
    <rdf:RDF>
      <cc:Work
         rdf:about="">
        <dc:format>image/svg+xml</dc:format>
        <dc:type
           rdf:resource="http://purl.org/dc/dcmitype/StillImage" />
        <dc:title />
      </cc:Work>
    </rdf:RDF>
  </metadata>
  <g
     inkscape:label="Layer 1"
     inkscape:groupmode="layer"
     id="layer1"
     transform="translate(0,-782.36221)">
    <path
       inkscape:connector-curvature="0"
       style="fill:#d2c8ce;fill-opacity:1;stroke:none"
       d="m 159.69174,782.3655 c -21.25961,0 -39.77858,11.74056 -49.42341,29.09195 -5.84937,-2.13662 -12.157851,-3.29888 -18.746822,-3.29888 -25.759403,0 -47.367329,17.81559 -53.150842,41.79912 C 17.042142,850.77334 0,868.31498 0,889.84323 c 0,12.44312 5.6875829,23.56441 14.610754,30.8859 -1.908035,5.52856 -2.94009,11.46363 -2.94009,17.64053 0,29.84989 24.197907,54.04783 54.047826,54.04783 15.475403,0 29.432712,-6.50974 39.28758,-16.93292 14.59444,15.21944 35.13359,24.69673 57.88489,24.69673 42.11524,0 76.65646,-32.47077 79.94055,-73.74141 7.77892,5.16671 17.10895,8.18242 27.14851,8.18242 27.14328,0 49.1543,-22.00106 49.1543,-49.14436 0,-27.14331 -22.01102,-49.14435 -49.1543,-49.14435 -4.30644,0 -8.48763,0.54426 -12.46799,1.58466 -8.90741,-12.52565 -23.53446,-20.70023 -40.07492,-20.70023 -1.82709,0 -3.63638,0.11471 -5.41176,0.30896 -8.42029,-20.62619 -28.67922,-35.16149 -52.33361,-35.16149 z"
       id="path15955" />
    <path
       inkscape:connector-curvature="0"
       style="fill:url(#radialGradient15995);fill-opacity:1;stroke:none"
       d="m 159.69174,785.3953 c -20.14056,0 -37.63743,11.12099 -46.76237,27.53718 l -1.26574,2.26236 -2.43181,-0.88701 c -5.52009,-2.01633 -11.488035,-3.11949 -17.720272,-3.11949 -24.35752,0 -44.721341,16.83685 -50.180858,39.47694 l -0.538187,2.24245 -2.302239,0.0797 c -19.727456,0.75445 -35.4505091,16.92195 -35.4505091,36.84581 0,11.51666 5.248643,21.76799 13.4945141,28.53383 l 1.644458,1.34547 -0.687683,2.00325 c -1.799852,5.21525 -2.780627,10.80722 -2.780627,16.6439 0,28.20703 22.791131,51.00805 50.998103,51.00805 14.703126,0 27.940727,-6.19923 37.24447,-16.12563 14.68812,16.52247 36.09165,26.93909 59.93797,26.93909 43.31524,0 78.61341,-34.34662 80.13988,-77.28939 7.57158,5.46421 16.86675,8.68076 26.9392,8.68076 25.50058,0 46.11455,-20.60474 46.11455,-46.10461 0,-25.49988 -20.61397,-46.1046 -46.11455,-46.1046 -4.04943,0 -7.96191,0.52035 -11.69062,1.49495 l -2.02315,0.52823 -1.21592,-1.70425 c -8.35815,-11.75327 -22.07449,-19.42453 -37.6132,-19.42453 -1.70537,0 -3.39563,0.0955 -5.07292,0.27907 l -2.2823,0.25911 -0.85711,-2.13281 c -7.9642,-19.50894 -27.11384,-33.26787 -49.52308,-33.26787 z m -23.56057,2.1029 c -0.38499,0.17684 -0.77579,0.353 -1.15612,0.5382 0.38025,-0.18523 0.77115,-0.36132 1.15612,-0.5382 z m 63.35643,11.25208 c 0.60792,0.60313 1.20219,1.22327 1.78399,1.85376 -0.57943,-0.63049 -1.1661,-1.25063 -1.77403,-1.85376 -0.002,-0.002 -0.007,0.002 -0.0102,0 z m 56.06105,36.59664 c 0.45398,0.55699 0.89582,1.12744 1.32553,1.70425 -0.42957,-0.57674 -0.87161,-1.14741 -1.32553,-1.70425 z m 49.17424,15.37817 c 0.55599,0.55581 1.10555,1.13241 1.63448,1.71421 -0.52893,-0.5818 -1.06853,-1.1584 -1.62451,-1.71421 -0.003,-0.002 -0.008,0.002 -0.0102,0 z m 7.28544,9.27872 c 0.30715,0.50552 0.60683,1.01672 0.89698,1.53484 -0.2898,-0.51753 -0.58904,-1.02822 -0.89698,-1.53484 z M 104.84661,975.654 c -0.29991,0.31448 -0.60958,0.62964 -0.91692,0.93683 0.30569,-0.30563 0.61856,-0.62399 0.91692,-0.93683 z"
       id="path15926" />
    <rect
       style="fill:#1d0918;fill-opacity:1;stroke:none"
       id="rect15847"
       width="32.945553"
       height="15.160787"
       x="314.38824"
       y="1037.2014"
       rx="2.1820917"
       ry="2.182092" />
    <path
       inkscape:connector-curvature="0"
       style="fill:#59474f;fill-opacity:1;stroke:none"
       d="m 111.25586,971.29019 c -1.44923,0 -2.61246,0.48802 -2.61246,1.09419 l 0,10.94213 c 0,0.60618 1.16323,1.09421 2.61246,1.09421 l 72.06746,0 0,-13.13053 -72.06746,0 z"
       id="path10787" />
    <path
       style="fill:#24181d;fill-opacity:1;stroke:none"
       d="m 83.818513,905.63751 0,13.13055 31.226037,0 c 3.62589,0 6.56526,-2.93938 6.56526,-6.56528 0,-3.62589 -2.93937,-6.56527 -6.56526,-6.56527 l -31.226037,0 z"
       id="path10464"
       inkscape:connector-curvature="0" />
    <path
       inkscape:connector-curvature="0"
       id="rect10432"
       d="m 58.584176,888.23051 118.174824,0 c 3.63714,0 6.56525,2.92812 6.56525,6.56528 l 0,151.00101 c 0,3.6371 -2.92811,6.5654 -6.56525,6.5654 l -118.174824,0 c -3.637159,0 -6.565265,-2.9283 -6.565265,-6.5654 l 0,-151.00101 c 0,-3.63716 2.928106,-6.56528 6.565265,-6.56528 z"
       style="fill:url(#linearGradient8727);fill-opacity:1;stroke:none" />
    <path
       style="fill:#362a34;fill-opacity:1;stroke:none"
       d="m 100.2356,971.29019 0,13.13053 83.08772,0 0,-13.13053 z"
       id="path10795"
       inkscape:connector-curvature="0"
       sodipodi:nodetypes="ccccc" />
    <path
       id="path10819"
       d="m 74.102806,971.29019 0,13.13053 31.226034,0 c 3.62591,0 6.56528,-2.93937 6.56528,-6.56527 0,-3.6259 -2.93937,-6.56526 -6.56528,-6.56526 l -31.226034,0 z"
       style="fill:#241822;fill-opacity:1;stroke:none"
       inkscape:connector-curvature="0" />
    <path
       sodipodi:nodetypes="ccccc"
       inkscape:connector-curvature="0"
       id="path10793"
       d="m 100.2356,938.46385 0,13.13052 83.08772,0 0,-13.13052 z"
       style="fill:#362a34;fill-opacity:1;stroke:none" />
    <path
       inkscape:connector-curvature="0"
       style="fill:#241822;fill-opacity:1;stroke:none"
       d="m 110.1255,977.30833 0,1.09423 73.19782,0 0,-1.09423 -73.19782,0 z"
       id="path10789" />
    <path
       style="fill:#362a34;fill-opacity:1;stroke:none"
       d="m 100.2356,905.63751 0,13.13055 83.08772,0 0,-13.13055 z"
       id="path10780"
       inkscape:connector-curvature="0"
       sodipodi:nodetypes="ccccc" />
    <path
       id="path10708"
       d="m 74.102806,905.63751 0,13.13055 31.226034,0 c 3.62591,0 6.56528,-2.93938 6.56528,-6.56528 0,-3.62589 -2.93937,-6.56527 -6.56528,-6.56527 l -31.226034,0 z"
       style="fill:#241822;fill-opacity:1;stroke:none"
       inkscape:connector-curvature="0" />
    <path
       inkscape:connector-curvature="0"
       style="fill:#241822;fill-opacity:1;stroke:none"
       d="m 74.102806,938.46385 0,13.13052 31.226034,0 c 3.62591,0 6.56528,-2.93936 6.56528,-6.56525 0,-3.6259 -2.93937,-6.56527 -6.56528,-6.56527 l -31.226034,0 z"
       id="path10817" />
    <path
       inkscape:connector-curvature="0"
       id="path10434"
       d="m 89.362033,912.20278 c 0,7.25179 -5.878742,13.13053 -13.130537,13.13053 -7.251794,0 -13.130529,-5.87874 -13.130529,-13.13053 0,-7.25179 5.878735,-13.13053 13.130529,-13.13053 7.251795,0 13.130537,5.87874 13.130537,13.13053 z"
       style="fill:#241822;fill-opacity:1;stroke:none" />
    <path
       style="fill:#d939b1;fill-opacity:1;stroke:none"
       d="m 76.233411,901.26067 c -6.043155,0 -10.942112,4.89895 -10.942112,10.94211 0,6.04316 4.898957,10.94212 10.942112,10.94212 6.043157,0 10.942114,-4.89896 10.942114,-10.94212 0,-6.04316 -4.898957,-10.94211 -10.942114,-10.94211 z m 0,1.09421 c 5.438847,0 9.847898,4.40906 9.847898,9.8479 0,5.43885 -4.409051,9.8479 -9.847898,9.8479 -5.438836,0 -9.847896,-4.40905 -9.847896,-9.8479 0,-5.43884 4.40906,-9.8479 9.847896,-9.8479 z"
       id="path10447"
       inkscape:connector-curvature="0" />
    <path
       inkscape:connector-curvature="0"
       id="path10458"
       d="m 108.61143,912.20278 c 0,1.20864 -0.9798,2.18842 -2.18843,2.18842 -1.20862,0 -2.18843,-0.97978 -2.18843,-2.18842 0,-1.20863 0.97981,-2.18841 2.18843,-2.18841 1.20863,0 2.18843,0.97978 2.18843,2.18841 z"
       style="fill:#d939b1;fill-opacity:1;stroke:none" />
    <path
       inkscape:connector-curvature="0"
       id="path10460"
       d="m 102.04616,912.20278 c 0,1.20864 -0.97979,2.18842 -2.18842,2.18842 -1.208645,0 -2.188436,-0.97978 -2.188436,-2.18842 0,-1.20863 0.979791,-2.18841 2.188436,-2.18841 1.20863,0 2.18842,0.97978 2.18842,2.18841 z"
       style="fill:#f4c4e8;fill-opacity:1;stroke:none" />
    <path
       inkscape:connector-curvature="0"
       id="path10462"
       d="m 95.480896,912.20278 c 0,1.20864 -0.97979,2.18842 -2.188427,2.18842 -1.208635,0 -2.188421,-0.97978 -2.188421,-2.18842 0,-1.20863 0.979786,-2.18841 2.188421,-2.18841 1.208637,0 2.188427,0.97978 2.188427,2.18841 z"
       style="fill:#f4c4e8;fill-opacity:1;stroke:none" />
    <path
       style="fill:#241822;fill-opacity:1;stroke:none"
       d="m 110.1255,911.6557 0,1.09418 73.19782,0 0,-1.09418 -73.19782,0 z"
       id="rect10586"
       inkscape:connector-curvature="0" />
    <path
       inkscape:connector-curvature="0"
       id="rect10612"
       d="m 168.65883,911.6557 3.28262,0 0,1.09418 -3.28262,0 z"
       style="fill:#d939b1;fill-opacity:1;stroke:none" />
    <path
       inkscape:connector-curvature="0"
       id="rect10616"
       d="m 162.09356,911.6557 3.28263,0 0,1.09418 -3.28263,0 z"
       style="fill:#f4c4e8;fill-opacity:1;stroke:none" />
    <path
       inkscape:connector-curvature="0"
       id="rect10620"
       d="m 155.5283,911.6557 3.28263,0 0,1.09418 -3.28263,0 z"
       style="fill:#d8276b;fill-opacity:1;stroke:none" />
    <path
       id="path10622"
       d="m -670.9592,216.54636 c -27.6142,0 -50,22.38576 -50,50 0,27.61424 22.3858,50 50,50 27.6142,0 50,-22.38576 50,-50 0,-27.61424 -22.3858,-50 -50,-50 z m 0,5 c 24.8528,0 45,20.14719 45,45 0,24.85281 -20.1472,45 -45,45 -24.8528,0 -45,-20.14719 -45,-45 0,-24.85281 20.1472,-45 45,-45 z"
       style="fill:#d939b1;fill-opacity:1;stroke:none;filter:url(#filter10632)"
       inkscape:connector-curvature="0"
       transform="matrix(0.21884222,0,0,0.21884222,223.06761,853.87118)" />
    <path
       inkscape:connector-curvature="0"
       id="path10636"
       d="m 2948.5715,-749.14288 c 0,33.13708 -26.8629,60 -60,60 -33.1371,0 -60,-26.86292 -60,-60 0,-33.13709 26.8629,-60 60,-60 33.1371,0 60,26.86291 60,60 z"
       style="fill:#d939b1;fill-opacity:1;stroke:none;filter:url(#filter10642)"
       transform="matrix(0.0364737,0,0,0.0364737,1.0661027,939.52679)" />
    <path
       inkscape:connector-curvature="0"
       id="path10638"
       d="m 2948.5715,-749.14288 c 0,33.13708 -26.8629,60 -60,60 -33.1371,0 -60,-26.86292 -60,-60 0,-33.13709 26.8629,-60 60,-60 33.1371,0 60,26.86291 60,60 z"
       style="fill:#f4c4e8;fill-opacity:1;stroke:none;filter:url(#filter10646)"
       transform="matrix(0.0364737,0,0,0.0364737,-5.4991671,939.52679)" />
    <path
       inkscape:connector-curvature="0"
       id="path10640"
       d="m 2948.5715,-749.14288 c 0,33.13708 -26.8629,60 -60,60 -33.1371,0 -60,-26.86292 -60,-60 0,-33.13709 26.8629,-60 60,-60 33.1371,0 60,26.86291 60,60 z"
       style="fill:#f4c4e8;fill-opacity:1;stroke:none;filter:url(#filter10650)"
       transform="matrix(0.0364737,0,0,0.0364737,-12.064427,939.52679)" />
    <path
       inkscape:connector-curvature="0"
       id="rect10654"
       d="m -248.62109,264.04636 15,0 0,5 -15,0 z"
       style="fill:#d939b1;fill-opacity:1;stroke:none;filter:url(#filter10660)"
       transform="matrix(0.21884222,0,0,0.21884222,223.06761,853.87118)" />
    <path
       inkscape:connector-curvature="0"
       id="rect10656"
       d="m -278.62109,264.04636 15,0 0,5 -15,0 z"
       style="fill:#f4c4e8;fill-opacity:1;stroke:none;filter:url(#filter10664)"
       transform="matrix(0.21884222,0,0,0.21884222,223.06761,853.87118)" />
    <path
       inkscape:connector-curvature="0"
       id="rect10658"
       d="m -308.62109,264.04636 15,0 0,5 -15,0 z"
       style="fill:#d939b1;fill-opacity:1;stroke:none;filter:url(#filter10668)"
       transform="matrix(0.21884222,0,0,0.21884222,223.06761,853.87118)" />
    <path
       inkscape:connector-curvature="0"
       id="path10712"
       d="m 89.362033,945.0291 c 0,7.2518 -5.878742,13.13052 -13.130537,13.13052 -7.251794,0 -13.130529,-5.87872 -13.130529,-13.13052 0,-7.2518 5.878735,-13.13054 13.130529,-13.13054 7.251795,0 13.130537,5.87874 13.130537,13.13054 z"
       style="fill:#241822;fill-opacity:1;stroke:none" />
    <path
       id="path10714"
       d="m 76.233411,934.087 c -6.043155,0 -10.942112,4.89896 -10.942112,10.94212 0,6.04317 4.898957,10.94212 10.942112,10.94212 6.043157,0 10.942114,-4.89895 10.942114,-10.94212 0,-6.04316 -4.898957,-10.94212 -10.942114,-10.94212 z m 0,1.09422 c 5.438847,0 9.847898,4.40904 9.847898,9.8479 0,5.43883 -4.409051,9.84789 -9.847898,9.84789 -5.438836,0 -9.847896,-4.40906 -9.847896,-9.84789 0,-5.43886 4.40906,-9.8479 9.847896,-9.8479 z"
       style="fill:#d939b1;fill-opacity:1;stroke:none"
       inkscape:connector-curvature="0" />
    <path
       inkscape:connector-curvature="0"
       id="path10716"
       d="m 108.61143,945.02912 c 0,1.20862 -0.9798,2.18843 -2.18843,2.18843 -1.20862,0 -2.18843,-0.97981 -2.18843,-2.18843 0,-1.20863 0.97981,-2.18843 2.18843,-2.18843 1.20863,0 2.18843,0.9798 2.18843,2.18843 z"
       style="fill:#f4c4e8;fill-opacity:1;stroke:none" />
    <path
       inkscape:connector-curvature="0"
       id="path10718"
       d="m 102.04616,945.02912 c 0,1.20862 -0.97979,2.18843 -2.18842,2.18843 -1.208645,0 -2.188436,-0.97981 -2.188436,-2.18843 0,-1.20863 0.979791,-2.18843 2.188436,-2.18843 1.20863,0 2.18842,0.9798 2.18842,2.18843 z"
       style="fill:#d939b1;fill-opacity:1;stroke:none" />
    <path
       inkscape:connector-curvature="0"
       id="path10720"
       d="m 95.480896,945.02912 c 0,1.20862 -0.97979,2.18843 -2.188427,2.18843 -1.208635,0 -2.188421,-0.97981 -2.188421,-2.18843 0,-1.20863 0.979786,-2.18843 2.188421,-2.18843 1.208637,0 2.188427,0.9798 2.188427,2.18843 z"
       style="fill:#d939b1;fill-opacity:1;stroke:none" />
    <path
       id="path10722"
       d="m 110.1255,944.48201 0,1.09423 73.19782,0 0,-1.09423 -73.19782,0 z"
       style="fill:#241822;fill-opacity:1;stroke:none"
       inkscape:connector-curvature="0" />
    <path
       inkscape:connector-curvature="0"
       id="rect10724"
       d="m 168.65883,944.482 3.28262,0 0,1.0942 -3.28262,0 z"
       style="fill:#d939b1;fill-opacity:1;stroke:none" />
    <path
       inkscape:connector-curvature="0"
       id="rect10726"
       d="m 162.09356,944.482 3.28263,0 0,1.0942 -3.28263,0 z"
       style="fill:#f4c4e8;fill-opacity:1;stroke:none" />
    <path
       inkscape:connector-curvature="0"
       id="rect10728"
       d="m 155.5283,944.482 3.28263,0 0,1.0942 -3.28263,0 z"
       style="fill:#f4c4e8;fill-opacity:1;stroke:none" />
    <path
       style="fill:#d939b1;fill-opacity:1;stroke:none;filter:url(#filter10632)"
       d="m -670.9592,366.54636 c -27.6142,0 -50,22.38576 -50,50 0,27.61424 22.3858,50 50,50 27.6142,0 50,-22.38576 50,-50 0,-27.61424 -22.3858,-50 -50,-50 z m 0,5 c 24.8528,0 45,20.14719 45,45 0,24.85281 -20.1472,45 -45,45 -24.8528,0 -45,-20.14719 -45,-45 0,-24.85281 20.1472,-45 45,-45 z"
       id="path10730"
       inkscape:connector-curvature="0"
       transform="matrix(0.21884222,0,0,0.21884222,223.06761,853.87118)" />
    <path
       inkscape:connector-curvature="0"
       id="path10732"
       d="m 2948.5715,-749.14288 c 0,33.13708 -26.8629,60 -60,60 -33.1371,0 -60,-26.86292 -60,-60 0,-33.13709 26.8629,-60 60,-60 33.1371,0 60,26.86291 60,60 z"
       style="fill:#f4c4e8;fill-opacity:1;stroke:none;filter:url(#filter10642)"
       transform="matrix(0.0364737,0,0,0.0364737,1.0661027,972.35312)" />
    <path
       inkscape:connector-curvature="0"
       id="path10734"
       d="m 2948.5715,-749.14288 c 0,33.13708 -26.8629,60 -60,60 -33.1371,0 -60,-26.86292 -60,-60 0,-33.13709 26.8629,-60 60,-60 33.1371,0 60,26.86291 60,60 z"
       style="fill:#d939b1;fill-opacity:1;stroke:none;filter:url(#filter10646)"
       transform="matrix(0.0364737,0,0,0.0364737,-5.4991671,972.35312)" />
    <path
       inkscape:connector-curvature="0"
       id="path10736"
       d="m 2948.5715,-749.14288 c 0,33.13708 -26.8629,60 -60,60 -33.1371,0 -60,-26.86292 -60,-60 0,-33.13709 26.8629,-60 60,-60 33.1371,0 60,26.86291 60,60 z"
       style="fill:#d939b1;fill-opacity:1;stroke:none;filter:url(#filter10650)"
       transform="matrix(0.0364737,0,0,0.0364737,-12.064427,972.35312)" />
    <path
       inkscape:connector-curvature="0"
       id="rect10738"
       d="m -248.62109,414.04636 15,0 0,5 -15,0 z"
       style="fill:#d939b1;fill-opacity:1;stroke:none;filter:url(#filter10660)"
       transform="matrix(0.21884222,0,0,0.21884222,223.06761,853.87118)" />
    <path
       inkscape:connector-curvature="0"
       id="rect10740"
       d="m -278.62109,414.04636 15,0 0,5 -15,0 z"
       style="fill:#f4c4e8;fill-opacity:1;stroke:none;filter:url(#filter10664)"
       transform="matrix(0.21884222,0,0,0.21884222,223.06761,853.87118)" />
    <path
       inkscape:connector-curvature="0"
       id="rect10742"
       d="m -308.62109,414.04636 15,0 0,5 -15,0 z"
       style="fill:#f4c4e8;fill-opacity:1;stroke:none;filter:url(#filter10668)"
       transform="matrix(0.21884222,0,0,0.21884222,223.06761,853.87118)" />
    <path
       inkscape:connector-curvature="0"
       id="path10748"
       d="m 89.362033,977.85544 c 0,7.25178 -5.878742,13.13053 -13.130537,13.13053 -7.251794,0 -13.130529,-5.87875 -13.130529,-13.13053 0,-7.25181 5.878735,-13.13054 13.130529,-13.13054 7.251795,0 13.130537,5.87873 13.130537,13.13054 z"
       style="fill:#241822;fill-opacity:1;stroke:none" />
    <path
       inkscape:connector-curvature="0"
       style="fill:#f4c4e8;fill-opacity:1;stroke:none"
       d="m 76.233411,966.91334 c -6.043155,0 -10.942112,4.89894 -10.942112,10.94211 0,6.04317 4.898957,10.94212 10.942112,10.94212 6.043157,0 10.942114,-4.89895 10.942114,-10.94212 0,-6.04317 -4.898957,-10.94211 -10.942114,-10.94211 z m 0,1.09421 c 5.438847,0 9.847898,4.40905 9.847898,9.8479 0,5.43884 -4.409051,9.84789 -9.847898,9.84789 -5.438836,0 -9.847896,-4.40905 -9.847896,-9.84789 0,-5.43885 4.40906,-9.8479 9.847896,-9.8479 z"
       id="path10750" />
    <path
       inkscape:connector-curvature="0"
       id="path10752"
       d="m 108.61143,977.85545 c 0,1.20863 -0.9798,2.18843 -2.18843,2.18843 -1.20862,0 -2.18843,-0.9798 -2.18843,-2.18843 0,-1.20862 0.97981,-2.18842 2.18843,-2.18842 1.20863,0 2.18843,0.9798 2.18843,2.18842 z"
       style="fill:#d939b1;fill-opacity:1;stroke:none" />
    <path
       inkscape:connector-curvature="0"
       id="path10754"
       d="m 102.04616,977.85545 c 0,1.20863 -0.97979,2.18843 -2.18842,2.18843 -1.208645,0 -2.188436,-0.9798 -2.188436,-2.18843 0,-1.20862 0.979791,-2.18842 2.188436,-2.18842 1.20863,0 2.18842,0.9798 2.18842,2.18842 z"
       style="fill:#f4c4e8;fill-opacity:1;stroke:none" />
    <path
       inkscape:connector-curvature="0"
       id="path10756"
       d="m 95.480896,977.85545 c 0,1.20863 -0.97979,2.18843 -2.188427,2.18843 -1.208635,0 -2.188421,-0.9798 -2.188421,-2.18843 0,-1.20862 0.979786,-2.18842 2.188421,-2.18842 1.208637,0 2.188427,0.9798 2.188427,2.18842 z"
       style="fill:#d939b1;fill-opacity:1;stroke:none" />
    <path
       inkscape:connector-curvature="0"
       id="rect10760"
       d="m 168.65883,977.30833 3.28262,0 0,1.09423 -3.28262,0 z"
       style="fill:#f4c4e8;fill-opacity:1;stroke:none" />
    <path
       inkscape:connector-curvature="0"
       id="rect10762"
       d="m 162.09356,977.30833 3.28263,0 0,1.09423 -3.28263,0 z"
       style="fill:#f4c4e8;fill-opacity:1;stroke:none" />
    <path
       inkscape:connector-curvature="0"
       id="rect10764"
       d="m 155.5283,977.30833 3.28263,0 0,1.09423 -3.28263,0 z"
       style="fill:#d939b1;fill-opacity:1;stroke:none" />
    <path
       inkscape:connector-curvature="0"
       id="path10766"
       d="m -670.9592,516.54636 c -27.6142,0 -50,22.38576 -50,50 0,27.61424 22.3858,50.00001 50,50.00001 27.6142,0 50,-22.38577 50,-50.00001 0,-27.61424 -22.3858,-50 -50,-50 z m 0,5 c 24.8528,0 45,20.14719 45,45 0,24.85281 -20.1472,45.00001 -45,45.00001 -24.8528,0 -45,-20.1472 -45,-45.00001 0,-24.85281 20.1472,-45 45,-45 z"
       style="fill:#f4c4e8;fill-opacity:1;stroke:none;filter:url(#filter10632)"
       transform="matrix(0.21884222,0,0,0.21884222,223.06761,853.87118)" />
    <path
       inkscape:connector-curvature="0"
       id="path10768"
       d="m 2948.5715,-749.14288 c 0,33.13708 -26.8629,60 -60,60 -33.1371,0 -60,-26.86292 -60,-60 0,-33.13709 26.8629,-60 60,-60 33.1371,0 60,26.86291 60,60 z"
       style="fill:#d939b1;fill-opacity:1;stroke:none;filter:url(#filter10642)"
       transform="matrix(0.0364737,0,0,0.0364737,1.0661027,1005.1796)" />
    <path
       inkscape:connector-curvature="0"
       id="path10770"
       d="m 2948.5715,-749.14288 c 0,33.13708 -26.8629,60 -60,60 -33.1371,0 -60,-26.86292 -60,-60 0,-33.13709 26.8629,-60 60,-60 33.1371,0 60,26.86291 60,60 z"
       style="fill:#f4c4e8;fill-opacity:1;stroke:none;filter:url(#filter10646)"
       transform="matrix(0.0364737,0,0,0.0364737,-5.4991671,1005.1796)" />
    <path
       inkscape:connector-curvature="0"
       id="path10772"
       d="m 2948.5715,-749.14288 c 0,33.13708 -26.8629,60 -60,60 -33.1371,0 -60,-26.86292 -60,-60 0,-33.13709 26.8629,-60 60,-60 33.1371,0 60,26.86291 60,60 z"
       style="fill:#d939b1;fill-opacity:1;stroke:none;filter:url(#filter10650)"
       transform="matrix(0.0364737,0,0,0.0364737,-12.064427,1005.1796)" />
    <path
       inkscape:connector-curvature="0"
       id="rect10774"
       d="m -248.62109,564.04639 15,0 0,5 -15,0 z"
       style="fill:#f4c4e8;fill-opacity:1;stroke:none;filter:url(#filter10660)"
       transform="matrix(0.21884222,0,0,0.21884222,223.06761,853.87118)" />
    <path
       inkscape:connector-curvature="0"
       id="rect10776"
       d="m -278.62109,564.04639 15,0 0,5 -15,0 z"
       style="fill:#f4c4e8;fill-opacity:1;stroke:none;filter:url(#filter10664)"
       transform="matrix(0.21884222,0,0,0.21884222,223.06761,853.87118)" />
    <path
       inkscape:connector-curvature="0"
       id="rect10778"
       d="m -308.62109,564.04639 15,0 0,5 -15,0 z"
       style="fill:#d939b1;fill-opacity:1;stroke:none;filter:url(#filter10668)"
       transform="matrix(0.21884222,0,0,0.21884222,223.06761,853.87118)" />
    <path
       id="path10829"
       d="m 111.25586,1004.1166 c -1.44923,0 -2.61246,0.488 -2.61246,1.0941 l 0,10.9422 c 0,0.6062 1.16323,1.0942 2.61246,1.0942 l 72.06746,0 0,-13.1305 -72.06746,0 z"
       style="fill:#59474f;fill-opacity:1;stroke:none"
       inkscape:connector-curvature="0" />
    <path
       sodipodi:nodetypes="ccccc"
       inkscape:connector-curvature="0"
       id="path10831"
       d="m 100.2356,1004.1166 0,13.1305 83.08772,0 0,-13.1305 z"
       style="fill:#362a34;fill-opacity:1;stroke:none" />
    <path
       inkscape:connector-curvature="0"
       style="fill:#241822;fill-opacity:1;stroke:none"
       d="m 74.102806,1004.1166 0,13.1305 31.226034,0 c 3.62591,0 6.56528,-2.9393 6.56528,-6.5653 0,-3.6259 -2.93937,-6.5652 -6.56528,-6.5652 l -31.226034,0 z"
       id="path10833" />
    <path
       id="path10835"
       d="m 110.1255,1010.1347 0,1.0942 73.19782,0 0,-1.0942 -73.19782,0 z"
       style="fill:#241822;fill-opacity:1;stroke:none"
       inkscape:connector-curvature="0" />
    <path
       inkscape:connector-curvature="0"
       id="path10837"
       d="m 89.362033,1010.6818 c 0,7.2519 -5.878742,13.1305 -13.130537,13.1305 -7.251794,0 -13.130529,-5.8786 -13.130529,-13.1305 0,-7.2518 5.878735,-13.13056 13.130529,-13.13056 7.251795,0 13.130537,5.87876 13.130537,13.13056 z"
       style="fill:#241822;fill-opacity:1;stroke:none" />
    <path
       id="path10839"
       d="m 76.233411,999.73972 c -6.043155,0 -10.942112,4.89878 -10.942112,10.94208 0,6.043 4.898957,10.9421 10.942112,10.9421 6.043157,0 10.942114,-4.8991 10.942114,-10.9421 0,-6.0433 -4.898957,-10.94208 -10.942114,-10.94208 z m 0,1.09418 c 5.438847,0 9.847898,4.4091 9.847898,9.8479 0,5.4388 -4.409051,9.848 -9.847898,9.848 -5.438836,0 -9.847896,-4.4092 -9.847896,-9.848 0,-5.4388 4.40906,-9.8479 9.847896,-9.8479 z"
       style="fill:#d939b1;fill-opacity:1;stroke:none"
       inkscape:connector-curvature="0" />
    <path
       inkscape:connector-curvature="0"
       id="path10841"
       d="m 108.61143,1010.6818 c 0,1.2086 -0.9798,2.1885 -2.18843,2.1885 -1.20862,0 -2.18843,-0.9799 -2.18843,-2.1885 0,-1.2086 0.97981,-2.1884 2.18843,-2.1884 1.20863,0 2.18843,0.9798 2.18843,2.1884 z"
       style="fill:#f4c4e8;fill-opacity:1;stroke:none" />
    <path
       inkscape:connector-curvature="0"
       id="path10843"
       d="m 102.04616,1010.6818 c 0,1.2086 -0.97979,2.1885 -2.18842,2.1885 -1.208645,0 -2.188436,-0.9799 -2.188436,-2.1885 0,-1.2086 0.979791,-2.1884 2.188436,-2.1884 1.20863,0 2.18842,0.9798 2.18842,2.1884 z"
       style="fill:#f4c4e8;fill-opacity:1;stroke:none" />
    <path
       inkscape:connector-curvature="0"
       id="path10845"
       d="m 95.480896,1010.6818 c 0,1.2086 -0.97979,2.1885 -2.188427,2.1885 -1.208635,0 -2.188421,-0.9799 -2.188421,-2.1885 0,-1.2086 0.979786,-2.1884 2.188421,-2.1884 1.208637,0 2.188427,0.9798 2.188427,2.1884 z"
       style="fill:#d939b1;fill-opacity:1;stroke:none" />
    <path
       inkscape:connector-curvature="0"
       id="rect10847"
       d="m 168.65883,1010.1347 3.28262,0 0,1.0942 -3.28262,0 z"
       style="fill:#f4c4e8;fill-opacity:1;stroke:none" />
    <path
       inkscape:connector-curvature="0"
       id="rect10849"
       d="m 162.09356,1010.1347 3.28263,0 0,1.0942 -3.28263,0 z"
       style="fill:#d939b1;fill-opacity:1;stroke:none" />
    <path
       inkscape:connector-curvature="0"
       id="rect10851"
       d="m 155.5283,1010.1347 3.28263,0 0,1.0942 -3.28263,0 z"
       style="fill:#d939b1;fill-opacity:1;stroke:none" />
    <path
       style="fill:#d939b1;fill-opacity:1;stroke:none;filter:url(#filter10632)"
       d="m -670.9592,666.54637 c -27.6142,0 -50,22.38576 -50,50 0,27.61424 22.3858,50 50,50 27.6142,0 50,-22.38576 50,-50 0,-27.61424 -22.3858,-50 -50,-50 z m 0,5 c 24.8528,0 45,20.14719 45,45 0,24.85281 -20.1472,45 -45,45 -24.8528,0 -45,-20.14719 -45,-45 0,-24.85281 20.1472,-45 45,-45 z"
       id="path10853"
       inkscape:connector-curvature="0"
       transform="matrix(0.21884222,0,0,0.21884222,223.06761,853.87118)" />
    <path
       inkscape:connector-curvature="0"
       id="path10855"
       d="m 2948.5715,-749.14288 c 0,33.13708 -26.8629,60 -60,60 -33.1371,0 -60,-26.86292 -60,-60 0,-33.13709 26.8629,-60 60,-60 33.1371,0 60,26.86291 60,60 z"
       style="fill:#f4c4e8;fill-opacity:1;stroke:none;filter:url(#filter10642)"
       transform="matrix(0.0364737,0,0,0.0364737,1.0661027,1038.0059)" />
    <path
       inkscape:connector-curvature="0"
       id="path10857"
       d="m 2948.5715,-749.14288 c 0,33.13708 -26.8629,60 -60,60 -33.1371,0 -60,-26.86292 -60,-60 0,-33.13709 26.8629,-60 60,-60 33.1371,0 60,26.86291 60,60 z"
       style="fill:#f4c4e8;fill-opacity:1;stroke:none;filter:url(#filter10646)"
       transform="matrix(0.0364737,0,0,0.0364737,-5.4991671,1038.0059)" />
    <path
       inkscape:connector-curvature="0"
       id="path10859"
       d="m 2948.5715,-749.14288 c 0,33.13708 -26.8629,60 -60,60 -33.1371,0 -60,-26.86292 -60,-60 0,-33.13709 26.8629,-60 60,-60 33.1371,0 60,26.86291 60,60 z"
       style="fill:#d939b1;fill-opacity:1;stroke:none;filter:url(#filter10650)"
       transform="matrix(0.0364737,0,0,0.0364737,-12.064427,1038.0059)" />
    <path
       inkscape:connector-curvature="0"
       id="rect10861"
       d="m -248.62109,714.04639 15,0 0,5 -15,0 z"
       style="fill:#f4c4e8;fill-opacity:1;stroke:none;filter:url(#filter10660)"
       transform="matrix(0.21884222,0,0,0.21884222,223.06761,853.87118)" />
    <path
       inkscape:connector-curvature="0"
       id="rect10863"
       d="m -278.62109,714.04639 15,0 0,5 -15,0 z"
       style="fill:#d939b1;fill-opacity:1;stroke:none;filter:url(#filter10664)"
       transform="matrix(0.21884222,0,0,0.21884222,223.06761,853.87118)" />
    <path
       inkscape:connector-curvature="0"
       id="rect10865"
       d="m -308.62109,714.04639 15,0 0,5 -15,0 z"
       style="fill:#d939b1;fill-opacity:1;stroke:none;filter:url(#filter10668)"
       transform="matrix(0.21884222,0,0,0.21884222,223.06761,853.87118)" />
    <path
       style="fill:#000000;fill-opacity:1;stroke:none"
       d="m 63.100954,1029.6965 1.313052,0 0,13.1303 -1.313052,0 z"
       id="rect10957"
       inkscape:connector-curvature="0" />
    <path
       style="fill:#000000;fill-opacity:1;stroke:none"
       d="m 65.727058,1029.6965 1.313054,0 0,13.1303 -1.313054,0 z"
       id="rect10961"
       inkscape:connector-curvature="0" />
    <path
       style="fill:#000000;fill-opacity:1;stroke:none"
       d="m 68.353166,1029.6965 1.313053,0 0,13.1303 -1.313053,0 z"
       id="rect10963"
       inkscape:connector-curvature="0" />
    <path
       style="fill:#000000;fill-opacity:1;stroke:none"
       d="m 70.979273,1029.6965 1.313053,0 0,13.1303 -1.313053,0 z"
       id="rect10967"
       inkscape:connector-curvature="0" />
    <path
       style="fill:#000000;fill-opacity:1;stroke:none"
       d="m 73.60538,1029.6965 1.313053,0 0,13.1303 -1.313053,0 z"
       id="rect10969"
       inkscape:connector-curvature="0" />
    <path
       style="fill:#000000;fill-opacity:1;stroke:none"
       d="m 76.231487,1029.6965 1.313053,0 0,13.1303 -1.313053,0 z"
       id="rect10973"
       inkscape:connector-curvature="0" />
    <path
       style="fill:#000000;fill-opacity:1;stroke:none"
       d="m 78.857594,1029.6965 1.313054,0 0,13.1303 -1.313054,0 z"
       id="rect10975"
       inkscape:connector-curvature="0" />
    <path
       style="fill:#000000;fill-opacity:1;stroke:none"
       d="m 81.483701,1029.6965 1.313053,0 0,13.1303 -1.313053,0 z"
       id="rect10979"
       inkscape:connector-curvature="0" />
    <path
       style="fill:#000000;fill-opacity:1;stroke:none"
       d="m 84.109809,1029.6965 1.313053,0 0,13.1303 -1.313053,0 z"
       id="rect10981"
       inkscape:connector-curvature="0" />
    <path
       style="fill:#000000;fill-opacity:1;stroke:none"
       d="m 86.735915,1029.6965 1.313054,0 0,13.1303 -1.313054,0 z"
       id="rect11010"
       inkscape:connector-curvature="0" />
    <path
       style="fill:#000000;fill-opacity:1;stroke:none"
       d="m 89.362023,1029.6965 1.313043,0 0,13.1303 -1.313043,0 z"
       id="rect11012"
       inkscape:connector-curvature="0" />
    <path
       style="fill:#000000;fill-opacity:1;stroke:none"
       d="m 91.988121,1029.6965 1.313063,0 0,13.1303 -1.313063,0 z"
       id="rect11016"
       inkscape:connector-curvature="0" />
    <path
       style="fill:#000000;fill-opacity:1;stroke:none"
       d="m 94.614225,1029.6965 1.31306,0 0,13.1303 -1.31306,0 z"
       id="rect11018"
       inkscape:connector-curvature="0" />
    <path
       style="fill:#000000;fill-opacity:1;stroke:none"
       d="m 97.240353,1029.6965 1.313042,0 0,13.1303 -1.313042,0 z"
       id="rect11022"
       inkscape:connector-curvature="0" />
    <path
       style="fill:#000000;fill-opacity:1;stroke:none"
       d="m 99.866445,1029.6965 1.313065,0 0,13.1303 -1.313065,0 z"
       id="rect11024"
       inkscape:connector-curvature="0" />
    <path
       style="fill:#000000;fill-opacity:1;stroke:none"
       d="m 102.49255,1029.6965 1.31306,0 0,13.1303 -1.31306,0 z"
       id="rect11028"
       inkscape:connector-curvature="0" />
    <path
       style="fill:#000000;fill-opacity:1;stroke:none"
       d="m 105.11868,1029.6965 1.31303,0 0,13.1303 -1.31303,0 z"
       id="rect11030"
       inkscape:connector-curvature="0" />
    <path
       style="fill:#000000;fill-opacity:1;stroke:none"
       d="m 107.74477,1029.6965 1.31305,0 0,13.1303 -1.31305,0 z"
       id="rect11034"
       inkscape:connector-curvature="0" />
    <path
       style="font-size:medium;font-style:normal;font-variant:normal;font-weight:normal;font-stretch:normal;text-indent:0;text-align:start;text-decoration:none;line-height:normal;letter-spacing:normal;word-spacing:normal;text-transform:none;direction:ltr;block-progression:tb;writing-mode:lr-tb;text-anchor:start;baseline-shift:baseline;color:#000000;fill:#866a81;fill-opacity:1;fill-rule:nonzero;stroke:none;stroke-width:2;marker:none;visibility:visible;display:inline;overflow:visible;enable-background:accumulate;font-family:Sans;-inkscape-font-specification:Sans"
       d="m 58.583243,889.76229 c -2.811993,0 -5.033374,2.22133 -5.033374,5.03337 l 0,151.00104 c 0,2.812 2.221381,5.0336 5.033374,5.0336 l 118.174807,0 c 2.81203,0 5.03336,-2.2216 5.03336,-5.0336 l 0,-151.00104 c 0,-2.81203 -2.22133,-5.03337 -5.03336,-5.03337 l -118.174807,0 z m 0,0.43769 118.174807,0 c 2.58305,0 4.59567,2.01265 4.59567,4.59568 l 0,151.00104 c 0,2.583 -2.01262,4.5957 -4.59567,4.5957 l -118.174807,0 c -2.58302,0 -4.595691,-2.0127 -4.595691,-4.5957 l 0,-151.00104 c 0,-2.58303 2.012671,-4.59568 4.595691,-4.59568 z"
       id="rect10598"
       inkscape:connector-curvature="0" />
    <path
       style="color:#000000;fill:#000000;fill-opacity:0.39215686;stroke:none;overflow:visible"
       d="m 160.53226,888.23473 0,149.55197 c 0,5.8701 4.72792,10.5889 10.59789,10.5889 l 11.6712,0 c 0.33634,-0.7908 0.52313,-1.6632 0.52313,-2.5795 l 0,-151.00419 c 0,-3.63717 -2.92902,-6.55718 -6.56616,-6.55718 l -16.22606,0 z"
       id="rect14603"
       inkscape:connector-curvature="0" />
    <path
       style="color:#000000;fill:#483042;fill-opacity:1;stroke:none;overflow:visible"
       d="m 184.31787,855.58631 293.08652,0 c 5.86995,0 10.59561,4.72564 10.59561,10.59561 l 0,164.23198 c 0,5.8698 -4.72564,10.5954 -10.59561,10.5954 l -293.08652,0 c -5.86996,0 -10.59563,-4.7256 -10.59563,-10.5954 l 0,-164.23198 c 0,-5.86997 4.72567,-10.59561 10.59563,-10.59561 z"
       id="rect10710"
       inkscape:connector-curvature="0"
       sodipodi:nodetypes="sssssssss" />
    <path
       style="color:#000000;fill:url(#radialGradient15502);fill-opacity:1;stroke:none;overflow:visible"
       d="m 184.84766,860.88412 292.02678,0 c 3.2285,0 5.82761,2.59911 5.82761,5.82759 l 0,163.17249 c 0,3.2282 -2.59911,5.8274 -5.82761,5.8274 l -292.02678,0 c -3.22846,0 -5.82758,-2.5992 -5.82758,-5.8274 l 0,-163.17249 c 0,-3.22848 2.59912,-5.82759 5.82758,-5.82759 z"
       id="rect10712"
       inkscape:connector-curvature="0"
       sodipodi:nodetypes="sssssssss" />
    <path
       inkscape:connector-curvature="0"
       style="font-size:medium;font-style:normal;font-variant:normal;font-weight:normal;font-stretch:normal;text-indent:0;text-align:start;text-decoration:none;line-height:normal;letter-spacing:normal;word-spacing:normal;text-transform:none;direction:ltr;block-progression:tb;writing-mode:lr-tb;text-anchor:start;baseline-shift:baseline;color:#000000;fill:#d070b8;fill-opacity:1;fill-rule:nonzero;stroke:none;stroke-width:2;marker:none;visibility:visible;display:inline;overflow:visible;enable-background:accumulate;font-family:Sans;-inkscape-font-specification:Sans"
       d="m 184.84987,860.34213 c -3.51279,0 -6.35737,2.84455 -6.35737,6.35737 l 0,163.1723 c 0,3.5128 2.84458,6.3574 6.35737,6.3574 l 292.02004,0 c 3.51277,0 6.35737,-2.8446 6.35737,-6.3574 l 0,-163.1723 c 0,-3.51282 -2.8446,-6.35737 -6.35737,-6.35737 z m 0,0.54634 292.02004,0 c 3.22845,0 5.82757,2.5991 5.82757,5.82758 l 0,163.17235 c 0,3.2284 -2.59912,5.8276 -5.82757,5.8276 l -292.02004,0 c -3.22849,0 -5.82757,-2.5992 -5.82757,-5.8276 l 0,-163.17235 c 0,-3.22848 2.59908,-5.82758 5.82757,-5.82758 z"
       id="path10715"
       sodipodi:nodetypes="ssssssssssssssssss" />
    <path
       style="font-size:medium;font-style:normal;font-variant:normal;font-weight:normal;font-stretch:normal;text-indent:0;text-align:start;text-decoration:none;line-height:normal;letter-spacing:normal;word-spacing:normal;text-transform:none;direction:ltr;block-progression:tb;writing-mode:lr-tb;text-anchor:start;baseline-shift:baseline;color:#000000;fill:#97317d;fill-opacity:1;fill-rule:nonzero;stroke:none;stroke-width:2.25930715;marker:none;visibility:visible;display:inline;overflow:visible;enable-background:accumulate;font-family:Sans;-inkscape-font-specification:Sans"
       d="m 330.53138,860.88769 0,73.22013 0.32472,0.48703 0.33374,-0.49606 0,-73.2111 -0.65846,0 z m 0.33375,101.10834 -0.33375,0.49608 0,73.22019 0.65846,0 0,-73.22922 -0.32471,-0.48705 z"
       id="path14730"
       inkscape:connector-curvature="0" />
    <path
       style="fill:url(#linearGradient15735);fill-opacity:1;stroke:none"
       d="m 368.02686,913.93487 c 18.97816,0 34.36301,15.38463 34.36301,34.36299 0,18.97797 -15.38485,34.36299 -34.36301,34.36299 -11.6121,0 -21.87132,-5.76422 -28.09182,-14.58263 l -4.93969,-7.40969 3.39335,-5.09004 0.73022,-1.09514 1.3101,1.95424 5.17598,7.75316 c 4.98098,7.01725 13.16141,11.59748 22.42186,11.59748 15.18253,0 27.49038,-12.30795 27.49038,-27.49037 0,-15.18244 -12.30785,-27.49039 -27.49038,-27.49039 -9.26045,0 -17.44088,4.58038 -22.42186,11.59751 l -23.81794,35.67324 c -6.22046,8.81841 -16.4797,14.58263 -28.09177,14.58263 -18.97816,0 -34.36303,-15.38502 -34.36303,-34.36299 0,-18.97816 15.38487,-34.36299 34.36303,-34.36299 11.61207,0 21.87131,5.76439 28.09177,14.58276 l 4.93968,7.40953 -4.12357,6.18534 -6.48602,-9.70752 c -4.98098,-7.01713 -13.1614,-11.59751 -22.42186,-11.59751 -15.18253,0 -27.49041,12.30795 -27.49041,27.49039 0,15.18242 12.30788,27.49037 27.49041,27.49037 9.26046,0 17.44088,-4.58023 22.42186,-11.59748 l 23.81789,-35.67312 c 6.2205,-8.81837 16.47972,-14.58276 28.09182,-14.58276 z"
       id="path161655"
       inkscape:connector-curvature="0" />
    <path
       style="fill:url(#linearGradient15803);fill-opacity:1;stroke:none"
       d="m 441.78475,1043.0344 c 5.00349,-3.284 10.71397,-6.5971 16.69894,-6.5971 5.98493,0 11.69541,3.3131 16.6989,6.5971 1.13747,0.7466 2.88624,1.2873 2.88624,2.8863 l 0,3.5553 c 0,1.599 -1.28726,2.8862 -2.88624,2.8862 l -33.39784,0 c -1.59897,0 -2.88624,-1.2872 -2.88624,-2.8862 l 0,-3.5553 c 0,-1.599 1.74877,-2.1397 2.88624,-2.8863 z"
       id="rect15586"
       inkscape:connector-curvature="0"
       sodipodi:nodetypes="ssssssssss" />
    <rect
       y="866.20392"
       x="184.54109"
       height="4.3641839"
       width="11.637824"
       id="rect7550"
       style="color:#000000;fill:#c67ab3;fill-opacity:1;stroke:none;overflow:visible"
       rx="2.1820917"
       ry="2.182092" />
    <rect
       y="874.93243"
       x="184.54109"
       height="4.3641839"
       width="11.637824"
       id="rect7552"
       style="color:#000000;fill:#c67ab3;fill-opacity:1;stroke:none;overflow:visible"
       rx="2.1820917"
       ry="2.182092" />
    <rect
       y="883.66077"
       x="184.54109"
       height="4.3641839"
       width="11.637824"
       id="rect7554"
       style="color:#000000;fill:#c67ab3;fill-opacity:1;stroke:none;overflow:visible"
       rx="2.1820917"
       ry="2.182092" />
    <rect
       y="892.38904"
       x="184.54109"
       height="4.3641839"
       width="11.637824"
       id="rect7556"
       style="color:#000000;fill:#c67ab3;fill-opacity:1;stroke:none;overflow:visible"
       rx="2.1820917"
       ry="2.182092" />
    <rect
       ry="2.182092"
       rx="2.1820917"
       style="color:#000000;fill:#c67ab3;fill-opacity:1;stroke:none;overflow:visible"
       id="rect7558"
       width="11.637824"
       height="4.3641839"
       x="184.54109"
       y="901.11755" />
    <rect
       ry="2.182092"
       rx="2.1820917"
       style="color:#000000;fill:#c67ab3;fill-opacity:1;stroke:none;overflow:visible"
       id="rect7560"
       width="11.637824"
       height="4.3641839"
       x="184.54109"
       y="909.84576" />
    <rect
       ry="2.182092"
       rx="2.1820917"
       style="color:#000000;fill:#c67ab3;fill-opacity:1;stroke:none;overflow:visible"
       id="rect7562"
       width="11.637824"
       height="4.3641839"
       x="184.54109"
       y="918.57422" />
    <rect
       ry="2.182092"
       rx="2.1820917"
       style="color:#000000;fill:#c67ab3;fill-opacity:1;stroke:none;overflow:visible"
       id="rect7564"
       width="11.637824"
       height="4.3641839"
       x="184.54109"
       y="927.30255" />
    <rect
       y="936.03101"
       x="184.54109"
       height="4.3641839"
       width="11.637824"
       id="rect7566"
       style="color:#000000;fill:#c67ab3;fill-opacity:1;stroke:none;overflow:visible"
       rx="2.1820917"
       ry="2.182092" />
    <rect
       y="944.75928"
       x="184.54109"
       height="4.3641839"
       width="11.637824"
       id="rect7568"
       style="color:#000000;fill:#c67ab3;fill-opacity:1;stroke:none;overflow:visible"
       rx="2.1820917"
       ry="2.182092" />
    <rect
       y="953.48767"
       x="184.54109"
       height="4.3641839"
       width="11.637824"
       id="rect7570"
       style="color:#000000;fill:#c67ab3;fill-opacity:1;stroke:none;overflow:visible"
       rx="2.1820917"
       ry="2.182092" />
    <rect
       y="962.21606"
       x="184.54109"
       height="4.3641839"
       width="11.637824"
       id="rect7572"
       style="color:#000000;fill:#c67ab3;fill-opacity:1;stroke:none;overflow:visible"
       rx="2.1820917"
       ry="2.182092" />
    <rect
       ry="2.182092"
       rx="2.1820917"
       style="color:#000000;fill:#d939b1;fill-opacity:1;stroke:none;overflow:visible"
       id="rect7588"
       width="82.173691"
       height="4.3641839"
       x="203.8689"
       y="866.20392" />
    <rect
       y="874.93243"
       x="214.15538"
       height="4.3641839"
       width="30.447392"
       id="rect7590"
       style="color:#000000;fill:#f4c4e8;fill-opacity:1;stroke:none;overflow:visible"
       rx="2.1820917"
       ry="2.182092" />
    <rect
       ry="2.182092"
       rx="2.1820917"
       style="color:#000000;fill:#d939b1;fill-opacity:1;stroke:none;overflow:visible"
       id="rect7592"
       width="19.573111"
       height="4.3641839"
       x="248.24773"
       y="874.93243" />
    <rect
       ry="2.182092"
       rx="2.1820917"
       style="color:#000000;fill:#d939b1;fill-opacity:1;stroke:none;overflow:visible"
       id="rect7594"
       width="15.752416"
       height="4.3641839"
       x="221.50284"
       y="883.66077" />
    <rect
       y="883.66077"
       x="240.60628"
       height="4.3641839"
       width="37.500977"
       id="rect7596"
       style="color:#000000;fill:#d939b1;fill-opacity:1;stroke:none;overflow:visible"
       rx="2.1820917"
       ry="2.182092" />
    <rect
       y="892.38904"
       x="221.50284"
       height="4.3641839"
       width="34.855881"
       id="rect7598"
       style="color:#000000;fill:#d939b1;fill-opacity:1;stroke:none;overflow:visible"
       rx="2.1820917"
       ry="2.182092" />
    <rect
       ry="2.182092"
       rx="2.1820917"
       style="color:#000000;fill:#f4c4e8;fill-opacity:1;stroke:none;overflow:visible"
       id="rect7600"
       width="48.375252"
       height="4.3641839"
       x="260.00372"
       y="892.38904" />
    <rect
       y="901.11755"
       x="221.50284"
       height="4.3641839"
       width="15.752416"
       id="rect7602"
       style="color:#000000;fill:#f4c4e8;fill-opacity:1;stroke:none;overflow:visible"
       rx="2.1820917"
       ry="2.182092" />
    <rect
       ry="2.182092"
       rx="2.1820917"
       style="color:#000000;fill:#d939b1;fill-opacity:1;stroke:none;overflow:visible"
       id="rect7604"
       width="38.970467"
       height="4.3641839"
       x="240.31244"
       y="901.11755" />
    <rect
       ry="2.182092"
       rx="2.1820917"
       style="color:#000000;fill:#d939b1;fill-opacity:1;stroke:none;overflow:visible"
       id="rect7606"
       width="16.928015"
       height="4.3641839"
       x="214.15538"
       y="909.84576" />
    <rect
       y="909.84576"
       x="233.84665"
       height="4.3641839"
       width="28.977892"
       id="rect7608"
       style="color:#000000;fill:#d939b1;fill-opacity:1;stroke:none;overflow:visible"
       rx="2.1820917"
       ry="2.182092" />
    <rect
       y="918.57422"
       x="203.8689"
       height="4.3641839"
       width="40.439968"
       id="rect7610"
       style="color:#000000;fill:#d939b1;fill-opacity:1;stroke:none;overflow:visible"
       rx="2.1820917"
       ry="2.182092" />
    <rect
       ry="2.182092"
       rx="2.1820917"
       style="color:#000000;fill:#d939b1;fill-opacity:1;stroke:none;overflow:visible"
       id="rect7624"
       width="18.103615"
       height="4.3641839"
       x="282.34003"
       y="883.66077" />
    <rect
       ry="2.182092"
       rx="2.1820917"
       style="color:#000000;fill:#d939b1;fill-opacity:1;stroke:none;overflow:visible"
       id="rect7626"
       width="15.458522"
       height="4.3641839"
       x="203.8689"
       y="936.03101" />
    <rect
       y="936.03101"
       x="222.0907"
       height="4.3641839"
       width="8.4049349"
       id="rect7628"
       style="color:#000000;fill:#d939b1;fill-opacity:1;stroke:none;overflow:visible"
       rx="2.1820917"
       ry="2.182092" />
    <rect
       ry="2.182092"
       rx="2.1820917"
       style="color:#000000;fill:#d939b1;fill-opacity:1;stroke:none;overflow:visible"
       id="rect7636"
       width="28.096197"
       height="4.3641839"
       x="214.15538"
       y="944.75928" />
    <rect
       ry="2.182092"
       rx="2.1820917"
       style="color:#000000;fill:#d939b1;fill-opacity:1;stroke:none;overflow:visible"
       id="rect7642"
       width="11.343926"
       height="4.3641839"
       x="221.50284"
       y="953.48767" />
    <rect
       ry="2.182092"
       rx="2.1820915"
       style="color:#000000;fill:#f4c4e8;fill-opacity:1;stroke:none;overflow:visible"
       id="rect7648"
       width="19.14282"
       height="4.3641839"
       x="230.31987"
       y="962.21606" />
    <g
       id="g10591"
       transform="matrix(0.25450573,0,0,0.25450573,-61.071586,866.91631)">
      <path
         id="path101"
         transform="translate(0,369.36218)"
         d="m 1144.375,54.40625 c -49.4436,0 -49.4375,22.46875 -49.4375,22.46875 l 0,22.46875 49.4375,0 0,9 -80.9062,0 c 0,0 -22.4688,-0.006 -22.4688,49.4375 0,49.44365 22.4688,49.4375 22.4688,49.4375 l 22.4687,0 0,-22.46875 c 0,-17.97951 13.4893,-31.46875 31.4687,-31.46875 l 53.9063,0 c 13.5143,0 22.5015,-8.98707 22.6875,-22.6875 0.1861,-13.70048 -0.1875,-53.71875 -0.1875,-53.71875 0,0 0.01,-22.46875 -49.4375,-22.46875 z M 1117.4062,67.875 c 4.965,0 9,4.035095 9,9 0,4.964905 -4.035,8.96875 -9,8.96875 -4.9649,0 -9,-4.003845 -9,-8.96875 0,-4.964905 4.0351,-9 9,-9 z"
         style="fill:#d939b1;fill-opacity:1;display:inline"
         inkscape:connector-curvature="0" />
      <path
         id="path102"
         transform="translate(0,369.36218)"
         d="m 1202.8125,108.34375 0,22.46875 c 0,17.97951 -13.4893,31.46875 -31.4687,31.46875 l -53.9376,0 c -13.4846,0 -22.4687,8.98412 -22.4687,22.46875 l 0,53.9375 c 0,0 -0.01,22.46875 49.4375,22.46875 49.4437,0 49.4375,-22.46875 49.4375,-22.46875 l 0,-22.46875 -49.4375,0 0,-9 80.9062,0 c 0,0 22.4688,0.006 22.4688,-49.4375 0,-49.44366 -22.4688,-49.4375 -22.4688,-49.4375 l -22.4687,0 z m -31.4687,121.34375 c 4.9649,0 9,4.0351 9,9 0,4.9649 -4.0351,9 -9,9 -4.965,0 -8.9688,-4.0351 -8.9688,-9 0,-4.9649 4.0038,-9 8.9688,-9 z"
         style="fill:#f4c4e8;fill-opacity:1;display:inline"
         inkscape:connector-curvature="0" />
    </g>
    <path
       style="fill:#483042;fill-opacity:1;stroke:none"
       d="m 219.21299,1042.5039 c -0.1599,0 -0.28863,0.1286 -0.28863,0.2887 l 0,2.0654 12.88884,0 0,-2.0654 c 0,-0.1601 -0.12872,-0.2887 -0.28862,-0.2887 l -12.31159,0 z m 14.6296,0 c -0.1599,0 -0.28863,0.1286 -0.28863,0.2887 l 0,2.0654 12.87982,0 0,-2.0654 c 0,-0.1601 -0.12872,-0.2887 -0.28862,-0.2887 l -12.30257,0 z m 14.62057,0 c -0.1599,0 -0.28862,0.1286 -0.28862,0.2887 l 0,2.0654 12.88883,0 0,-2.0654 c 0,-0.1601 -0.12873,-0.2887 -0.28861,-0.2887 l -12.3116,0 z m 14.6296,0 c -0.15989,0 -0.28862,0.1286 -0.28862,0.2887 l 0,2.0654 12.88883,0 0,-2.0654 c 0,-0.1601 -0.12874,-0.2887 -0.28863,-0.2887 l -12.31158,0 z m 14.6296,0 c -0.15989,0 -0.28862,0.1286 -0.28862,0.2887 l 0,2.0654 71.22682,0 0,-2.0654 c 0,-0.1601 -0.12863,-0.2887 -0.28863,-0.2887 l -70.64957,0 z m 72.96758,0 c -0.15989,0 -0.28861,0.1286 -0.28861,0.2887 l 0,2.0654 12.8798,0 0,-2.0654 c 0,-0.1601 -0.12871,-0.2887 -0.28861,-0.2887 l -12.30258,0 z m 14.62059,0 c -0.16002,0 -0.28862,0.1286 -0.28862,0.2887 l 0,2.0654 12.88883,0 0,-2.0654 c 0,-0.1601 -0.12874,-0.2887 -0.28864,-0.2887 l -12.31157,0 z m 14.62958,0 c -0.15982,0 -0.28863,0.1286 -0.28863,0.2887 l 0,2.0654 12.87982,0 0,-2.0654 c 0,-0.1601 -0.12862,-0.2887 -0.28862,-0.2887 l -12.30257,0 z m 14.62058,0 c -0.15991,0 -0.28861,0.1286 -0.28861,0.2887 l 0,2.0654 12.88884,0 0,-2.0654 c 0,-0.1601 -0.12882,-0.2887 -0.28861,-0.2887 l -12.31162,0 z m 14.6296,0 c -0.15989,0 -0.28864,0.1286 -0.28864,0.2887 l 0,2.0654 12.88883,0 0,-2.0654 c 0,-0.1601 -0.12861,-0.2887 -0.28862,-0.2887 l -12.31157,0 z"
       id="rect15739"
       inkscape:connector-curvature="0" />
    <rect
       style="fill:#51454d;fill-opacity:1;stroke:none"
       id="rect14728"
       width="216.46748"
       height="7.5042067"
       x="212.12302"
       y="1044.8582"
       rx="2.3089867"
       ry="2.3089867" />
    <g
       id="g15853"
       transform="matrix(0.28862332,0,0,0.28862332,52.018911,748.62594)">
      <path
         sodipodi:nodetypes="ssccsss"
         id="rect15811"
         d="m 1021.9981,842.12111 c -4.432,0 -8,3.568 -8,8 l 0,144.55357 89.9062,0 0,-144.55357 c 0,-4.432 -3.5679,-8 -8,-8 z"
         style="fill:#f4c4e8;fill-opacity:1;stroke:none"
         inkscape:connector-curvature="0" />
      <path
         sodipodi:nodetypes="ssccsss"
         id="rect15813"
         d="m 1135.467,865.34101 c -4.4321,0 -8,3.568 -8,8 l 0,121.33367 89.9061,0 0,-121.33367 c 0,-4.432 -3.5679,-8 -8,-8 z"
         style="fill:#ff7ddf;fill-opacity:1;stroke:none"
         inkscape:connector-curvature="0" />
      <path
         sodipodi:nodetypes="ssccsss"
         id="rect15815"
         d="m 1248.9356,732.13976 c -4.432,0 -8,3.568 -8,8 l 0,254.53492 89.9064,0 0,-254.53492 c 0,-4.432 -3.568,-8 -8,-8 z"
         style="fill:#d939b1;fill-opacity:1;stroke:none"
         inkscape:connector-curvature="0" />
      <path
         id="rect15817"
         d="m 1362.4356,632.14343 c -4.432,0 -8,3.568 -8,8 l 0,354.53125 89.875,0 0,-354.53125 c 0,-4.432 -3.5679,-8 -8,-8 l -73.875,0 z"
         style="fill:#a83ea2;fill-opacity:1;stroke:none"
         inkscape:connector-curvature="0" />
    </g>
    <rect
       y="962.21606"
       x="203.8689"
       height="4.3641839"
       width="22.682699"
       id="rect15845"
       style="color:#000000;fill:#d939b1;fill-opacity:1;stroke:none;overflow:visible"
       rx="2.1820917"
       ry="2.182092" />
    <rect
       y="876.40833"
       x="349.65927"
       height="6.5474563"
       width="114.24459"
       id="rect15849"
       style="color:#000000;fill:#d939b1;fill-opacity:1;stroke:none;overflow:visible"
       rx="3.0337222"
       ry="3.2737281" />
    <rect
       ry="3.2737281"
       rx="3.2737272"
       style="color:#000000;fill:#f4c4e8;fill-opacity:1;stroke:none;overflow:visible"
       id="rect15851"
       width="67.837395"
       height="6.5474563"
       x="372.86282"
       y="888.62854" />
    <rect
       ry="2.182092"
       rx="2.1820917"
       style="color:#000000;fill:#f4c4e8;fill-opacity:1;stroke:none;overflow:visible"
       id="rect15882"
       width="18.490139"
       height="4.3641839"
       x="208.17676"
       y="927.30255" />
  </g>
</svg>
