<?xml version="1.0" encoding="UTF-8" standalone="no"?>
<!-- Created with Inkscape (http://www.inkscape.org/) -->

<svg
   xmlns:dc="http://purl.org/dc/elements/1.1/"
   xmlns:cc="http://creativecommons.org/ns#"
   xmlns:rdf="http://www.w3.org/1999/02/22-rdf-syntax-ns#"
   xmlns:svg="http://www.w3.org/2000/svg"
   xmlns="http://www.w3.org/2000/svg"
   xmlns:xlink="http://www.w3.org/1999/xlink"
   xmlns:sodipodi="http://sodipodi.sourceforge.net/DTD/sodipodi-0.dtd"
   xmlns:inkscape="http://www.inkscape.org/namespaces/inkscape"
   width="290"
   height="140"
   id="svg7785"
   version="1.1"
   inkscape:version="0.48.5 r10040"
   sodipodi:docname="graphic-unlimited.svg">
  <defs
     id="defs7787">
    <linearGradient
       id="linearGradient161798">
      <stop
         style="stop-color:#d8276b;stop-opacity:1;"
         offset="0"
         id="stop161800" />
      <stop
         style="stop-color:#ec6c78;stop-opacity:1;"
         offset="1"
         id="stop161802" />
    </linearGradient>
    <linearGradient
       inkscape:collect="always"
       xlink:href="#linearGradient161798"
       id="linearGradient161804"
       x1="0"
       y1="330"
       x2="208.15625"
       y2="330"
       gradientUnits="userSpaceOnUse"
       gradientTransform="matrix(0.80000081,0,0,0.80000081,57.403633,720.78468)" />
    <linearGradient
       inkscape:collect="always"
       xlink:href="#linearGradient161798"
       id="linearGradient161828"
       gradientUnits="userSpaceOnUse"
       gradientTransform="matrix(0.80000081,0,0,0.80000081,57.403633,720.78468)"
       x1="0"
       y1="330"
       x2="208.15625"
       y2="330" />
  </defs>
  <sodipodi:namedview
     id="base"
     pagecolor="#ffffff"
     bordercolor="#666666"
     borderopacity="1.0"
     inkscape:pageopacity="0.0"
     inkscape:pageshadow="2"
     inkscape:zoom="1"
     inkscape:cx="201.14765"
     inkscape:cy="-42.635003"
     inkscape:document-units="px"
     inkscape:current-layer="layer1"
     showgrid="false"
     inkscape:showpageshadow="false"
     inkscape:window-width="3440"
     inkscape:window-height="1377"
     inkscape:window-x="1912"
     inkscape:window-y="-8"
     inkscape:window-maximized="1"
     inkscape:object-paths="false"
     inkscape:snap-bbox="true"
     inkscape:object-nodes="true"
     inkscape:bbox-nodes="true"
     inkscape:snap-smooth-nodes="true" />
  <metadata
     id="metadata7790">
    <rdf:RDF>
      <cc:Work
         rdf:about="">
        <dc:format>image/svg+xml</dc:format>
        <dc:type
           rdf:resource="http://purl.org/dc/dcmitype/StillImage" />
        <dc:title></dc:title>
      </cc:Work>
    </rdf:RDF>
  </metadata>
  <g
     inkscape:label="Layer 1"
     inkscape:groupmode="layer"
     id="layer1"
     transform="translate(0,-912.36218)">
    <rect
       style="fill:#ffffff;fill-opacity:0;stroke:none"
       id="rect161817"
       width="290"
       height="140"
       x="0"
       y="912.36218" />
    <g
       id="g161819"
       transform="translate(4.3337735,-2.4228174)">
      <path
         inkscape:connector-curvature="0"
         id="path161655"
         d="m 97.403677,944.785 c -22.091415,0 -40.000044,17.90845 -40.000044,39.99985 0,22.09135 17.908629,40.00015 40.000044,40.00015 13.516943,0 25.459123,-6.7099 32.700043,-16.9749 l 5.75,-8.62515 -3.95,-5.92497 -0.85001,-1.27491 -1.525,2.2749 -6.02501,9.02503 c -5.7981,8.1684 -15.32045,13.5 -26.100023,13.5 -17.673132,0 -32.000036,-14.327 -32.000036,-32.00015 0,-17.67298 14.326904,-31.99998 32.000036,-31.99998 10.779573,0 20.301923,5.3318 26.100023,13.50003 l 27.72503,41.5252 c 7.24091,10.265 19.18309,16.9749 32.70004,16.9749 22.09141,0 40.00005,-17.9088 40.00005,-40.00015 0,-22.09122 -17.90864,-39.99985 -40.00005,-39.99985 -13.51695,0 -25.45913,6.70997 -32.70004,16.97491 l -5.75,8.62501 4.80001,7.20005 7.54999,-11.30007 c 5.79811,-8.16823 15.32047,-13.50003 26.10004,-13.50003 17.67313,0 32.00003,14.327 32.00003,31.99998 0,17.67315 -14.3269,32.00015 -32.00003,32.00015 -10.77957,0 -20.30193,-5.3316 -26.10004,-13.5 L 130.10372,961.75991 C 122.8628,951.49497 110.92062,944.785 97.403677,944.785 z"
         style="fill:url(#linearGradient161828);fill-opacity:1;stroke:none" />
      <path
         inkscape:connector-curvature="0"
         id="path161738"
         d="m 130.10372,961.75991 1.2,1.79998 c -0.38527,-0.61432 -0.78287,-1.20864 -1.2,-1.79998 z"
         style="fill:#aeaeae;fill-opacity:1;stroke:none" />
      <path
         inkscape:connector-curvature="0"
         id="path161736"
         d="m 130.10372,1007.8099 c 0.41713,-0.5911 0.81473,-1.1855 1.2,-1.7999 l -1.2,1.7999 z"
         style="fill:#aeaeae;fill-opacity:1;stroke:none" />
      <g
         transform="matrix(0.80000081,0,0,0.80000081,57.403633,182.89435)"
         id="text161768"
         style="font-size:40px;font-style:normal;font-variant:normal;font-weight:normal;font-stretch:normal;text-align:start;line-height:125%;letter-spacing:0px;word-spacing:0px;writing-mode:lr-tb;text-anchor:start;fill:#d8276b;fill-opacity:1;stroke:none;font-family:FontAwesome;-inkscape-font-specification:FontAwesome">
        <path
           inkscape:connector-curvature="0"
           id="path161810"
           d="m 67.187288,1003.0543 c 0.345959,-0.2 0.518954,-0.4307 0.518986,-0.692 -3.1e-5,-0.2614 -0.173026,-0.492 -0.518986,-0.692 L 37.543753,985.1967 c -0.354828,-0.18412 -0.649663,-0.20644 -0.884508,-0.067 -0.234845,0.13954 -0.356685,0.4074 -0.365521,0.80359 l 0,32.85791 c 0.0088,0.3962 0.130676,0.6641 0.365522,0.8036 0.234845,0.1395 0.52968,0.1172 0.884507,-0.067 z" />
      </g>
      <path
         inkscape:connector-curvature="0"
         id="path161815"
         d="m 194.30871,980.88284 c -0.10181,-2.94184 -1.49439,-5.38843 -4.17772,-7.3396 -2.68341,-1.95117 -6.04704,-2.96366 -10.09088,-3.03759 -4.04388,0.0733 -7.40749,1.08642 -10.09085,3.03759 -2.6834,1.95117 -4.07597,4.39776 -4.17773,7.3396 0.0194,1.65593 0.50753,3.18279 1.46436,4.58044 0.9568,1.39764 2.26575,2.57997 3.92687,3.54682 -0.35088,0.82046 -0.73341,1.47991 -1.14766,1.97882 -0.41422,0.49857 -0.82211,0.96051 -1.22367,1.38582 -0.1195,0.12822 -0.22506,0.26177 -0.31669,0.40016 -0.0916,0.13822 -0.12117,0.30241 -0.0886,0.49158 0,0 0,0 0,0 0.0346,0.17535 0.11231,0.31623 0.23308,0.42298 0.12076,0.10657 0.25926,0.16152 0.4155,0.16486 0.0202,0 0.0405,0 0.0608,0 0.61142,-0.0782 1.19242,-0.18568 1.74303,-0.32423 1.02521,-0.26394 2.0099,-0.61265 2.95406,-1.04628 0.94414,-0.43363 1.8376,-0.94969 2.68042,-1.54785 1.13837,0.20932 2.32742,0.3174 3.56715,0.32406 4.04384,-0.0733 7.40746,-1.08624 10.09086,-3.03759 2.68336,-1.95101 4.07594,-4.39777 4.17772,-7.33943 z"
         style="font-size:40px;font-style:normal;font-variant:normal;font-weight:normal;font-stretch:normal;text-align:start;line-height:125%;letter-spacing:0px;word-spacing:0px;writing-mode:lr-tb;text-anchor:start;fill:#d8276b;fill-opacity:1;stroke:none;font-family:FontAwesome;-inkscape-font-specification:FontAwesome" />
      <path
         inkscape:connector-curvature="0"
         id="path161807"
         d="m 202.09157,986.07142 c -0.0216,-1.70771 -0.53588,-3.27321 -1.54291,-4.69717 -1.00709,-1.42379 -2.3777,-2.61444 -4.11184,-3.57213 0.30737,0.99649 0.46277,2.02345 0.46617,3.08072 -0.008,1.82611 -0.45902,3.54465 -1.35542,5.15562 -0.89647,1.6108 -2.19444,3.04058 -3.89396,4.28918 -1.58599,1.14003 -3.36957,2.01162 -5.35073,2.61445 -1.9812,0.60315 -4.06879,0.90707 -6.26277,0.91206 -0.59453,-0.0166 -1.18907,-0.0333 -1.78358,-0.0799 1.27772,0.83862 2.73024,1.49222 4.35761,1.96102 1.62731,0.46879 3.3636,0.70686 5.20884,0.71438 1.2397,-0.0166 2.42873,-0.1149 3.56715,-0.32426 0.84277,0.59835 1.73625,1.11423 2.68041,1.54788 0.94412,0.43377 1.92881,0.78232 2.95405,1.04641 0.55058,0.13827 1.13159,0.24669 1.74303,0.32427 0.16634,0.0166 0.31497,-0.0321 0.44591,-0.14155 0.13085,-0.10991 0.21869,-0.25927 0.26347,-0.446 -3e-5,0 -3e-5,0 0,0 0.0324,-0.18898 0.003,-0.35298 -0.0887,-0.49136 -0.0916,-0.13822 -0.19722,-0.27196 -0.31668,-0.40035 -0.4016,-0.42534 -0.8095,-0.88723 -1.22368,-1.3856 -0.41426,-0.49878 -0.7968,-1.15839 -1.14766,-1.97888 1.66108,-0.96567 2.97006,-2.1455 3.92689,-3.53932 0.95678,-1.39382 1.4449,-2.92301 1.46436,-4.5881 z"
         style="font-size:40px;font-style:normal;font-variant:normal;font-weight:normal;font-stretch:normal;text-align:start;line-height:125%;letter-spacing:0px;word-spacing:0px;writing-mode:lr-tb;text-anchor:start;fill:#ec6c78;fill-opacity:1;stroke:none;font-family:FontAwesome;-inkscape-font-specification:FontAwesome" />
    </g>
  </g>
</svg>
