<?xml version="1.0" encoding="UTF-8" standalone="no"?>
<!-- Created with Inkscape (http://www.inkscape.org/) -->

<svg
   xmlns:dc="http://purl.org/dc/elements/1.1/"
   xmlns:cc="http://creativecommons.org/ns#"
   xmlns:rdf="http://www.w3.org/1999/02/22-rdf-syntax-ns#"
   xmlns:svg="http://www.w3.org/2000/svg"
   xmlns="http://www.w3.org/2000/svg"
   xmlns:sodipodi="http://sodipodi.sourceforge.net/DTD/sodipodi-0.dtd"
   xmlns:inkscape="http://www.inkscape.org/namespaces/inkscape"
   width="600"
   height="500"
   id="svg2"
   version="1.1"
   inkscape:version="0.48.5 r10040"
   sodipodi:docname="graphic-scholarship.svg">
  <defs
     id="defs4" />
  <sodipodi:namedview
     id="base"
     pagecolor="#ffffff"
     bordercolor="#666666"
     borderopacity="1.0"
     inkscape:pageopacity="0.0"
     inkscape:pageshadow="2"
     inkscape:zoom="0.7"
     inkscape:cx="207.56583"
     inkscape:cy="275.92843"
     inkscape:document-units="px"
     inkscape:current-layer="layer1"
     showgrid="false"
     inkscape:showpageshadow="false"
     inkscape:window-width="2277"
     inkscape:window-height="1361"
     inkscape:window-x="1921"
     inkscape:window-y="887"
     inkscape:window-maximized="0"
     showguides="true"
     inkscape:guide-bbox="true" />
  <metadata
     id="metadata7">
    <rdf:RDF>
      <cc:Work
         rdf:about="">
        <dc:format>image/svg+xml</dc:format>
        <dc:type
           rdf:resource="http://purl.org/dc/dcmitype/StillImage" />
        <dc:title></dc:title>
      </cc:Work>
    </rdf:RDF>
  </metadata>
  <g
     inkscape:label="Layer 1"
     inkscape:groupmode="layer"
     id="layer1"
     transform="translate(0,-552.36218)">
    <path
       inkscape:connector-curvature="0"
       id="path4059"
       d="m 425.31814,810.57326 c 0,69.21124 -56.10683,125.31807 -125.31814,125.31807 -69.21132,0 -125.31815,-56.10683 -125.31815,-125.31807 0,-69.21131 56.10683,-125.31814 125.31815,-125.31814 69.21131,0 125.31814,56.10683 125.31814,125.31814 z"
       style="fill:#ffffff;fill-opacity:0;stroke:none" />
    <path
       inkscape:connector-curvature="0"
       id="path4061"
       d="m 425.31814,810.57326 c 0,69.21124 -56.10683,125.31807 -125.31814,125.31807 -69.21132,0 -125.31815,-56.10683 -125.31815,-125.31807 0,-69.21131 56.10683,-125.31814 125.31815,-125.31814 69.21131,0 125.31814,56.10683 125.31814,125.31814 z"
       style="fill:#ffffff;fill-opacity:0;stroke:none" />
    <path
       inkscape:connector-curvature="0"
       id="path4063"
       d="m 299.99984,685.25507 c -69.20939,0 -125.31803,56.10874 -125.31803,125.31813 0,69.20939 56.10864,125.31813 125.31803,125.31813 38.61984,0 73.14569,-17.47887 96.13315,-44.9473 -21.13035,22.02311 -50.84317,35.7309 -83.77388,35.7309 -64.12297,0 -116.12529,-51.97874 -116.12529,-116.10173 0,-64.12298 52.00232,-116.10173 116.12529,-116.10173 32.90665,0 62.59922,13.68885 83.72665,35.68359 -22.98755,-27.43676 -57.49194,-44.89999 -96.08592,-44.89999 z"
       style="fill:#0096db;fill-opacity:1;stroke:none" />
    <path
       inkscape:connector-curvature="0"
       style="fill:#f686e3;fill-opacity:1;stroke:none"
       d="m 312.32964,700.81717 c 60.61488,0 109.75592,49.14105 109.75592,109.75603 0,60.61498 -49.14104,109.75603 -109.75592,109.75603 -33.82396,0 -64.06243,-15.30837 -84.19533,-39.36574 18.50628,19.28827 44.52944,31.29385 73.37086,31.29385 56.16006,0 101.70478,-45.52398 101.70478,-101.68414 0,-56.16017 -45.54472,-101.68413 -101.70478,-101.68413 -28.82027,0 -54.82559,11.98893 -73.32946,31.25234 20.13301,-24.02971 50.35252,-39.32424 84.15393,-39.32424 z"
       id="path4065" />
    <path
       id="path4069"
       d="m 337.17666,768.80071 c -13.12026,0 -23.46188,2.75953 -31.05448,8.23971 4.03231,4.84778 6.96377,10.60683 8.86328,17.10289 0.26773,-0.25197 0.53588,-0.51571 0.82073,-0.75508 4.74632,-3.98904 11.87384,-5.97447 21.37047,-5.97447 l 37.02906,0 0,-18.61305 -37.02906,0 z"
       style="font-size:114.44565582000000000px;font-style:normal;font-variant:normal;font-weight:normal;font-stretch:normal;text-align:start;line-height:125%;letter-spacing:0px;word-spacing:0px;writing-mode:lr-tb;text-anchor:start;fill:#f686e3;fill-opacity:1;stroke:none;font-family:NordiquePro-Semibold;-inkscape-font-specification:NordiquePro-Semibold"
       inkscape:connector-curvature="0" />
    <path
       id="path4071"
       d="m 317.74299,829.20269 0,17.00447 0,3.57826 c 5.61673,1.72106 12.08086,2.56038 19.43367,2.56038 l 37.02906,0 0,-18.61295 -37.02906,0 c -8.28718,0 -14.76392,-1.49251 -19.43367,-4.53016 z"
       style="font-size:114.44565582000000000px;font-style:normal;font-variant:normal;font-weight:normal;font-stretch:normal;text-align:start;line-height:125%;letter-spacing:0px;word-spacing:0px;writing-mode:lr-tb;text-anchor:start;fill:#f686e3;fill-opacity:1;stroke:none;font-family:NordiquePro-Semibold;-inkscape-font-specification:NordiquePro-Semibold"
       inkscape:connector-curvature="0" />
    <path
       id="path4073"
       d="m 267.58306,768.80071 c -12.65916,-10e-5 -22.80322,3.90239 -30.39792,11.68646 -7.5947,7.78397 -11.391,19.41802 -11.39111,34.86245 l 0,36.99618 18.61305,0 0,-36.99618 c 0,-9.49538 1.98606,-16.62478 5.97457,-21.37037 3.98862,-4.74601 9.73422,-7.12363 17.20141,-7.12363 7.4672,0 13.17992,2.37773 17.16864,7.12363 3.64044,4.33134 5.62398,10.65262 5.9417,18.94117 0.45616,11.57271 4.32231,20.91327 11.62082,28.03438 2.06725,2.01694 4.41778,3.77098 7.025,5.25236 l 0,-30.85754 c 0,-15.44443 -3.7963,-27.07837 -11.391,-34.86245 -7.5947,-7.78397 -17.70609,-11.68646 -30.36516,-11.68646 z"
       style="font-size:114.44565582000000000px;font-style:normal;font-variant:normal;font-weight:normal;font-stretch:normal;text-align:start;line-height:125%;letter-spacing:0px;word-spacing:0px;writing-mode:lr-tb;text-anchor:start;fill:#86d3f6;fill-opacity:1;stroke:none;font-family:NordiquePro-Semibold;-inkscape-font-specification:NordiquePro-Semibold"
       inkscape:connector-curvature="0" />
    <path
       style="fill:#706ae4;fill-opacity:1;stroke:none"
       d="m 219.8125,10.40625 -153.28125,127.25 108.9375,10.75 -12.34375,-40.3125 c 0,0 10.74122,-19.62074 59.28125,-34.5 36.91868,-11.3169 54.99524,-7.85137 61.5625,-5.5625 -10.57893,0.99503 -24.41391,3.53262 -42.25,9 -54.35735,16.6625 -66.9375,36.84375 -66.9375,36.84375 l 19.15625,62.59375 C 219.69357,146.73007 257.70187,127.875 300,127.875 c 11.09056,0 21.88889,1.33027 32.25,3.78125 l -7.46875,-24.34375 93.28125,-77.40625 -198.25,-19.5 z"
       transform="translate(0,542.36218)"
       id="path3934-1"
       inkscape:connector-curvature="0" />
    <g
       style="font-size:100.72787476000001000px;font-style:normal;font-variant:normal;font-weight:bold;font-stretch:normal;text-align:start;line-height:89.99999762000000200%;letter-spacing:-3.31727909999999990px;word-spacing:0px;writing-mode:lr-tb;text-anchor:start;fill:#f2f2f7;fill-opacity:1;stroke:none;font-family:Inter;-inkscape-font-specification:Inter Bold"
       id="text4051">
      <path
         d="m 42.102388,979.56826 14.844938,0 c -0.210216,-6.63172 -2.741007,-11.94221 -7.592382,-15.93148 -4.851482,-3.98913 -11.406499,-6.03552 -19.665069,-6.13918 -8.187843,0.0925 -14.830798,2.12546 -19.9288833,6.09894 -5.0981131,3.97362 -7.7078977,9.33329 -7.8293615,16.07904 0.042471,5.37239 1.8176015,9.67831 5.3253962,12.91778 3.5077726,3.23954 8.3860286,5.587 14.6347846,7.0424 l 7.976918,2.00314 c 4.006305,0.9182 7.073659,2.0688 9.202071,3.4519 2.128327,1.3832 3.210397,3.285 3.246214,5.7055 -0.06488,2.7231 -1.249794,4.8962 -3.554739,6.5192 -2.305032,1.6232 -5.448398,2.4548 -9.43011,2.4951 -4.087604,0 -7.42175,-0.9278 -10.002449,-2.7768 -2.580745,-1.8488 -4.027975,-4.6077 -4.341695,-8.2765 l -14.98802124359906,0 C 0.29063379,1016.6918 3.0360497,1022.679 8.2362557,1026.7188 c 5.2001813,4.0399 12.2917623,6.0654 21.2747643,6.0766 9.007526,-0.077 15.978381,-2.0605 20.912583,-5.9514 4.934094,-3.8908 7.442528,-9.2281 7.525309,-16.0119 -0.13495,-6.055 -2.208173,-10.811 -6.219674,-14.26817 -4.011613,-3.45708 -9.2595,-5.87906 -15.743679,-7.26597 l -6.581852,-1.57392 c -3.275306,-0.69153 -6.016251,-1.73187 -8.222845,-3.12102 -2.206643,-1.38905 -3.328955,-3.37732 -3.366937,-5.9648 0.01637,-2.40703 1.029883,-4.36251 3.040529,-5.86643 2.010596,-1.50381 4.919963,-2.27885 8.728108,-2.32511 3.725357,0.0202 6.666023,0.82056 8.822006,2.40112 2.155899,1.58069 3.388504,3.82084 3.69782,6.72046 z"
         id="path4438"
         inkscape:connector-curvature="0"
         style="fill:#f2f2f7;fill-opacity:1" />
      <path
         d="m 89.488399,1032.8312 c 7.37846,-0.095 13.207621,-2.0516 17.487511,-5.8709 4.27979,-3.8193 6.63024,-8.9331 7.05135,-15.3413 l -14.379916,0 c -0.480713,2.9482 -1.603025,5.2077 -3.36694,6.7786 -1.763991,1.571 -3.968372,2.3639 -6.61315,2.3788 -3.603204,-0.03 -6.448481,-1.4636 -8.535841,-4.3015 -2.087404,-2.8378 -3.153079,-6.9008 -3.197025,-12.1889 0.04618,-5.21807 1.116329,-9.23336 3.210439,-12.04588 2.094065,-2.81245 4.934871,-4.23434 8.522427,-4.26569 2.805749,0.0395 5.063787,0.88165 6.77412,2.52633 1.710258,1.64476 2.778914,3.8551 3.20597,6.63103 l 14.379916,0 c -0.41068,-6.43202 -2.79988,-11.5249 -7.1676,-15.27866 -4.36783,-3.75366 -10.182088,-5.67187 -17.442803,-5.75465 -8.416624,0.13048 -14.995489,2.75815 -19.736614,7.88302 -4.741147,5.12498 -7.152701,11.96467 -7.23467,20.5191 0.0693,8.4889 2.461482,15.2988 7.176545,20.4297 4.715042,5.1309 11.337129,7.7645 19.866281,7.9009 z"
         id="path4440"
         inkscape:connector-curvature="0"
         style="fill:#f2f2f7;fill-opacity:1" />
      <path
         d="m 135.80148,999.99347 c 0.0678,-3.56663 1.05895,-6.32397 2.97346,-8.27203 1.91446,-1.94799 4.45271,-2.93467 7.61474,-2.96005 3.11799,0.0246 5.52955,0.9681 7.23467,2.83038 1.70504,1.86236 2.56056,4.496 2.56656,7.9009 l 0,32.26543 15.23842,0 0,-34.98402 c -0.0604,-6.49536 -1.79084,-11.55098 -5.19126,-15.16687 -3.40052,-3.61579 -8.00155,-5.45203 -13.8031,-5.50873 -4.17406,0.0291 -7.63937,0.9547 -10.39593,2.77672 -2.75663,1.82214 -4.76427,4.36634 -6.02293,7.63263 l -0.64388,0 0,-28.00865 -14.80917,0 0,73.25892 15.23842,0 z"
         id="path4442"
         inkscape:connector-curvature="0"
         style="fill:#f2f2f7;fill-opacity:1" />
      <path
         d="m 205.02573,1032.8312 c 8.41955,-0.123 15.01034,-2.7298 19.77239,-7.8204 4.76194,-5.0907 7.18542,-11.9274 7.27044,-20.5102 -0.085,-8.63268 -2.50849,-15.49473 -7.27044,-20.58617 -4.76206,-5.09134 -11.35284,-7.69665 -19.77239,-7.81595 -8.4196,0.1193 -15.01039,2.72461 -19.77238,7.81595 -4.76201,5.09144 -7.18549,11.95349 -7.27044,20.58617 0.0849,8.5828 2.50843,15.4195 7.27044,20.5102 4.76199,5.0906 11.35278,7.6974 19.77238,7.8204 z m 0.0716,-11.8044 c -3.84913,-0.094 -6.74807,-1.6678 -8.69681,-4.7218 -1.9488,-3.0539 -2.92504,-7.0245 -2.92875,-11.9117 0.004,-4.88867 0.97996,-8.8652 2.92875,-11.92961 1.94874,-3.06434 4.84768,-4.64422 8.69681,-4.73965 3.7805,0.0954 6.6377,1.67531 8.57161,4.73965 1.93382,3.06441 2.90411,7.04094 2.91086,11.92961 -0.007,4.8872 -0.97704,8.8578 -2.91087,11.9117 -1.9339,3.054 -4.7911,4.6279 -8.5716,4.7218 z"
         id="path4444"
         inkscape:connector-curvature="0"
         style="fill:#f2f2f7;fill-opacity:1" />
      <path
         d="m 253.89637,958.49918 -15.23842,0 0,73.25892 15.23842,0 z"
         id="path4446"
         inkscape:connector-curvature="0"
         style="fill:#f2f2f7;fill-opacity:1" />
      <path
         d="m 278.35438,1032.7954 c 4.05402,-0.041 7.41052,-0.8443 10.06952,-2.4101 2.65894,-1.5657 4.65615,-3.6478 5.99163,-6.2465 l 0.42925,0 0,7.6193 14.45146,0 0,-37.05873 c -0.20723,-6.50281 -2.56512,-11.23948 -7.0737,-14.21001 -4.50867,-2.97042 -9.92498,-4.43405 -16.24895,-4.39088 -6.62435,0.0537 -11.99446,1.52032 -16.11033,4.39983 -4.11591,2.87961 -6.72271,6.85018 -7.82042,11.91172 l 14.09374,1.14467 c 0.51866,-1.86005 1.59179,-3.37137 3.21939,-4.53397 1.62755,-1.16251 3.80958,-1.76167 6.54608,-1.79749 2.60901,0.0149 4.61665,0.63796 6.02293,1.86903 1.40621,1.23116 2.11715,2.98096 2.13284,5.24939 l 0,0.21463 c 0.0424,1.69691 -0.9815,2.84605 -3.07183,3.44742 -2.09039,0.60143 -5.50204,1.09775 -10.23496,1.48896 -5.61754,0.37638 -10.4168,1.78783 -14.3978,4.23443 -3.98101,2.4466 -6.06168,6.675 -6.24202,12.6852 0.10507,5.4402 1.83549,9.53 5.19125,12.2695 3.35575,2.7394 7.70639,4.1106 13.05192,4.1136 z m 4.36406,-10.5166 c -2.3855,0 -4.31266,-0.5418 -5.78148,-1.6142 -1.46887,-1.0724 -2.22452,-2.6567 -2.26698,-4.7531 0.0358,-2.1291 0.84954,-3.7641 2.44136,-4.9051 1.59178,-1.1409 3.74698,-1.8906 6.4656,-2.2491 1.78255,-0.2302 3.73505,-0.5477 5.85749,-0.9524 2.12237,-0.4046 3.69927,-0.9099 4.7307,-1.5157 l 0,5.8306 c -0.0589,2.9429 -1.13054,5.356 -3.21491,7.2392 -2.08443,1.8832 -4.82836,2.8564 -8.23178,2.9198 z"
         id="path4448"
         inkscape:connector-curvature="0"
         style="fill:#f2f2f7;fill-opacity:1" />
      <path
         d="m 317.79948,1031.7581 15.23841,0 0,-31.085 c 0.0656,-3.43322 1.1685,-6.18012 3.30881,-8.24072 2.14027,-2.06051 4.92444,-3.11724 8.35252,-3.17019 1.10216,0.005 2.26024,0.0842 3.47425,0.23698 1.21394,0.15282 2.20211,0.34806 2.96452,0.58575 l 0,-13.52141 c -0.69832,-0.16316 -1.47485,-0.29283 -2.32959,-0.38902 -0.85481,-0.0961 -1.67605,-0.14526 -2.46372,-0.14755 -3.11657,0.008 -5.83516,0.88688 -8.15577,2.63811 -2.32067,1.75133 -4.0019,4.32982 -5.0437,7.73546 l -0.57234,0 0,-9.58661 -14.77339,0 z"
         id="path4450"
         inkscape:connector-curvature="0"
         style="fill:#f2f2f7;fill-opacity:1" />
      <path
         d="m 401.31487,992.48157 c -0.70206,-5.11147 -3.03611,-9.10738 -7.00216,-11.98773 -3.96615,-2.88026 -9.43015,-4.34537 -16.39203,-4.39536 -7.12291,0.0507 -12.76577,1.57696 -16.9286,4.57868 -4.16285,3.00183 -6.28227,7.1751 -6.35828,12.51983 -0.0246,4.11965 1.27657,7.49701 3.9035,10.13211 2.62692,2.6352 6.61985,4.4923 11.9788,5.5713 l 9.51506,1.8959 c 2.38619,0.4784 4.15089,1.167 5.2941,2.0658 1.14314,0.8987 1.7274,2.0344 1.75278,3.4071 -0.0708,1.6567 -0.904,2.9936 -2.4995,4.0109 -1.59556,1.0172 -3.74331,1.5404 -6.44324,1.5694 -2.7365,0 -4.96324,-0.5775 -6.68022,-1.7215 -1.71703,-1.1439 -2.81698,-2.8355 -3.29987,-5.075 l -14.98802,0.787 c 0.75491,5.309 3.26931,9.4554 7.5432,12.4393 4.27386,2.9839 10.07024,4.5012 17.38914,4.5519 7.24582,-0.077 13.09883,-1.7386 17.55906,-4.9856 4.46014,-3.2469 6.76289,-7.6184 6.90826,-13.1145 -0.0112,-3.9579 -1.33028,-7.1579 -3.95716,-9.6 -2.62697,-2.4421 -6.60201,-4.2023 -11.92513,-5.28072 l -9.94432,-2.00317 c -2.53082,-0.5492 -4.33725,-1.27505 -5.4193,-2.17756 -1.08209,-0.90243 -1.60077,-2.01282 -1.55603,-3.33116 0.0395,-1.66629 0.84581,-2.98385 2.41901,-3.95269 1.57315,-0.96875 3.56886,-1.46358 5.98716,-1.48449 2.65223,0.047 4.75228,0.67745 6.30015,1.89138 1.5478,1.21402 2.51213,2.72981 2.89298,4.54738 z"
         id="path4452"
         inkscape:connector-curvature="0"
         style="fill:#f2f2f7;fill-opacity:1" />
      <path
         d="m 424.1802,999.99347 c 0.0678,-3.56663 1.05894,-6.32397 2.97346,-8.27203 1.91446,-1.94799 4.4527,-2.93467 7.61473,-2.96005 3.118,0.0246 5.52955,0.9681 7.23467,2.83038 1.70504,1.86236 2.56057,4.496 2.56657,7.9009 l 0,32.26543 15.23842,0 0,-34.98402 c -0.0604,-6.49536 -1.79084,-11.55098 -5.19126,-15.16687 -3.40052,-3.61579 -8.00156,-5.45203 -13.80311,-5.50873 -4.17405,0.0291 -7.63936,0.9547 -10.39593,2.77672 -2.75662,1.82214 -4.76426,4.36634 -6.02293,7.63263 l -0.64387,0 0,-28.00865 -14.80917,0 0,73.25892 15.23842,0 z"
         id="path4454"
         inkscape:connector-curvature="0"
         style="fill:#f2f2f7;fill-opacity:1" />
      <path
         d="m 468.57941,1031.7581 15.23842,0 0,-54.9442 -15.23842,0 z m 7.65498,-62.02684 c 2.3318,-0.0558 4.27685,-0.81149 5.83514,-2.26699 1.55825,-1.45536 2.36756,-3.27521 2.42795,-5.45953 -0.0604,-2.16706 -0.8697,-3.97647 -2.42795,-5.42824 -1.55829,-1.45163 -3.50334,-2.2058 -5.83514,-2.26251 -2.31469,0.0567 -4.2493,0.81088 -5.80383,2.26251 -1.55455,1.45177 -2.36238,3.26118 -2.42348,5.42824 0.0611,2.18433 0.86893,4.00417 2.42348,5.45954 1.55453,1.45549 3.48914,2.21115 5.80383,2.26698 z"
         id="path4456"
         inkscape:connector-curvature="0"
         style="fill:#f2f2f7;fill-opacity:1" />
      <path
         d="m 492.60819,1052.3621 15.23842,0 0,-29.4037 0.46502,0 c 1.01871,2.4071 2.77297,4.5951 5.2628,6.564 2.48978,1.9689 5.93422,3.0122 10.33333,3.1299 6.40593,-0.03 11.68512,-2.4473 15.83758,-7.2525 4.15235,-4.8052 6.30158,-11.8193 6.44771,-21.0423 -0.1737,-9.44049 -2.3751,-16.5112 -6.60421,-21.21214 -4.22922,-4.70085 -9.44431,-7.0498 -15.64531,-7.04688 -4.54592,0.13495 -8.04551,1.23341 -10.49877,3.2954 -2.45331,2.0621 -4.16435,4.2784 -5.13313,6.64892 l -0.67965,0 0,-9.2289 -15.02379,0 z m 14.91648,-48.0761 c 0.0186,-4.95724 1.0187,-8.85925 3.00029,-11.70606 1.98153,-2.84673 4.83277,-4.29843 8.55372,-4.35511 3.78349,0.0746 6.65261,1.56204 8.60738,4.46242 1.95469,2.90047 2.9369,6.7667 2.94663,11.59875 -0.0142,4.8708 -1.00535,8.7758 -2.97345,11.715 -1.96819,2.9392 -4.82837,4.4475 -8.58056,4.525 -3.68965,-0.064 -6.53195,-1.5456 -8.5269,-4.4446 -1.99499,-2.8989 -3.00403,-6.8307 -3.02711,-11.7954 z"
         id="path4458"
         inkscape:connector-curvature="0"
         style="fill:#f2f2f7;fill-opacity:1" />
      <path
         d="m 598.74804,992.48157 c -0.70206,-5.11147 -3.03611,-9.10738 -7.00217,-11.98773 -3.96614,-2.88026 -9.43014,-4.34537 -16.39202,-4.39536 -7.12291,0.0507 -12.76577,1.57696 -16.9286,4.57868 -4.16285,3.00183 -6.28227,7.1751 -6.35828,12.51983 -0.0246,4.11965 1.27657,7.49701 3.9035,10.13211 2.62692,2.6352 6.61984,4.4923 11.97879,5.5713 l 9.51507,1.8959 c 2.38619,0.4784 4.15088,1.167 5.2941,2.0658 1.14314,0.8987 1.7274,2.0344 1.75277,3.4071 -0.0708,1.6567 -0.90399,2.9936 -2.49949,4.0109 -1.59557,1.0172 -3.74331,1.5404 -6.44324,1.5694 -2.7365,0 -4.96324,-0.5775 -6.68022,-1.7215 -1.71703,-1.1439 -2.81698,-2.8355 -3.29987,-5.075 l -14.98802,0.787 c 0.75491,5.309 3.26931,9.4554 7.54319,12.4393 4.27387,2.9839 10.07025,4.5012 17.38915,4.5519 7.24581,-0.077 13.09883,-1.7386 17.55906,-4.9856 4.46013,-3.2469 6.76289,-7.6184 6.90826,-13.1145 -0.0112,-3.9579 -1.33029,-7.1579 -3.95716,-9.6 -2.62698,-2.4421 -6.60202,-4.2023 -11.92514,-5.28072 l -9.94432,-2.00317 c -2.53081,-0.5492 -4.33725,-1.27505 -5.41929,-2.17756 -1.08209,-0.90243 -1.60077,-2.01282 -1.55604,-3.33116 0.0395,-1.66629 0.84582,-2.98385 2.41901,-3.95269 1.57315,-0.96875 3.56887,-1.46358 5.98716,-1.48449 2.65224,0.047 4.75229,0.67745 6.30016,1.89138 1.5478,1.21402 2.51212,2.72981 2.89297,4.54738 z"
         id="path4460"
         inkscape:connector-curvature="0"
         style="fill:#f2f2f7;fill-opacity:1" />
    </g>
    <g
       id="g7719"
       style="fill:#706ae4;fill-opacity:1">
      <path
         inkscape:connector-curvature="0"
         id="rect3939-5"
         d="m 135.18955,664.12852 0,97.75284 c 0.57074,-0.12638 1.16481,-0.20616 1.77358,-0.20616 0.60876,0 1.20284,0.0794 1.77358,0.20616 l 0,-97.75284 -3.54716,0 z"
         style="fill:#706ae4;fill-opacity:1;stroke:none" />
      <path
         inkscape:connector-curvature="0"
         id="rect3941-4"
         d="m 130.57001,774.87389 -9.1566,34.23405 a 1.9800028,1.9800028 0 0 0 1.89732,2.47474 l 13.6524,0 13.65241,0 a 1.9800028,1.9800028 0 0 0 1.93856,-2.47474 l -9.1566,-34.23405 c -0.88425,1.12929 -2.06994,2.01839 -3.42342,2.55721 l 8.08421,30.19202 -11.09516,0 -11.05391,0 8.08421,-30.15079 c -1.37217,-0.53583 -2.52889,-1.45792 -3.42342,-2.59844 z"
         style="font-size:medium;font-style:normal;font-variant:normal;font-weight:normal;font-stretch:normal;text-indent:0;text-align:start;text-decoration:none;line-height:normal;letter-spacing:normal;word-spacing:normal;text-transform:none;direction:ltr;block-progression:tb;writing-mode:lr-tb;text-anchor:start;baseline-shift:baseline;color:#000000;fill:#706ae4;fill-opacity:1;fill-rule:nonzero;stroke:none;stroke-width:3;marker:none;visibility:visible;display:inline;overflow:visible;enable-background:accumulate;font-family:Sans;-inkscape-font-specification:Sans" />
      <path
         inkscape:connector-curvature="0"
         id="path3944-3"
         d="m 136.96228,759.72154 c -5.57807,0 -10.1291,4.55096 -10.1291,10.12906 0,5.57809 4.55103,10.12915 10.1291,10.12915 5.57808,0 10.17239,-4.55106 10.17239,-10.12915 0,-5.5781 -4.59431,-10.12906 -10.17239,-10.12906 z m 0,3.93906 c 3.43814,0 6.19001,2.75193 6.19001,6.19 0,3.43816 -2.75187,6.19 -6.19001,6.19 -3.43812,0 -6.19,-2.75184 -6.19,-6.19 0,-3.43807 2.75188,-6.19 6.19,-6.19 z"
         style="font-size:medium;font-style:normal;font-variant:normal;font-weight:normal;font-stretch:normal;text-indent:0;text-align:start;text-decoration:none;line-height:normal;letter-spacing:normal;word-spacing:normal;text-transform:none;direction:ltr;block-progression:tb;writing-mode:lr-tb;text-anchor:start;baseline-shift:baseline;color:#000000;fill:#706ae4;fill-opacity:1;fill-rule:nonzero;stroke:none;stroke-width:2.85856079999999980;marker:none;visibility:visible;display:inline;overflow:visible;enable-background:accumulate;font-family:Sans;-inkscape-font-specification:Sans" />
      <path
         inkscape:connector-curvature="0"
         id="path3970-1"
         d="m 135.09375,796.3125 a 0.99000137,0.99000137 0 0 0 -0.9375,0.9375 l -0.84375,11.34375 a 0.99000137,0.99000137 0 1 0 1.96875,0.125 l 0.84375,-11.3125 a 0.99000137,0.99000137 0 0 0 -1.03125,-1.09375 z"
         style="font-size:medium;font-style:normal;font-variant:normal;font-weight:normal;font-stretch:normal;text-indent:0;text-align:start;text-decoration:none;line-height:normal;letter-spacing:normal;word-spacing:normal;text-transform:none;direction:ltr;block-progression:tb;writing-mode:lr-tb;text-anchor:start;baseline-shift:baseline;color:#000000;fill:#706ae4;fill-opacity:1;fill-rule:nonzero;stroke:none;stroke-width:1.97980475000000000;marker:none;visibility:visible;display:inline;overflow:visible;enable-background:accumulate;font-family:Sans;-inkscape-font-specification:Sans" />
    </g>
    <path
       style="fill:#86d3f6;fill-opacity:1;stroke:none"
       d="m 299.99984,685.25507 c -69.20939,0 -125.31803,56.10874 -125.31803,125.31813 0,69.20939 56.10864,125.31813 125.31803,125.31813 38.61984,0 73.14569,-17.47887 96.13315,-44.9473 -21.13035,22.02311 -50.84317,35.7309 -83.77388,35.7309 -64.12297,0 -116.12529,-51.97874 -116.12529,-116.10173 0,-64.12298 52.00232,-116.10173 116.12529,-116.10173 32.90665,0 62.59922,13.68885 83.72665,35.68359 -22.98755,-27.43676 -57.49194,-44.89999 -96.08592,-44.89999 z"
       id="path3833"
       inkscape:connector-curvature="0" />
  </g>
</svg>
