<?xml version="1.0" encoding="UTF-8" standalone="no"?>
<!-- Created with Inkscape (http://www.inkscape.org/) -->

<svg
   xmlns:dc="http://purl.org/dc/elements/1.1/"
   xmlns:cc="http://creativecommons.org/ns#"
   xmlns:rdf="http://www.w3.org/1999/02/22-rdf-syntax-ns#"
   xmlns:svg="http://www.w3.org/2000/svg"
   xmlns="http://www.w3.org/2000/svg"
   xmlns:xlink="http://www.w3.org/1999/xlink"
   xmlns:sodipodi="http://sodipodi.sourceforge.net/DTD/sodipodi-0.dtd"
   xmlns:inkscape="http://www.inkscape.org/namespaces/inkscape"
   width="500"
   height="398"
   id="svg2"
   version="1.1"
   inkscape:version="0.48.5 r10040"
   sodipodi:docname="graphic-portfolio.svg">
  <defs
     id="defs4">
    <linearGradient
       id="linearGradient3991">
      <stop
         style="stop-color:#ffffff;stop-opacity:1;"
         offset="0"
         id="stop3993" />
      <stop
         style="stop-color:#f2f2f7;stop-opacity:1;"
         offset="1"
         id="stop3995" />
    </linearGradient>
    <linearGradient
       id="linearGradient3895">
      <stop
         id="stop3897"
         offset="0"
         style="stop-color:#a56b37;stop-opacity:1;" />
      <stop
         id="stop3899"
         offset="1"
         style="stop-color:#874d2d;stop-opacity:1;" />
    </linearGradient>
    <linearGradient
       id="linearGradient10655">
      <stop
         style="stop-color:#d939b1;stop-opacity:1;"
         offset="0"
         id="stop10657" />
      <stop
         style="stop-color:#a83ea2;stop-opacity:1;"
         offset="1"
         id="stop10659" />
    </linearGradient>
    <filter
       inkscape:collect="always"
       id="filter10641"
       color-interpolation-filters="sRGB">
      <feGaussianBlur
         inkscape:collect="always"
         stdDeviation="7.6109936"
         id="feGaussianBlur10643" />
    </filter>
    <linearGradient
       inkscape:collect="always"
       xlink:href="#linearGradient10655"
       id="linearGradient10661"
       x1="19.842497"
       y1="499.4375"
       x2="556.5"
       y2="785.3125"
       gradientUnits="userSpaceOnUse"
       gradientTransform="matrix(0.9185415,0,0,0.91846407,-10.223429,330.99933)" />
    <linearGradient
       inkscape:collect="always"
       xlink:href="#linearGradient10655"
       id="linearGradient10669"
       x1="517.84375"
       y1="738.96875"
       x2="11.21875"
       y2="352.5625"
       gradientUnits="userSpaceOnUse"
       gradientTransform="matrix(0.9185415,0,0,0.91846407,-10.223429,330.99933)" />
    <linearGradient
       id="linearGradient10655-7">
      <stop
         style="stop-color:#a56b37;stop-opacity:1;"
         offset="0"
         id="stop10657-4" />
      <stop
         style="stop-color:#874d2d;stop-opacity:1;"
         offset="1"
         id="stop10659-0" />
    </linearGradient>
    <linearGradient
       id="linearGradient3037">
      <stop
         style="stop-color:#a56b37;stop-opacity:1;"
         offset="0"
         id="stop3039" />
      <stop
         style="stop-color:#874d2d;stop-opacity:1;"
         offset="1"
         id="stop3041" />
    </linearGradient>
    <linearGradient
       inkscape:collect="always"
       xlink:href="#linearGradient10655-7"
       id="linearGradient10669-8"
       x1="517.84375"
       y1="738.96875"
       x2="11.21875"
       y2="352.5625"
       gradientUnits="userSpaceOnUse" />
    <linearGradient
       id="linearGradient3050">
      <stop
         style="stop-color:#a56b37;stop-opacity:1;"
         offset="0"
         id="stop3052" />
      <stop
         style="stop-color:#874d2d;stop-opacity:1;"
         offset="1"
         id="stop3054" />
    </linearGradient>
    <filter
       inkscape:collect="always"
       id="filter28379"
       x="-0.12709959"
       width="1.2541992"
       y="-0.018179009"
       height="1.036358">
      <feGaussianBlur
         inkscape:collect="always"
         stdDeviation="1.7641688"
         id="feGaussianBlur28381" />
    </filter>
    <filter
       inkscape:collect="always"
       id="filter28383">
      <feGaussianBlur
         inkscape:collect="always"
         stdDeviation="1.7641688"
         id="feGaussianBlur28385" />
    </filter>
  </defs>
  <sodipodi:namedview
     id="base"
     pagecolor="#ffffff"
     bordercolor="#666666"
     borderopacity="1.0"
     inkscape:pageopacity="0.0"
     inkscape:pageshadow="2"
     inkscape:zoom="0.24748737"
     inkscape:cx="-871.53343"
     inkscape:cy="340.47261"
     inkscape:document-units="px"
     inkscape:current-layer="layer1"
     showgrid="false"
     inkscape:window-width="3440"
     inkscape:window-height="1377"
     inkscape:window-x="1912"
     inkscape:window-y="-8"
     inkscape:window-maximized="1"
     inkscape:object-paths="false"
     inkscape:snap-bbox="true"
     inkscape:bbox-nodes="true"
     inkscape:snap-global="false"
     inkscape:showpageshadow="false" />
  <metadata
     id="metadata7">
    <rdf:RDF>
      <cc:Work
         rdf:about="">
        <dc:format>image/svg+xml</dc:format>
        <dc:type
           rdf:resource="http://purl.org/dc/dcmitype/StillImage" />
        <dc:title></dc:title>
      </cc:Work>
    </rdf:RDF>
  </metadata>
  <g
     inkscape:label="Layer 1"
     inkscape:groupmode="layer"
     id="layer1"
     transform="translate(0,-654.36218)">
    <path
       style="fill:url(#linearGradient10669);fill-opacity:1;stroke:none"
       d="m 238.21334,654.81532 c -38.35073,0 -70.23022,19.78219 -76.72692,45.8371 l -124.663301,0 c -20.35488,0 -36.7416605,16.3854 -36.7416605,36.73856 l 0,272.32452 24.1978275,-184.75471 c 3.204231,-24.45941 21.555303,-46.72686 48.137316,-46.72686 l 356.279288,0 36.74166,0 0,-40.84295 c 0,-20.35316 -16.38678,-36.73856 -36.74166,-36.73856 l -113.75563,0 c -6.49669,-26.05491 -38.37618,-45.8371 -76.72692,-45.8371 z m 0,13.77696 c 18.8649,0 35.6995,5.57586 47.10396,13.71956 7.6749,5.48049 12.69054,11.74294 15.18464,18.34058 l -124.57719,0 c 2.49409,-6.59764 7.50974,-12.86009 15.18464,-18.34058 11.40446,-8.1437 28.23906,-13.71956 47.10395,-13.71956 z"
       id="path10625"
       inkscape:connector-curvature="0" />
    <path
       sodipodi:nodetypes="ccccc"
       inkscape:connector-curvature="0"
       id="path10631"
       d="m 31.710181,710.66713 445.498939,-23.23351 0,292.36691 -445.498939,23.23347 z"
       style="fill:#000000;fill-opacity:0.39215686;stroke:none;filter:url(#filter10641)"
       transform="matrix(0.9185415,0,0,0.91846407,0.0814585,85.723799)" />
    <path
       style="fill:#ffffff;fill-opacity:1;stroke:none"
       d="m 29.208576,738.44602 409.209264,-21.33914 0,268.5285 -409.209264,21.33912 z"
       id="rect10628"
       inkscape:connector-curvature="0"
       sodipodi:nodetypes="ccccc" />
    <path
       style="fill:#000000;fill-opacity:0.39215686;stroke:none;filter:url(#filter10641)"
       d="m 48.989846,468.87126 445.498944,-23.23351 0,292.36691 -445.498944,23.23351 z"
       id="path10651"
       inkscape:connector-curvature="0"
       sodipodi:nodetypes="ccccc"
       transform="matrix(0.91792329,0.03369176,-0.0336946,0.9178459,33.896804,327.46535)" />
    <path
       sodipodi:nodetypes="ccccc"
       inkscape:connector-curvature="0"
       id="path10653"
       d="M 63.067295,759.46747 472.784,753.15233 462.9328,1021.5001 53.216108,1027.8153 z"
       style="fill:#ffffff;fill-opacity:1;stroke:none" />
    <path
       style="fill:#000000;fill-opacity:0.09803922000000000;stroke:none;filter:url(#filter28383)"
       d="M 169.78125 119.6875 L 62.53125 119.71875 L 53.21875 373.4375 L 453.875 367.25 C 454.18301 365.81015 454.44858 364.33917 454.59375 362.84375 L 454.59375 362.8125 L 454.59375 362.78125 L 454.59375 362.75 L 454.59375 362.71875 L 454.625 362.71875 L 454.625 362.6875 L 456.96875 347.5 L 465.71875 291.28125 L 472 119.6875 L 334.96875 119.6875 C 334.76572 152.13873 297.8895 178.40625 252.40625 178.40625 C 206.92301 178.40625 169.98429 152.13873 169.78125 119.6875 z "
       transform="translate(0,654.36218)"
       id="path28368" />
    <path
       style="fill:#000000;fill-opacity:0.09803922000000000;stroke:none;filter:url(#filter28379)"
       d="m 38.375,764.91341 c -3.210752,0 -6.271718,0.39257 -9.15625,1.125 l 0,231.78127 24.8125,-1.2813 8.5,-231.62497 -24.15625,0 z"
       id="path28362"
       inkscape:connector-curvature="0" />
    <path
       style="fill:url(#linearGradient10661);fill-opacity:1;stroke:none"
       d="m 72.416602,789.71473 c -20.35488,0 -34.097942,16.5578 -36.74166,36.73856 L 8.2909232,1035.5474 c -2.1900693,16.7178 8.1773158,16.7333 28.5321958,16.7333 l 391.872771,0 c 19.13134,0 34.73129,-14.4543 36.54073,-33.0935 l 0.002,-0.01 0.002,-0.01 0.002,-0.01 0.002,-0.01 0.002,-0.01 0.002,-0.01 0.002,-0.01 0.002,-0.01 0.002,-0.01 0.002,-0.01 0.002,-0.01 0.002,-0.01 0.002,-0.01 0.002,-0.01 0.002,-0.01 0.002,-0.01 2.22997,-14.333 31.21966,-200.66295 c 1.44959,-12.38088 3.52769,-14.56501 -6.92411,-14.33306 l -139.44872,0 c -0.19162,30.62733 -35.00561,55.42356 -77.9325,55.42356 -42.92689,0 -77.76959,-24.79623 -77.96121,-55.42356 z"
       id="rect10399-1"
       inkscape:connector-curvature="0"
       sodipodi:nodetypes="sccsscccccccccccccccccccccscs" />
    <path
       style="fill:none;stroke:#ffffff;stroke-width:2;stroke-miterlimit:4;stroke-opacity:0.39215686;stroke-dasharray:6, 6;stroke-dashoffset:0"
       d="m 72.416602,798.89937 c -15.373174,0 -25.447048,12.00156 -27.642359,28.75941 L 17.390225,1036.7528 c -0.410712,3.1352 -0.03019,4.6285 0.05741,4.8794 0.06744,0.018 0.128625,0.047 0.287044,0.1148 1.639104,0.7057 8.913316,1.349 19.08844,1.349 l 391.872771,0 c 14.50442,0 26.02095,-10.7575 27.38401,-24.7985 l 0.0574,-0.4592 0.0861,-0.4593 0.0287,-0.1435 33.98603,-218.33613 -61.54228,0 -68.2017,0 c -2.93054,14.96523 -12.53238,28.0615 -25.77657,37.48482 -15.88653,11.30336 -37.07578,17.93875 -60.30799,17.93875 -23.23221,0 -44.44344,-6.63636 -60.3367,-17.93875 -13.25527,-9.42641 -22.84808,-22.51035 -25.77657,-37.48482 l -115.879749,0 z"
       id="path10682"
       inkscape:connector-curvature="0" />
    <path
       style="font-size:medium;font-style:normal;font-variant:normal;font-weight:normal;font-stretch:normal;text-indent:0;text-align:start;text-decoration:none;line-height:normal;letter-spacing:normal;word-spacing:normal;text-transform:none;direction:ltr;block-progression:tb;writing-mode:lr-tb;text-anchor:start;baseline-shift:baseline;color:#000000;fill:#ffffff;fill-opacity:0.39215686;fill-rule:nonzero;stroke:none;stroke-width:2;marker:none;visibility:visible;display:inline;overflow:visible;enable-background:accumulate;font-family:Sans;-inkscape-font-specification:Sans"
       d="m 36.794414,708.9186 -1.435221,0.0287 -0.0287,0 -1.435221,0.11481 -0.02871,0 -1.406517,0.17221 -0.0287,0 -1.23429,0.22962 0.315749,1.80822 1.176881,-0.22961 0,0.0286 1.349108,-0.17221 0.05741,0 1.320403,-0.11481 0.0287,0 1.377813,-0.0286 0.0287,0 3.50194,0 0,-1.83693 -3.530644,0 0,0.91846 -0.0287,-0.91846 z m 9.070598,0 0,1.83692 5.511249,0 0,-1.83692 -5.511249,0 z m 11.022498,0 0,1.83692 5.511249,0 0,-1.83692 -5.511249,0 z m 11.022498,0 0,1.83692 5.511249,0 0,-1.83692 -5.511249,0 z m 11.022498,0 0,1.83692 5.511249,0 0,-1.83692 -5.511249,0 z m 11.022498,0 0,1.83692 5.511249,0 0,-1.83692 -5.511249,0 z m 11.022496,0 0,1.83692 5.51125,0 0,-1.83692 -5.51125,0 z m 11.0225,0 0,1.83692 5.51125,0 0,-1.83692 -5.51125,0 z m 11.0225,0 0,1.83692 5.51125,0 0,-1.83692 -5.51125,0 z m 11.0225,0 0,1.83692 5.51124,0 0,-1.83692 -5.51124,0 z m 11.02249,0 0,1.83692 5.51125,0 0,-1.83692 -5.51125,0 z m 11.0225,0 0,1.83692 5.51125,0 0,-1.83692 -5.51125,0 z m 11.0225,0 0,1.83692 5.51125,0 0,-1.83692 -5.51125,0 z m 11.0225,0 0,1.83692 5.51125,0 0,-1.83692 -5.51125,0 z m 11.0225,0 0,1.83692 5.51125,0 0,-1.83692 -5.51125,0 z m 11.02249,0 0,1.83692 5.51125,0 0,-1.83692 -5.51125,0 z m 11.0225,0 0,1.83692 5.51125,0 0,-1.83692 -5.51125,0 z m 11.0225,0 0,1.83692 5.51125,0 0,-1.83692 -5.51125,0 z m 11.0225,0 0,1.83692 5.51125,0 0,-1.83692 -5.51125,0 z m 11.0225,0 0,1.83692 5.51125,0 0,-1.83692 -5.51125,0 z m 11.02249,0 0,1.83692 5.51125,0 0,-1.83692 -5.51125,0 z m 11.0225,0 0,1.83692 5.51125,0 0,-1.83692 -5.51125,0 z m 11.0225,0 0,1.83692 5.51125,0 0,-1.83692 -5.51125,0 z m 11.0225,0 0,1.83692 5.51125,0 0,-1.83692 -5.51125,0 z m 11.0225,0 0,1.83692 5.51125,0 0,-1.83692 -5.51125,0 z m 11.02249,0 0,1.83692 5.51125,0 0,-1.83692 -5.51125,0 z m 11.0225,0 0,1.83692 5.51125,0 0,-1.83692 -5.51125,0 z m 11.0225,0 0,1.83692 5.51125,0 0,-1.83692 -5.51125,0 z m 11.0225,0 0,1.83692 5.51125,0 0,-1.83692 -5.51125,0 z m 11.0225,0 0,1.83692 5.51125,0 0,-1.83692 -5.51125,0 z m 11.02249,0 0,1.83692 5.51125,0 0,-1.83692 -5.51125,0 z m 11.0225,0 0,1.83692 5.51125,0 0,-1.83692 -5.51125,0 z m 11.0225,0 0,1.83692 5.51125,0 0,-1.83692 -5.51125,0 z m 11.0225,0 0,1.83692 5.51125,0 0,-1.83692 -5.51125,0 z m 11.0225,0 0,1.83692 5.51125,0 0,-1.83692 -5.51125,0 z m 11.02249,0 0,1.83692 5.51125,0 0,-1.83692 -5.51125,0 z m 11.10862,0.17221 -0.20093,1.80822 1.29169,0.17222 0,-0.0287 1.32041,0.25832 1.26299,0.28702 0.0287,0 1.23429,0.34442 0.0574,0.0287 0,-0.0287 0.57409,-1.72212 -0.0574,-0.0286 -0.0287,0 -1.3204,-0.37313 -0.0287,0 -0.0287,0 -1.3204,-0.31572 -0.0287,0 -0.0287,0 -1.37781,-0.25832 -0.0287,0 -1.3204,-0.14351 z m -405.995348,2.00914 -0.05741,0.0286 -0.0287,0 -0.0287,0 -1.205586,0.54534 -0.0287,0.0287 -0.0287,0 -1.176881,0.60274 -0.0287,0 -0.02871,0.0287 -1.148177,0.66014 -0.0287,0 -1.119472,0.71755 -0.0287,0 0,0.0287 -0.114818,0.0574 1.062064,1.52121 0.05741,-0.0574 0.05741,-0.0287 1.033359,-0.66015 0.0287,-0.0287 1.090768,-0.60275 0.02871,-0.0287 1.119472,-0.54534 0.02871,-0.0287 1.148177,-0.51663 0.0287,0 0.0287,-0.0287 -0.660201,-1.69342 z m 416.816908,1.32029 -0.91854,1.60731 0.94725,0.51664 0.0287,0.0287 1.03336,0.66015 0.0574,0.0287 1.00466,0.71755 0.0287,0.0286 0.97595,0.74625 0.0287,0.0287 0.28704,0.25832 1.20559,-1.4064 -0.31575,-0.25832 -0.0287,-0.0286 -0.0287,0 -1.03336,-0.83236 -0.0287,-0.0287 -1.09077,-0.74625 0,-0.0287 -0.0286,0 -1.11948,-0.71755 -0.0286,0 -0.97595,-0.57404 z m -426.203254,5.02285 -0.660202,0.71755 -0.0287,0 0,0.0287 -0.861133,0.97586 -0.0287,0.0287 0,0.0287 -0.832429,1.03327 -0.0287,0.0286 -0.746315,1.09068 -0.0287,0 0,0.0287 -0.315748,0.48793 1.550039,1.00457 0.287044,-0.45923 0.0287,-0.0574 0.717611,-1.00457 0.0287,-0.0287 0.746315,-0.97587 0.0287,-0.0287 0.803723,-0.91846 0.0287,-0.0287 0.631497,-0.66014 -1.320403,-1.29159 z m 434.814584,2.29616 -1.46393,1.11938 0.37316,0.48793 0.0287,0.0287 0.71761,1.00457 0.0287,0.0574 0.6602,1.03327 0.0287,0.0287 0.60279,1.09068 0.0287,0.0287 0.37316,0.74625 1.63615,-0.83235 -0.40186,-0.77496 0,-0.0286 -0.0287,-0.0287 -0.6602,-1.14808 0,-0.0287 -0.71761,-1.11937 0,-0.0287 -0.0287,0 -0.74632,-1.09068 -0.0287,-0.0286 -0.40187,-0.51664 z m -440.899922,7.2329 -0.200931,0.51664 -0.0287,0.0287 0,0.0286 -0.4305664,1.29159 0,0.0287 -0.3731575,1.32029 0,0.0287 0,0.0287 -0.3157486,1.3203 0,0.0286 0,0.0287 -0.1435221,0.83236 1.8083786,0.31572 0.143522,-0.83236 0.287044,-1.26289 0,-0.0286 0.344453,-1.23419 0,-0.0574 0.401862,-1.17678 0.02871,-0.0574 0.172226,-0.48794 -1.693561,-0.66014 z m 445.923192,2.89891 -1.77967,0.48793 0.0861,0.28702 0,0.0287 0.28704,1.26288 0.25834,1.3203 -0.0287,0 0.17223,1.34899 0,0.0574 0.0861,0.94717 1.83708,-0.14351 -0.0861,-1.00457 0,-0.0287 -0.17222,-1.40639 0,-0.0287 -0.25834,-1.3777 0,-0.0287 0,-0.0287 -0.31575,-1.32029 0,-0.0287 0,-0.0286 -0.0861,-0.31572 z m -447.846388,8.23747 0,5.51079 1.837083,0 0,-5.51079 -1.837083,0 z m 446.985258,2.92761 0,5.51078 1.83708,0 0,-5.51078 -1.83708,0 z m -446.985258,8.09396 0,5.51078 1.837083,0 0,-5.51078 -1.837083,0 z m 446.985258,2.9276 0,5.51079 1.83708,0 0,-5.51079 -1.83708,0 z m -446.985258,8.09397 0,5.51078 1.837083,0 0,-5.51078 -1.837083,0 z m 446.985258,2.9276 0,5.51079 1.83708,0 0,-5.51079 -1.83708,0 z m -446.985258,8.09397 0,5.51078 1.837083,0 0,-5.51078 -1.837083,0 z m 446.985258,2.9276 0,4.13309 1.83708,0 0,-4.13309 -1.83708,0 z m -446.985258,8.09397 0,5.51078 1.837083,0 0,-5.51078 -1.837083,0 z m 0,11.02157 0,5.51078 1.837083,0 0,-5.51078 -1.837083,0 z m 0,11.02156 0,5.51079 1.837083,0 0,-5.51079 -1.837083,0 z m 0,11.02157 0,5.51079 1.837083,0 0,-5.51079 -1.837083,0 z m 0,11.02157 0,5.51079 1.837083,0 0,-5.51079 -1.837083,0 z m 0,11.02157 0,5.51078 1.837083,0 0,-5.51078 -1.837083,0 z m 0,11.02157 0,5.51078 1.837083,0 0,-5.51078 -1.837083,0 z m 0,11.02157 0,5.51078 1.837083,0 0,-5.51078 -1.837083,0 z m 0,11.02157 0,5.51078 1.837083,0 0,-5.51078 -1.837083,0 z m 0,11.02157 0,5.51078 1.837083,0 0,-5.51078 -1.837083,0 z m 0,11.02156 0,5.51079 1.837083,0 0,-5.51079 -1.837083,0 z m 0,11.02157 0,5.51079 1.837083,0 0,-5.51079 -1.837083,0 z m 0,11.02157 0,5.51079 1.837083,0 0,-5.51079 -1.837083,0 z m 0,11.02157 0,5.51078 1.837083,0 0,-5.51078 -1.837083,0 z m 0,11.02157 0,5.51078 0.6027929,0 0.7176105,-5.51078 -1.3204034,0 z"
       id="rect9627-7-6"
       inkscape:connector-curvature="0" />
    <g
       transform="matrix(1.0000422,0,-0.08749202,0.99995785,0,0)"
       style="font-size:133.29266357px;font-style:normal;font-variant:normal;font-weight:900;font-stretch:normal;text-align:start;line-height:125%;letter-spacing:0px;word-spacing:0px;writing-mode:lr-tb;text-anchor:start;fill:#ff7ddf;fill-opacity:1;stroke:none;font-family:Inter Black;-inkscape-font-specification:'Inter Black, Heavy'"
       id="text3985">
      <path
         d="m 231.47077,959.65384 70.4352,28.21195 0,-23.85708 -44.11667,-15.24203 0,-0.94671 44.11667,-15.24202 0,-23.85709 -70.4352,28.21195 z"
         id="path15286"
         style="" />
      <path
         d="m 367.06045,886.18917 -22.15301,0 -31.24142,116.06663 22.15301,0 z"
         id="path15288"
         style="" />
      <path
         d="m 449.25685,959.65384 0,-22.72103 -70.4352,-28.21195 0,23.85709 44.11667,15.24202 0,0.94671 -44.11667,15.24203 0,23.85708 z"
         id="path15290"
         style="" />
    </g>
  </g>
</svg>
