<?xml version="1.0" encoding="UTF-8" standalone="no"?>
<!-- Generator: Adobe Illustrator 16.0.0, SVG Export Plug-In . SVG Version: 6.00 Build 0)  -->

<svg
   xmlns:dc="http://purl.org/dc/elements/1.1/"
   xmlns:cc="http://creativecommons.org/ns#"
   xmlns:rdf="http://www.w3.org/1999/02/22-rdf-syntax-ns#"
   xmlns:svg="http://www.w3.org/2000/svg"
   xmlns="http://www.w3.org/2000/svg"
   xmlns:xlink="http://www.w3.org/1999/xlink"
   xmlns:sodipodi="http://sodipodi.sourceforge.net/DTD/sodipodi-0.dtd"
   xmlns:inkscape="http://www.inkscape.org/namespaces/inkscape"
   version="1.1"
   x="0px"
   y="0px"
   width="500"
   height="250"
   viewBox="0 0 500 250"
   enable-background="new 0 0 1000 600"
   xml:space="preserve"
   id="svg17807"
   inkscape:version="0.48.5 r10040"
   sodipodi:docname="graphic-workshop.svg"><metadata
   id="metadata18757"><rdf:RDF><cc:Work
       rdf:about=""><dc:format>image/svg+xml</dc:format><dc:type
         rdf:resource="http://purl.org/dc/dcmitype/StillImage" /><dc:title /></cc:Work></rdf:RDF></metadata><defs
   id="defs18755"><linearGradient
   id="linearGradient28649"><stop
     style="stop-color:#fbf9fa;stop-opacity:1;"
     offset="0"
     id="stop28651" /><stop
     style="stop-color:#e9e3e6;stop-opacity:1;"
     offset="1"
     id="stop28653" /></linearGradient>
	
	
	
	
	
	
	
	
	
	
	
	
	
	
	
	

		
		
	
		
		
		
		
	
			
			
		
			
		
			
			
			
			
			
		
				
				
				
				
				
				
				
				
				
				
				
				
				
			
		
		
		
		
		
		
		
		
		<radialGradient
   id="SVGID_3_"
   cx="203.7822"
   cy="212.8701"
   r="380.23471"
   gradientUnits="userSpaceOnUse">
			<stop
   offset="0.0016"
   style="stop-color:#CDF7F1"
   id="stop18629" />
			<stop
   offset="1"
   style="stop-color:#5DCFCA"
   id="stop18631" />
		</radialGradient>
		
	
			
			
		
		
		
			
		
		
		
		
		
		
			
		
		
		
		
		
		
		
		
		
		
	
			
			
			
		
			
			
		
		
		
		
		
		
		
		
		
		
	
			
			
		
			
			
			
			
			
			
			
		
			
			
			
			
			
			
			
			
		
				
				
			
		
		
		
		
		
		
		
	
			
			
			
		
		
		
		
		
		
		
		
	
			
			
			
		
			
			
			
			
			
			
			
		
			
		
		
		
		
		
		
		
		
		
		
		
		
		
		
		
		
		
		
			
		
	
			
			
				
			
				
			
		
			
			
		
				
				
				
				
				
			
					
					
				
				
				
				
				
				
				
				
				
				
				
			
					
					
					
					
				<radialGradient
   inkscape:collect="always"
   xlink:href="#linearGradient28649"
   id="radialGradient28655"
   cx="250"
   cy="209.52393"
   fx="250"
   fy="209.52393"
   r="250"
   gradientTransform="matrix(1,0,0,0.16190426,0,175.60112)"
   gradientUnits="userSpaceOnUse" /></defs><sodipodi:namedview
   pagecolor="#ffffff"
   bordercolor="#666666"
   borderopacity="1"
   objecttolerance="10"
   gridtolerance="10"
   guidetolerance="10"
   inkscape:pageopacity="0"
   inkscape:pageshadow="2"
   inkscape:window-width="3440"
   inkscape:window-height="1377"
   id="namedview18753"
   showgrid="false"
   inkscape:snap-global="false"
   inkscape:zoom="1.384"
   inkscape:cx="142.89348"
   inkscape:cy="197.46376"
   inkscape:window-x="1912"
   inkscape:window-y="-8"
   inkscape:window-maximized="1"
   inkscape:current-layer="svg17807"
   inkscape:showpageshadow="false" />

<g
   id="Layer_4"
   transform="translate(0,-350)">
</g>
<path
   style="fill:url(#radialGradient28655);fill-opacity:1"
   inkscape:connector-curvature="0"
   id="path18156"
   d="m 390.48084,182.83499 c -35.21712,-3.172 -116.47605,-9.27416 -183.06634,-12.89579 -123.474672,-6.71098 -256.115701,26.16972 -189.65108,41.85101 18.574011,4.38294 -34.236862,33.61352 96.4107,37.64792 114.68645,3.54009 231.27197,-10.56329 287.71118,-16.73247 56.44033,-6.16974 82.36095,-15.78015 94.39825,-20.12064 10.58619,-3.81601 5.10682,-19.75925 -105.80271,-29.75003 z" /><path
   style="fill:#a91f54;fill-opacity:1"
   inkscape:connector-curvature="0"
   id="path18162"
   d="m 178.80056,25.646262 c 0,0 -2.72405,4.033287 2.21632,8.66143 8.42461,7.888397 19.29454,12.237265 21.39469,13.149935 2.09735,0.912112 8.48995,2.408466 10.63869,-0.419471 2.14875,-2.827937 -4.43265,-8.084448 -4.43265,-8.084448 0,0 -7.39743,-4.071268 -14.0559,-8.33412 -6.65568,-4.262851 -15.76115,-4.973326 -15.76115,-4.973326 z" /><path
   style="fill:#a91f54;fill-opacity:1"
   inkscape:connector-curvature="0"
   id="path18164"
   d="m 223.06785,17.801431 c 0,0 -8.16543,-4.081322 -8.84631,-2.040382 -2.9888,8.967516 -7.57393,18.654443 -8.0649,20.889759 -0.4904,2.235316 -0.72499,8.796599 2.46377,10.358862 3.1882,1.562822 7.07738,-5.909455 7.07738,-5.909455 0,0 2.56821,-8.043116 5.46708,-15.396981 2.89999,-7.354424 1.90298,-7.901803 1.90298,-7.901803 z" /><path
   d="m 186.33539,25.444625 c -0.19828,2.360431 -1.46619,4.40584 -2.80168,4.502469 -1.26568,0 -2.53079,0 -3.79702,0 -1.33606,-0.09663 -2.60508,-2.142038 -2.80281,-4.502469 -0.31167,-3.892532 -0.6211,-7.785065 -0.93277,-11.677039 -0.20779,-2.334738 0.70544,-7.0215286 2.72683,-8.4050562 1.84769,-1.231602 3.96738,-1.231602 5.81451,0 2.02139,1.3835276 2.93294,6.0703182 2.7274,8.4050562 -0.31223,3.891415 -0.6239,7.784507 -0.93446,11.677039 z"
   id="path18168"
   inkscape:connector-curvature="0"
   style="fill:#e9d6b8" /><path
   d="m 157.21875,64.643643 10.15891,16.515197 c 0,0 -15.10877,-7.256119 -14.32736,-14.012895 0.78085,-6.756217 4.16845,-2.502302 4.16845,-2.502302 z"
   id="path18170"
   inkscape:connector-curvature="0"
   style="fill:#e9d6b8" /><path
   d="m 180.74208,83.388012 c 0,0 5.66592,26.846128 11.57259,41.079658 5.23417,12.61261 11.338,-3.79367 11.338,-3.79367 l -9.55288,-48.83121 -15.74942,-1.193063 c 0,0 -1.08136,0.398246 2.39171,12.738285 z"
   id="path18172"
   inkscape:connector-curvature="0"
   style="fill:#661232;fill-opacity:1" /><path
   d="m 182.05299,70.778752 1.93593,20.910984 -2.73074,1.604713 c 0,0 -1.57958,31.057601 -2.09457,32.629351 -2.95193,8.99154 -10.59401,3.59651 -11.6357,0.59933 -1.04282,-2.99774 -2.77823,-25.17384 -2.43249,-41.35893 0.3491,-16.184536 0.3491,-16.184536 0.3491,-16.184536 l 16.60847,1.799088 z"
   id="path18174"
   inkscape:connector-curvature="0"
   style="fill:#661232;fill-opacity:1" /><path
   d="m 195.77488,31.616041 -10.13153,-5.167143 -2.72237,1.10537 -7.82417,-0.849555 -12.14734,4.160637 c 0,0 -2.46599,3.212219 -0.26084,14.761351 2.19454,11.493277 2.39395,30.027632 2.39395,30.027632 l 30.29461,1.79462 c 0,0 4.04502,-48.363701 0.39769,-45.832912 z"
   id="path18176"
   inkscape:connector-curvature="0"
   style="fill:#d8276b;fill-opacity:1" /><path
   d="m 168.15907,31.365811 c 0,0 -4.11819,-3.555728 -8.85692,3.001646 -7.05114,9.760656 -11.2006,21.017666 -11.98313,23.271414 -0.78141,2.249838 -1.82255,9.006614 1.30254,11.007897 3.12676,2.002401 3.12676,2.002401 3.12676,2.002401 l 6.95674,-4.062891 -1.19586,-2.192307 -0.81101,-1.000921 c 0,0 3.64565,-8.007927 7.55494,-15.263487 3.90594,-7.25612 3.90594,-16.763752 3.90594,-16.763752 z"
   id="path18178"
   inkscape:connector-curvature="0"
   style="fill:#d8276b;fill-opacity:1" /><polygon
   points="388.167,165.19 377.353,157.271 379.487,153.465 391.667,158.49 "
   id="polygon18180"
   style="fill:#a91f54;fill-opacity:1"
   transform="matrix(0.55854969,0,0,0.55854969,-35.333431,-61.22553)" /><polygon
   points="392.581,158.49 397.297,164.156 399.991,156.931 397.468,153.676 "
   id="polygon18182"
   style="fill:#a91f54;fill-opacity:1"
   transform="matrix(0.55854969,0,0,0.55854969,-35.333431,-61.22553)" /><path
   d="m 168.08087,177.83318 c -0.26531,0.3625 -0.0653,1.32264 -0.0653,1.32264 0,0 4.67841,0.60268 6.18203,0.21393 0.39098,-0.10277 1.05007,-0.47589 1.67118,-0.87413 0.10501,-0.0659 0.28933,-0.46974 0.38987,-0.53509 0.18767,-0.12568 0.28709,0.0849 0.4474,-0.0274 0.415,-0.29492 0.70824,-0.52224 0.71215,-0.55073 0.40103,-2.40567 -0.1497,-3.37867 -0.1497,-3.37867 0,0 -3.98916,-1.50306 -4.73091,-0.47086 -1.74603,2.4297 -3.87298,3.50546 -4.45667,4.30028 z"
   id="path18184"
   inkscape:connector-curvature="0"
   style="fill:#161711" /><path
   d="m 201.41679,172.5264 0.71327,3.91208 h 3.7959 c 0,0 0.21002,-0.5552 0.53063,-0.5552 0.27257,0 0.62278,0.5552 0.98919,0.5552 0.79928,0 1.6857,0 2.03926,0 0.71159,0 7.61806,0 7.61806,0 0,0 0.17259,-0.82442 -0.0358,-1.10649 -0.10891,-0.14578 -0.74343,-0.39992 -1.16625,-0.52224 -1.9633,-0.58033 -7.57449,-2.38836 -8.55139,-4.35892 -1.18748,-2.39451 -5.93292,2.07557 -5.93292,2.07557 z"
   id="path18186"
   inkscape:connector-curvature="0"
   style="fill:#161711" /><path
   d="m 178.50062,117.73938 c 0,0 1.26455,5.87482 1.08246,16.97991 -0.11506,7.0394 -0.76744,25.67708 -1.98229,39.55034 -0.0743,0.84956 -6.59982,0.20722 -6.59982,0.20722 0,0 -3.97576,-45.03697 -4.32262,-53.75482 -0.10724,-2.62462 6.61211,-9.19484 11.82227,-2.98265 z"
   id="path18188"
   inkscape:connector-curvature="0"
   style="fill:#661232;fill-opacity:1" /><path
   d="m 201.01855,119.93894 c 0,0 -2.05491,-0.80878 -7.64599,0.80487 -3.64174,1.05064 7.47228,52.41989 7.47228,52.41989 l 8.23079,-3.02343 -5.66146,-50.73753 -2.39562,0.5362 z"
   id="path18190"
   inkscape:connector-curvature="0"
   style="fill:#661232;fill-opacity:1" /><path
   style="fill:#440c22;fill-opacity:1"
   inkscape:connector-curvature="0"
   id="path18194"
   d="m 182.1943,2.6116726 v -2.70114628 h 1.11543 2.94076 1.77619 c 1.96219,0 3.55182,1.59074948 3.55182,3.55293458 v 2.7000292 h -1.1171 -2.94077 -1.7773 c -1.95939,0 -3.54903,-1.5913081 -3.54903,-3.5518175 z" /><path
   style="fill:#e9d6b8"
   inkscape:connector-curvature="0"
   id="path18196"
   d="m 176.60601,19.002872 c 0,1.744909 1.41369,3.15804 3.15804,3.15804 h 7.16787 c 1.74491,0 3.15804,-1.413131 3.15804,-3.15804 V 4.667694 c 0,-1.7437921 -1.41313,-3.1597156 -3.15804,-3.1597156 h -7.16787 c -1.74435,0 -3.15804,1.4159235 -3.15804,3.1597156 v 14.335178 z" /><path
   style="fill:#440c22;fill-opacity:1"
   inkscape:connector-curvature="0"
   id="path18198"
   d="m 181.96753,-0.08947368 c -1.24333,0 -2.33529,0.64009794 -2.96981,1.60638888 h -1.21987 c -1.51925,0 -2.75197,1.2316021 -2.75197,2.7530914 v 6.7981084 h 1.93649 V 8.3038525 c 0,-1.0662713 0.8691,-1.933699 1.93761,-1.933699 h 1.13106 2.94021 1.77451 c 1.9633,0 3.55182,-1.5924252 3.55182,-3.552376 v -2.90669263 h -6.33005 z" /><path
   style="fill:#e9d6b8"
   inkscape:connector-curvature="0"
   id="path18200"
   d="m 177.57342,12.835366 c 0,-0.929427 -0.75348,-1.683469 -1.68458,-1.683469 h -0.13964 c -0.93166,0 -1.68626,0.754042 -1.68626,1.683469 v 2.04876 c 0,0.927751 0.7546,1.683469 1.68626,1.683469 h 0.13964 c 0.68813,0 1.27963,-0.413885 1.54215,-1.003714" /><g
   id="g18204"
   style="fill:#bf6d8c;fill-opacity:1"
   transform="matrix(0.55854969,0,0,0.55854969,-35.333431,-61.22553)">
					<polygon
   points="444.576,156.675 434.511,414.493 437.466,414.493 447.24,164.052 "
   id="polygon18206"
   style="fill:#bf6d8c;fill-opacity:1" />
					<polygon
   points="437.466,414.493 447.24,164.052 446.149,161.029 436.252,414.493 "
   id="polygon18208"
   style="fill:#bf6d8c;fill-opacity:1" />
				</g><polygon
   points="434.603,294.996 440.82,135.74 484.689,135.74 478.472,294.996 "
   id="polygon18210"
   style="fill:#bf6d8c;fill-opacity:1"
   transform="matrix(0.55854969,0,0,0.55854969,-35.333431,-61.22553)" /><g
   id="g18212"
   transform="matrix(0.55854969,0,0,0.55854969,-35.333431,-61.22553)">
					<polygon
   points="588.806,263.355 603.627,422.612 599.273,422.612 584.878,267.912 "
   id="polygon18214"
   style="fill:#cfd9e8" />
					<polygon
   points="599.273,422.612 584.878,267.912 586.487,266.044 601.057,422.612 "
   id="polygon18216"
   style="fill:#aebddc" />
				</g><polygon
   style="fill:#cfd9e8"
   id="polygon18220"
   points="474.641,422.612 460.248,267.912 464.174,263.355 478.994,422.612 "
   transform="matrix(0.55854969,0,0,0.55854969,-35.333431,-61.22553)" /><polygon
   style="fill:#bf6d8c;fill-opacity:1"
   id="polygon18222"
   points="461.857,266.044 476.424,422.612 474.641,422.612 460.248,267.912 "
   transform="matrix(0.55854969,0,0,0.55854969,-35.333431,-61.22553)" /><polygon
   points="598.127,294.996 583.309,135.74 441.293,135.74 456.111,294.996 "
   id="polygon18224"
   style="fill:#f1f0f6"
   transform="matrix(0.55854969,0,0,0.55854969,-35.333431,-61.22553)" /><g
   id="g18226"
   transform="matrix(0.55854969,0,0,0.55854969,-35.333431,-61.22553)">
				<path
   style="fill:#e9d6b8"
   inkscape:connector-curvature="0"
   id="path18228"
   d="m 454.471,131.953 c -2.25,0.25 -7.75,3.25 -7.75,3.25 l 8.25,0.25 c 0.194,1.083 0.051,1.697 0.051,1.697 l 0.259,5.201 -0.074,2.418 c 0,0 -0.143,1.369 0.101,1.725 0.7,1.034 1.219,0.118 1.219,0.118 l 1.088,-9.361 1.334,8.937 c 0,0 0.363,1.119 0.975,1.154 0.57,0.032 0.539,-0.34 0.539,-0.34 l 0.85,-10.44 1.205,4.54 c 0,0 0.379,1.084 0.974,1.15 0.649,0.074 0.826,0.112 0.826,0.112 l -1.185,-9.551 c -0.002,0 -4.183,-1.358 -8.662,-0.86 z" />
				<path
   style="fill:#e9d6b8"
   inkscape:connector-curvature="0"
   id="path18230"
   d="m 459.271,137.592 1.301,6.236 c 0,0 0.14,1.425 0.615,2.05 0.542,0.716 1.177,0.271 1.177,0.271 l -1.053,-9.588 -2.04,1.031 z" />
			</g><path
   style="fill:#661232;fill-opacity:1"
   inkscape:connector-curvature="0"
   id="path18354"
   d="m 59.669169,171.96785 c -1.357276,0 -3.501548,-0.31056 -5.380509,-1.94543 -2.702264,-2.35038 -3.872984,-6.53168 -3.480324,-12.42606 0.266429,-3.9791 1.831485,-8.00625 3.489819,-12.27189 2.790514,-7.17401 5.953022,-15.30482 4.29804,-26.05858 l 3.073699,-0.47365 c 1.780098,11.57706 -1.687379,20.49487 -4.473425,27.65938 -1.638226,4.21091 -3.052474,7.8493 -3.286506,11.35085 -0.317815,4.77951 0.507163,8.18499 2.390034,9.85002 1.782332,1.57679 4.014855,1.17072 4.109809,1.15397 l 0.621665,3.04577 c -0.0553,0.0123 -0.57754,0.11562 -1.362302,0.11562 z" /><g
   id="g18358"
   transform="matrix(0.55854969,0,0,0.55854969,-35.333431,-61.22553)">
				<path
   style="fill:#88bdda"
   inkscape:connector-curvature="0"
   id="path18360"
   d="m 212.753,461.652 5.422,8.262 -45.52,14.581 c 0,0 -3.042,-2.907 8.129,-8.747 13.003,-6.804 31.969,-14.096 31.969,-14.096 z" />
				<path
   style="fill:#88bdda"
   inkscape:connector-curvature="0"
   id="path18362"
   d="m 220.838,461.652 -5.418,8.262 45.517,14.581 c 0,0 3.04,-2.907 -8.129,-8.747 -13.005,-6.804 -31.97,-14.096 -31.97,-14.096 z" />
			</g><rect
   style="fill:#88bdda"
   id="rect18364"
   height="18.915287"
   width="5.3118076"
   y="182.89587"
   x="83.10144" /><g
   id="g18366"
   transform="matrix(0.55854969,0,0,0.55854969,-35.333431,-61.22553)">
				<path
   style="fill:#acd5f4"
   inkscape:connector-curvature="0"
   id="path18368"
   d="m 212.145,463.391 4.639,7.887 -38.964,13.915 c 0,0 -2.603,-2.774 6.956,-8.351 11.133,-6.492 27.369,-13.451 27.369,-13.451 z" />
				<path
   style="fill:#acd5f4"
   inkscape:connector-curvature="0"
   id="path18370"
   d="m 221.445,463.391 -4.638,7.887 38.967,13.915 c 0,0 2.602,-2.774 -6.957,-8.351 -11.133,-6.492 -27.372,-13.451 -27.372,-13.451 z" />
			</g><circle
   d="m 182.23,488.323 c 0,1.8253 -1.4797,3.305 -3.305,3.305 -1.8253,0 -3.305,-1.4797 -3.305,-3.305 0,-1.8253 1.4797,-3.305 3.305,-3.305 1.8253,0 3.305,1.4797 3.305,3.305 z"
   style="fill:#001f46"
   sodipodi:ry="3.3050001"
   sodipodi:rx="3.3050001"
   sodipodi:cy="488.323"
   sodipodi:cx="178.925"
   id="circle18372"
   r="3.3050001"
   cy="488.323"
   cx="178.925"
   transform="matrix(0.55854969,0,0,0.55854969,-35.333431,-61.22553)" /><circle
   d="m 257.728,488.323 c 0,1.8253 -1.47969,3.305 -3.305,3.305 -1.8253,0 -3.305,-1.4797 -3.305,-3.305 0,-1.8253 1.4797,-3.305 3.305,-3.305 1.82531,0 3.305,1.4797 3.305,3.305 z"
   style="fill:#001f46"
   sodipodi:ry="3.3050001"
   sodipodi:rx="3.3050001"
   sodipodi:cy="488.323"
   sodipodi:cx="254.423"
   id="circle18374"
   r="3.3050001"
   cy="488.323"
   cx="254.423"
   transform="matrix(0.55854969,0,0,0.55854969,-35.333431,-61.22553)" /><circle
   d="m 174.23,488.323 c 0,1.8253 -1.4797,3.305 -3.305,3.305 -1.8253,0 -3.305,-1.4797 -3.305,-3.305 0,-1.8253 1.4797,-3.305 3.305,-3.305 1.8253,0 3.305,1.4797 3.305,3.305 z"
   style="fill:#367082"
   sodipodi:ry="3.3050001"
   sodipodi:rx="3.3050001"
   sodipodi:cy="488.323"
   sodipodi:cx="170.925"
   id="circle18376"
   r="3.3050001"
   cy="488.323"
   cx="170.925"
   transform="matrix(0.55854969,0,0,0.55854969,-35.333431,-61.22553)" /><path
   style="fill:#367082"
   inkscape:connector-curvature="0"
   id="path18378"
   d="m 113.08942,211.52713 c 0,1.01991 -0.8261,1.84601 -1.84712,1.84601 -1.01768,0 -1.84545,-0.8261 -1.84545,-1.84601 0,-1.01879 0.82721,-1.84657 1.84545,-1.84657 1.02102,5.6e-4 1.84712,0.82778 1.84712,1.84657 z" /><rect
   x="83.74601"
   y="175.96483"
   width="3.8858302"
   height="6.8025765"
   id="rect18380"
   style="fill:#661232;fill-opacity:1" /><path
   d="m 90.546913,172.37056 c 0,2.09345 -1.696316,3.78976 -3.788084,3.78976 h -2.13757 c -2.092327,0 -3.78976,-1.69631 -3.78976,-3.78976 l 0,0 c 0,-2.09344 1.697433,-3.78752 3.78976,-3.78752 h 2.13757 c 2.091768,0 3.788084,1.69408 3.788084,3.78752 l 0,0 z"
   id="path18382"
   inkscape:connector-curvature="0"
   style="fill:#661232;fill-opacity:1" /><path
   d="m 114.57237,168.90588 c 0.0927,-0.44628 0.1469,-3.2435 0.1469,-3.72441 0,-3.06029 -1.97727,-5.53914 -4.41701,-5.53914 H 61.077831 c -2.439187,0 -4.417011,2.47885 -4.417011,5.53914 0,0.48091 0.05362,3.27813 0.145782,3.72441 h 57.765768 z"
   id="path18384"
   inkscape:connector-curvature="0"
   style="fill:#d8276b;fill-opacity:1" /><path
   d="m 56.206161,170.4067 c 0,0.93613 0.54682,1.69464 1.222665,1.69464 h 56.521314 c 0.67585,0 1.22379,-0.75851 1.22379,-1.69464 l 0,0 c 0,-0.93724 -0.54794,-1.69631 -1.22379,-1.69631 H 57.428826 c -0.675845,0 -1.222665,0.75907 -1.222665,1.69631 l 0,0 z"
   id="path18386"
   inkscape:connector-curvature="0"
   style="fill:#661232;fill-opacity:1" /><path
   style="fill:#d8276b;fill-opacity:1"
   inkscape:connector-curvature="0"
   id="path18390"
   d="m 58.961486,140.48352 c 1.215404,0.0899 8.930093,0.22621 10.259999,0.24129 8.444713,0.10389 15.72094,-1.48183 16.124771,-3.56243 1.66783,-8.64467 1.742117,-17.50941 0.21951,-26.15688 -0.360264,-2.07836 -7.744291,-3.66408 -16.36774,-3.55852 -1.357275,0.0156 -9.23115,0.1536 -10.467779,0.24465 2.64585,10.77777 2.721812,22.00965 0.231239,32.79189 z" /><path
   style="fill:#661232;fill-opacity:1"
   inkscape:connector-curvature="0"
   id="path18392"
   d="m 57.801379,107.68883 c -0.945625,0.0112 -1.604714,0.46025 -1.474572,1.00316 2.352053,10.13768 2.440862,20.65405 0.264194,30.79508 -0.117854,0.54347 0.535091,0.99142 1.461166,1.00204 l 0,0 c 0.9244,0.0117 1.780657,-0.42059 1.897952,-0.96574 2.204037,-10.16504 2.136453,-20.70599 -0.201078,-30.86936 -0.128466,-0.54515 -0.999804,-0.97635 -1.947662,-0.96518 l 0,0 z" /><path
   style="fill:#a91f54;fill-opacity:1"
   inkscape:connector-curvature="0"
   id="path18394"
   d="m 57.424357,140.46788 c 0.250789,0.0799 1.923087,0.14411 2.21465,0.1469 1.839863,0.0223 3.73558,-1.6008 4.101989,-3.64621 1.533219,-8.51565 1.493562,-17.24578 -0.117854,-25.75976 -0.383724,-2.04541 -2.325801,-3.66632 -4.201411,-3.64453 -0.297707,0.004 -2.001283,0.0687 -2.258775,0.14857 2.651994,10.76493 2.738569,21.98508 0.261401,32.75503 z" /><g
   id="g18396"
   transform="matrix(0.55854969,0,0,0.55854969,-35.333431,-61.22553)">
		<path
   style="fill:#dce5ea"
   inkscape:connector-curvature="0"
   id="path18398"
   d="m 248.558,223.135 h -7.461 v 3.822 c 1.674,-2.312 4.386,-3.822 7.461,-3.822 z" />
	</g><path
   d="m 85.192097,76.245278 c 0,0 -7.200264,2.570446 -0.286536,23.210533 6.915403,20.638969 11.520646,18.138339 11.520646,18.138339 l 5.715083,-0.55352 10.96377,-13.00024 -5.9022,-5.160444 -1.19138,0.474767 c 0,0 -1.52652,-0.631161 -1.70358,-2.050994 -0.17594,-1.419834 -2.94411,-7.358334 -5.034207,-19.485565 -0.964615,-5.592199 -12.69751,-2.078363 -14.081596,-1.572876 z"
   id="path18402"
   inkscape:connector-curvature="0"
   style="fill:#ff7dae;fill-opacity:1" /><path
   d="m 111.54224,104.28671 c 0,0 14.21453,7.2617 23.16529,-6.793084 2.66204,-4.176835 1.52428,0.632278 0.0687,5.202334 -1.45447,4.57117 -10.28625,14.92221 -20.32507,15.61425 -10.03993,0.69484 -13.86934,0.1335 -15.748863,-3.33956 -1.881196,-3.47195 12.839943,-10.68394 12.839943,-10.68394 z"
   id="path18404"
   inkscape:connector-curvature="0"
   style="fill:#cea35e;fill-opacity:1" /><path
   d="m 99.336251,100.98735 3.602089,-2.333617 1.49468,-0.851229 c 0.41332,1.070739 1.5779,1.553326 1.5779,1.553326 l -3.00723,1.23551 -3.277572,2.10685 -3.385928,4.0668 2.996061,-5.77764 z"
   id="path18406"
   inkscape:connector-curvature="0"
   style="fill:#ffb9d3;fill-opacity:1" /><path
   d="m 98.483904,135.53365 -26.908132,-0.58257 c 0,0 -10.576697,-27.70518 -11.186074,-37.45913 -0.354121,-5.662018 3.023429,-18.124379 8.794923,-20.917127 1.285223,-0.621666 5.297285,-2.212974 7.251651,-2.344233 11.331856,-0.761304 20.536196,0.03016 20.536196,0.03016 0,0 9.371342,8.130808 1.511436,61.272899 z"
   id="path18408"
   inkscape:connector-curvature="0"
   style="fill:#ffb9d3;fill-opacity:1" /><path
   d="m 142.7903,215.08006 c 0,0 -2.61625,4.03553 -3.95286,1.56059 -4.0115,-7.42312 -7.62867,-30.85707 -7.85432,-40.47251 -0.30441,-12.8243 -0.88977,-20.64344 -0.88977,-20.64344 l 12.90194,-4.67673 -0.20499,64.23209 z"
   id="path18410"
   inkscape:connector-curvature="0"
   style="fill:#300c1a;fill-opacity:1" /><path
   d="m 97.533252,135.26387 45.524038,15.58577 -11.94012,6.66238 c 0,0 -46.951688,8.23526 -47.787836,-9.18981 -0.703773,-14.6597 14.203918,-13.05834 14.203918,-13.05834 z"
   id="path18412"
   inkscape:connector-curvature="0"
   style="fill:#300c1a;fill-opacity:1" /><path
   d="m 126.61582,215.44647 c 0,0 -2.3582,2.16103 -3.69481,-0.31446 -4.01039,-7.42257 -10.59066,-27.14551 -10.81743,-36.76206 -0.30218,-12.82319 1.81417,-21.74267 1.81417,-21.74267 l 13.18401,-4.57731 -0.48594,63.3965 z"
   id="path18414"
   inkscape:connector-curvature="0"
   style="fill:#550f2a;fill-opacity:1" /><path
   d="m 83.418701,135.76377 43.406019,16.3778 -11.88929,6.47191 c 0,0 -44.051701,8.23358 -44.904047,-9.18926 -0.852347,-17.42451 13.387318,-13.66045 13.387318,-13.66045 z"
   id="path18416"
   inkscape:connector-curvature="0"
   style="fill:#550f2a;fill-opacity:1" /><path
   d="m 69.260025,150.4028 c -0.11171,1.19977 0.58927,5.20736 1.924763,6.81822 4.10925,4.96495 13.841978,3.29991 21.604143,3.29991 0.426732,0 2.589995,-6.05524 2.589995,-6.05524 l 3.240147,-19.80505 -27.2131,0.4636 c 0,0 -1.205908,5.28108 -2.145948,15.27856 z"
   id="path18418"
   inkscape:connector-curvature="0"
   style="fill:#550f2a;fill-opacity:1" /><path
   d="m 113.47203,123.12882 9.96452,-1.78903 c 0,0 1.54998,-0.16589 1.62203,0.90597 0.0933,1.41536 -0.16086,6.03289 -0.16086,6.03289 l -1.78904,-1.10537 -2.56653,1.56562 -2.97707,-3.94113 c 0,0 -1.54216,0.29268 -2.82068,-0.0268 -0.42785,-0.10948 -1.27237,-1.64214 -1.27237,-1.64214 z"
   id="path18420"
   inkscape:connector-curvature="0"
   style="fill:#cea35e;fill-opacity:1" /><path
   d="m 89.023748,120.30312 26.380302,2.92624 c 0,0 -14.15142,7.22987 -20.632826,7.27567 -6.481969,0.0491 -12.556756,-1.44273 -12.556756,-1.44273 l 6.80928,-8.75918 z"
   id="path18422"
   inkscape:connector-curvature="0"
   style="fill:#cea35e;fill-opacity:1" /><path
   d="m 76.01345,92.954292 13.180655,24.940918 -0.755159,2.02474 2.027535,0.37647 -6.155776,9.79472 -9.656207,-2.2018 -11.800479,-27.85599 c 0,0 -4.177393,-11.793217 4.2824,-19.549238 2.234199,-2.048202 7.711337,10.471131 8.877031,12.47018 z"
   id="path18424"
   inkscape:connector-curvature="0"
   style="fill:#ff7dae;fill-opacity:1" /><path
   d="m 79.360838,126.40807 c 0,0 6.239,-4.76834 9.407652,-7.37007 l -0.329544,0.88251 2.027535,0.37535 -2.154326,3.36973 -3.737814,4.34719 -2.142038,-0.78197 0.811014,-1.52707 -3.882479,0.70433 z"
   id="path18426"
   inkscape:connector-curvature="0"
   style="fill:#ffb9d3;fill-opacity:1" /><path
   style="fill:#cea35e;fill-opacity:1"
   inkscape:connector-curvature="0"
   id="path18430"
   d="m 133.61947,102.372 c 0,0 -2.13868,-5.128605 -1.37347,-6.518276 0.768,-1.387438 3.91376,-6.287036 3.91376,-6.287036 l 0.92272,-1.177981 c 0,0 1.8717,0.280392 -0.28095,3.551259 -2.15377,3.270308 -0.22174,2.240343 -0.22174,2.240343 l 3.08598,-2.230848 4.00201,-2.44533 1.63432,-1.306448 c 0,0 0.87189,-0.811573 1.24445,-0.828329 1.08023,-0.05139 0.71717,0.782528 0.71717,0.782528 l -5.92006,5.614541 6.88356,-3.714355 c 0,0 0.96015,-0.330661 1.30254,0.07261 0.32228,0.379814 0.0464,0.552965 0.0464,0.552965 l -6.78973,6.010553 3.76686,-1.523165 c 0,0 0.94897,-0.299383 1.30645,0.07596 0.38651,0.412768 0.50493,0.513865 0.50493,0.513865 l -13.84533,7.74932 -0.89983,-1.13218 z" /><path
   style="fill:#cea35e;fill-opacity:1"
   inkscape:connector-curvature="0"
   id="path18432"
   d="m 142.43841,94.740534 4.99623,-2.336413 c 0,0 1.05901,-0.645684 1.73821,-0.640657 0.77861,0.0056 0.79928,0.674728 0.79928,0.674728 l -7.18574,4.251122 -0.34798,-1.94878 z" /><path
   d="m 130.84571,219.43173 c 0.22733,0.38037 0.0486,1.39246 0.0486,1.39246 0,0 -4.0668,0.67026 -5.36878,0.26866 -0.33737,-0.10389 -0.90764,-0.49487 -1.44329,-0.91099 -0.0905,-0.0698 -0.24632,-0.49097 -0.33402,-0.56134 -0.16421,-0.13015 -0.25079,0.0905 -0.38986,-0.0263 -0.35859,-0.30608 -0.6105,-0.54514 -0.61385,-0.5753 -0.33178,-2.53638 0.15137,-3.56523 0.15137,-3.56523 0,0 3.47362,-1.61253 4.11036,-0.52782 1.49915,2.55145 3.33846,3.67134 3.83947,4.50582 z"
   id="path18434"
   inkscape:connector-curvature="0"
   style="fill:#300c1a;fill-opacity:1" /><path
   d="m 138.40233,216.23235 0.5781,3.67917 h 3.07873 c 0,0 0.17091,-0.52057 0.43064,-0.52057 0.21895,0 0.50325,0.52057 0.80152,0.52057 0.64792,0 1.36677,0 1.65331,0 0.57698,0 6.17644,0 6.17644,0 0,0 0.13964,-0.77359 -0.0302,-1.04002 -0.0877,-0.13796 -0.60156,-0.37646 -0.94507,-0.49152 -1.59075,-0.54682 -6.40321,-1.7343 -7.47395,-3.44123 -0.83168,-1.32376 -4.26956,1.2936 -4.26956,1.2936 z"
   id="path18436"
   inkscape:connector-curvature="0"
   style="fill:#300c1a;fill-opacity:1" /><rect
   x="-105.0605"
   y="-38.730915"
   transform="matrix(-0.91550662,-0.40230292,0.40230292,-0.91550662,0,0)"
   width="6.702548"
   height="4.7470794"
   id="rect18438"
   style="fill:#ff7dae;fill-opacity:1" /><path
   d="m 87.106247,56.115706 c 0.280391,1.778422 -0.935013,3.449603 -2.713993,3.729995 l -12.168005,1.916942 c -1.780657,0.280392 -3.448486,-0.936129 -3.728878,-2.714551 l 0,0 c -0.280392,-1.778422 0.933336,-3.447369 2.713993,-3.728319 l 12.168005,-1.916384 c 1.778981,-0.280951 3.447927,0.933895 3.728878,2.712317 l 0,0 z"
   id="path18444"
   inkscape:connector-curvature="0"
   style="fill:#440c22;fill-opacity:1" /><path
   d="m 85.754556,62.051972 c 0.517217,3.287065 -1.72927,6.371935 -5.014659,6.889711 l -6.350151,1.000362 c -3.28539,0.517217 -6.371935,-1.727594 -6.889711,-5.014101 l 0,0 c -0.517775,-3.285947 1.72927,-6.371376 5.014659,-6.888593 l 6.350152,-1.000921 c 3.285948,-0.517217 6.371376,1.728153 6.88971,5.013542 l 0,0 z"
   id="path18446"
   inkscape:connector-curvature="0"
   style="fill:#440c22;fill-opacity:1" /><path
   d="M 92.032655,70.82958 89.100827,52.219263 c -0.466947,-2.964223 -2.40288,0.378138 -5.366545,0.845645 l -2.863126,0.451308 c -2.964781,0.466947 -4.990641,3.250759 -4.523135,6.213865 l 2.086183,13.242655 13.598451,-2.143156 z"
   id="path18448"
   inkscape:connector-curvature="0"
   style="fill:#cea35e;fill-opacity:1" /><path
   d="m 79.37536,63.510904 c 0.204429,1.301979 -0.684782,2.523527 -1.98732,2.728515 l 0,0 c -1.303654,0.205546 -2.524086,-0.683106 -2.729073,-1.985644 l 0,0 c -0.204988,-1.301979 0.683106,-2.523528 1.986761,-2.729074 l 0,0 c 1.301979,-0.204988 2.524645,0.684224 2.729632,1.986203 l 0,0 z"
   id="path18450"
   inkscape:connector-curvature="0"
   style="fill:#cea35e;fill-opacity:1" /><path
   d="m 89.561631,65.242408 c 0.118971,0.756835 0.806546,1.275727 1.537129,1.160666 l 1.100901,-0.17315 c 0.730025,-0.11562 1.222665,-0.819951 1.104253,-1.576786 0,0 -3.526124,-6.684164 -4.256707,-6.569103 0,0 -0.501578,0.706565 -0.383165,1.461725 l 0.897589,5.696648 z"
   id="path18452"
   inkscape:connector-curvature="0"
   style="fill:#cea35e;fill-opacity:1" /><path
   d="m 84.358182,70.996587 c -5.368221,0.846203 -6.185938,-0.712151 -6.63948,-2.570446 0,0 -0.688133,4.938697 -0.449633,6.457393 l 0.267546,1.694081 c 0.514983,3.271426 4.297481,5.394473 8.446947,4.74097 l 7.514727,-1.184125 -1.314267,-8.347525 -0.311671,-1.973915 -7.514169,1.183567 z"
   id="path18454"
   inkscape:connector-curvature="0"
   style="fill:#440c22;fill-opacity:1" /><path
   d="m 91.328882,66.356156 -4.295247,0.676404 c -1.976149,0.31167 -3.323929,2.166055 -3.013375,4.142763 0.04915,0.310553 0.148574,0.599324 0.267545,0.874689 l 7.745408,-1.220432 -0.704331,-4.473424 z"
   id="path18456"
   inkscape:connector-curvature="0"
   style="fill:#440c22;fill-opacity:1" /><path
   d="m 86.373429,70.98765 0.188232,1.193062 c 0.05139,0.329544 0.360823,0.555757 0.68925,0.503253 l 3.479206,-0.547937 c 0.328986,-0.05139 0.555757,-0.36194 0.50437,-0.690926 l -0.188789,-1.19362 -4.672269,0.736168 z"
   id="path18458"
   inkscape:connector-curvature="0"
   style="fill:#e9d6b8" /><path
   d="m 86.728667,49.205888 -11.009573,1.734297 c -1.185801,0.187114 -1.994022,1.300862 -1.808025,2.486663 l 0.676962,4.29413 13.156079,-2.07222 -1.015443,-6.44287 z"
   id="path18460"
   inkscape:connector-curvature="0"
   style="fill:#440c22;fill-opacity:1" /><path
   d="m 94.05628,51.338989 c 0.282626,1.79071 -0.940597,3.472503 -2.731308,3.754012 l -7.452728,1.174072 c -1.791828,0.282068 -3.473621,-0.941715 -3.75513,-2.732425 l 0,0 c -0.282626,-1.791828 0.941715,-3.470269 2.732984,-3.752337 l 7.453287,-1.17463 c 1.79071,-0.281509 3.470269,0.939481 3.752895,2.731308 l 0,0 z"
   id="path18462"
   inkscape:connector-curvature="0"
   style="fill:#440c22;fill-opacity:1" /><rect
   style="fill:#440c22;fill-opacity:1"
   id="rect18464"
   height="7.9290137"
   width="3.0127571"
   transform="matrix(0.98781966,-0.1556031,0.1556031,0.98781966,0,0)"
   y="67.053436"
   x="65.99073" /><rect
   style="fill:#440c22;fill-opacity:1"
   id="rect18466"
   height="9.3337383"
   width="8.8656826"
   transform="matrix(0.98781966,-0.1556031,0.1556031,0.98781966,0,0)"
   y="63.641396"
   x="66.930763" /><path
   style="fill:#cea35e;fill-opacity:1"
   inkscape:connector-curvature="0"
   id="path18468"
   d="m 79.54125,61.474432 c -0.384841,-2.445889 1.284664,-4.742087 3.73167,-5.127486 l 2.28782,-0.360265 c 2.446447,-0.385399 4.069593,1.391347 4.45555,3.837795 l 0,0 c 0.384841,2.448682 -1.28634,4.743762 -3.733904,5.129162 l -1.614209,0.25414 C 82.22173,65.593177 79.926649,63.922555 79.54125,61.474432 l 0,0 z" /><g
   id="g18470"
   transform="matrix(0.55854969,0,0,0.55854969,-35.333431,-61.22553)">
		<path
   style="fill:#b4c0c7"
   inkscape:connector-curvature="0"
   id="path18472"
   d="m 267.095,339.756 c -0.014,-0.026 -0.029,-0.053 -0.041,-0.075 l 0.041,-2.31 H 362.8 v 2.31 c 0,0 0.016,0.049 0,0.075 l -0.244,0.43 c -1.23,2.002 -3.438,2.365 -5.963,2.365 h -83.287 c -2.527,0 -4.733,-0.363 -5.967,-2.365 l -0.244,-0.43 z" />
		<path
   style="fill:#d6e3eb"
   inkscape:connector-curvature="0"
   id="path18474"
   d="m 290.159,340.146 c 0,0 0.015,0.04 0,0.063 l -0.236,0.347 c -0.378,0.517 -0.855,0.901 -1.4,1.179 H 273.97 c -2.432,0 -4.553,-0.292 -5.737,-1.91 l -0.231,-0.353 c -0.013,-0.021 -0.029,-0.038 -0.041,-0.057 l 0.023,-1.141 h 22.176 v 1.872 z" />
		<g
   id="g18476">
			<rect
   style="fill:#8599a4"
   id="rect18478"
   height="1.633"
   width="47.824001"
   y="337.90399"
   x="303.07501" />
		</g>
		<g
   id="g18480">
			<path
   style="fill:#d7dfe2"
   inkscape:connector-curvature="0"
   id="path18482"
   d="m 290.691,337.283 12.407,-47.027 c 0.328,-1.244 1.598,-2.248 2.836,-2.248 h 67.148 c 1.238,0 1.98,1.004 1.651,2.248 l -12.407,47.027 h -71.635 z" />
			<path
   style="fill:#b4c0c7"
   inkscape:connector-curvature="0"
   id="path18484"
   d="m 328.661,312.648 c -0.635,2.399 0.801,4.348 3.199,4.348 2.403,0 4.861,-1.948 5.496,-4.348 0.633,-2.403 -0.797,-4.353 -3.201,-4.353 -2.402,10e-4 -4.861,1.95 -5.494,4.353 z" />
		</g>
	</g><g
   id="g18488"
   style="fill:#661232;fill-opacity:1"
   transform="matrix(0.55854969,0,0,0.55854969,-35.333431,-61.22553)">
			<path
   d="m 787.35,419.846 c 2.199,0 5.672,-0.504 8.717,-3.152 4.379,-3.807 6.275,-10.581 5.639,-20.13 -0.431,-6.448 -2.967,-12.972 -5.654,-19.883 -4.521,-11.622 -9.643,-24.796 -6.963,-42.217 l -4.979,-0.765 c -2.883,18.754 2.735,33.2 7.247,44.808 2.654,6.822 4.945,12.716 5.324,18.39 0.516,7.742 -0.821,13.261 -3.872,15.957 -2.888,2.555 -6.505,1.896 -6.657,1.869 l -1.009,4.936 c 0.089,0.017 0.935,0.187 2.207,0.187 z"
   id="path18490"
   inkscape:connector-curvature="0"
   style="fill:#661232;fill-opacity:1" />
		</g><g
   id="g18492"
   transform="matrix(0.55854969,0,0,0.55854969,-35.333431,-61.22553)">
			<g
   id="g18494">
				<path
   d="m 748.742,459.799 -4.904,7.478 41.19,13.194 c 0,0 2.75,-2.631 -7.357,-7.916 -11.767,-6.158 -28.929,-12.756 -28.929,-12.756 z"
   id="path18496"
   inkscape:connector-curvature="0"
   style="fill:#88bdda" />
				<path
   d="m 741.428,459.799 4.902,7.478 -41.188,13.194 c 0,0 -2.752,-2.631 7.355,-7.916 11.769,-6.158 28.931,-12.756 28.931,-12.756 z"
   id="path18498"
   inkscape:connector-curvature="0"
   style="fill:#88bdda" />
			</g>
			<rect
   x="740.78198"
   y="437.54901"
   width="8.6049995"
   height="30.646"
   id="rect18500"
   style="fill:#88bdda" />
			<g
   id="g18502">
				<path
   d="m 749.294,461.373 -4.197,7.137 35.257,12.592 c 0,0 2.355,-2.512 -6.294,-7.556 -10.076,-5.875 -24.766,-12.173 -24.766,-12.173 z"
   id="path18504"
   inkscape:connector-curvature="0"
   style="fill:#acd5f4" />
				<path
   d="m 740.878,461.373 4.196,7.137 -35.262,12.592 c 0,0 -2.354,-2.512 6.297,-7.556 10.075,-5.875 24.769,-12.173 24.769,-12.173 z"
   id="path18506"
   inkscape:connector-curvature="0"
   style="fill:#acd5f4" />
			</g>
			<circle
   d="m 782.345,483.936 c 0,1.65189 -1.33911,2.991 -2.991,2.991 -1.65188,0 -2.991,-1.33911 -2.991,-2.991 0,-1.65188 1.33912,-2.991 2.991,-2.991 1.65189,0 2.991,1.33912 2.991,2.991 z"
   cx="779.354"
   cy="483.936"
   r="2.9909999"
   id="circle18508"
   sodipodi:cx="779.354"
   sodipodi:cy="483.936"
   sodipodi:rx="2.9909999"
   sodipodi:ry="2.9909999"
   style="fill:#001f46" />
			<circle
   d="m 714.02699,483.936 c 0,1.65134 -1.33867,2.99 -2.99,2.99 -1.65133,0 -2.99,-1.33866 -2.99,-2.99 0,-1.65133 1.33867,-2.99 2.99,-2.99 1.65133,0 2.99,1.33867 2.99,2.99 z"
   cx="711.03699"
   cy="483.936"
   r="2.99"
   id="circle18510"
   sodipodi:cx="711.03699"
   sodipodi:cy="483.936"
   sodipodi:rx="2.99"
   sodipodi:ry="2.99"
   style="fill:#001f46" />
			<circle
   d="m 789.58502,483.936 c 0,1.65244 -1.33957,2.992 -2.992,2.992 -1.65244,0 -2.992,-1.33956 -2.992,-2.992 0,-1.65243 1.33956,-2.992 2.992,-2.992 1.65243,0 2.992,1.33957 2.992,2.992 z"
   cx="786.59302"
   cy="483.936"
   r="2.9920001"
   id="circle18512"
   sodipodi:cx="786.59302"
   sodipodi:cy="483.936"
   sodipodi:rx="2.9920001"
   sodipodi:ry="2.9920001"
   style="fill:#367082" />
			<circle
   d="m 706.78702,483.936 c 0,1.65189 -1.33912,2.991 -2.991,2.991 -1.65188,0 -2.991,-1.33911 -2.991,-2.991 0,-1.65188 1.33912,-2.991 2.991,-2.991 1.65188,0 2.991,1.33912 2.991,2.991 z"
   cx="703.79602"
   cy="483.936"
   r="2.9909999"
   id="circle18514"
   sodipodi:cx="703.79602"
   sodipodi:cy="483.936"
   sodipodi:rx="2.9909999"
   sodipodi:ry="2.9909999"
   style="fill:#367082" />
		</g><rect
   x="379.13782"
   y="176.89648"
   width="3.5160704"
   height="6.1552176"
   id="rect18516"
   style="fill:#661232;fill-opacity:1" /><path
   d="m 376.49922,173.6435 c 0,1.89404 1.53545,3.42893 3.42894,3.42893 h 1.93481 c 1.89293,0 3.42838,-1.53489 3.42838,-3.42893 l 0,0 c 0,-1.89516 -1.53545,-3.42838 -3.42838,-3.42838 h -1.93481 c -1.89349,0 -3.42894,1.53322 -3.42894,3.42838 l 0,0 z"
   id="path18518"
   inkscape:connector-curvature="0"
   style="fill:#661232;fill-opacity:1" /><path
   d="m 354.75879,170.50836 c -0.0827,-0.40383 -0.13182,-2.93518 -0.13182,-3.36973 0,-2.76873 1.7896,-5.01299 3.99754,-5.01299 h 44.54155 c 2.20739,0 3.99586,2.24426 3.99586,5.01299 0,0.43455 -0.048,2.96646 -0.1307,3.36973 h -52.27243 z"
   id="path18520"
   inkscape:connector-curvature="0"
   style="fill:#d8276b;fill-opacity:1" /><path
   d="m 407.57469,171.86619 c 0,0.84732 -0.49599,1.53322 -1.10593,1.53322 h -51.14584 c -0.61105,0 -1.10648,-0.68646 -1.10648,-1.53322 l 0,0 c 0,-0.84788 0.49599,-1.53489 1.10648,-1.53489 h 51.14584 c 0.60994,0 1.10593,0.68757 1.10593,1.53489 l 0,0 z"
   id="path18522"
   inkscape:connector-curvature="0"
   style="fill:#661232;fill-opacity:1" /><path
   style="fill:#d8276b;fill-opacity:1"
   inkscape:connector-curvature="0"
   id="path18526"
   d="m 405.08077,144.78882 c -1.09979,0.0816 -8.0811,0.20499 -9.28422,0.21895 -7.64152,0.0933 -14.22626,-1.34108 -14.59099,-3.22395 -1.50864,-7.82193 -1.57623,-15.84438 -0.19773,-23.66798 0.3262,-1.8812 7.00813,-3.31611 14.81051,-3.22004 1.22825,0.0129 8.35367,0.13796 9.47356,0.22007 -2.39618,9.75283 -2.46377,19.91676 -0.21113,29.67295 z" /><path
   style="fill:#661232;fill-opacity:1"
   inkscape:connector-curvature="0"
   id="path18528"
   d="m 406.1314,115.11363 c 0.85458,0.0106 1.45223,0.41668 1.33381,0.90765 -2.12919,9.17362 -2.20906,18.68963 -0.23961,27.86548 0.10724,0.4932 -0.48315,0.89759 -1.32097,0.90709 l 0,0 c -0.83783,0.0117 -1.61198,-0.38037 -1.7181,-0.87302 -1.99403,-9.19763 -1.93314,-18.7371 0.1832,-27.93307 0.11506,-0.49375 0.90318,-0.88474 1.76167,-0.87413 l 0,0 z" /><path
   style="fill:#a91f54;fill-opacity:1"
   inkscape:connector-curvature="0"
   id="path18530"
   d="m 406.47155,144.77486 c -0.22621,0.0721 -1.73988,0.12958 -2.00407,0.13293 -1.66448,0.0207 -3.37979,-1.44888 -3.71156,-3.29935 -1.38744,-7.70575 -1.3517,-15.60532 0.10612,-23.3094 0.34686,-1.85103 2.10517,-3.3189 3.80261,-3.29823 0.26922,0.003 1.81081,0.062 2.04261,0.13405 -2.39841,9.74166 -2.47661,19.89442 -0.23571,29.64 z" /><g
   id="g18538"
   transform="matrix(0.55854969,0,0,0.55854969,-35.333431,-61.22553)">
					<path
   d="m 708.007,328.907 c 0,0 -0.096,3.483 -16.998,3.5 -16.901,0.017 -41.72,-4.144 -41.72,-4.144 l 38.992,-3.683 c 0,0.001 14.971,-0.697 19.726,4.327 z"
   id="path18540"
   inkscape:connector-curvature="0"
   style="fill:#e2c59c" />
					<path
   d="m 662.588,329.495 c -8.033,0.255 -11.356,4.39 -14.504,5.739 -3.147,1.352 -6.287,3.362 -6.268,3.326 1.682,-3.494 4.274,-3.674 5.54,-4.826 1.264,-1.156 0.944,-0.588 -1.924,-0.709 -1.629,-0.069 -4.399,2.889 -6.411,4.545 -1.74,1.427 -2.854,1.573 -2.854,1.573 0,0 1.986,-2.963 4.569,-5.382 3.115,-2.915 6.997,-5.401 7.923,-5.802 1.697,-0.726 7.064,-1.082 10.909,-0.696 4.337,0.443 8.809,2.05 3.02,2.232 z"
   id="path18542"
   inkscape:connector-curvature="0"
   style="fill:#e2c59c" />
					<path
   d="m 649.096,328.104 c 0,0 -6.104,1.76 -7.155,2.606 -0.736,0.587 -3.772,3.986 -3.772,3.986 0,0 2.286,-0.444 3.578,-1.732 1.288,-1.288 7.349,-4.86 7.349,-4.86 z"
   id="path18544"
   inkscape:connector-curvature="0"
   style="fill:#e2c59c" />
				</g><path
   d="m 355.85131,118.52972 c 0,0 8.70556,0.24688 8.28497,5.41905 -0.23682,2.93909 -2.1856,4.02324 -4.81637,3.90315 -4.89178,-0.22789 -10.44209,-0.74734 -10.44209,-0.74734 l -2.74471,-7.92359 9.7182,-0.65127 z"
   id="path18546"
   inkscape:connector-curvature="0"
   style="fill:#906072;fill-opacity:1" /><path
   style="fill:#906072;fill-opacity:1"
   inkscape:connector-curvature="0"
   id="path18548"
   d="m 357.69453,119.17988 7.59571,-26.810948 c 0,0 1.11822,-3.92828 3.20999,-3.269191 3.01784,0.948417 1.6494,4.176834 1.4539,6.070876 -0.39992,3.860137 0.0123,5.520143 -2.41628,14.877533 -1.49747,5.76982 -2.73634,12.40036 -4.08691,16.20632 -0.92887,2.62295 -2.79163,-1.02438 -5.45368,-1.96722 -4.96495,-1.76445 -0.30273,-5.10737 -0.30273,-5.10737 z" /><ellipse
   d="m 769.16501,255.159 c 0,10.70714 -8.86521,19.387 -19.801,19.387 -10.93579,0 -19.801,-8.67986 -19.801,-19.387 0,-10.70715 8.86521,-19.387 19.801,-19.387 10.93579,0 19.801,8.67985 19.801,19.387 z"
   transform="matrix(-0.54503279,0.12215482,-0.12215482,-0.54503279,822.81477,128.84346)"
   cx="749.36401"
   cy="255.159"
   rx="19.801001"
   ry="19.386999"
   id="ellipse18550"
   sodipodi:cx="749.36401"
   sodipodi:cy="255.159"
   sodipodi:rx="19.801001"
   sodipodi:ry="19.386999"
   style="fill:#440c22;fill-opacity:1" /><path
   d="m 362.24782,77.716498 c 1.00316,4.482361 5.45312,7.301362 9.93437,6.296531 l 1.16737,-4.309211 c 4.4818,-1.004831 7.29968,-5.453121 6.29541,-9.934923 l -0.68311,-3.042979 c -1.00371,-4.48292 -5.45088,-7.301362 -9.93324,-6.298206 l -2.02977,0.454659 c -4.48125,1.004831 -7.30136,5.452562 -6.29653,9.934365 l 1.5455,6.899764 z"
   id="path18552"
   inkscape:connector-curvature="0"
   style="fill:#440c22;fill-opacity:1" /><path
   d="m 362.8181,65.055852 c 0.17539,0.742871 0.4111,1.493562 0.70713,2.242577 1.98732,5.028065 6.04295,8.275473 9.61264,7.988378 0.6373,2.333621 1.5874,4.350544 2.55927,6.027868 1.10537,1.910799 3.99978,3.542322 3.99978,3.542322 1.40251,3.50881 -12.6411,15.257343 -13.24098,14.951258 -1.27517,-0.651268 1.00986,-9.090954 3.30661,-11.70385 1.07912,-1.227133 2.17611,-2.670426 2.19901,-3.497079 0.081,-2.89608 -0.83894,-3.512161 -2.23364,-4.838158 -2.44533,-1.843772 -5.24701,-1.182449 -5.24701,-1.182449 -0.27146,0.06088 -0.53956,-0.0011 -0.75125,-0.14634 -0.28542,-0.498785 -0.5027,-1.048398 -0.63507,-1.639902 l -1.49971,-6.691984 c -0.41556,-1.854385 0.0961,-3.695365 1.22322,-5.052641 z"
   id="path18554"
   inkscape:connector-curvature="0"
   style="fill:#e9d6b8" /><path
   d="m 377.37782,139.70155 c 0,0 -3.59762,3.25802 -4.60971,3.54791 -1.35281,0.38651 -5.14369,-1.25115 -5.14369,-1.25115 0,0 1.04561,-16.8939 0.6563,-23.58867 -0.39154,-6.69478 -1.96163,-8.63016 -1.78233,-10.69846 0.291,-3.3055 -2.39227,-4.99232 -1.59969,-7.51306 0.79091,-2.519614 2.78325,-11.576498 2.92066,-10.319202 1.16848,10.708512 5.27494,2.450357 6.09489,1.157315 0.45019,-0.711593 3.46357,48.665317 3.46357,48.665317 z"
   id="path18556"
   inkscape:connector-curvature="0"
   style="fill:#d8276b;fill-opacity:1" /><path
   d="m 369.86253,87.006855 c 0,0 -4.76052,3.490936 -4.69517,5.101793 0.0642,1.611416 -2.45985,6.378637 -1.43715,13.540362 1.16849,8.17773 1.60416,13.66827 1.36287,18.88624 -0.23906,5.21909 -2.64418,9.73887 -2.72573,16.15996 -0.0648,5.03142 1.08806,5.47993 1.08806,5.47993 0,0 2.22023,0.82386 4.08523,-0.89703 1.86612,-1.71866 1.5349,-18.93874 1.25171,-23.27309 -0.28542,-4.33435 -1.63376,-14.54184 -1.94766,-17.52226 -0.38931,-3.70039 0.19772,-7.310301 0.38931,-8.372662 0.66132,-3.665762 1.44943,-5.912248 1.99793,-7.260587 0.0944,-0.23124 1.33102,-1.222107 1.40978,-1.404194 0.33792,-0.781411 -0.38875,-0.876923 -0.77918,-0.438462 z"
   id="path18558"
   inkscape:connector-curvature="0"
   style="fill:#ff7dae;fill-opacity:1" /><path
   d="m 371.12821,85.254685 c 0,0 0.98975,-0.204988 0.14689,0.924399 -0.45857,0.615522 -0.48649,1.167928 -0.48649,1.167928 0,0 -0.42729,-0.449074 -1.0713,0.194934 -0.58424,0.583684 -1.5092,1.314267 -1.5092,1.314267 0,0 0.59876,-1.683469 0.73002,-1.801323 0.48371,-0.433993 2.19008,-1.800205 2.19008,-1.800205 z"
   id="path18560"
   inkscape:connector-curvature="0"
   style="fill:#906072;fill-opacity:1" /><ellipse
   d="m 776.54699,281.298 c 0,11.18377 -9.25965,20.25 -20.682,20.25 -11.42235,0 -20.682,-9.06623 -20.682,-20.25 0,-11.18376 9.25965,-20.25 20.682,-20.25 11.42235,0 20.682,9.06624 20.682,20.25 z"
   transform="matrix(-0.54503279,0.12215482,-0.12215482,-0.54503279,833.18235,156.8898)"
   cx="755.86499"
   cy="281.298"
   rx="20.681999"
   ry="20.25"
   id="ellipse18562"
   sodipodi:cx="755.86499"
   sodipodi:cy="281.298"
   sodipodi:rx="20.681999"
   sodipodi:ry="20.25"
   style="fill:#440c22;fill-opacity:1" /><polygon
   points="671.002,502.49 687.471,490.193 682.083,463.436 693.13,463.206 696.996,492.861 680.281,500.533 "
   id="polygon18564"
   style="fill:#e9d6b8"
   transform="matrix(0.55854969,0,0,0.55854969,-35.333431,-61.22553)" /><path
   d="m 354.58508,216.55966 -2.0253,0.52727 -1.36007,-1.22266 -7.45887,3.62163 -6.61546,1.51256 c 0,0 -0.0804,-0.5189 0.14131,-0.79817 0.83168,-1.04672 5.46373,-3.38649 5.46373,-3.38649 0,0 0.0749,1.53657 0.73338,1.57958 0.65909,0.0436 6.37361,-2.85586 7.69458,-3.66353 2.27553,-1.39078 2.70114,-2.25486 2.87429,-2.14762 0.46025,0.28654 0.55241,3.97743 0.55241,3.97743 z"
   id="path18566"
   inkscape:connector-curvature="0"
   style="fill:#161711" /><polygon
   points="612,443.791 632.283,440.474 643.361,418.878 652.781,421.959 639.504,447.232 621.135,446.332 "
   id="polygon18568"
   style="fill:#e9d6b8"
   transform="matrix(0.55854969,0,0,0.55854969,-35.333431,-61.22553)" /><path
   d="m 321.25251,191.07472 -2.03815,-0.46583 -0.64345,-1.71252 -9.20043,-0.13126 -5.49277,-1.24668 c 0,0 0.66467,-0.71885 1.07409,-0.88363 1.22266,-0.49319 5.5665,-0.74733 5.5665,-0.74733 0,0 -0.45801,1.20199 0.10669,1.54494 0.56469,0.34575 6.88635,0.5485 8.43242,0.43958 2.66149,-0.18376 3.43564,-0.75348 3.54176,-0.5781 0.27369,0.4636 -1.34666,3.78083 -1.34666,3.78083 z"
   id="path18570"
   inkscape:connector-curvature="0"
   style="fill:#161711" /><path
   d="m 383.47439,132.241 -5.53411,2.40568 -2.40679,7.21981 -35.59917,-5.85975 c 0,0 -3.62666,-1.11821 -5.93515,4.60971 -3.28706,8.15315 -11.65078,33.49902 -11.65078,33.49902 l 5.2956,5.53523 16.60457,-28.6374 c 0,0 34.02517,15.95888 45.24364,12.51375 4.30363,-1.32209 7.59349,-8.92507 6.97852,-16.60569 -0.48035,-6.01558 -1.68458,-11.5508 -1.68458,-11.5508 L 383.47439,132.241 z"
   id="path18572"
   inkscape:connector-curvature="0"
   style="fill:#550f2a;fill-opacity:1" /><path
   d="m 378.66081,163.33881 -27.22707,-1.95771 2.34089,42.01187 -8.0286,0.25526 -5.93068,-49.20097 c 0,0 1.59913,-7.32258 6.79979,-6.21889 5.20065,1.10369 17.78198,10.74538 32.04567,15.11044 z"
   id="path18574"
   inkscape:connector-curvature="0"
   style="fill:#300c1a;fill-opacity:1" /><path
   d="m 375.22405,142.90818 c 0,0 -0.65462,-17.09385 -1.15508,-25.2012 -0.50214,-8.10902 -0.39043,-23.752884 -0.49879,-25.701664 -0.10724,-1.949338 0.42674,-4.69852 0.42674,-4.69852 0,0 2.46264,-4.20141 5.20847,-3.836678 2.41405,0.322842 6.13679,3.683077 8.4732,5.240314 2.28335,1.522606 2.0281,30.102478 2.14148,31.540738 0.41333,5.19228 3.5049,10.31977 5.83852,15.3065 1.4958,3.19714 1.84042,8.24587 1.84042,8.24587 0,0 -13.8632,-2.6587 -22.27496,-0.89536 z"
   id="path18576"
   inkscape:connector-curvature="0"
   style="fill:#ff7dae;fill-opacity:1" /><polygon
   points="737.137,260.12 732.215,265.404 734.709,271.328 743.395,259.144 740.635,256.672 "
   id="polygon18578"
   style="fill:#906072;fill-opacity:1"
   transform="matrix(0.55854969,0,0,0.55854969,-35.333431,-61.22553)" /><path
   style="fill:#e9d6b8"
   inkscape:connector-curvature="0"
   id="path18582"
   d="m 382.07634,126.80184 c 0,0 -0.29603,2.08842 -11.48825,0.85514 -11.19278,-1.23495 -27.35386,-5.56706 -27.35386,-5.56706 l 26.06584,0.65462 c 0,0 9.96006,0.68311 12.77627,4.0573 z" /><path
   style="fill:#e9d6b8"
   inkscape:connector-curvature="0"
   id="path18584"
   d="m 351.95878,123.8136 c -5.33862,-0.44013 -7.81076,1.80356 -9.98463,2.38501 -2.17276,0.58033 -4.38406,1.55947 -4.36954,1.53936 1.34443,-1.97894 3.07426,-1.89683 3.9886,-2.49839 0.91491,-0.60323 0.66356,-0.28262 -1.22545,-0.56804 -1.07577,-0.16254 -3.10554,1.41536 -4.5466,2.26212 -1.24668,0.73282 -1.99514,0.73952 -1.99514,0.73952 0,0 1.512,-1.63934 3.38314,-2.90278 2.2571,-1.52596 4.99176,-2.73745 5.6313,-2.90949 1.17016,-0.31222 4.74934,-0.1307 7.26784,0.38708 2.84246,0.58257 5.69665,1.88119 1.85048,1.56561 z" /><path
   style="fill:#e9d6b8"
   inkscape:connector-curvature="0"
   id="path18586"
   d="m 343.11582,121.97989 c 0,0 -4.15505,0.60993 -4.90909,1.04169 -0.5256,0.29994 -2.76147,2.12305 -2.76147,2.12305 0,0 1.54215,-0.10166 2.48331,-0.78085 0.93948,-0.68088 5.18725,-2.38389 5.18725,-2.38389 z" /><path
   d="m 377.47892,121.9743 1.24333,-26.449562 c 0,0 1.42765,-5.54193 3.5049,-6.814865 2.46488,-1.508643 5.8536,1.288016 5.8536,1.288016 0,0 1.73541,4.131033 0.57139,23.633351 -0.77973,13.04437 -1.98229,19.79836 -8.16767,18.84603 -5.77149,-0.89033 -12.29033,-2.18114 -12.29033,-2.18114 l -2.31574,-8.89825 11.60052,0.57642 z"
   id="path18588"
   inkscape:connector-curvature="0"
   style="fill:#906072;fill-opacity:1" /><g
   id="g18590"
   transform="matrix(0.55854969,0,0,0.55854969,-35.333431,-61.22553)">
		<path
   style="fill:#d0dee6"
   inkscape:connector-curvature="0"
   id="path18592"
   d="m 699.246,339.758 c 0.013,-0.025 0.027,-0.052 0.039,-0.074 l -0.039,-2.348 h -97.258 v 2.348 c 0,0 -0.014,0.049 0,0.074 l 0.25,0.438 c 1.248,2.034 3.491,2.401 6.059,2.401 h 84.638 c 2.567,0 4.809,-0.367 6.062,-2.401 l 0.249,-0.438 z" />
		<path
   style="fill:#b6c2c9"
   inkscape:connector-curvature="0"
   id="path18594"
   d="m 675.808,340.155 c 0,0 -0.017,0.041 0,0.063 l 0.241,0.354 c 0.383,0.524 0.867,0.914 1.42,1.197 h 14.791 c 2.471,0 4.627,-0.296 5.83,-1.941 l 0.232,-0.357 c 0.016,-0.021 0.031,-0.039 0.044,-0.059 l -0.025,-1.158 h -22.533 v 1.901 z" />
		<g
   id="g18596">
			<rect
   style="fill:#b6c2c9"
   id="rect18598"
   height="1.659"
   width="48.596001"
   y="337.87799"
   x="614.08398" />
		</g>
		<g
   id="g18600">
			<path
   style="fill:#d7dfe2"
   inkscape:connector-curvature="0"
   id="path18602"
   d="m 675.268,337.248 -12.609,-47.79 c -0.334,-1.264 -1.625,-2.284 -2.882,-2.284 H 591.54 c -1.259,0 -2.012,1.02 -1.679,2.284 l 12.608,47.79 h 72.799 z" />
			<path
   style="fill:#b6c2c9"
   inkscape:connector-curvature="0"
   id="path18604"
   d="m 636.681,312.214 c 0.646,2.437 -0.813,4.417 -3.252,4.417 -2.44,0 -4.938,-1.98 -5.585,-4.417 -0.643,-2.444 0.811,-4.425 3.254,-4.425 2.439,0 4.94,1.981 5.583,4.425 z" />
		</g>
	</g><polygon
   style="fill:#ec6c78;fill-opacity:1"
   id="polygon18610"
   points="272.592,347.699 293.495,506.767 303.45,506.767 287.026,347.699 "
   transform="matrix(0.55854969,0,0,0.55854969,-35.333431,-61.22553)" /><polygon
   style="fill:#d04c58;fill-opacity:1"
   id="polygon18612"
   points="287.026,347.699 274.411,347.699 273.556,355.03 292.874,404.121 287.397,351.288 "
   transform="matrix(0.55854969,0,0,0.55854969,-35.333431,-61.22553)" /><polygon
   points="179.028,506.767 195.452,347.699 209.885,347.699 188.983,506.767 "
   id="polygon18614"
   style="fill:#ec6c78;fill-opacity:1"
   transform="matrix(0.55854969,0,0,0.55854969,-35.333431,-61.22553)" /><polygon
   points="202.593,403.203 195.083,351.288 195.452,347.699 208.068,347.699 208.923,355.03 "
   id="polygon18616"
   style="fill:#d04c58;fill-opacity:1"
   transform="matrix(0.55854969,0,0,0.55854969,-35.333431,-61.22553)" /><polygon
   points="602.71,506.767 619.134,347.699 633.567,347.699 612.663,506.767 "
   id="polygon18618"
   style="fill:#ec6c78;fill-opacity:1"
   transform="matrix(0.55854969,0,0,0.55854969,-35.333431,-61.22553)" /><polygon
   points="626.274,403.203 618.763,351.288 619.134,347.699 631.75,347.699 632.604,355.03 "
   id="polygon18620"
   style="fill:#d04c58;fill-opacity:1"
   transform="matrix(0.55854969,0,0,0.55854969,-35.333431,-61.22553)" /><polygon
   points="727.133,506.767 710.708,347.699 696.274,347.699 717.177,506.767 "
   id="polygon18622"
   style="fill:#ec6c78;fill-opacity:1"
   transform="matrix(0.55854969,0,0,0.55854969,-35.333431,-61.22553)" /><polygon
   points="716.558,404.121 711.077,351.288 710.708,347.699 698.092,347.699 697.237,355.03 "
   id="polygon18624"
   style="fill:#d04c58;fill-opacity:1"
   transform="matrix(0.55854969,0,0,0.55854969,-35.333431,-61.22553)" /><rect
   x="198.62181"
   y="130.09729"
   width="170.79276"
   height="5.1922774"
   id="rect18626"
   style="fill:#a91f54;fill-opacity:1" /><rect
   x="67.207352"
   y="130.09729"
   width="238.27338"
   height="5.1922774"
   id="rect18633"
   style="fill:#d8276b;fill-opacity:1" /><g
   transform="matrix(0.15902942,0,0.01461269,0.15902942,218.41985,-86.052203)"
   id="layer1"
   inkscape:label="Layer 1"><g
     transform="matrix(1.1999997,0,0,1.1999997,-348.85707,188.09921)"
     id="g5446"><g
       transform="translate(-1631.338,-2414.4144)"
       id="g4626"><path
         transform="matrix(0.75431037,0,0,0.75431037,852.54803,1957.2053)"
         d="m 1749.2857,1395.2194 c 0,91.5214 -74.1928,165.7142 -165.7143,165.7142 -91.5215,0 -165.7143,-74.1928 -165.7143,-165.7142 0,-91.5215 74.1928,-165.7143 165.7143,-165.7143 91.5215,0 165.7143,74.1928 165.7143,165.7143 z"
         sodipodi:ry="165.71428"
         sodipodi:rx="165.71428"
         sodipodi:cy="1395.2194"
         sodipodi:cx="1583.5714"
         id="path10516-3"
         style="fill:#ffffff;fill-opacity:0;stroke:none"
         sodipodi:type="arc" /><path
         sodipodi:type="arc"
         style="fill:#ffffff;fill-opacity:0;stroke:none"
         id="path6252-1-8-5-6"
         sodipodi:cx="1583.5714"
         sodipodi:cy="1395.2194"
         sodipodi:rx="165.71428"
         sodipodi:ry="165.71428"
         d="m 1749.2857,1395.2194 c 0,91.5214 -74.1928,165.7142 -165.7143,165.7142 -91.5215,0 -165.7143,-74.1928 -165.7143,-165.7142 0,-91.5215 74.1928,-165.7143 165.7143,-165.7143 91.5215,0 165.7143,74.1928 165.7143,165.7143 z"
         transform="matrix(0.75431037,0,0,0.75431037,852.54803,1957.2053)" /><path
         inkscape:connector-curvature="0"
         id="path6252-2-2-1"
         d="m 2047.0522,2884.6337 c -69.0337,0 -124.9999,55.9663 -124.9999,125 0,69.0337 55.9662,125 124.9999,125 38.5218,0 72.96,-17.4345 95.8891,-44.8332 -21.0767,21.9672 -50.7141,35.6402 -83.5612,35.6402 -63.9602,0 -115.8305,-51.8468 -115.8305,-115.807 0,-63.9602 51.8703,-115.807 115.8305,-115.807 32.8231,0 62.4403,13.6541 83.5141,35.593 -22.9292,-27.3671 -57.346,-44.786 -95.842,-44.786 z"
         style="fill:#0096db;fill-opacity:1;stroke:none" /><path
         inkscape:connector-curvature="0"
         style="fill:#a83da3;fill-opacity:1;stroke:none"
         d="m 2059.3507,2900.1563 c 60.461,0 109.4773,49.0163 109.4773,109.4774 0,60.4611 -49.0163,109.4774 -109.4773,109.4774 -33.7381,0 -63.8998,-15.2695 -83.9816,-39.2658 18.4593,19.2393 44.4164,31.2144 73.1846,31.2144 56.0175,0 101.4466,-45.4084 101.4466,-101.426 0,-56.0176 -45.4291,-101.426 -101.4466,-101.426 -28.7471,0 -54.6864,11.9585 -73.1433,31.173 20.0819,-23.9687 50.2247,-39.2244 83.9403,-39.2244 z"
         id="path6258-4-7-8" /></g><g
       transform="matrix(1.0476604,0,0,1.0476604,-743.38725,-1313.2288)"
       id="g6283-5-6-9"><path
         id="path6285-5-1-2"
         d="m 1141.7669,1781.8576 c -12.4916,0 -22.3377,2.6273 -29.5665,7.8449 3.8391,4.6155 6.6301,10.0986 8.4386,16.2834 0.2549,-0.2399 0.5102,-0.491 0.7814,-0.7189 4.5189,-3.7979 11.3049,-5.6882 20.3465,-5.6882 l 35.2548,0 0,-17.7212 -35.2548,0 z"
         style="font-size:114.44565582px;font-style:normal;font-variant:normal;font-weight:normal;font-stretch:normal;text-align:start;line-height:125%;letter-spacing:0px;word-spacing:0px;writing-mode:lr-tb;text-anchor:start;fill:#a83da3;fill-opacity:1;stroke:none;font-family:NordiquePro-Semibold;-inkscape-font-specification:NordiquePro-Semibold"
         inkscape:connector-curvature="0" /><path
         id="path6287-1-4-7"
         d="m 1123.2644,1839.3654 0,16.1897 0,3.4068 c 5.3476,1.6386 11.502,2.4377 18.5025,2.4377 l 35.2548,0 0,-17.7211 -35.2548,0 c -7.8901,0 -14.0565,-1.421 -18.5025,-4.3131 z"
         style="font-size:114.44565582px;font-style:normal;font-variant:normal;font-weight:normal;font-stretch:normal;text-align:start;line-height:125%;letter-spacing:0px;word-spacing:0px;writing-mode:lr-tb;text-anchor:start;fill:#a83da3;fill-opacity:1;stroke:none;font-family:NordiquePro-Semibold;-inkscape-font-specification:NordiquePro-Semibold"
         inkscape:connector-curvature="0" /><path
         id="path6289-7-2-9"
         d="m 1075.5079,1781.8576 c -12.0526,-10e-5 -21.7106,3.7154 -28.9414,11.1265 -7.2308,7.411 -10.8452,18.4876 -10.8453,33.192 l 0,35.2235 17.7212,0 0,-35.2235 c 0,-9.0404 1.8909,-15.8282 5.6883,-20.3464 3.7975,-4.5186 9.2678,-6.7823 16.3772,-6.7823 7.1094,0 12.5484,2.2638 16.346,6.7823 3.466,4.1238 5.3545,10.1422 5.657,18.0336 0.4343,11.0182 4.1152,19.9112 11.064,26.6911 1.9682,1.9203 4.2061,3.5903 6.6884,5.0007 l 0,-29.379 c 0,-14.7044 -3.6144,-25.7809 -10.8452,-33.192 -7.2308,-7.411 -16.8577,-11.1265 -28.9102,-11.1265 z"
         style="font-size:114.44565582px;font-style:normal;font-variant:normal;font-weight:normal;font-stretch:normal;text-align:start;line-height:125%;letter-spacing:0px;word-spacing:0px;writing-mode:lr-tb;text-anchor:start;fill:#0096db;fill-opacity:1;stroke:none;font-family:NordiquePro-Semibold;-inkscape-font-specification:NordiquePro-Semibold"
         inkscape:connector-curvature="0" /></g></g></g><path
   d="m 243.43816,223.49015 -0.8948,4.66221 h -4.75381 c 0,0 -0.26308,-0.66132 -0.66356,-0.66132 -0.3396,0 -0.77694,0.66132 -1.23886,0.66132 -1.00092,0 -2.10685,0 -2.55202,0 -0.89368,0 -9.54002,0 -9.54002,0 0,0 -0.21337,-0.98025 0.0503,-1.31873 0.12959,-0.17483 0.92943,-0.47421 1.45782,-0.62502 2.45594,-0.68925 9.48306,-2.84469 10.70349,-5.1906 1.48965,-2.85419 7.4315,2.47214 7.4315,2.47214 z"
   id="path18637"
   inkscape:connector-curvature="0"
   style="fill:#161711" /><path
   d="m 242.08144,165.11165 c 0,0 1.36063,7.61247 2.49058,17.34018 0.83279,7.14217 0.85402,27.5432 -0.46248,41.71472 -0.081,0.86743 -9.08928,-1.77284 -9.08928,-1.77284 0,0 -3.28818,-39.66261 -4.04278,-48.54131 -0.7546,-8.88318 5.69664,-14.27598 11.10396,-8.74075 z"
   id="path18639"
   inkscape:connector-curvature="0"
   style="fill:#300c1a;fill-opacity:1" /><path
   d="m 257.26729,215.08621 c -0.36082,-0.43176 -0.0983,-1.57288 -0.0983,-1.57288 0,0 6.25687,-0.69874 8.27044,-0.22286 0.52392,0.12288 1.40643,0.5714 2.23755,1.05231 0.13908,0.0799 0.38708,0.56022 0.52727,0.6401 0.24856,0.14969 0.38205,-0.10278 0.59542,0.0307 0.55799,0.35244 0.94953,0.62781 0.95679,0.66188 0.55018,2.86983 -0.18041,4.02826 -0.18041,4.02826 0,0 -5.1515,1.60024 -6.32501,0.53732 -2.98545,-2.70058 -5.20066,-4.20532 -5.98375,-5.15485 z"
   id="path18641"
   inkscape:connector-curvature="0"
   style="fill:#161711" /><path
   d="m 257.71469,171.7623 c 0,0 -4.9845,-2.91228 -3.7138,4.8996 3.06532,18.85105 5.88265,32.66957 7.20306,38.92868 0.51219,2.43137 1.29695,2.04653 1.29695,2.04653 l 5.72905,0.93166 2.89105,-1.97168 -5.35091,-42.60785 -8.0554,-2.22694 z"
   id="path18643"
   inkscape:connector-curvature="0"
   style="fill:#300c1a;fill-opacity:1" /><path
   style="fill:#550f2a;fill-opacity:1"
   inkscape:connector-curvature="0"
   id="path18647"
   d="m 234.99847,172.98162 c 0.75237,0.97746 26.40656,13.94363 27.59124,13.94363 h 21.09028 c 1.18413,0 9.75842,-1.2545 11.61783,-6.88859 1.9661,-5.95805 0,-16.5705 0,-16.5705 0,-1.23383 -0.9607,-2.2342 -2.14483,-2.2342 h -26.27362 c -1.18468,0 -3.57471,1.00037 -3.57471,2.2342 l -25.51344,-0.81771 c 0,0 -8.37824,3.07202 -2.79275,10.33317 z" /><path
   style="fill:#300c1a;fill-opacity:1"
   inkscape:connector-curvature="0"
   id="path18649"
   d="m 283.5465,179.29211 h -24.14331 c -0.25582,0 -21.10034,-5.68659 -21.33269,-5.75194 l 2.51347,8.09897 c 0,1.23327 20.82106,5.28611 22.00574,5.28611 h 21.09028 c 1.18413,0 9.75842,-1.2545 11.61783,-6.88859 0.59989,-1.8192 0.8328,-4.07295 0.86799,-6.32558 -3.01784,4.52314 -11.37542,5.58103 -12.61931,5.58103 z" /><path
   style="fill:#7f5c21;fill-opacity:1"
   inkscape:connector-curvature="0"
   id="path18651"
   d="m 274.5868,103.21262 -1.13888,-5.148157 c 0,0 -4.01262,0.280951 -4.79068,-1.687937 -1.57567,-3.948946 -0.25749,-10.260558 0.69092,-12.028926 2.70674,-5.034767 3.85176,-13.852591 16.50347,-6.840558 4.81191,2.667633 -2.61848,15.5975 -3.17256,18.39751 -0.54961,2.796658 1.09252,6.020608 1.09252,6.020608 l -2.96087,2.02307 -6.22392,-0.73561 z" /><path
   style="fill:#e9d6b8"
   inkscape:connector-curvature="0"
   id="path18653"
   d="m 253.71994,138.56602 21.69631,7.70128 c 0,0 -25.58325,1.83875 -25.68156,0.35021 -0.539,-8.16935 3.98525,-8.05149 3.98525,-8.05149 z" /><path
   style="fill:#b7215b;fill-opacity:1"
   inkscape:connector-curvature="0"
   id="path18655"
   d="m 297.20136,108.2323 c 0,0 4.31536,2.04541 7.42201,18.6578 3.10442,16.61015 1.12659,15.98066 1.12659,15.98066 l -0.56525,3.78418 -8.06657,0.67193 -4.35948,-14.34244 4.4427,-24.75213 z" /><path
   style="fill:#ff7dae;fill-opacity:1"
   inkscape:connector-curvature="0"
   id="path18657"
   d="m 297.46556,108.27028 -10.62641,-4.39467 -2.93127,-2.52632 -11.29555,-0.24799 -1.97838,2.96813 -8.75583,3.46022 c 0,0 -2.15991,3.09548 -0.28039,14.58708 2.08115,12.73549 -0.0352,45.6821 -0.0352,45.6821 l 35.74718,0.50884 c 0,-5.6e-4 -2.94914,-53.85759 0.15584,-60.03739 z" /><path
   style="fill:#d8276b;fill-opacity:1"
   inkscape:connector-curvature="0"
   id="path18659"
   d="m 264.69544,107.55311 c 0,0 -1.97,-2.00129 -6.76906,3.43675 -8.18499,9.27081 -12.14566,20.76911 -12.99186,22.99493 -0.84788,2.22527 -1.80356,7.71581 1.54718,11.41453 2.5576,2.83073 5.02695,1.78177 5.02695,1.78177 l 7.81969,-6.10942 -2.51347,-1.27237 -1.71419,-0.12735 c 0,0 3.95453,-7.91354 8.19113,-15.08531 4.2366,-7.16675 1.40363,-17.03353 1.40363,-17.03353 z" /><path
   style="fill:#440c22;fill-opacity:1"
   inkscape:connector-curvature="0"
   id="path18661"
   d="m 272.9173,85.827198 c 0,0 1.43212,-0.802636 1.65107,0.198844 0.2223,1.002597 -0.55073,3.206634 -1.20982,3.409946 -0.65965,0.200519 -0.87581,2.906134 -0.87581,2.906134 l 1.7572,3.00779 h 8.90719 c 0,0 2.75086,-1.102577 2.97316,-2.906693 0.21784,-1.805791 2.41741,-14.536255 2.41741,-14.536255 l -6.26749,-3.008349 c 0,0 -3.30214,-1.50585 -5.61231,-2.105732 -3.54399,-0.925517 -4.28854,0.80096 -4.17627,1.703576 0.1078,0.899265 -0.99199,1.003155 -2.42132,1.003155 -1.43212,0 -3.19267,1.000921 -2.42187,1.604155 0.32061,0.247438 -1.10146,1.041137 -0.54011,1.997932 0.80878,1.36733 3.5088,1.812494 3.73055,4.018765 0.0989,0.999804 0.55185,4.307536 2.08842,2.706732 z" /><path
   style="fill:#a91f54;fill-opacity:1"
   inkscape:connector-curvature="0"
   id="path18665"
   d="m 246.81292,194.9086 c -0.0843,-0.40383 -0.13294,-2.93462 -0.13294,-3.36973 0,-2.76873 1.7896,-5.01242 3.99754,-5.01242 h 44.54155 c 2.20739,0 3.99698,2.24369 3.99698,5.01242 0,0.43511 -0.0486,2.96646 -0.13182,3.36973 h -52.27131 z" /><path
   style="fill:#440c21;fill-opacity:1"
   inkscape:connector-curvature="0"
   id="path18667"
   d="m 299.62714,196.26699 c 0,0.84677 -0.49543,1.53378 -1.10593,1.53378 h -51.14583 c -0.61106,0 -1.10649,-0.68701 -1.10649,-1.53378 l 0,0 c 0,-0.84787 0.49599,-1.53489 1.10649,-1.53489 h 51.14583 c 0.61106,0 1.10593,0.68702 1.10593,1.53489 l 0,0 z" /><g
   id="g18669"
   transform="matrix(0.55854969,0,0,0.55854969,-35.333431,-61.22553)">
				<g
   id="g18671">
					<path
   style="fill:#88bdda"
   inkscape:connector-curvature="0"
   id="path18673"
   d="m 562.479,503.484 -4.904,7.478 41.189,13.195 c 0,0 2.752,-2.632 -7.355,-7.916 -11.767,-6.157 -28.93,-12.757 -28.93,-12.757 z" />
					<path
   style="fill:#88bdda"
   inkscape:connector-curvature="0"
   id="path18675"
   d="m 555.164,503.484 4.903,7.478 -41.188,13.195 c 0,0 -2.751,-2.632 7.355,-7.916 11.769,-6.157 28.93,-12.757 28.93,-12.757 z" />
				</g>
				<rect
   style="fill:#88bdda"
   id="rect18677"
   height="30.645"
   width="8.6059999"
   y="481.23599"
   x="554.51898" />
				<g
   id="g18679">
					<path
   style="fill:#acd5f4"
   inkscape:connector-curvature="0"
   id="path18681"
   d="m 563.031,505.061 -4.198,7.135 35.258,12.593 c 0,0 2.355,-2.511 -6.294,-7.556 -10.074,-5.877 -24.766,-12.172 -24.766,-12.172 z" />
					<path
   style="fill:#acd5f4"
   inkscape:connector-curvature="0"
   id="path18683"
   d="m 554.613,505.061 4.197,7.135 -35.261,12.593 c 0,0 -2.354,-2.511 6.296,-7.556 10.075,-5.877 24.768,-12.172 24.768,-12.172 z" />
				</g>
				<circle
   d="m 596.08103,527.62097 c 0,1.65189 -1.33912,2.991 -2.991,2.991 -1.65189,0 -2.991,-1.33911 -2.991,-2.991 0,-1.65188 1.33911,-2.991 2.991,-2.991 1.65188,0 2.991,1.33912 2.991,2.991 z"
   style="fill:#001f46"
   sodipodi:ry="2.9909999"
   sodipodi:rx="2.9909999"
   sodipodi:cy="527.62097"
   sodipodi:cx="593.09003"
   id="circle18685"
   r="2.9909999"
   cy="527.62097"
   cx="593.09003" />
				<circle
   d="m 527.76301,527.62097 c 0,1.65133 -1.33867,2.99 -2.99,2.99 -1.65133,0 -2.99,-1.33867 -2.99,-2.99 0,-1.65133 1.33867,-2.99 2.99,-2.99 1.65133,0 2.99,1.33867 2.99,2.99 z"
   style="fill:#001f46"
   sodipodi:ry="2.99"
   sodipodi:rx="2.99"
   sodipodi:cy="527.62097"
   sodipodi:cx="524.77301"
   id="circle18687"
   r="2.99"
   cy="527.62097"
   cx="524.77301" />
				<circle
   d="m 603.32199,527.62097 c 0,1.65189 -1.33911,2.991 -2.991,2.991 -1.65188,0 -2.991,-1.33911 -2.991,-2.991 0,-1.65188 1.33912,-2.991 2.991,-2.991 1.65189,0 2.991,1.33912 2.991,2.991 z"
   style="fill:#367082"
   sodipodi:ry="2.9909999"
   sodipodi:rx="2.9909999"
   sodipodi:cy="527.62097"
   sodipodi:cx="600.33099"
   id="circle18689"
   r="2.9909999"
   cy="527.62097"
   cx="600.33099" />
				<path
   style="fill:#367082"
   inkscape:connector-curvature="0"
   id="path18691"
   d="m 514.543,527.621 c 0,1.652 1.34,2.99 2.992,2.99 1.648,0 2.989,-1.338 2.989,-2.99 0,-1.652 -1.341,-2.991 -2.989,-2.991 -1.652,0 -2.992,1.339 -2.992,2.991 z" />
			</g><rect
   style="fill:#661232;fill-opacity:1"
   id="rect18693"
   height="6.1552176"
   width="3.5155118"
   y="201.29729"
   x="275.10068" /><path
   style="fill:#661232;fill-opacity:1"
   inkscape:connector-curvature="0"
   id="path18695"
   d="m 272.46208,198.04486 c 0,1.89348 1.53545,3.42838 3.42893,3.42838 h 1.93482 c 1.89293,0 3.42894,-1.5349 3.42894,-3.42838 l 0,0 c 0,-1.8946 -1.53601,-3.42838 -3.42894,-3.42838 h -1.93537 c -1.89293,0 -3.42838,1.53378 -3.42838,3.42838 l 0,0 z" /><path
   style="fill:#d8276b;fill-opacity:1"
   inkscape:connector-curvature="0"
   id="path18697"
   d="m 254.07406,194.9086 c -0.0843,-0.40383 -0.13293,-2.93462 -0.13293,-3.36973 0,-2.76873 1.78959,-5.01242 3.99754,-5.01242 h 44.54154 c 2.20739,0 3.99699,2.24369 3.99699,5.01242 0,0.43511 -0.0486,2.96646 -0.13182,3.36973 h -52.27132 z" /><path
   style="fill:#661232;fill-opacity:1"
   inkscape:connector-curvature="0"
   id="path18699"
   d="m 306.88829,196.26699 c 0,0.84677 -0.49544,1.53378 -1.10593,1.53378 h -51.14584 c -0.61105,0 -1.10648,-0.68701 -1.10648,-1.53378 l 0,0 c 0,-0.84787 0.49599,-1.53489 1.10648,-1.53489 h 51.14584 c 0.61105,0 1.10593,0.68702 1.10593,1.53489 l 0,0 z" /><path
   style="fill:#a91f54;fill-opacity:1"
   inkscape:connector-curvature="0"
   id="path18703"
   d="m 301.3849,153.97249 c 0.009,1.23161 -0.98137,2.23476 -2.21298,2.23309 -14.02909,0 -28.05874,0 -42.08839,0 -1.23049,0.001 -2.4403,-0.9892 -2.66037,-2.21577 -1.61365,-9.09486 -1.61365,-18.4031 0,-27.49852 0.22007,-1.22769 1.42765,-2.21353 2.66037,-2.21521 14.02909,0 28.05818,0 42.08839,0 1.23161,-0.001 2.22136,0.99925 2.21298,2.23308 -0.0799,9.15128 -0.0799,18.31206 0,27.46333 z" /><path
   style="fill:#d8276b;fill-opacity:1"
   inkscape:connector-curvature="0"
   id="path18705"
   d="m 303.8319,153.97082 c -0.002,1.23607 -1.00036,2.23587 -2.23419,2.23476 -14.0291,0 -28.05875,0 -42.0884,0 -1.22993,0 -2.43081,-0.98975 -2.63915,-2.21633 -1.53377,-9.09821 -1.53322,-18.39863 0,-27.49684 0.2089,-1.22434 1.40867,-2.21744 2.63915,-2.21633 14.02909,0 28.05874,0 42.0884,0 1.2316,0 2.23196,1.00037 2.23419,2.2342 0,9.15407 0,18.30759 0,27.46054 z" /><path
   d="m 265.47295,197.91025 c 6.47973,-23.30381 -5.87762,-46.60651 -0.5647,-69.91032 0.28039,-1.23551 -0.43511,-2.23419 -1.6695,-2.23419 -0.25135,0 -0.50381,0 -0.75572,0 -1.23272,5.5e-4 -2.51906,0.99868 -2.79945,2.23419 -5.31237,23.30381 7.04443,46.60651 0.56525,69.91032 1.741,0 3.48256,0 5.22412,0 z"
   id="path18707"
   inkscape:connector-curvature="0"
   style="fill:#661232;fill-opacity:1" /><path
   d="m 302.33723,197.91025 c 6.47973,-23.30381 -5.87762,-46.60651 -0.5647,-69.91032 0.28039,-1.23551 -0.43511,-2.23419 -1.6695,-2.23419 -0.25135,0 -0.50382,0 -0.75572,0 -1.23272,5.5e-4 -2.51906,0.99868 -2.79945,2.23419 -5.31237,23.30381 7.04443,46.60651 0.56525,69.91032 1.741,0 3.48256,0 5.22412,0 z"
   id="path18709"
   inkscape:connector-curvature="0"
   style="fill:#661232;fill-opacity:1" />
</svg>