<?xml version="1.0" encoding="UTF-8" standalone="no"?>
<!-- Created with Inkscape (http://www.inkscape.org/) -->

<svg
   xmlns:dc="http://purl.org/dc/elements/1.1/"
   xmlns:cc="http://creativecommons.org/ns#"
   xmlns:rdf="http://www.w3.org/1999/02/22-rdf-syntax-ns#"
   xmlns:svg="http://www.w3.org/2000/svg"
   xmlns="http://www.w3.org/2000/svg"
   xmlns:xlink="http://www.w3.org/1999/xlink"
   xmlns:sodipodi="http://sodipodi.sourceforge.net/DTD/sodipodi-0.dtd"
   xmlns:inkscape="http://www.inkscape.org/namespaces/inkscape"
   width="500"
   height="300"
   id="svg2"
   version="1.1"
   inkscape:version="0.48.5 r10040"
   sodipodi:docname="graphic-food.svg">
  <defs
     id="defs4">
    <linearGradient
       id="linearGradient16787">
      <stop
         style="stop-color:#542451;stop-opacity:1;"
         offset="0"
         id="stop16789" />
      <stop
         style="stop-color:#8c3c87;stop-opacity:1;"
         offset="1"
         id="stop16791" />
    </linearGradient>
    <linearGradient
       id="linearGradient16772">
      <stop
         style="stop-color:#7e367a;stop-opacity:1;"
         offset="0"
         id="stop16774" />
      <stop
         style="stop-color:#a848a2;stop-opacity:1;"
         offset="1"
         id="stop16776" />
    </linearGradient>
    <linearGradient
       id="linearGradient16759">
      <stop
         style="stop-color:#542451;stop-opacity:1;"
         offset="0"
         id="stop16761" />
      <stop
         style="stop-color:#9a4294;stop-opacity:1;"
         offset="1"
         id="stop16763" />
    </linearGradient>
    <linearGradient
       id="linearGradient16733">
      <stop
         style="stop-color:#542451;stop-opacity:1;"
         offset="0"
         id="stop16735" />
      <stop
         style="stop-color:#70306c;stop-opacity:1;"
         offset="1"
         id="stop16737" />
    </linearGradient>
    <linearGradient
       id="linearGradient16654">
      <stop
         id="stop16656"
         offset="0"
         style="stop-color:#f17b26;stop-opacity:1;" />
      <stop
         id="stop16658"
         offset="1"
         style="stop-color:#f99a5b;stop-opacity:1;" />
    </linearGradient>
    <linearGradient
       id="linearGradient3780">
      <stop
         style="stop-color:#f99a5b;stop-opacity:1;"
         offset="0"
         id="stop3782" />
      <stop
         style="stop-color:#fcac66;stop-opacity:1;"
         offset="1"
         id="stop3784" />
    </linearGradient>
    <linearGradient
       id="linearGradient3764">
      <stop
         style="stop-color:#92368d;stop-opacity:1;"
         offset="0"
         id="stop3766" />
      <stop
         style="stop-color:#d939b1;stop-opacity:1;"
         offset="1"
         id="stop3768" />
    </linearGradient>
    <linearGradient
       inkscape:collect="always"
       xlink:href="#linearGradient3780"
       id="linearGradient10754"
       x1="368.29126"
       y1="549.02643"
       x2="368.29126"
       y2="114.92393"
       gradientUnits="userSpaceOnUse" />
    <linearGradient
       inkscape:collect="always"
       xlink:href="#linearGradient16654"
       id="linearGradient16652"
       x1="346.01492"
       y1="1029.6508"
       x2="346.01492"
       y2="943.31549"
       gradientUnits="userSpaceOnUse" />
    <linearGradient
       inkscape:collect="always"
       xlink:href="#linearGradient3764"
       id="linearGradient16783"
       gradientUnits="userSpaceOnUse"
       x1="156.60504"
       y1="988.31409"
       x2="14.486396"
       y2="988.31409" />
    <linearGradient
       inkscape:collect="always"
       xlink:href="#linearGradient3764"
       id="linearGradient16785"
       gradientUnits="userSpaceOnUse"
       x1="435.73431"
       y1="1041.6436"
       x2="198.7787"
       y2="1041.6436" />
    <linearGradient
       inkscape:collect="always"
       xlink:href="#linearGradient16787"
       id="linearGradient16793"
       x1="168.6875"
       y1="221.23438"
       x2="223.94424"
       y2="221.23438"
       gradientUnits="userSpaceOnUse" />
    <linearGradient
       inkscape:collect="always"
       xlink:href="#linearGradient16654"
       id="linearGradient16836"
       gradientUnits="userSpaceOnUse"
       x1="346.01492"
       y1="1029.6508"
       x2="346.01492"
       y2="943.31549"
       gradientTransform="translate(0,-752.36218)" />
  </defs>
  <sodipodi:namedview
     id="base"
     pagecolor="#ffffff"
     bordercolor="#666666"
     borderopacity="1.0"
     inkscape:pageopacity="0.0"
     inkscape:pageshadow="2"
     inkscape:zoom="1"
     inkscape:cx="-103.75011"
     inkscape:cy="236.78175"
     inkscape:document-units="px"
     inkscape:current-layer="layer1"
     showgrid="false"
     inkscape:window-width="3440"
     inkscape:window-height="1377"
     inkscape:window-x="1672"
     inkscape:window-y="-8"
     inkscape:window-maximized="1"
     inkscape:object-paths="true"
     inkscape:snap-bbox="true"
     inkscape:bbox-nodes="true"
     inkscape:snap-global="true"
     inkscape:showpageshadow="false"
     showguides="true"
     inkscape:guide-bbox="true"
     inkscape:snap-nodes="true"
     inkscape:object-nodes="true" />
  <metadata
     id="metadata7">
    <rdf:RDF>
      <cc:Work
         rdf:about="">
        <dc:format>image/svg+xml</dc:format>
        <dc:type
           rdf:resource="http://purl.org/dc/dcmitype/StillImage" />
        <dc:title />
      </cc:Work>
    </rdf:RDF>
  </metadata>
  <g
     inkscape:label="Layer 1"
     inkscape:groupmode="layer"
     id="layer1"
     transform="translate(0,-752.36218)">
    <path
       style="fill:url(#linearGradient16783);fill-opacity:1;stroke:none"
       d="m 0,933.36946 c 0,0 9.3787405,64.96285 41.266458,104.88954 l 7.127842,7.0575 4.126646,7.0457 88.980764,0 4.12664,-7.0457 7.12784,-7.0575 c 6.10031,-7.6382 11.37574,-16.1889 15.92045,-25.0296 6.93146,-3.3586 16.44926,-3.1318 21.74694,-4.2556 6.25284,-1.3263 16.85979,-10.79301 22.54413,-17.04583 5.68442,-6.2528 13.45572,-22.36614 10.23457,-36.57708 -3.22115,-14.21094 -15.53919,-17.23945 -21.98141,-17.80789 -4.81242,-0.42462 -6.66291,-2.54368 -7.29201,-3.58737 0.0478,-0.30881 0.0938,-0.58617 0.0938,-0.58617 l -0.37515,0 -193.6475000000001,0 z m 202.07667,14.78324 c 1.97625,0.0168 4.35105,1.03166 6.96371,4.31422 5.22531,6.56512 3.48855,19.15106 -0.12894,23.97441 -3.61752,4.82336 -7.09941,12.59263 -13.79849,16.6121 -6.69912,4.01945 -15.94213,11.80047 -10.98487,-1.1958 4.95738,-12.99625 8.70216,-29.47604 9.23807,-32.82559 0,0 2.14041,-7.90996 4.15012,-9.24978 1.00488,-0.6699 2.58414,-1.6463 4.5604,-1.62956 z"
       id="rect3011-1"
       inkscape:connector-curvature="0" />
    <g
       id="g3840"
       transform="matrix(0.37514961,0,0,0.37514961,-60.712384,709.88151)"
       style="fill:url(#linearGradient10754);fill-opacity:1">
      <path
         inkscape:connector-curvature="0"
         style="fill:url(#linearGradient10754);fill-opacity:1.0"
         d="m 365.94805,544.08933 c 17.2349,-41.31468 8.3545,-82.09426 -28.3618,-130.24081 -9.2384,-12.11437 -19.3336,-29.13455 -22.4339,-37.82261 -7.8958,-22.12693 -7.3945,-64.60851 1.016,-86.10352 7.38,-18.86108 31.4903,-58.58104 34.0222,-56.04908 0.8133,0.81323 -1.7143,12.46189 -5.6168,25.88591 -14.3712,49.43539 -1.3239,104.1768 35.9664,150.90035 33.2726,41.68955 33.6988,84.33976 1.2678,126.85897 -11.3207,14.84218 -20.9798,18.84398 -15.8599,6.57079 z"
         id="path3836" />
      <path
         inkscape:connector-curvature="0"
         style="fill:url(#linearGradient10754);fill-opacity:1.0"
         d="m 464.63955,520.04365 c 0,-1.40519 4.0956,-10.51683 9.1013,-20.24812 6.1257,-11.90874 9.7273,-28.17175 11.0162,-49.74425 2.243,-37.54138 -4.8958,-64.07824 -27.287,-101.43265 -41.1063,-68.57628 -40.6096,-127.75548 1.5701,-187.03716 18.0088,-25.31058 39.4308,-48.38849 42.2758,-45.54355 0.7479,0.74788 -3.3729,10.60979 -9.1573,21.91535 -12.4061,24.24801 -23.3166,64.44527 -23.3166,85.90521 0,28.23706 16.5716,80.54027 38.2723,120.7949 33.6228,62.37026 32.4591,96.89575 -4.8537,144.00717 -12.4427,15.71004 -37.6211,36.71365 -37.6211,31.3831 z"
         id="path3838" />
    </g>
    <path
       style="fill:#cc571c;fill-opacity:1;stroke:none"
       d="m 291.33602,208.39326 c 3.50691,-1.33596 11.66593,-11.7486 12.50091,-11.70685 l -0.007,76.50858 -15.11472,-1.29892 z"
       id="path16675"
       inkscape:connector-curvature="0"
       transform="translate(0,752.36218)"
       sodipodi:nodetypes="ccccc" />
    <path
       style="fill:#cc571c;fill-opacity:1;stroke:none"
       d="m 250.05749,236.47525 c 2.21269,-0.58448 12.12453,-16.51194 12.12453,-16.51194 l 14.13391,58.59961 -23.971,0 z"
       id="path16679"
       inkscape:connector-curvature="0"
       sodipodi:nodetypes="ccccc"
       transform="translate(0,752.36218)" />
    <path
       style="fill:#cc571c;fill-opacity:1;stroke:none"
       d="m 400.68493,208.81665 c -5.05162,-1.04372 -11.14195,-10.80371 -11.97693,-10.97071 l -2.92845,70.15337 12.81208,0.76754 10.1552,-46.4069 z"
       id="path16683"
       inkscape:connector-curvature="0"
       transform="translate(0,752.36218)"
       sodipodi:nodetypes="cccccc" />
    <path
       style="fill:#cc571c;fill-opacity:1;stroke:none"
       d="m 442.30887,236.56133 c -4.92637,-1.41946 -13.87223,-18.93383 -14.8742,-19.43482 l -12.72461,61.43641 25.86034,0 z"
       id="path16685"
       inkscape:connector-curvature="0"
       transform="translate(0,752.36218)"
       sodipodi:nodetypes="ccccc" />
    <path
       style="fill:url(#linearGradient16652);fill-opacity:1.0"
       d="m 322.26739,1047.2975 c -7.60106,-2.4039 -14.94492,-6.3101 -14.94492,-7.9493 0,-0.7883 -5.66237,-0.9823 -13.94338,-0.4778 -10.85895,0.6616 -14.83678,0.3814 -17.98215,-1.2667 -3.46788,-1.817 -5.26936,-1.8519 -12.744,-0.2473 -4.78787,1.0278 -13.02858,1.8913 -18.31268,1.9188 -7.94237,0.042 -10.13222,-0.4747 -12.63536,-2.9779 -2.61562,-2.6156 -2.92472,-4.1657 -2.27013,-11.3844 0.44782,-4.9389 2.47766,-11.9957 4.96312,-17.2546 4.3963,-9.30188 14.14054,-20.64123 15.99642,-18.61499 0.59301,0.64742 2.13983,6.05397 3.43736,12.01439 2.31323,10.6265 7.70278,21.2219 12.9494,25.4576 2.4337,1.9647 2.55528,1.908 1.52484,-0.7117 -3.04636,-7.7448 -9.37592,-35.96677 -9.37122,-41.78412 0.0102,-12.62399 8.38095,-20.26289 24.39699,-22.26396 l 8.00434,-1.00008 1.05298,16.11867 c 1.05823,16.19931 5.27991,40.55699 7.3961,42.67319 0.62445,0.6244 0.90506,-13.2443 0.6236,-30.8194 -0.28143,-17.57499 -0.0982,-33.60244 0.40732,-35.61644 3.23389,-12.88485 59.36702,-17.605 81.58594,-6.86045 5.14583,2.4884 7.7414,4.68837 8.33857,7.06766 0.47689,1.90003 0.63743,17.77945 0.35679,35.28764 -0.38156,23.80379 -0.1079,31.25299 1.08523,29.53349 2.55196,-3.678 4.58753,-15.4549 6.3342,-36.64704 0.89476,-10.85641 1.86814,-19.99539 2.16305,-20.30892 0.29491,-0.31352 4.70668,0.12103 9.80392,0.96567 16.82337,2.78772 23.04268,10.24362 21.56693,25.85524 -0.77896,8.24043 -5.86792,29.88825 -8.88574,37.79885 -0.99891,2.6184 -0.87396,2.6755 1.5586,0.7117 5.24658,-4.2357 10.63616,-14.8311 12.94937,-25.4576 1.29756,-5.96042 2.84437,-11.36697 3.43738,-12.01439 1.88376,-2.0567 11.62906,9.37429 16.15016,18.94359 5.47066,11.5792 6.82298,24.3442 3.02379,28.5423 -2.06661,2.2836 -4.38102,2.7919 -12.62885,2.7738 -5.5542,-0.013 -13.91549,-0.9201 -18.58069,-2.0175 -7.29891,-1.7168 -9.0264,-1.7137 -12.38343,0.022 -4.10863,2.1247 -20.45886,2.5494 -26.81584,0.6966 -2.76124,-0.8048 -4.59,-0.149 -8.16406,2.9275 -7.16057,6.1636 -16.92959,8.3704 -36.57322,8.2615 -9.61856,-0.054 -19.68275,-0.8876 -22.87073,-1.8958 z"
       id="path3007"
       inkscape:connector-curvature="0" />
    <path
       sodipodi:nodetypes="ccccc"
       inkscape:connector-curvature="0"
       id="path3844"
       d="m 191.58152,1030.9251 308.41848,0 c 0,0 -11.4212,21.4371 -23.31448,21.4371 l -261.78952,0 c -11.89328,0 -23.31448,-21.4371 -23.31448,-21.4371 z"
       style="fill:url(#linearGradient16785);fill-opacity:1;stroke:none" />
    <path
       style="fill:#fcac66;fill-opacity:1;stroke:none"
       d="m 284.854,965.38612 c 0,0 -16.36557,3.33991 -18.70351,12.02369 -2.33794,8.68377 -2.67193,17.03355 1.33596,21.37544 4.0079,4.34185 17.36755,3.00595 18.70351,-1.00198 1.33597,-4.00789 2.67193,-30.3932 -1.33596,-32.39715 z"
       id="path16697"
       inkscape:connector-curvature="0" />
    <path
       style="fill:#fcac66;fill-opacity:1;stroke:none"
       d="m 250.10134,1009.6159 c 0,0 -0.7085,-8.5021 -2.1255,-10.86373 -1.41701,-2.36168 -8.7382,8.50203 -9.21054,13.22533 -0.47233,4.7234 -1.88933,10.3914 6.14036,9.6829 8.02969,-0.7085 5.19568,-12.0445 5.19568,-12.0445 z"
       id="path16699"
       inkscape:connector-curvature="0" />
    <path
       style="fill:#fcac66;fill-opacity:1;stroke:none"
       d="m 309.96632,979.23131 c 0,0 -4.95952,-24.32525 0.7085,-27.15926 5.66802,-2.83401 26.45076,-6.61268 36.60596,-5.66801 10.1552,0.94466 32.82727,2.1255 35.66128,6.84885 2.83401,4.72335 4.72335,17.47639 2.59785,21.96358 -2.12551,4.48718 -71.55874,12.04454 -75.57359,4.01484 z"
       id="path16701"
       inkscape:connector-curvature="0" />
    <path
       inkscape:connector-curvature="0"
       id="path16703"
       d="m 406.6707,965.38612 c 0,0 16.36557,3.33991 18.70351,12.02369 2.33794,8.68377 2.67193,17.03355 -1.33596,21.37544 -4.0079,4.34185 -17.36755,3.00595 -18.70351,-1.00198 -1.33597,-4.00789 -2.67193,-30.3932 1.33596,-32.39715 z"
       style="fill:#fcac66;fill-opacity:1;stroke:none" />
    <path
       inkscape:connector-curvature="0"
       id="path16705"
       d="m 441.71522,1009.6159 c 0,0 0.7085,-8.5021 2.1255,-10.86373 1.41701,-2.36168 8.7382,8.50203 9.21054,13.22533 0.47233,4.7234 1.88933,10.3914 -6.14036,9.6829 -8.02969,-0.7085 -5.19568,-12.0445 -5.19568,-12.0445 z"
       style="fill:#fcac66;fill-opacity:1;stroke:none" />
    <path
       style="fill:url(#linearGradient16793);fill-opacity:1;stroke:none"
       d="M 193.9375 181.59375 C 193.55131 184.17109 187.28664 224.69345 168.6875 260.875 C 175.61896 257.5164 185.13982 257.7488 190.4375 256.625 C 196.69034 255.2987 207.28441 245.81532 212.96875 239.5625 C 218.65317 233.3097 226.40865 217.21094 223.1875 203 C 219.96635 188.78906 207.66097 185.75594 201.21875 185.1875 C 196.40633 184.76288 194.5666 182.63744 193.9375 181.59375 z M 202.0625 195.78125 C 204.03875 195.79805 206.41859 196.81119 209.03125 200.09375 C 214.25656 206.65887 212.52374 219.2704 208.90625 224.09375 C 205.28873 228.91711 201.82408 236.66803 195.125 240.6875 C 188.42588 244.70695 179.16774 252.49627 184.125 239.5 C 189.08238 226.50375 192.83909 210.0058 193.375 206.65625 C 193.375 206.65625 195.52154 198.74607 197.53125 197.40625 C 198.53613 196.73635 200.08624 195.76451 202.0625 195.78125 z "
       id="path16716"
       transform="translate(0,752.36218)" />
    <path
       id="path16731"
       d="m 500,1030.9247 c 0,0 -11.41922,21.4375 -23.3125,21.4375 l -48.125,0 14.34375,-21.4375 57.09375,0 z"
       style="fill:#70306c;fill-opacity:0.39215687;stroke:none"
       inkscape:connector-curvature="0" />
    <path
       style="fill:#70306c;fill-opacity:0.39215687;stroke:none"
       d="M 133.21875 181 L 117.0625 300 L 141.5 300 L 145.625 292.96875 L 152.75 285.90625 C 158.85031 278.26805 164.14279 269.7157 168.6875 260.875 C 187.28664 224.69345 193.55131 184.17109 193.9375 181.59375 C 193.9853 181.28494 194.03125 181 194.03125 181 L 193.65625 181 L 133.21875 181 z M 193.9375 181.59375 C 194.04223 181.76751 194.19503 181.96662 194.375 182.1875 C 194.20247 181.97556 194.03869 181.76162 193.9375 181.59375 z M 197.6875 184.40625 C 197.99712 184.5215 198.33041 184.65363 198.6875 184.75 C 198.3274 184.65313 197.9999 184.52217 197.6875 184.40625 z M 183.5 241.25 C 183.38763 241.59483 183.30524 241.91175 183.21875 242.21875 C 183.30745 241.90579 183.38458 241.60204 183.5 241.25 z M 188.40625 244.90625 C 187.76615 245.28446 187.16542 245.62777 186.59375 245.90625 C 187.17146 245.62637 187.75798 245.28897 188.40625 244.90625 z M 182.90625 245.96875 C 182.93494 246.03551 182.96451 246.09942 183 246.15625 C 182.96197 246.0962 182.93658 246.04005 182.90625 245.96875 z M 183 246.15625 C 183.04692 246.23139 183.0979 246.2853 183.15625 246.34375 C 183.09975 246.28714 183.04578 246.22853 183 246.15625 z M 183.375 246.53125 C 183.49549 246.59961 183.6315 246.63064 183.78125 246.65625 C 183.62442 246.63103 183.50013 246.60279 183.375 246.53125 z M 183.78125 246.65625 C 183.9525 246.68554 184.13784 246.70883 184.34375 246.6875 C 184.13787 246.71001 183.95284 246.68384 183.78125 246.65625 z M 175.59375 258.65625 C 174.89505 258.80029 174.186 258.97608 173.5 259.15625 C 174.19199 258.97381 174.88912 258.80203 175.59375 258.65625 z "
       id="path16795"
       transform="translate(0,752.36218)" />
    <path
       style="fill:#58250c;fill-opacity:0.11764706;stroke:none"
       d="M 365.28125 189.1875 C 373.31272 204.11572 386.39629 253.06078 386.1875 258.0625 C 386.04437 261.49133 389.14824 273.11446 391.0625 278.5625 L 462.3125 278.5625 C 462.94908 272.64444 461.13511 263.84822 457.25 255.625 C 453.35161 247.37371 445.59007 237.74167 442.3125 236.5625 C 442.2612 236.5477 442.20843 236.5182 442.15625 236.5 C 438.83763 235.33975 433.85237 227.35865 430.59375 222 C 429.90632 220.36409 428.98414 218.92466 427.84375 217.625 C 427.66769 217.38181 427.52094 217.2051 427.4375 217.15625 C 423.91191 213.43885 418.3547 211.08799 410.46875 209.78125 C 405.37151 208.93661 400.98241 208.49898 400.6875 208.8125 C 399.41376 208.54933 398.08539 207.73403 396.78125 206.65625 L 396 219.6875 C 394.02075 209.76397 391.0583 202.19708 390.75 200.96875 C 390.15283 198.58946 387.55208 196.3634 382.40625 193.875 C 377.86802 191.68042 371.90943 190.15396 365.28125 189.1875 z "
       transform="translate(0,752.36218)"
       id="path16821" />
    <path
       style="fill:#70306c;fill-opacity:0.39215687;stroke:none"
       d="M 48.40625 292.96875 L 52.53125 300 L 141.5 300 L 145.625 292.96875 L 48.40625 292.96875 z "
       transform="translate(0,752.36218)"
       id="rect16845" />
    <path
       style="fill:#70306c;fill-opacity:0.39215686;stroke:none"
       d="M 202.0625 292.96875 C 205.86285 296.84667 210.35325 300 214.90625 300 L 476.6875 300 C 481.2405 300 485.69965 296.84667 489.5 292.96875 L 202.0625 292.96875 z "
       transform="translate(0,752.36218)"
       id="path16850" />
  </g>
</svg>
