<?xml version="1.0" encoding="UTF-8" standalone="no"?>
<!-- Created with Inkscape (http://www.inkscape.org/) -->

<svg
   xmlns:dc="http://purl.org/dc/elements/1.1/"
   xmlns:cc="http://creativecommons.org/ns#"
   xmlns:rdf="http://www.w3.org/1999/02/22-rdf-syntax-ns#"
   xmlns:svg="http://www.w3.org/2000/svg"
   xmlns="http://www.w3.org/2000/svg"
   xmlns:xlink="http://www.w3.org/1999/xlink"
   xmlns:sodipodi="http://sodipodi.sourceforge.net/DTD/sodipodi-0.dtd"
   xmlns:inkscape="http://www.inkscape.org/namespaces/inkscape"
   width="300"
   height="125"
   id="svg2"
   version="1.1"
   inkscape:version="0.48.5 r10040"
   sodipodi:docname="graphic-affordable2-darkmode.svg">
  <defs
     id="defs4">
    <inkscape:path-effect
       effect="skeletal"
       id="path-effect4125"
       is_visible="true"
       pattern="m 0,22.98097 1,0"
       copytype="single_stretched"
       prop_scale="1"
       scale_y_rel="false"
       spacing="0"
       normal_offset="0"
       tang_offset="0"
       prop_units="false"
       vertical_pattern="false"
       fuse_tolerance="0" />
    <inkscape:path-effect
       effect="skeletal"
       id="path-effect4054"
       is_visible="true"
       pattern="m -48.03125,930.79347 c -0.480632,0.0606 -0.878755,0.51558 -0.875,1 l 0,12.03125 0,0 c -0.01494,1.05663 2.014943,1.05663 2,0 l 0,0 0,-12.03125 c 0.0044,-0.56796 -0.561468,-1.07095 -1.125,-1 z"
       copytype="repeated"
       prop_scale="1"
       scale_y_rel="false"
       spacing="2"
       normal_offset="0"
       tang_offset="0"
       prop_units="false"
       vertical_pattern="false"
       fuse_tolerance="0" />
    <linearGradient
       id="linearGradient25825">
      <stop
         style="stop-color:#353543;stop-opacity:1;"
         offset="0"
         id="stop25827" />
      <stop
         style="stop-color:#3d418b;stop-opacity:1;"
         offset="1"
         id="stop25829" />
    </linearGradient>
    <linearGradient
       id="linearGradient25442">
      <stop
         style="stop-color:#ffffff;stop-opacity:0;"
         offset="0"
         id="stop25444" />
      <stop
         style="stop-color:#ddddef;stop-opacity:0.58823532;"
         offset="1"
         id="stop25446" />
    </linearGradient>
    <linearGradient
       id="linearGradient4324">
      <stop
         style="stop-color:#007bb4;stop-opacity:1;"
         offset="0"
         id="stop4326" />
      <stop
         style="stop-color:#0096dc;stop-opacity:1;"
         offset="1"
         id="stop4328" />
    </linearGradient>
    <linearGradient
       id="linearGradient4228">
      <stop
         style="stop-color:#6da5bf;stop-opacity:1;"
         offset="0"
         id="stop4230" />
      <stop
         style="stop-color:#97bfd1;stop-opacity:1;"
         offset="1"
         id="stop4232" />
    </linearGradient>
    <linearGradient
       id="linearGradient4222">
      <stop
         id="stop4224"
         offset="0"
         style="stop-color:#007ab4;stop-opacity:1;" />
      <stop
         id="stop4226"
         offset="1"
         style="stop-color:#00b7de;stop-opacity:1;" />
    </linearGradient>
    <linearGradient
       id="linearGradient4063">
      <stop
         style="stop-color:#86d3f6;stop-opacity:1;"
         offset="0"
         id="stop4065" />
      <stop
         style="stop-color:#86e2f6;stop-opacity:1;"
         offset="1"
         id="stop4067" />
    </linearGradient>
    <linearGradient
       id="linearGradient3850">
      <stop
         style="stop-color:#a83ea2;stop-opacity:1;"
         offset="0"
         id="stop3852" />
      <stop
         style="stop-color:#d939b1;stop-opacity:1;"
         offset="1"
         id="stop3854" />
    </linearGradient>
    <linearGradient
       inkscape:collect="always"
       xlink:href="#linearGradient4063-5"
       id="linearGradient4069-4"
       x1="5.0113921"
       y1="943.45148"
       x2="310.72568"
       y2="943.45148"
       gradientUnits="userSpaceOnUse"
       gradientTransform="matrix(1.0132169,0,0,1.0558882,-876.24753,-1261.8808)" />
    <linearGradient
       id="linearGradient4063-5">
      <stop
         style="stop-color:#0096dc;stop-opacity:1;"
         offset="0"
         id="stop4065-8" />
      <stop
         style="stop-color:#07d3ff;stop-opacity:1;"
         offset="1"
         id="stop4067-8" />
    </linearGradient>
    <linearGradient
       inkscape:collect="always"
       xlink:href="#linearGradient4222"
       id="linearGradient4210"
       x1="8.8888892e-006"
       y1="913.44031"
       x2="291.875"
       y2="913.44031"
       gradientUnits="userSpaceOnUse" />
    <linearGradient
       inkscape:collect="always"
       xlink:href="#linearGradient4063"
       id="linearGradient4213"
       gradientUnits="userSpaceOnUse"
       gradientTransform="matrix(1.0132169,0,0,1.0558882,-4.1068455,-1563.2605)"
       x1="5.0113921"
       y1="943.45148"
       x2="310.72568"
       y2="943.45148" />
    <linearGradient
       inkscape:collect="always"
       xlink:href="#linearGradient4228"
       id="linearGradient4234"
       x1="1.9207482"
       y1="92.420311"
       x2="269.26675"
       y2="92.420311"
       gradientUnits="userSpaceOnUse" />
    <linearGradient
       inkscape:collect="always"
       xlink:href="#linearGradient4063-6"
       id="linearGradient4213-2"
       gradientUnits="userSpaceOnUse"
       gradientTransform="matrix(1.0132169,0,0,1.0558882,-2194.8211,-904.75052)"
       x1="5.0113921"
       y1="943.45148"
       x2="310.72568"
       y2="943.45148" />
    <linearGradient
       id="linearGradient4063-6">
      <stop
         style="stop-color:#0096dc;stop-opacity:1;"
         offset="0"
         id="stop4065-2" />
      <stop
         style="stop-color:#07d3ff;stop-opacity:1;"
         offset="1"
         id="stop4067-7" />
    </linearGradient>
    <linearGradient
       gradientTransform="translate(-2190.7143,658.50999)"
       inkscape:collect="always"
       xlink:href="#linearGradient4228-7"
       id="linearGradient4234-5"
       x1="1.9207482"
       y1="92.420311"
       x2="269.26675"
       y2="92.420311"
       gradientUnits="userSpaceOnUse" />
    <linearGradient
       id="linearGradient4228-7">
      <stop
         style="stop-color:#a83ea2;stop-opacity:1;"
         offset="0"
         id="stop4230-8" />
      <stop
         style="stop-color:#d8276b;stop-opacity:1;"
         offset="1"
         id="stop4232-2" />
    </linearGradient>
    <linearGradient
       gradientTransform="translate(-2190.7143,-93.852188)"
       inkscape:collect="always"
       xlink:href="#linearGradient4222-8"
       id="linearGradient4210-7"
       x1="8.8888892e-006"
       y1="913.44031"
       x2="291.875"
       y2="913.44031"
       gradientUnits="userSpaceOnUse" />
    <linearGradient
       id="linearGradient4222-8">
      <stop
         id="stop4224-0"
         offset="0"
         style="stop-color:#007ab4;stop-opacity:1;" />
      <stop
         id="stop4226-2"
         offset="1"
         style="stop-color:#00b7de;stop-opacity:1;" />
    </linearGradient>
    <linearGradient
       inkscape:collect="always"
       xlink:href="#linearGradient4324"
       id="linearGradient4330"
       x1="215.34375"
       y1="191.09375"
       x2="330"
       y2="191.09375"
       gradientUnits="userSpaceOnUse" />
    <radialGradient
       inkscape:collect="always"
       xlink:href="#linearGradient25442"
       id="radialGradient25448"
       cx="-316.17688"
       cy="-467.67346"
       fx="-316.17688"
       fy="-467.67346"
       r="151.42857"
       gradientUnits="userSpaceOnUse" />
    <linearGradient
       inkscape:collect="always"
       xlink:href="#linearGradient4063"
       id="linearGradient25612"
       x1="403.87952"
       y1="468.11551"
       x2="822.06873"
       y2="468.11551"
       gradientUnits="userSpaceOnUse"
       gradientTransform="matrix(0.81738522,0,0,0.81738522,208.10466,335.7961)" />
    <linearGradient
       inkscape:collect="always"
       xlink:href="#linearGradient4063"
       id="linearGradient25755"
       gradientUnits="userSpaceOnUse"
       gradientTransform="matrix(0.81738522,0,0,0.81738522,-665.89534,129.7961)"
       x1="403.87952"
       y1="468.11551"
       x2="822.06873"
       y2="468.11551" />
    <linearGradient
       inkscape:collect="always"
       xlink:href="#linearGradient4063"
       id="linearGradient25812"
       gradientUnits="userSpaceOnUse"
       gradientTransform="matrix(0.81738522,0,0,0.81738522,208.10466,-366.56608)"
       x1="403.87952"
       y1="468.11551"
       x2="822.06873"
       y2="468.11551" />
    <linearGradient
       inkscape:collect="always"
       xlink:href="#linearGradient25825"
       id="linearGradient25831"
       x1="456.28125"
       y1="-133.03183"
       x2="617.54065"
       y2="-133.03183"
       gradientUnits="userSpaceOnUse"
       gradientTransform="matrix(0.43946231,-0.25372368,0.25372368,0.43946231,-32.218833,1157.1166)" />
    <linearGradient
       inkscape:collect="always"
       xlink:href="#linearGradient4063"
       id="linearGradient25850"
       gradientUnits="userSpaceOnUse"
       gradientTransform="matrix(0.35921,-0.20738999,0.20738999,0.35921,-33.771172,943.22354)"
       x1="403.87952"
       y1="468.11551"
       x2="822.06873"
       y2="468.11551" />
    <linearGradient
       inkscape:collect="always"
       xlink:href="#linearGradient25825"
       id="linearGradient31328"
       gradientUnits="userSpaceOnUse"
       gradientTransform="matrix(0.43946231,-0.25372368,0.25372368,0.43946231,-32.218833,418.75442)"
       x1="456.28125"
       y1="-133.03183"
       x2="617.54065"
       y2="-133.03183" />
    <linearGradient
       inkscape:collect="always"
       xlink:href="#linearGradient25825"
       id="linearGradient31341"
       gradientUnits="userSpaceOnUse"
       gradientTransform="matrix(0.43946231,-0.25372368,0.25372368,0.43946231,-399.5608,1157.1166)"
       x1="456.28125"
       y1="-133.03183"
       x2="617.54065"
       y2="-133.03183" />
    <linearGradient
       inkscape:collect="always"
       xlink:href="#linearGradient25825"
       id="linearGradient31343"
       gradientUnits="userSpaceOnUse"
       gradientTransform="matrix(0.43946231,-0.25372368,0.25372368,0.43946231,-399.5608,1157.1166)"
       x1="456.28125"
       y1="-133.03183"
       x2="617.54065"
       y2="-133.03183" />
    <linearGradient
       inkscape:collect="always"
       xlink:href="#linearGradient25825"
       id="linearGradient31366"
       gradientUnits="userSpaceOnUse"
       gradientTransform="matrix(0.43946231,-0.25372368,0.25372368,0.43946231,-32.218833,418.75442)"
       x1="456.28125"
       y1="-133.03183"
       x2="617.54065"
       y2="-133.03183" />
    <linearGradient
       inkscape:collect="always"
       xlink:href="#linearGradient25825"
       id="linearGradient31370"
       gradientUnits="userSpaceOnUse"
       gradientTransform="matrix(0.35912828,-0.20734281,0.20734281,0.35912828,-26.329207,1137.9674)"
       x1="456.28125"
       y1="-133.03183"
       x2="617.54065"
       y2="-133.03183" />
    <linearGradient
       inkscape:collect="always"
       xlink:href="#linearGradient4063"
       id="linearGradient31372"
       gradientUnits="userSpaceOnUse"
       gradientTransform="matrix(0.29354615,-0.16947895,0.16947895,0.29354615,-27.597777,35.81198)"
       x1="403.87952"
       y1="468.11551"
       x2="822.06873"
       y2="468.11551" />
    <linearGradient
       inkscape:collect="always"
       xlink:href="#linearGradient25825-7"
       id="linearGradient31341-1"
       gradientUnits="userSpaceOnUse"
       gradientTransform="matrix(0.43946231,-0.25372368,0.25372368,0.43946231,-399.5608,1157.1166)"
       x1="456.28125"
       y1="-133.03183"
       x2="617.54065"
       y2="-133.03183" />
    <linearGradient
       id="linearGradient25825-7">
      <stop
         style="stop-color:#353543;stop-opacity:1;"
         offset="0"
         id="stop25827-4" />
      <stop
         style="stop-color:#3d418b;stop-opacity:1;"
         offset="1"
         id="stop25829-0" />
    </linearGradient>
    <linearGradient
       y2="-133.03183"
       x2="617.54065"
       y1="-133.03183"
       x1="456.28125"
       gradientTransform="matrix(0.43946231,-0.25372368,0.25372368,0.43946231,-119.18072,1173.496)"
       gradientUnits="userSpaceOnUse"
       id="linearGradient3225"
       xlink:href="#linearGradient25825-7"
       inkscape:collect="always" />
    <linearGradient
       inkscape:collect="always"
       xlink:href="#linearGradient25825-4"
       id="linearGradient31343-9"
       gradientUnits="userSpaceOnUse"
       gradientTransform="matrix(0.43946231,-0.25372368,0.25372368,0.43946231,-399.5608,1157.1166)"
       x1="456.28125"
       y1="-133.03183"
       x2="617.54065"
       y2="-133.03183" />
    <linearGradient
       id="linearGradient25825-4">
      <stop
         style="stop-color:#353543;stop-opacity:1;"
         offset="0"
         id="stop25827-8" />
      <stop
         style="stop-color:#3d418b;stop-opacity:1;"
         offset="1"
         id="stop25829-8" />
    </linearGradient>
    <linearGradient
       y2="-133.03183"
       x2="617.54065"
       y1="-133.03183"
       x1="456.28125"
       gradientTransform="matrix(0.3591297,-0.20734363,0.20734363,0.3591297,-26.329722,1137.9681)"
       gradientUnits="userSpaceOnUse"
       id="linearGradient4027"
       xlink:href="#linearGradient25825-4"
       inkscape:collect="always" />
    <inkscape:path-effect
       effect="skeletal"
       id="path-effect4054-5"
       is_visible="true"
       pattern="m -48.03125,930.79347 c -0.480632,0.0606 -0.878755,0.51558 -0.875,1 l 0,12.03125 0,0 c -0.01494,1.05663 2.014943,1.05663 2,0 l 0,0 0,-12.03125 c 0.0044,-0.56796 -0.561468,-1.07095 -1.125,-1 z"
       copytype="repeated"
       prop_scale="1"
       scale_y_rel="false"
       spacing="2"
       normal_offset="0"
       tang_offset="0"
       prop_units="false"
       vertical_pattern="false"
       fuse_tolerance="0" />
    <linearGradient
       inkscape:collect="always"
       xlink:href="#linearGradient4063"
       id="linearGradient6074"
       gradientUnits="userSpaceOnUse"
       gradientTransform="matrix(0.29354615,-0.16947895,0.16947895,0.29354615,-27.597777,35.81198)"
       x1="403.87952"
       y1="468.11551"
       x2="822.06873"
       y2="468.11551" />
    <linearGradient
       inkscape:collect="always"
       xlink:href="#linearGradient4063"
       id="linearGradient6077"
       gradientUnits="userSpaceOnUse"
       gradientTransform="matrix(0.29354615,-0.16947895,0.16947895,0.29354615,-27.597777,35.81198)"
       x1="403.87952"
       y1="468.11551"
       x2="822.06873"
       y2="468.11551" />
  </defs>
  <sodipodi:namedview
     id="base"
     pagecolor="#ffffff"
     bordercolor="#666666"
     borderopacity="1.0"
     inkscape:pageopacity="0.0"
     inkscape:pageshadow="2"
     inkscape:zoom="2.8284271"
     inkscape:cx="192.26571"
     inkscape:cy="81.999319"
     inkscape:document-units="px"
     inkscape:current-layer="layer1"
     showgrid="false"
     inkscape:snap-bbox="true"
     inkscape:object-nodes="true"
     inkscape:object-paths="true"
     inkscape:snap-global="false"
     inkscape:showpageshadow="false"
     inkscape:window-width="1704"
     inkscape:window-height="1361"
     inkscape:window-x="3641"
     inkscape:window-y="887"
     inkscape:window-maximized="0"
     showguides="true"
     inkscape:guide-bbox="true"
     inkscape:snap-bbox-edge-midpoints="true"
     inkscape:bbox-paths="false" />
  <metadata
     id="metadata7">
    <rdf:RDF>
      <cc:Work
         rdf:about="">
        <dc:format>image/svg+xml</dc:format>
        <dc:type
           rdf:resource="http://purl.org/dc/dcmitype/StillImage" />
        <dc:title></dc:title>
      </cc:Work>
    </rdf:RDF>
  </metadata>
  <g
     inkscape:label="Layer 1"
     inkscape:groupmode="layer"
     id="layer1"
     transform="translate(0,-927.36218)">
    <path
       style="fill:url(#linearGradient6077);fill-opacity:1;stroke:none"
       d="M 187.0625 13.5625 C 186.64418 13.599981 186.22253 13.736856 185.875 13.9375 L 144.09375 42.53125 C 143.05325 43.24366 142.35517 44.25148 142.0625 45.34375 C 141.76983 46.43601 141.89265 47.61273 142.4375 48.75 L 164.3125 94.4375 C 164.6692 95.0553 165.2877 95.5508 166.03125 95.75 L 169.03125 96.53125 L 173.28125 97.6875 L 236.6875 114.6875 L 274.625 124.84375 C 277.06105 125.49645 279.56601 124.0611 280.21875 121.625 L 299.84375 48.34375 C 300.49649 45.9077 299.06106 43.40274 296.625 42.75 L 258.6875 32.59375 L 195.25 15.59375 L 191.03125 14.46875 L 188.03125 13.65625 C 187.84536 13.606443 187.65525 13.575031 187.46875 13.5625 C 187.32887 13.553102 187.20194 13.550006 187.0625 13.5625 z M 221 38.6875 C 221.12207 38.671513 221.24493 38.6872 221.375 38.71875 L 225.34375 39.78125 C 225.61344 39.86014 225.80893 40.0274 225.9375 40.25 C 226.0661 40.47268 226.09775 40.72703 226.03125 41 L 224.65625 46.1875 C 227.53034 47.44788 229.58679 48.77142 230.875 50.21875 C 232.16314 51.66614 232.82675 52.49283 232.84375 52.6875 C 232.94713 52.89356 232.99575 53.10591 232.96875 53.3125 C 232.94165 53.51913 232.83852 53.69013 232.6875 53.84375 L 229.15625 57.53125 C 228.93026 57.76555 228.65385 57.8535 228.34375 57.8125 C 228.03586 57.78267 227.81071 57.62483 227.625 57.375 C 227.59335 57.2106 226.94378 56.48191 225.6875 55.15625 C 224.43117 53.83063 222.66851 52.8005 220.4375 52.0625 C 218.53032 51.57455 216.89741 51.58006 215.53125 52.09375 C 214.16504 52.60749 213.30135 53.55198 212.90625 54.90625 C 212.56137 56.4438 213.00613 57.86029 214.25 59.15625 C 215.49383 60.45225 217.08239 61.77831 219.03125 63.125 C 221.62921 64.84372 223.87175 66.84064 225.78125 69.125 C 227.69069 71.40938 228.25311 74.28405 227.46875 77.78125 C 226.60052 80.82495 224.9418 83.17435 222.46875 84.78125 C 219.99564 86.38805 217.10595 87.0335 213.78125 86.75 L 212.40625 91.90625 C 212.32738 92.17595 212.16012 92.3714 211.9375 92.5 C 211.71485 92.629 211.4605 92.66075 211.1875 92.59375 L 207.21875 91.53125 C 206.96191 91.45585 206.75905 91.31785 206.625 91.09375 C 206.4909 90.86955 206.46655 90.61725 206.53125 90.34375 L 207.90625 85.1875 C 204.6178 83.6267 202.22935 81.9394 200.75 80.125 C 199.27064 78.3105 198.5208 77.259 198.5 77 C 198.401 76.7774 198.3903 76.56665 198.4375 76.34375 C 198.48473 76.12075 198.60022 75.92885 198.78125 75.78125 L 202.875 72.625 C 202.97876 72.54224 203.08261 72.49545 203.21875 72.46875 C 203.35486 72.44195 203.51722 72.4161 203.65625 72.4375 C 203.9441 72.48306 204.14496 72.64865 204.28125 72.90625 C 204.32484 73.10935 205.05661 74.03175 206.5 75.65625 C 207.94338 77.28075 209.99885 78.52685 212.625 79.40625 C 214.1375 79.81735 215.60659 79.7816 217.03125 79.3125 C 218.45587 78.8434 219.42282 77.79695 219.9375 76.15625 C 220.24528 74.75945 219.79076 73.43478 218.59375 72.1875 C 217.3967 70.94026 215.87845 69.65467 214.03125 68.34375 C 211.4714 66.63002 209.19325 64.551 207.1875 62.125 C 205.18173 59.69903 204.5719 56.65537 205.375 53 C 206.16311 50.25272 207.77387 48.14684 210.1875 46.65625 C 212.6011 45.16574 215.45082 44.51913 218.75 44.71875 L 220.15625 39.40625 C 220.23692 39.13706 220.39681 38.9396 220.625 38.8125 C 220.73906 38.749 220.87793 38.703487 221 38.6875 z M 172.8125 44.75 C 173.68884 44.715147 174.60828 44.823565 175.5 45.0625 C 180.25584 46.33682 183.05557 51.21296 181.78125 55.96875 C 180.50695 60.72455 175.63084 63.55557 170.875 62.28125 C 166.11918 61.00692 163.2882 56.1308 164.5625 51.375 C 165.59788 47.510912 169.01502 44.901028 172.8125 44.75 z M 255 59.8125 C 255.13172 59.800268 255.27154 59.804466 255.40625 59.8125 C 255.58587 59.823212 255.75076 59.86151 255.9375 59.90625 L 258.59375 60.59375 C 259.33007 60.81225 259.88446 61.24194 260.25 61.875 C 260.61544 62.50811 260.71019 63.22184 260.53125 63.96875 L 256.625 78.46875 L 264.3125 74.03125 C 264.61765 73.85645 264.95568 73.7355 265.3125 73.6875 C 265.66926 73.6401 266.01998 73.68825 266.375 73.78125 C 266.72845 73.87825 267.05639 74.0298 267.34375 74.25 C 267.63103 74.4702 267.87566 74.72475 268.0625 75.03125 L 269.1875 77 C 269.35956 77.3151 269.48415 77.6411 269.53125 78 C 269.5783 78.359 269.5305 78.73915 269.4375 79.09375 C 269.34033 79.44765 269.18835 79.74605 268.96875 80.03125 C 268.74907 80.31645 268.49139 80.54185 268.1875 80.71875 L 251.15625 90.59375 C 250.84117 90.76585 250.51517 90.85925 250.15625 90.90625 C 249.7973 90.95375 249.41705 90.93675 249.0625 90.84375 C 248.70857 90.74655 248.41015 90.5946 248.125 90.375 C 247.83981 90.1554 247.61441 89.89775 247.4375 89.59375 L 237.59375 72.53125 C 237.40912 72.22343 237.2998 71.88862 237.25 71.53125 C 237.20021 71.17391 237.2194 70.82376 237.3125 70.46875 C 237.40908 70.11517 237.55888 69.78676 237.78125 69.5 C 238.0036 69.21327 238.27729 68.99667 238.59375 68.8125 L 240.53125 67.65625 C 240.84631 67.48417 241.20356 67.39085 241.5625 67.34375 C 241.92143 67.29669 242.27044 67.31325 242.625 67.40625 C 242.9789 67.50341 243.30857 67.65538 243.59375 67.875 C 243.87891 68.09466 244.10431 68.35234 244.28125 68.65625 L 248.71875 76.34375 L 252.59375 61.84375 C 252.81222 61.10743 253.2419 60.55303 253.875 60.1875 C 254.2311 59.98189 254.60484 59.849197 255 59.8125 z "
       transform="translate(0,927.36218)"
       id="path25601" />
    <path
       sodipodi:type="arc"
       style="fill:#ffffff;fill-opacity:0;stroke:none"
       id="path10516-3"
       sodipodi:cx="1583.5714"
       sodipodi:cy="1395.2194"
       sodipodi:rx="165.71428"
       sodipodi:ry="165.71428"
       d="m 1749.2857,1395.2194 c 0,91.5214 -74.1928,165.7142 -165.7143,165.7142 -91.5215,0 -165.7143,-74.1928 -165.7143,-165.7142 0,-91.5215 74.1928,-165.7143 165.7143,-165.7143 91.5215,0 165.7143,74.1928 165.7143,165.7143 z"
       transform="matrix(0.37536191,0,0,0.37536191,-532.20953,466.44714)" />
    <path
       transform="matrix(0.37536191,0,0,0.37536191,-532.20953,466.44714)"
       d="m 1749.2857,1395.2194 c 0,91.5214 -74.1928,165.7142 -165.7143,165.7142 -91.5215,0 -165.7143,-74.1928 -165.7143,-165.7142 0,-91.5215 74.1928,-165.7143 165.7143,-165.7143 91.5215,0 165.7143,74.1928 165.7143,165.7143 z"
       sodipodi:ry="165.71428"
       sodipodi:rx="165.71428"
       sodipodi:cy="1395.2194"
       sodipodi:cx="1583.5714"
       id="path6252-1-8-5-6"
       style="fill:#ffffff;fill-opacity:0;stroke:none"
       sodipodi:type="arc" />
    <path
       style="fill:#86d3f6;fill-opacity:1;stroke:none"
       d="M 62.202782,927.95649 C 27.850053,927.95649 0,955.8066 0,990.15932 c 0,34.35268 27.850053,62.20278 62.202782,62.20278 19.169313,0 36.306546,-8.6758 47.716588,-22.31 -10.48825,10.9314 -25.23649,17.7354 -41.581947,17.7354 -31.828048,0 -57.639876,-25.8001 -57.639876,-57.62818 0,-31.82804 25.811828,-57.62818 57.639876,-57.62818 16.333518,0 31.071707,6.79459 41.558507,17.71188 C 98.485842,936.62453 81.359257,927.95649 62.202782,927.95649 z"
       id="path6252-2-2-1"
       inkscape:connector-curvature="0" />
    <path
       id="path6258-4-7-8"
       d="m 68.322787,935.68089 c 30.086769,0 54.478383,24.39162 54.478383,54.47843 0,30.08678 -24.391614,54.47838 -54.478383,54.47838 -16.788836,0 -31.797984,-7.5984 -41.791138,-19.5395 9.185762,9.5739 22.102601,15.5329 36.418315,15.5329 27.875574,0 50.482116,-22.5962 50.482116,-50.47178 0,-27.87562 -22.606542,-50.47187 -50.482116,-50.47187 -14.305213,0 -27.213194,5.95082 -36.397762,15.51239 9.993203,-11.92737 24.992945,-19.51895 41.770585,-19.51895 z"
       style="fill:#f686e3;fill-opacity:1;stroke:none"
       inkscape:connector-curvature="0" />
    <path
       inkscape:connector-curvature="0"
       style="font-size:114.44565582000001000px;font-style:normal;font-variant:normal;font-weight:normal;font-stretch:normal;text-align:start;line-height:125%;letter-spacing:0px;word-spacing:0px;writing-mode:lr-tb;text-anchor:start;fill:#f686e3;fill-opacity:1;stroke:none;font-family:NordiquePro-Semibold;-inkscape-font-specification:NordiquePro-Semibold"
       d="m 80.65588,969.42519 c -6.512365,0 -11.645526,1.36971 -15.414185,4.08985 2.001475,2.40625 3.456533,5.2648 4.399376,8.48918 0.132889,-0.12507 0.265987,-0.25597 0.407374,-0.37479 2.355882,-1.97999 5.893692,-2.96548 10.607435,-2.96548 l 18.379722,0 0,-9.23876 -18.379722,0 z"
       id="path6285-5-1-2" />
    <path
       inkscape:connector-curvature="0"
       style="font-size:114.44565582000001000px;font-style:normal;font-variant:normal;font-weight:normal;font-stretch:normal;text-align:start;line-height:125%;letter-spacing:0px;word-spacing:0px;writing-mode:lr-tb;text-anchor:start;fill:#f686e3;fill-opacity:1;stroke:none;font-family:NordiquePro-Semibold;-inkscape-font-specification:NordiquePro-Semibold"
       d="m 71.009796,999.40628 0,8.44032 0,1.7761 c 2.787915,0.8543 5.996447,1.2709 9.646084,1.2709 l 18.379722,0 0,-9.2387 -18.379722,0 c -4.113421,0 -7.328209,-0.7409 -9.646084,-2.24862 z"
       id="path6287-1-4-7" />
    <path
       inkscape:connector-curvature="0"
       style="font-size:114.44565582000001000px;font-style:normal;font-variant:normal;font-weight:normal;font-stretch:normal;text-align:start;line-height:125%;letter-spacing:0px;word-spacing:0px;writing-mode:lr-tb;text-anchor:start;fill:#86d3f6;fill-opacity:1;stroke:none;font-family:NordiquePro-Semibold;-inkscape-font-specification:NordiquePro-Semibold"
       d="m 46.112444,969.42519 c -6.283497,-6e-5 -11.318594,1.93698 -15.088296,5.80068 -3.769702,3.86365 -5.654032,9.63832 -5.654084,17.3043 l 0,18.36343 9.238762,0 0,-18.36343 c 0,-4.71312 0.985801,-8.25186 2.965536,-10.60738 1.979787,-2.35572 4.831671,-3.53588 8.538082,-3.53588 3.706411,0 6.541977,1.18021 8.521816,3.53588 1.806963,2.1499 2.791513,5.28753 2.949218,9.40163 0.226418,5.74422 2.145416,10.38048 5.7681,13.91508 1.026101,1.0012 2.192807,1.8718 3.486928,2.6071 l 0,-15.31643 c 0,-7.66598 -1.88433,-13.4406 -5.654032,-17.3043 -3.769702,-3.86365 -8.788585,-5.80068 -15.07203,-5.80068 z"
       id="path6289-7-2-9" />
    <path
       style="font-size:medium;font-style:normal;font-variant:normal;font-weight:normal;font-stretch:normal;text-indent:0;text-align:start;text-decoration:none;line-height:normal;letter-spacing:normal;word-spacing:normal;text-transform:none;direction:ltr;block-progression:tb;writing-mode:lr-tb;text-anchor:start;baseline-shift:baseline;color:#000000;fill:#2d303e;fill-opacity:1;fill-rule:nonzero;stroke:none;stroke-width:5;marker:none;visibility:visible;display:inline;overflow:visible;enable-background:accumulate;font-family:Sans;-inkscape-font-specification:Sans"
       d="m 141.83515,951.20823 c -7.23704,-0.009 -15.03607,1.60216 -21.98777,4.64782 -1.1571,0.50694 -2.3093,1.0378 -3.42202,1.6344 -0.50029,0.26826 -0.94714,0.54947 -1.40456,0.8172 -7.10408,4.15842 -12.89841,10.3385 -14.04561,18.48913 -0.28547,2.02816 0.0382,4.3981 0.71505,6.89512 0.67679,2.49702 1.73285,5.05445 3.19218,7.12496 l 0.0255,0.0511 0.0255,0.0255 c 0.79887,1.02661 1.87705,2.18576 2.8602,3.21772 0.98316,1.03197 1.89318,1.9661 2.14515,2.2473 l 0.10215,0.10215 0.0766,0.0766 c 0.17127,0.14901 0.42473,0.40797 0.76613,0.68952 0.59568,0.49127 1.21438,0.96966 1.8387,1.43009 0.26358,-1.55933 0.4447,-3.14547 0.56182,-4.74997 -0.0965,-0.0791 -0.17037,-0.15526 -0.28091,-0.25537 -0.0258,-0.0288 -0.0997,-0.097 -0.12769,-0.12769 -0.0238,-0.0209 -0.0262,-0.0294 -0.0511,-0.0511 -0.20229,-0.22023 -0.57513,-0.61621 -0.86828,-0.91935 0.45517,0.43802 0.90047,0.90396 1.35349,1.25133 0.0855,-1.20569 0.12768,-2.42441 0.12768,-3.65186 0,-0.66381 -0.0242,-1.33475 -0.0511,-1.99192 -0.6127,-0.68289 -1.21558,-1.38294 -1.65994,-1.94085 -0.77535,-1.36894 -1.51438,-3.17557 -1.99192,-4.80104 -0.49017,-1.66848 -0.63438,-3.32045 -0.6129,-3.4731 0.73062,-5.19086 4.95293,-9.80736 11.23649,-13.17734 0.90346,-0.48456 1.81846,-0.95617 2.78359,-1.37902 7.74669,-3.39397 17.47903,-4.66198 24.33721,-3.49864 4.7684,0.80886 10.94927,3.93814 15.29695,8.01877 4.35757,4.0899 6.69373,8.82948 6.07792,12.7432 -0.328,2.08452 -1.26052,4.06134 -2.6559,5.95024 1.14728,1.4381 2.76042,2.52638 4.67336,3.03895 1.03672,0.2778 2.07998,0.34294 3.09004,0.25538 1.48495,-2.39475 2.5557,-5.05872 3.01342,-7.96769 1.21503,-7.72195 -2.99759,-14.77975 -8.55506,-19.99585 -5.54862,-5.2078 -12.72706,-9.00023 -19.58724,-10.16391 -2.23803,-0.37964 -4.58558,-0.55881 -6.99727,-0.56183 z m 0,4.086 c 2.20828,0.002 4.34925,0.17419 6.33329,0.51075 5.85809,0.9937 12.46744,4.42225 17.4421,9.09134 4.96583,4.6608 8.2546,10.53964 7.32926,16.4206 -0.34077,2.16571 -1.2004,4.11294 -2.29838,5.97577 -0.0324,-0.0131 -0.0701,-0.0121 -0.10215,-0.0255 1.11353,-1.86265 2.00884,-3.8366 2.34945,-6.00131 0.92278,-5.8647 -2.34757,-11.66674 -7.30372,-16.31845 -4.96602,-4.66098 -11.59311,-8.09918 -17.44209,-9.09134 -3.96418,-0.67244 -8.4953,-0.64999 -13.10073,0 2.29832,-0.32369 4.59023,-0.56458 6.79297,-0.56182 z m -13.79024,2.01746 c -2.24328,0.63089 -4.43826,1.42969 -6.53759,2.34945 -1.0687,0.46822 -2.09778,0.94899 -3.09004,1.48117 -1.30999,0.70257 -2.55483,1.47241 -3.72847,2.29837 0.76065,-0.56031 1.52616,-1.11199 2.37499,-1.60886 0.44452,-0.26018 0.8754,-0.48608 1.30241,-0.71505 1.00681,-0.53981 2.04748,-1.0643 3.11557,-1.53225 2.10205,-0.92095 4.31889,-1.64018 6.56313,-2.27283 z m -22.72835,18.97434 c -0.0774,0.36517 -0.17726,0.72454 -0.22984,1.09812 -0.23033,1.63648 0.16853,3.23691 0.74059,5.1841 0.57205,1.9472 1.3989,4.04632 2.42606,5.82255 l 0.0766,0.12769 0.0766,0.10215 c 0.17188,0.21877 0.41878,0.52406 0.6129,0.76612 -0.26353,-0.30245 -0.61952,-0.66822 -0.8172,-0.91935 -0.01,-0.014 -0.0157,-0.0368 -0.0255,-0.0511 -0.006,-0.007 -0.02,-0.0183 -0.0255,-0.0255 -1.04232,-1.50429 -1.96116,-3.65381 -2.52821,-5.74593 -0.5757,-2.12405 -0.75919,-4.24688 -0.6129,-5.28626 0.053,-0.37674 0.22874,-0.70466 0.30645,-1.07258 z m 17.26333,18.74451 c -0.13261,1.45609 -0.3416,2.89484 -0.58736,4.31584 3.5538,1.68912 7.23887,2.83692 10.59805,3.26882 5.82054,0.7483 12.71083,-0.1154 19.20419,-2.1962 l 0.0511,0.077 c -6.51146,2.0992 -13.44646,2.9463 -19.28079,2.1962 -3.35341,-0.4312 -7.02467,-1.5826 -10.57252,-3.26881 -0.24293,1.39321 -0.52296,2.75671 -0.86827,4.11151 3.619,1.6176 7.35925,2.7331 10.93004,3.1922 7.29525,0.938 15.68194,-0.1937 23.36679,-3.0645 l 0.17876,-0.077 -3.57525,-7.48248 c -6.36444,2.26837 -13.48641,3.17615 -18.92327,2.47713 -3.14421,-0.40426 -6.93259,-1.69411 -10.52144,-3.54971 z"
       id="path31331"
       inkscape:connector-curvature="0" />
    <path
       style="font-size:medium;font-style:normal;font-variant:normal;font-weight:normal;font-stretch:normal;text-indent:0;text-align:start;text-decoration:none;line-height:normal;letter-spacing:normal;word-spacing:normal;text-transform:none;direction:ltr;block-progression:tb;writing-mode:lr-tb;text-anchor:start;baseline-shift:baseline;color:#000000;fill:url(#linearGradient31370);fill-opacity:1;stroke:none;stroke-width:10;marker:none;visibility:visible;display:inline;overflow:visible;enable-background:accumulate;font-family:Sans;-inkscape-font-specification:Sans"
       d="m 141.83515,953.25123 c -6.92996,-0.009 -14.49503,1.54438 -21.17057,4.46906 -1.11259,0.48744 -2.20903,1.01511 -3.2688,1.58332 -0.46364,0.24862 -0.90251,0.50217 -1.35348,0.76613 -6.76439,3.95958 -12.01511,9.65777 -13.04965,17.00796 -0.43175,3.06753 1.02852,8.98737 3.54971,12.56443 1.40718,1.80836 4.21249,4.56353 4.92873,5.36288 0.23849,0.20748 0.47077,0.43698 0.71505,0.63843 0.28349,0.23381 0.57717,0.46272 0.86827,0.68951 0.20415,-1.68317 0.3225,-3.40316 0.35753,-5.13303 -1.17123,-1.14764 -2.52492,-2.72126 -3.39649,-3.83062 -1.82542,-3.15666 -3.16308,-7.91511 -2.91127,-9.70424 0.85553,-6.07834 5.64843,-11.15108 12.28353,-14.70959 0.94786,-0.50837 1.91989,-0.98456 2.93681,-1.4301 8.13534,-3.56425 18.09313,-4.90597 25.4864,-3.65186 5.30869,0.90051 11.71267,4.18425 16.36952,8.55506 4.65686,4.3708 7.46012,9.64161 6.69082,14.53082 -0.40272,2.55941 -1.54258,4.93295 -3.19218,7.09942 0.003,0.002 0.0223,0.0232 0.0255,0.0255 0.91293,0.71087 1.97768,1.23921 3.16665,1.55778 0.23728,0.0636 0.47747,0.11004 0.71505,0.15323 1.70127,-2.44292 2.89699,-5.15984 3.37095,-8.17199 1.07019,-6.80145 -2.68051,-13.26977 -7.94216,-18.20822 -5.26164,-4.93845 -12.15553,-8.54894 -18.51467,-9.62763 -2.11104,-0.3581 -4.35529,-0.53341 -6.66528,-0.53629 z m -19.4851,43.95 c -0.19229,1.45691 -0.43579,2.89737 -0.74058,4.31587 3.56624,1.6367 7.25229,2.7488 10.7002,3.1921 6.88383,0.8851 15.00658,-0.2018 22.39637,-2.9623 l -1.81316,-3.77955 c -6.69805,2.41915 -14.12742,3.39145 -20.04692,2.63035 -3.24531,-0.4172 -6.93758,-1.63895 -10.49591,-3.39647 z"
       id="path31322"
       inkscape:connector-curvature="0" />
    <path
       style="font-size:medium;font-style:normal;font-variant:normal;font-weight:normal;font-stretch:normal;text-indent:0;text-align:start;text-decoration:none;line-height:normal;letter-spacing:normal;word-spacing:normal;text-transform:none;direction:ltr;block-progression:tb;writing-mode:lr-tb;text-anchor:start;baseline-shift:baseline;color:#000000;fill:#ffffff;fill-opacity:1;stroke:none;stroke-width:2;marker:none;visibility:visible;display:inline;overflow:visible;enable-background:accumulate;font-family:Sans;-inkscape-font-specification:Sans"
       d="m 187.29869,944.8387 -2.05758,1.4124 -0.17216,0.32386 0.14775,0.33368 0.36526,0.0884 0.12994,-0.06 2.04636,-1.40592 0.18337,-0.33033 -0.14773,-0.33368 -0.36527,-0.0884 -0.12995,0.06 z m -4.10393,2.81833 -2.06407,1.40117 -0.17214,0.32384 0.15421,0.34491 0.35879,0.0771 0.12994,-0.06 2.05758,-1.4124 0.17864,-0.31262 -0.15423,-0.34491 -0.35879,-0.0771 -0.12994,0.06 z m 5.07929,-2.52852 -0.15446,0.32859 0.17666,0.33196 0.12562,0.0622 1.41618,0.37947 0.99132,0.26562 0.36132,-0.0739 0.1592,-0.3463 -0.17017,-0.32073 -0.14336,-0.0668 -0.9801,-0.2721 -1.42092,-0.36178 -0.36132,0.074 z m -9.18971,5.3356 -2.05758,1.4124 -0.17215,0.32384 0.14774,0.33369 0.35879,0.0771 0.1364,-0.0489 2.05758,-1.41239 0.17215,-0.32385 -0.14774,-0.3337 -0.36527,-0.0884 -0.12994,0.06 z m -4.10393,2.81831 -2.05284,1.3947 -0.18337,0.33033 0.15421,0.34491 0.3588,0.0771 0.12994,-0.0601 2.05758,-1.4124 0.17864,-0.31262 -0.15423,-0.34491 -0.35878,-0.0771 -0.12994,0.06 z m -4.11042,2.8071 -2.04635,1.40592 -0.18337,0.33032 0.14774,0.3337 0.35878,0.0771 0.14763,-0.0553 2.04636,-1.40593 0.18337,-0.33032 -0.15899,-0.32719 -0.36527,-0.0884 -0.12994,0.06 z m -4.10392,2.81831 -0.63625,0.42716 c 0.2228,0.17741 0.44078,0.36502 0.65986,0.54679 l 0.44067,-0.29934 0.18986,-0.31912 -0.15421,-0.3449 -0.37001,-0.0707 -0.12995,0.06 z m -8.67275,5.92 -1.59444,1.10011 -0.18338,0.33033 0.16547,0.33841 0.35879,0.0771 0.12994,-0.06 1.87328,-1.29102 c -0.24621,-0.1698 -0.49902,-0.33143 -0.74963,-0.49495 z m -3.64079,2.50603 -2.05758,1.4124 -0.17864,0.31263 0.15422,0.34491 0.35878,0.0771 0.13641,-0.0489 2.05758,-1.4124 0.17216,-0.32385 -0.15422,-0.34491 -0.35879,-0.0771 -0.12995,0.0601 z m -4.11042,2.8071 -2.05757,1.4124 -0.17216,0.32385 0.14774,0.33368 0.36527,0.0884 0.12994,-0.06 2.05759,-1.4124 0.17214,-0.32385 -0.14773,-0.33368 -0.35879,-0.0771 -0.1364,0.0489 z m -4.16004,2.85072 -0.16011,0.13735 -0.0496,0.0436 -0.10877,0.12263 -0.0543,0.0613 -0.0574,0.10795 -0.0302,0.0773 -0.0349,0.095 -0.0159,0.0242 -0.005,0.0177 0.002,0.0289 -0.0125,0.082 -0.0172,0.0997 0.0117,0.098 0.0117,0.098 0.0311,0.13169 0.0212,0.0626 0.0812,0.19252 0.013,0.0224 0.55168,1.16289 0.29839,0.23174 0.3596,-0.10287 0.13027,-0.34455 -0.0376,-0.14291 -0.5452,-1.15166 -0.013,-0.0225 -0.0535,-0.11872 -0.008,-0.0402 -0.013,-0.0225 -0.002,-0.0289 -0.007,-0.0113 0.0113,-0.007 -0.007,-0.0113 0.0113,-0.007 -0.007,-0.0113 0.005,-0.0177 0.0113,-0.007 0.0159,-0.0242 0.0704,-0.0855 0.0113,-0.007 0.0833,-0.0631 0.0337,-0.0195 0.17214,-0.32386 -0.15421,-0.3449 -0.35879,-0.0771 -0.12995,0.06 -0.0225,0.013 -0.0337,0.0195 z m 46.9005,-26.58422 -0.1592,0.34629 0.17017,0.32074 0.14335,0.0668 0.83848,0.23416 1.5578,0.41741 0.37256,-0.0804 0.14797,-0.33982 -0.17017,-0.32074 -0.13217,-0.0733 -1.55779,-0.41741 -0.84323,-0.21645 -0.36781,0.0627 z m 4.80377,1.29665 -0.15444,0.3286 0.17665,0.33195 0.12562,0.0621 2.4075,0.64509 0.36133,-0.074 0.16568,-0.33506 -0.17666,-0.33196 -0.13688,-0.0557 -2.4075,-0.64509 -0.36133,0.074 z m -50.34724,29.71144 -0.1415,0.35104 0.0489,0.1364 1.06924,2.24075 0.2984,0.23173 0.34837,-0.0964 0.14149,-0.35103 -0.0376,-0.1429 -1.08046,-2.23425 -0.28717,-0.23823 -0.3596,0.10287 z m 17.15886,-6.82415 -0.23222,0.19389 -0.14797,0.33981 0.17018,0.32074 0.37475,0.053 0.12345,-0.0713 0.221,-0.18743 c -0.16525,-0.21461 -0.33246,-0.43541 -0.50922,-0.6487 z m 38.0034,-21.59711 -0.16568,0.33507 0.17665,0.33195 0.13688,0.0557 2.39627,0.65156 0.37256,-0.0804 0.14797,-0.33981 -0.17017,-0.32073 -0.13209,-0.0734 -2.40102,-0.63387 -0.36134,0.074 z m -39.92525,23.52969 -0.11049,0.0937 -0.1135,0.14036 -0.0159,0.0242 -0.38191,0.50481 -0.005,0.0177 -0.36248,0.53848 -0.0113,0.007 -0.33829,0.55445 -0.005,0.0177 -0.1769,0.34155 -0.0128,0.36654 0.2984,0.23174 0.3596,-0.10287 0.0863,-0.10967 0.18339,-0.33032 -0.007,-0.0113 0.30636,-0.50609 0.0159,-0.0242 0.33055,-0.4901 0.0159,-0.0242 0.35473,-0.47416 0.0113,-0.007 0.1135,-0.14035 0.0771,-0.35878 -0.23754,-0.28184 -0.37603,0.0226 z m 11.03501,-4.96448 c 0.12118,0.1839 0.23633,0.37303 0.35288,0.5594 l 0.0552,-0.24134 -0.24879,-0.27535 -0.14162,-0.0379 -0.0177,-0.005 z m -24.12707,14.34875 -0.13027,0.34456 0.0376,0.1429 1.06923,2.24074 0.2984,0.23174 0.35959,-0.10286 0.13027,-0.34457 -0.0376,-0.14289 -1.06925,-2.24074 -0.29839,-0.23174 -0.35959,0.10287 z m 10.66073,-4.91298 -0.0668,0.14335 -0.11557,0.39592 -0.005,0.0177 -0.16428,0.6485 0.002,0.0289 -0.12412,0.64028 0.002,0.0289 -0.0887,0.64978 -0.005,0.0177 -0.0125,0.082 0.14303,0.35136 0.36527,0.0884 0.28833,-0.2263 0.0379,-0.14161 0.008,-0.0643 -0.002,-0.0289 0.0857,-0.60315 0.005,-0.0177 0.10818,-0.61611 0.005,-0.0177 0.14357,-0.60662 0.005,-0.0177 0.11082,-0.37822 -0.0628,-0.36782 -0.33507,-0.16568 -0.32719,0.159 z m 15.6657,-8.96977 -0.14797,0.33981 0.18142,0.31423 0.12562,0.0622 0.27675,0.0646 0.0177,0.005 0.59714,0.17897 0.0177,0.005 0.58765,0.21437 0.0177,0.005 0.5652,0.22735 0.0242,0.0159 0.16107,0.0716 0.3825,-0.0114 0.21404,-0.30313 -0.11413,-0.3531 -0.12091,-0.0798 -0.18524,-0.0876 -0.0177,-0.005 -0.60708,-0.24805 -0.0242,-0.0159 -0.61657,-0.21265 -0.0242,-0.0159 -0.64376,-0.18198 -0.0177,-0.005 -0.29446,-0.0694 -0.35485,0.0852 z m 31.48818,-17.74577 -0.15445,0.32859 0.17665,0.33196 0.12562,0.0622 2.4075,0.64509 0.36133,-0.074 0.16567,-0.33507 -0.17665,-0.33196 -0.13687,-0.0557 -2.39628,-0.65156 -0.37256,0.0804 z m -55.65843,36.11475 -0.14149,0.35103 0.0376,0.1429 1.08045,2.23426 0.2984,0.23175 0.34836,-0.0964 0.1415,-0.35104 -0.0376,-0.14289 -1.08046,-2.23427 -0.29839,-0.23174 -0.34837,0.0964 z m 60.46696,-34.83578 -0.15919,0.34628 0.17664,0.33196 0.13688,0.0557 2.40751,0.64509 0.36133,-0.074 0.14796,-0.33981 -0.17017,-0.32074 -0.1321,-0.0734 -2.40102,-0.63387 -0.36781,0.0628 z m -52.27861,30.22798 -0.25117,0.26473 -0.0203,0.14636 0.002,0.0289 0.0784,0.62813 -0.005,0.0177 0.10727,0.6264 0.002,0.0289 0.14093,0.60696 0.002,0.0289 0.15518,0.55385 0.23754,0.28184 0.36955,-0.0338 0.20756,-0.31436 -0.0264,-0.14935 -0.14221,-0.53141 0.0113,-0.007 -0.013,-0.0224 -0.13272,-0.56682 0.0113,-0.007 -0.112,-0.60869 0.005,-0.0177 -0.0701,-0.58799 -0.007,-0.0113 -0.007,-0.0113 -0.18143,-0.31423 -0.3618,-0.0306 z m 20.61193,-11.78059 -0.26887,0.25997 0.045,0.36308 0.10497,0.10399 0.4016,0.30684 0.0177,0.005 0.47113,0.40134 0.0113,-0.007 0.42452,0.39836 0.013,0.0225 0.0113,-0.007 0.41976,0.41605 -0.0113,0.007 0.0436,0.0496 0.34457,0.13027 0.31896,-0.19916 0.024,-0.37302 -0.0713,-0.12346 -0.0436,-0.0496 -0.0177,-0.005 -0.4392,-0.44973 -0.0242,-0.0159 -0.45518,-0.42553 -0.0242,-0.0159 -0.48885,-0.4061 -0.0177,-0.005 -0.4193,-0.31157 -0.37002,-0.0707 z m 36.47048,-17.15072 -0.15446,0.32859 0.17665,0.33196 0.12562,0.0622 2.4075,0.64509 0.36134,-0.074 0.16567,-0.33507 -0.17665,-0.33196 -0.13687,-0.0557 -2.39628,-0.65157 -0.37256,0.0804 z m -55.84095,33.75111 -0.14149,0.35104 0.0376,0.1429 0.0453,0.0785 0.007,0.0113 0.30625,0.55641 0.007,0.0113 0.32875,0.54341 0.007,0.0113 0.35119,0.53047 0.0177,0.005 0.30405,0.42301 0.33506,0.16568 0.33842,-0.16547 0.0595,-0.36353 -0.0665,-0.14117 -0.30234,-0.39406 -0.007,-0.0113 -0.33174,-0.4968 -0.007,-0.0113 -0.30931,-0.50975 -0.007,-0.0113 -0.2868,-0.52274 -0.007,-0.0113 -0.0324,-0.0562 -0.2984,-0.23173 -0.34837,0.0964 z m -7.28484,4.28074 -0.13027,0.34456 0.0311,0.13167 1.07572,2.25197 0.29191,0.22051 0.36607,-0.0916 0.13027,-0.34457 -0.0376,-0.14289 -1.07571,-2.25197 -0.29192,-0.22051 -0.35959,0.10287 z m 29.8625,-17.16629 -0.0949,0.35403 0.0553,0.14763 0.29634,0.4873 0.007,0.0113 0.28681,0.52275 0.007,0.0113 0.26438,0.5357 0.007,0.0113 0.22428,0.54389 0.007,0.0113 0.007,0.0113 0.26947,0.23348 0.36782,-0.0627 0.16567,-0.33507 -0.0311,-0.13168 -0.007,-0.0113 -0.002,-0.0289 -0.2549,-0.5711 0.005,-0.0177 -0.28381,-0.56936 -0.007,-0.0113 -0.30625,-0.55641 -0.007,-0.0113 -0.3093,-0.50976 -0.30789,-0.19634 -0.35787,0.13179 z m 38.07181,-19.58659 -0.15919,0.34628 0.18791,0.32547 0.12562,0.0622 2.4075,0.64509 0.36133,-0.074 0.14797,-0.33981 -0.17017,-0.32074 -0.1321,-0.0734 -2.40102,-0.63386 -0.36781,0.0627 z m -57.42412,36.2962 -0.29479,0.21512 0.0114,0.3825 0.0825,0.11696 0.0985,0.0928 0.0242,0.0159 0.48885,0.40609 0.0177,0.005 0.50481,0.38192 0.0242,0.0159 0.532,0.35126 0.007,0.0113 0.38517,0.22652 0.3618,0.0306 0.23823,-0.28718 -0.074,-0.36133 -0.0985,-0.0928 -0.36099,-0.21056 -0.0242,-0.0159 -0.49011,-0.33054 -0.0242,-0.0159 -0.47415,-0.35473 -0.0177,-0.005 -0.47114,-0.40136 -0.092,-0.0816 -0.35404,-0.0949 z m -8.36049,4.93168 -0.14149,0.35104 0.0376,0.14289 1.08694,2.24549 0.2807,0.227 0.35958,-0.10287 0.14798,-0.33981 -0.0489,-0.1364 -1.07572,-2.25196 -0.29191,-0.22052 -0.35485,0.0852 z m 29.66175,-17.12522 -0.21404,0.30314 0.009,0.14463 0.11202,0.6087 -0.005,0.0177 0.0701,0.58798 0.002,0.0289 0.0412,0.58972 0.002,0.0289 0.009,0.5336 0.17017,0.32074 0.36353,0.0595 0.26889,-0.25998 0.0267,-0.13514 -0.0105,-0.56253 -0.007,-0.0113 -0.0382,-0.63635 -0.002,-0.0289 -0.0784,-0.62814 0.005,-0.0177 -0.10726,-0.6264 -0.002,-0.0289 -0.013,-0.0225 -0.2263,-0.28833 -0.37601,0.0226 z m 40.93787,-22.81249 -0.16568,0.33507 0.17666,0.33196 0.13688,0.0557 2.39627,0.65157 0.37255,-0.0804 0.15445,-0.32857 -0.17665,-0.33196 -0.12561,-0.0622 -2.40751,-0.64509 -0.36133,0.074 z m -58.13693,37.57564 -0.17215,0.32384 0.14774,0.33369 0.12092,0.0798 0.31389,0.10307 0.0242,0.0159 0.64376,0.18198 0.0177,0.005 0.64849,0.16429 0.0289,-0.002 0.64028,0.12412 0.0289,-0.002 0.14636,0.0203 0.35309,-0.11413 0.11257,-0.34929 -0.21034,-0.31251 -0.14161,-0.0379 -0.13514,-0.0267 -0.0177,-0.005 -0.61611,-0.10816 -0.0177,-0.005 -0.60661,-0.14356 -0.007,-0.0113 -0.0113,0.007 -0.59713,-0.17898 -0.0177,-0.005 -0.30268,-0.10956 -0.37429,0.0515 z m 62.93424,-36.29018 -0.14797,0.33981 0.17018,0.32074 0.1321,0.0734 2.40101,0.63387 0.36781,-0.0627 0.1592,-0.34629 -0.17665,-0.33196 -0.13687,-0.0557 -2.40751,-0.64509 -0.36132,0.074 z m -45.58638,26.42405 -0.30774,0.19268 -0.0556,0.13688 -0.0345,0.19947 -0.005,0.0177 -0.14357,0.60662 -0.0113,0.007 0.007,0.0113 -0.17898,0.59713 -0.005,0.0177 -0.21439,0.58765 -0.005,0.0177 -0.0906,0.23187 0.0226,0.37601 0.31436,0.20756 0.35136,-0.14303 0.0798,-0.12091 0.0953,-0.24957 0.0159,-0.0242 0.21265,-0.61656 0.0159,-0.0242 0.18198,-0.64376 0.005,-0.0177 0.16427,-0.64851 -0.002,-0.0289 0.0457,-0.20594 -0.10287,-0.35959 -0.35578,-0.12379 z m -27.66559,16.72092 -0.13027,0.34456 0.0376,0.1429 1.07572,2.252 0.29191,0.2205 0.35959,-0.1029 0.13028,-0.3445 -0.0311,-0.1317 -1.07571,-2.25198 -0.29192,-0.22052 -0.36607,0.0916 z m 15.10023,-6.0097 -0.0418,0.36828 0.26472,0.25119 0.14636,0.0203 0.60095,-0.0477 0.0177,0.005 0.62813,-0.0784 0.0289,-0.002 0.61517,-0.10079 0.0289,-0.002 0.60697,-0.14094 0.28832,-0.2263 -0.0225,-0.37602 -0.30314,-0.21403 -0.14463,0.009 -0.57804,0.1392 -0.007,-0.0113 -0.60869,0.11201 -0.0177,-0.005 -0.58799,0.0701 -0.0289,0.002 -0.5608,0.0395 -0.32546,0.1879 z m 10.50451,-6.06477 -0.0976,0.11614 -0.25071,0.36921 -0.0159,0.0242 -0.35473,0.47414 -0.005,0.0177 -0.40134,0.47114 0.007,0.0113 -0.39835,0.42452 -0.0225,0.013 -0.0543,0.0613 -0.12379,0.35579 0.21033,0.3125 0.37776,0.007 0.11696,-0.0825 0.0768,-0.0743 0.0159,-0.0242 0.42554,-0.45518 0.0159,-0.0242 0.39488,-0.48236 0.0159,-0.0242 0.38192,-0.50481 0.0159,-0.0242 0.25545,-0.38691 0.053,-0.37476 -0.26473,-0.25117 -0.37428,0.0515 z m 52.46224,-29.78032 -0.16567,0.33506 0.17665,0.33196 0.13687,0.0556 2.39628,0.65156 0.37255,-0.0804 0.15446,-0.32859 -0.17666,-0.33196 -0.12569,-0.0621 -2.4075,-0.64509 -0.36133,0.074 z m -57.98335,34.52415 -0.23822,0.28717 0.0916,0.36608 0.33981,0.14797 0.14291,-0.0376 0.0337,-0.0195 0.0289,-0.002 0.55815,-0.27733 0.0225,-0.013 0.54519,-0.29977 0.0225,-0.013 0.5322,-0.32226 0.0225,-0.013 0.46313,-0.3123 0.17215,-0.32385 -0.14774,-0.3337 -0.36527,-0.0884 -0.12995,0.0601 -0.44068,0.29934 -0.0224,0.013 -0.49853,0.30283 -0.0113,0.007 -0.0113,0.007 -0.51152,0.28033 -0.0225,0.013 -0.52447,0.25788 -0.0225,0.013 -0.0289,0.002 z m -17.93867,11.8233 -0.13027,0.3446 0.0376,0.1429 1.06924,2.2407 0.29839,0.2318 0.3596,-0.1029 0.13027,-0.3445 -0.0376,-0.1429 -1.06923,-2.2408 -0.2984,-0.2317 -0.3596,0.1028 z m 80.71933,-45.06202 -0.14798,0.33981 0.17017,0.32074 0.1321,0.0734 2.40102,0.63387 0.36781,-0.0627 0.15919,-0.3463 -0.17665,-0.33195 -0.13687,-0.0557 -2.4075,-0.64508 -0.36133,0.0739 z m 4.81499,1.29017 -0.16568,0.33507 0.17666,0.33196 0.13687,0.0557 2.4075,0.64508 0.36134,-0.074 0.15445,-0.3286 -0.17666,-0.33195 -0.12562,-0.0622 -2.4075,-0.64509 -0.36132,0.074 z m -83.37815,48.25815 -0.13027,0.3445 0.0376,0.1429 1.06923,2.2408 0.2984,0.2317 0.35959,-0.1029 0.13027,-0.3445 -0.0376,-0.1429 -1.06924,-2.2408 -0.29839,-0.2317 -0.3596,0.1029 z m 88.17546,-46.97272 -0.14797,0.33982 0.17017,0.32073 0.1321,0.0734 2.40102,0.63386 0.36781,-0.0627 0.15919,-0.34629 -0.17665,-0.33195 -0.13687,-0.0557 -2.39628,-0.65157 -0.37256,0.0804 z m -86.03051,51.46532 -0.13027,0.3447 0.0376,0.1428 1.06923,2.2408 0.2984,0.2317 0.35959,-0.1029 0.13027,-0.3445 -0.0376,-0.1429 -1.06924,-2.2408 -0.29839,-0.2317 -0.3596,0.1028 z m 90.84552,-50.17514 -0.16568,0.33508 0.17665,0.33195 0.13688,0.0557 1.79439,0.49029 0.61311,0.1548 0.36133,-0.0739 0.15445,-0.3286 -0.17665,-0.33195 -0.12561,-0.0621 -0.60836,-0.1725 -1.79915,-0.47259 -0.36133,0.074 z m -88.68934,54.66144 -0.1415,0.351 0.0489,0.1365 0.53873,1.1404 0.26298,0.2222 1.18606,0.3179 0.36133,-0.074 0.16567,-0.3351 -0.17666,-0.332 -0.13686,-0.056 -1.00429,-0.288 -0.45753,-0.9479 -0.28718,-0.2382 -0.35959,0.1028 z m 93.48663,-53.37601 -0.14797,0.33982 0.17018,0.32073 0.1321,0.0734 2.40751,0.64509 0.36132,-0.074 0.1592,-0.3463 -0.17017,-0.32073 -0.14337,-0.0669 -2.38979,-0.64034 -0.37904,0.0692 z m -89.33839,55.45511 -0.1592,0.3464 0.17665,0.3319 0.13687,0.056 2.40102,0.6338 0.36134,-0.074 0.16568,-0.335 -0.17665,-0.332 -0.13687,-0.056 -2.40751,-0.6451 -0.36133,0.074 z m 94.1534,-54.16492 -0.16567,0.33507 0.17664,0.33195 0.13688,0.0557 2.4075,0.64509 0.36134,-0.074 0.15444,-0.32858 -0.17665,-0.33196 -0.12562,-0.0622 -2.40751,-0.64508 -0.36132,0.074 z m -89.33839,55.45512 -0.16568,0.3351 0.17666,0.3319 0.13686,0.056 2.39629,0.6515 0.37255,-0.08 0.14798,-0.3398 -0.17018,-0.3208 -0.1321,-0.073 -2.40102,-0.6339 -0.36133,0.074 z m 94.14217,-54.15847 -0.15445,0.32859 0.17665,0.33196 0.12561,0.0622 2.40751,0.64509 0.36133,-0.074 0.1592,-0.3463 -0.17018,-0.32073 -0.14335,-0.0669 -2.38979,-0.64035 -0.37255,0.0804 z m -89.34487,55.44397 -0.14798,0.3398 0.17017,0.3207 0.1257,0.062 2.4075,0.6451 0.36132,-0.074 0.16568,-0.3352 -0.17665,-0.3319 -0.13687,-0.056 -2.40751,-0.6451 -0.36133,0.074 z m 94.15339,-54.16501 -0.15919,0.34629 0.17018,0.32073 0.14335,0.0669 2.40102,0.63385 0.36133,-0.074 0.15445,-0.32859 -0.17665,-0.33196 -0.12562,-0.0622 -2.4075,-0.64509 -0.36133,0.074 z m -89.33839,55.45511 -0.16568,0.3351 0.17666,0.332 0.13686,0.055 2.4075,0.6451 0.36134,-0.074 0.14797,-0.3399 -0.17017,-0.3207 -0.12562,-0.062 -2.4075,-0.6451 -0.36133,0.074 z m 94.14218,-54.15846 -0.15445,0.32859 0.17664,0.33196 0.12562,0.0622 2.40751,0.64509 0.36133,-0.0739 0.16567,-0.33507 -0.17665,-0.33196 -0.13687,-0.0557 -2.39629,-0.65156 -0.37255,0.0804 z m -89.34488,55.44386 -0.14797,0.3398 0.17018,0.3208 0.1321,0.073 2.40101,0.6339 0.36133,-0.074 0.16568,-0.3351 -0.17666,-0.332 -0.13687,-0.056 -2.39628,-0.6515 -0.37256,0.08 z m 94.1534,-54.16491 -0.15919,0.34629 0.17017,0.32074 0.14336,0.0668 2.39628,0.65156 0.37254,-0.0804 0.14798,-0.33981 -0.17017,-0.32074 -0.1321,-0.0734 -2.40751,-0.64509 -0.36132,0.074 z m -89.33839,55.45511 -0.16568,0.3351 0.17665,0.3319 0.13688,0.056 2.4075,0.6451 0.36133,-0.074 0.14798,-0.3398 -0.17017,-0.3207 -0.12562,-0.062 -2.40751,-0.6451 -0.36133,0.074 z m 94.14217,-54.15846 -0.15445,0.3286 0.17666,0.33195 0.12562,0.0622 2.4075,0.64509 0.36132,-0.074 0.16567,-0.33507 -0.17665,-0.33197 -0.13687,-0.0557 -2.40751,-0.64509 -0.36132,0.074 z m -89.34487,55.44396 -0.14798,0.3398 0.17018,0.3207 0.1321,0.074 2.40102,0.6338 0.36133,-0.074 0.16567,-0.335 -0.17664,-0.332 -0.13688,-0.055 -2.39628,-0.6516 -0.37256,0.08 z m 94.15988,-54.15377 -0.16568,0.33507 0.17665,0.33195 0.13687,0.0556 1.22146,0.32729 0.0242,0.0159 0.002,0.0289 -0.11859,0.44255 0.0628,0.36781 0.34629,0.1592 0.33196,-0.17665 0.0557,-0.13687 0.13929,-0.48445 0.003,-0.0467 0.0297,-0.18177 -0.0104,-0.17357 -0.0311,-0.13168 -0.11663,-0.20201 -0.0985,-0.0928 -0.14514,-0.0958 -0.17227,-0.0651 -0.0419,-0.0208 -1.26808,-0.3303 -0.36133,0.074 z m -89.34488,55.44397 -0.16567,0.335 0.17665,0.332 0.13688,0.056 2.4075,0.645 0.36134,-0.074 0.15444,-0.3286 -0.17666,-0.332 -0.12562,-0.062 -2.4075,-0.6451 -0.36132,0.074 z m 90.03859,-51.62473 -0.0622,0.12562 -0.64509,2.4075 0.074,0.36133 0.32858,0.15445 0.33197,-0.17665 0.0621,-0.12569 0.64509,-2.4075 -0.0739,-0.36133 -0.3286,-0.15445 -0.33195,0.17665 z m -85.24128,52.91013 -0.14798,0.3398 0.17017,0.3207 0.1321,0.073 2.40102,0.6339 0.36133,-0.074 0.16569,-0.3351 -0.17666,-0.3319 -0.13687,-0.056 -2.39627,-0.6516 -0.37256,0.08 z m 83.94462,-48.10635 -0.0557,0.13687 -0.65158,2.39629 0.074,0.36133 0.3463,0.15919 0.32073,-0.17017 0.0734,-0.13211 0.63386,-2.40102 -0.0627,-0.36781 -0.34629,-0.15919 -0.33196,0.17665 z m -79.12962,49.39655 -0.16568,0.335 0.17666,0.332 0.13687,0.056 2.4075,0.6451 0.36133,-0.074 0.15445,-0.3286 -0.17664,-0.332 -0.12562,-0.062 -2.4075,-0.6451 -0.36134,0.074 z m 77.85066,-44.58803 -0.0621,0.12569 -0.64509,2.4075 0.0739,0.36133 0.33507,0.16568 0.33196,-0.17665 0.0557,-0.13687 0.64509,-2.40751 -0.0739,-0.36132 -0.32861,-0.15446 -0.33195,0.17666 z m -73.05336,45.87343 -0.14797,0.3398 0.17017,0.3207 0.1321,0.074 2.40102,0.6338 0.36781,-0.063 0.1592,-0.3463 -0.17666,-0.3319 -0.13687,-0.056 -2.39628,-0.6515 -0.37256,0.08 z m 71.75671,-41.06964 -0.0556,0.13687 -0.65156,2.39628 0.0804,0.37255 0.33981,0.14798 0.32073,-0.17018 0.0734,-0.13209 0.63387,-2.40103 -0.074,-0.36133 -0.33507,-0.16567 -0.33195,0.17665 z m -66.9417,42.35984 -0.16569,0.3351 0.18792,0.3254 0.12561,0.062 2.40752,0.645 0.36132,-0.074 0.15447,-0.3286 -0.17667,-0.332 -0.12561,-0.062 -2.40752,-0.6451 -0.36133,0.074 z m 65.66275,-37.5513 -0.0622,0.12554 -0.6451,2.40747 0.074,0.36136 0.33508,0.16568 0.33199,-0.17658 0.0557,-0.13687 0.64507,-2.40754 -0.074,-0.36128 -0.32862,-0.15451 -0.332,0.17659 z m -60.85425,38.8301 -0.15918,0.3464 0.17666,0.3319 0.13686,0.056 2.39631,0.6516 0.36132,-0.074 0.15918,-0.3464 -0.17016,-0.3207 -0.13211,-0.074 -2.40102,-0.6338 -0.36782,0.063 z m 59.55758,-34.0264 -0.0557,0.1369 -0.65156,2.3963 0.0804,0.3725 0.33984,0.1481 0.32078,-0.1701 0.0734,-0.1321 0.63385,-2.401 -0.0739,-0.3613 -0.33508,-0.1657 -0.332,0.1766 z m -54.75379,35.3231 -0.15443,0.3287 0.17662,0.3318 0.12566,0.062 2.40748,0.6451 0.36132,-0.074 0.16569,-0.3351 -0.17667,-0.3319 -0.13686,-0.056 -2.40749,-0.6451 -0.36135,0.074 z m 53.47483,-30.5145 -0.0622,0.1255 -0.64507,2.4076 0.0739,0.3612 0.33509,0.1657 0.33199,-0.1766 0.0557,-0.1368 0.64511,-2.4075 -0.074,-0.3613 -0.3398,-0.148 -0.32078,0.1701 z m -48.65979,31.8048 -0.16568,0.335 0.17662,0.3319 0.13689,0.055 2.39626,0.6516 0.37255,-0.08 0.14801,-0.3398 -0.17021,-0.3208 -0.13207,-0.074 -2.40102,-0.6338 -0.36132,0.074 z m 47.36316,-27.001 -0.0556,0.1368 -0.65157,2.3963 0.0804,0.3726 0.3398,0.148 0.32078,-0.1702 0.0734,-0.132 0.63389,-2.401 -0.074,-0.3613 -0.33507,-0.1658 -0.332,0.1766 z m -42.56587,28.2863 -0.15447,0.3286 0.17666,0.332 0.12562,0.062 2.40751,0.6451 0.36133,-0.074 0.16568,-0.335 -0.17666,-0.332 -0.13687,-0.056 -2.40753,-0.6451 -0.36131,0.073 z m 41.28692,-23.4778 -0.0622,0.1255 -0.64511,2.4075 0.074,0.3614 0.33508,0.1657 0.33199,-0.1766 0.0556,-0.1369 0.64507,-2.4075 -0.0739,-0.3613 -0.33985,-0.148 -0.32077,0.1701 z m -36.47193,24.768 -0.16568,0.3351 0.17666,0.3319 0.13687,0.056 2.3963,0.6516 0.37255,-0.081 0.14797,-0.3398 -0.17017,-0.3207 -0.13211,-0.074 -2.40103,-0.6338 -0.36131,0.074 z m 35.17525,-19.9642 -0.0557,0.1368 -0.64507,2.4076 0.074,0.3613 0.33984,0.148 0.32077,-0.1701 0.0622,-0.1256 0.64506,-2.4075 -0.0739,-0.3613 -0.33507,-0.1657 -0.332,0.1766 z m -30.37796,21.2496 -0.15442,0.3287 0.17662,0.3318 0.12565,0.062 2.40748,0.645 0.36132,-0.074 0.16569,-0.335 -0.17666,-0.332 -0.13688,-0.055 -2.40747,-0.6451 -0.36137,0.074 z m 29.09901,-16.4411 -0.0734,0.132 -0.63385,2.4011 0.0739,0.3613 0.33508,0.1656 0.332,-0.1766 0.0557,-0.1368 0.65156,-2.3963 -0.0804,-0.3725 -0.3398,-0.148 -0.32078,0.1702 z m -24.28401,17.7313 -0.16564,0.3351 0.17662,0.3319 0.13691,0.056 2.39626,0.6515 0.37255,-0.08 0.148,-0.3398 -0.17021,-0.3207 -0.13207,-0.074 -2.40103,-0.6338 -0.36135,0.074 z m 22.98738,-12.9275 -0.0557,0.1369 -0.64512,2.4074 0.074,0.3614 0.3398,0.148 0.32077,-0.1702 0.0622,-0.1255 0.64511,-2.4074 -0.074,-0.3614 -0.33506,-0.1657 -0.332,0.1766 z m -18.19006,14.213 -0.14796,0.3398 0.17017,0.3207 0.12561,0.062 2.40752,0.6451 0.36132,-0.074 0.16569,-0.335 -0.17666,-0.332 -0.13687,-0.056 -2.40752,-0.6451 -0.36132,0.074 z m 16.9111,-9.4045 -0.0734,0.1321 -0.63389,2.4009 0.074,0.3614 0.33508,0.1656 0.332,-0.1766 0.0557,-0.1368 0.65156,-2.3962 -0.0804,-0.3726 -0.33984,-0.148 -0.32078,0.1701 z m -12.09609,10.6946 -0.16568,0.3351 0.17666,0.3319 0.13687,0.056 2.40752,0.6452 0.36132,-0.074 0.14797,-0.3398 -0.17017,-0.3207 -0.12561,-0.062 -2.40752,-0.6451 -0.36132,0.074 z m 10.79942,-5.8908 -0.0557,0.1368 -0.64507,2.4075 0.0739,0.3613 0.32862,0.1545 0.33199,-0.1765 0.0622,-0.1256 0.64507,-2.4075 -0.074,-0.3613 -0.33509,-0.1657 -0.33199,0.1766 z m -6.00214,7.1762 -0.14796,0.3399 0.17017,0.3207 0.13211,0.074 2.40102,0.6338 0.36132,-0.073 0.16568,-0.3351 -0.17666,-0.3319 -0.13687,-0.056 -2.39626,-0.6516 -0.37258,0.08 z m 4.72318,-2.3677 -0.0734,0.132 -0.63384,2.401 0.074,0.3613 0.33507,0.1657 0.332,-0.1765 0.0557,-0.1369 0.65157,-2.3963 -0.0804,-0.3726 -0.3398,-0.1479 -0.32078,0.1701 z"
       id="path25808"
       inkscape:connector-curvature="0" />
    <path
       style="fill:#6d71bf;fill-opacity:1;stroke:none"
       d="M 141.84375 25.875 C 141.6374 25.874732 141.42619 25.903752 141.21875 25.90625 L 141.25 30.0625 C 141.88103 30.052308 142.51096 30.044836 143.125 30.0625 L 143.3125 25.9375 C 142.82555 25.921037 142.33736 25.875615 141.84375 25.875 z M 139.125 25.96875 C 138.44637 26.006377 137.74785 26.090447 137.0625 26.15625 L 137.5 30.28125 C 138.11919 30.220969 138.73336 30.192087 139.34375 30.15625 L 139.125 25.96875 z M 145.40625 26.03125 L 145 30.15625 C 145.65287 30.207493 146.28312 30.289199 146.90625 30.375 L 147.5 26.28125 C 146.81211 26.184993 146.11701 26.090795 145.40625 26.03125 z M 134.96875 26.375 C 134.29053 26.467478 133.61699 26.56841 132.9375 26.6875 L 133.75 30.78125 C 134.3689 30.67424 134.97736 30.583748 135.59375 30.5 L 134.96875 26.375 z M 149.53125 26.625 L 148.75 30.71875 C 149.34412 30.847013 149.94978 31.005581 150.5625 31.1875 L 151.5625 27.125 C 150.88637 26.931601 150.20075 26.76597 149.53125 26.625 z M 130.90625 27.09375 C 130.22811 27.23917 129.54927 27.391115 128.875 27.5625 L 130 31.5625 C 130.6249 31.406905 131.24656 31.288349 131.875 31.15625 L 130.90625 27.09375 z M 153.59375 27.78125 L 152.28125 31.75 C 152.8573 31.96116 153.42009 32.18599 154 32.4375 L 155.5625 28.5625 C 154.91027 28.283812 154.24891 28.016029 153.59375 27.78125 z M 126.875 28.125 C 126.20227 28.323309 125.5386 28.526001 124.875 28.75 L 126.3125 32.65625 C 126.92371 32.453778 127.53524 32.241804 128.15625 32.0625 L 126.875 28.125 z M 122.9375 29.4375 C 122.30212 29.680153 121.65304 29.921067 121.03125 30.1875 L 122.6875 34 C 123.27848 33.747632 123.89238 33.54152 124.5 33.3125 L 122.9375 29.4375 z M 157.46875 29.4375 L 155.625 33.1875 C 156.17417 33.459633 156.70745 33.75858 157.25 34.0625 L 159.3125 30.4375 C 158.70075 30.092499 158.09142 29.746122 157.46875 29.4375 z M 119.15625 31.0625 C 118.55924 31.348557 117.98474 31.627334 117.40625 31.9375 C 117.36534 31.95944 117.3218 31.97798 117.28125 32 L 119.21875 35.6875 C 119.27249 35.658348 119.32102 35.622702 119.375 35.59375 C 119.86934 35.328616 120.39582 35.060345 120.90625 34.8125 L 119.15625 31.0625 z M 161.125 31.53125 L 158.8125 35 C 159.33665 35.328454 159.86701 35.645017 160.375 36 L 162.875 32.6875 C 162.30023 32.278932 161.71849 31.908244 161.125 31.53125 z M 115.4375 33.09375 C 114.82451 33.467214 114.24021 33.847285 113.65625 34.25 L 116 37.65625 C 116.51665 37.298445 117.0445 36.960669 117.59375 36.625 L 115.4375 33.09375 z M 164.5625 33.96875 L 161.875 37.125 C 162.3663 37.508378 162.84767 37.906636 163.3125 38.3125 L 166.1875 35.3125 C 165.66219 34.847386 165.11442 34.40669 164.5625 33.96875 z M 111.90625 35.5 C 111.3334 35.94983 110.78216 36.425023 110.25 36.90625 L 113.09375 39.96875 C 113.54701 39.558368 114.00656 39.138567 114.5 38.75 L 111.90625 35.5 z M 167.75 36.78125 L 164.6875 39.59375 C 165.13771 40.036669 165.58974 40.478913 166 40.9375 L 169.21875 38.3125 C 168.75033 37.78334 168.25414 37.282883 167.75 36.78125 z M 108.71875 38.4375 C 108.21412 38.970171 107.73163 39.496308 107.28125 40.0625 L 110.59375 42.625 C 110.96933 42.154401 111.35565 41.69865 111.78125 41.25 L 108.71875 38.4375 z M 170.5625 39.96875 L 167.25 42.40625 C 167.64839 42.922835 167.97048 43.439837 168.3125 43.96875 L 171.8125 41.6875 C 171.42755 41.096684 170.99818 40.535641 170.5625 39.96875 z M 106 41.84375 C 105.59474 42.466762 105.2414 43.091202 104.90625 43.75 L 108.59375 45.65625 C 108.86331 45.128096 109.17011 44.60044 109.5 44.09375 L 106 41.84375 z M 172.90625 43.53125 L 169.28125 45.59375 C 169.57956 46.165737 169.83822 46.734265 170.0625 47.3125 L 173.8125 45.46875 C 173.54374 44.813578 173.24436 44.166107 172.90625 43.53125 z M 104 45.78125 C 103.7381 46.483563 103.52176 47.198977 103.34375 47.9375 L 107.375 49 C 107.51345 48.422011 107.66655 47.838945 107.875 47.28125 L 104 45.78125 z M 174.5625 47.65625 L 170.5625 48.84375 C 170.70416 49.374981 170.80362 49.907195 170.875 50.4375 L 175 49.90625 C 174.90082 49.145206 174.76573 48.399725 174.5625 47.65625 z M 102.96875 50.25 C 102.917 50.977971 102.9168 51.800009 103.03125 52.71875 L 107.1875 52.1875 C 107.0912 51.596456 107.08098 51.105421 107.09375 50.6875 L 102.96875 50.25 z M 171 52.09375 C 170.99411 52.599574 170.95355 53.094519 170.875 53.59375 C 170.86531 53.655361 170.8543 53.719855 170.84375 53.78125 L 174.9375 54.4375 C 174.94794 54.375327 174.95893 54.312427 174.96875 54.25 C 175.07807 53.555247 175.11276 52.874025 175.125 52.1875 L 171 52.09375 z M 107.5625 53.78125 L 103.46875 55 C 103.6371 55.715923 103.82256 56.432744 104.0625 57.15625 L 108.0625 55.5 C 107.87002 54.915175 107.70279 54.331311 107.5625 53.78125 z M 170.4375 55.4375 C 170.27291 55.977664 170.07129 56.509636 169.84375 57.03125 L 173.625 58.75 C 173.91602 58.076847 174.19372 57.396075 174.40625 56.6875 L 170.4375 55.4375 z M 108.6875 57.25 L 104.84375 59.1875 C 105.13968 59.868397 105.45955 60.51102 105.8125 61.125 L 109.46875 59 C 109.18722 58.437126 108.93199 57.854227 108.6875 57.25 z M 169.0625 58.625 C 168.78231 59.115162 168.48725 59.590865 168.15625 60.0625 L 170.9375 62.28125 C 171.15549 62.337044 171.3759 62.397896 171.59375 62.4375 C 171.97007 61.897124 172.30049 61.34867 172.625 60.78125 L 169.0625 58.625 z M 110.5 60.625 L 107.03125 62.875 C 107.46387 63.39108 107.95383 63.914046 108.46875 64.46875 L 111.71875 62.0625 C 111.26844 61.554464 110.87958 61.089624 110.5 60.625 z M 113.03125 63.4375 L 109.90625 66 C 110.48835 66.602742 111.07009 67.232468 111.34375 67.53125 L 113.3125 65.75 C 113.34871 65.11068 113.39322 64.48719 113.40625 63.84375 C 113.28213 63.72213 113.15868 63.567628 113.03125 63.4375 z M 122.34375 69.84375 C 122.15146 71.30066 121.92979 72.73775 121.625 74.15625 C 121.80081 74.236936 121.9799 74.296881 122.15625 74.375 L 123.65625 70.4375 C 123.22101 70.240264 122.77608 70.057286 122.34375 69.84375 z M 152.90625 70.59375 C 152.44623 70.759898 151.9662 70.910094 151.5 71.0625 L 152.78125 75.03125 C 153.41674 74.821949 154.0613 74.60851 154.6875 74.375 L 154.5625 74.0625 L 152.90625 70.59375 z M 125.4375 71.21875 L 124.0625 75.1875 C 124.70949 75.437333 125.3526 75.661962 126 75.875 L 127.25 71.875 C 126.64965 71.670548 126.04253 71.459376 125.4375 71.21875 z M 149.625 71.625 C 148.99565 71.803442 148.38389 72.003048 147.75 72.15625 L 148.78125 76.1875 C 149.46109 76.021754 150.13747 75.849539 150.8125 75.65625 L 149.625 71.625 z M 129.125 72.46875 L 128 76.46875 C 128.66898 76.648714 129.3398 76.832276 130 76.96875 L 130.96875 72.90625 C 130.36348 72.779672 129.74849 72.641814 129.125 72.46875 z M 145.875 72.53125 C 145.24066 72.659293 144.60084 72.773011 143.96875 72.875 L 144.75 77 C 145.42518 76.890702 146.10541 76.793423 146.78125 76.65625 L 145.875 72.53125 z M 142.0625 73.1875 C 141.41784 73.264854 140.79116 73.32619 140.15625 73.375 L 140.625 77.5 C 141.30852 77.447646 141.99747 77.3639 142.6875 77.28125 L 142.0625 73.1875 z M 132.90625 73.25 L 132.03125 77.3125 C 132.12353 77.32527 132.22056 77.331929 132.3125 77.34375 C 132.9071 77.420202 133.51318 77.484032 134.125 77.53125 L 134.75 73.40625 C 134.12244 73.365617 133.50544 73.325717 132.90625 73.25 z M 136.5 73.46875 L 136.375 77.625 C 137.08569 77.639168 137.80595 77.647019 138.53125 77.625 L 138.28125 73.46875 C 137.68002 73.488043 137.08518 73.477055 136.5 73.46875 z "
       id="path4050"
       transform="translate(0,927.36218)" />
  </g>
</svg>
