<?xml version="1.0" encoding="UTF-8" standalone="no"?>
<!-- Created with Inkscape (http://www.inkscape.org/) -->

<svg
   xmlns:dc="http://purl.org/dc/elements/1.1/"
   xmlns:cc="http://creativecommons.org/ns#"
   xmlns:rdf="http://www.w3.org/1999/02/22-rdf-syntax-ns#"
   xmlns:svg="http://www.w3.org/2000/svg"
   xmlns="http://www.w3.org/2000/svg"
   xmlns:xlink="http://www.w3.org/1999/xlink"
   xmlns:sodipodi="http://sodipodi.sourceforge.net/DTD/sodipodi-0.dtd"
   xmlns:inkscape="http://www.inkscape.org/namespaces/inkscape"
   width="600"
   height="452"
   id="svg12760"
   version="1.1"
   inkscape:version="0.48.5 r10040"
   sodipodi:docname="graphic-coaching.svg">
  <defs
     id="defs12762">
    <linearGradient
       id="linearGradient5931-4">
      <stop
         id="stop5933-6"
         offset="0"
         style="stop-color:#ffffff;stop-opacity:1;" />
      <stop
         id="stop5935-0"
         offset="1"
         style="stop-color:#f1f1f9;stop-opacity:1;" />
    </linearGradient>
    <radialGradient
       inkscape:collect="always"
       xlink:href="#linearGradient5931-4"
       id="radialGradient13052"
       gradientUnits="userSpaceOnUse"
       gradientTransform="matrix(0.38669624,0,0,0.27486523,106.65034,519.26327)"
       cx="440.89514"
       cy="733.70624"
       fx="440.89514"
       fy="733.70624"
       r="422.68622" />
    <radialGradient
       inkscape:collect="always"
       xlink:href="#linearGradient5931-4-4"
       id="radialGradient71141"
       gradientUnits="userSpaceOnUse"
       gradientTransform="matrix(1,0,0,0.71080399,1686.2479,49.718146)"
       cx="440.89514"
       cy="733.70624"
       fx="440.89514"
       fy="733.70624"
       r="422.68622" />
    <linearGradient
       id="linearGradient5931-4-4">
      <stop
         style="stop-color:#3d418b;stop-opacity:1;"
         offset="0"
         id="stop5933-6-8" />
      <stop
         style="stop-color:#242754;stop-opacity:1;"
         offset="1"
         id="stop5935-0-6" />
    </linearGradient>
    <radialGradient
       inkscape:collect="always"
       xlink:href="#linearGradient5931-4-4"
       id="radialGradient14345"
       gradientUnits="userSpaceOnUse"
       gradientTransform="matrix(0.38771333,0,0,0.27558818,485.48268,518.7347)"
       cx="440.89514"
       cy="733.70624"
       fx="440.89514"
       fy="733.70624"
       r="422.68622" />
    <radialGradient
       inkscape:collect="always"
       xlink:href="#linearGradient5931-4-1"
       id="radialGradient14720"
       gradientUnits="userSpaceOnUse"
       gradientTransform="matrix(0.58502499,0,0,0.4158381,42.067721,536.88174)"
       cx="440.89514"
       cy="733.70624"
       fx="440.89514"
       fy="733.70624"
       r="422.68622" />
    <linearGradient
       id="linearGradient5931-4-1">
      <stop
         id="stop5933-6-7"
         offset="0"
         style="stop-color:#ffffff;stop-opacity:1;" />
      <stop
         id="stop5935-0-4"
         offset="1"
         style="stop-color:#f1f1f9;stop-opacity:1;" />
    </linearGradient>
  </defs>
  <sodipodi:namedview
     id="base"
     pagecolor="#ffffff"
     bordercolor="#666666"
     borderopacity="1.0"
     inkscape:pageopacity="0.0"
     inkscape:pageshadow="2"
     inkscape:zoom="0.7"
     inkscape:cx="-158.99283"
     inkscape:cy="257.76637"
     inkscape:document-units="px"
     inkscape:current-layer="layer1"
     showgrid="false"
     inkscape:window-width="2277"
     inkscape:window-height="1361"
     inkscape:window-x="1920"
     inkscape:window-y="0"
     inkscape:window-maximized="0"
     inkscape:showpageshadow="false" />
  <metadata
     id="metadata12765">
    <rdf:RDF>
      <cc:Work
         rdf:about="">
        <dc:format>image/svg+xml</dc:format>
        <dc:type
           rdf:resource="http://purl.org/dc/dcmitype/StillImage" />
        <dc:title></dc:title>
      </cc:Work>
    </rdf:RDF>
  </metadata>
  <g
     inkscape:label="Layer 1"
     inkscape:groupmode="layer"
     id="layer1"
     transform="translate(0,-600.36218)">
    <path
       id="path5768-2"
       d="m 124.94898,1024.1024 c -3.42799,0 -6.18772,2.7598 -6.18772,6.1878 l 0,4.475 24.33664,0 0,-4.475 c 0,-3.428 -2.75972,-6.1878 -6.18777,-6.1878 l -11.96115,0 z"
       style="color:#000000;fill:#111417;fill-opacity:1;stroke:none;overflow:visible"
       inkscape:connector-curvature="0" />
    <path
       inkscape:connector-curvature="0"
       style="color:#000000;fill:#111417;fill-opacity:1;stroke:none;overflow:visible"
       d="m 475.05091,1024.1024 c 3.42794,0 6.18778,2.7598 6.18778,6.1878 l 0,4.475 -24.33675,0 0,-4.475 c 0,-3.428 2.75974,-6.1878 6.18778,-6.1878 l 11.96119,0 z"
       id="path7897-4" />
    <path
       id="rect5753-4"
       d="m 8.7984585,1034.7652 582.4031115,0 c 4.87434,0 8.79843,3.9241 8.79843,8.7986 0,4.8743 -3.92409,8.7984 -8.79843,8.7984 l -582.4031115,0 C 3.9241103,1052.3622 0,1048.4381 0,1043.5638 c 0,-4.8745 3.9241103,-8.7986 8.7984585,-8.7986 z"
       style="color:#000000;fill:#303648;fill-opacity:1;stroke:none;overflow:visible"
       inkscape:connector-curvature="0" />
    <path
       style="fill:#608890;fill-opacity:1;stroke:none"
       d="m 270.67176,1034.7652 58.65636,0 c 0,0 0,1.9621 0,4.3993 0,2.4371 -1.96204,4.3993 -4.39922,4.3993 l -49.85791,0 c -2.43718,0 -4.39923,-1.9622 -4.39923,-4.3993 0,-2.4372 0,-4.3993 0,-4.3993 z"
       id="rect7996-9"
       inkscape:connector-curvature="0"
       sodipodi:nodetypes="ccssssc" />
    <path
       style="color:#000000;fill:#303648;fill-opacity:1;stroke:none;overflow:visible"
       d="m 63.373094,655.56307 473.258686,0 c 11.80324,0 21.30542,9.50219 21.30542,21.30534 l 0,330.23279 c 0,11.803 -9.50218,21.3053 -21.30542,21.3053 l -473.258686,0 c -11.803166,0 -21.305332,-9.5023 -21.305332,-21.3053 l 0,-330.23279 c 0,-11.80315 9.502166,-21.30534 21.305332,-21.30534 z"
       id="rect2996-7-5"
       inkscape:connector-curvature="0" />
    <path
       style="color:#000000;fill:url(#radialGradient14720);fill-opacity:1;stroke:none;overflow:visible"
       d="m 64.438325,666.2157 471.128125,0 c 6.49178,0 11.71804,5.22619 11.71804,11.71793 l 0,328.10227 c 0,6.4916 -5.22626,11.7179 -11.71804,11.7179 l -471.128125,0 c -6.49172,0 -11.717932,-5.2263 -11.717932,-11.7179 l 0,-328.10227 c 0,-6.49174 5.226212,-11.71793 11.717932,-11.71793 z"
       id="rect3768-7-8"
       inkscape:connector-curvature="0" />
    <path
       inkscape:connector-curvature="0"
       style="font-size:medium;font-style:normal;font-variant:normal;font-weight:normal;font-stretch:normal;text-indent:0;text-align:start;text-decoration:none;line-height:normal;letter-spacing:normal;word-spacing:normal;text-transform:none;direction:ltr;block-progression:tb;writing-mode:lr-tb;text-anchor:start;baseline-shift:baseline;color:#000000;fill:#07d3ff;fill-opacity:1;fill-rule:nonzero;stroke:none;stroke-width:2;marker:none;visibility:visible;display:inline;overflow:visible;enable-background:accumulate;font-family:Sans;-inkscape-font-specification:Sans"
       d="m 64.442845,665.12593 c -7.063484,0 -12.783214,5.71973 -12.783214,12.78319 l 0,328.10218 c 0,7.0634 5.71973,12.7833 12.783214,12.7833 l 471.114365,0 c 7.06338,0 12.78316,-5.7199 12.78316,-12.7833 l 0,-328.10218 c 0,-7.06346 -5.71978,-12.78319 -12.78316,-12.78319 z m 0,1.09854 471.114365,-6.8e-4 c 6.49167,0 11.71793,5.22691 11.71793,11.71865 l 0,328.10216 c 0,6.4918 -5.22626,11.718 -11.71793,11.718 l -471.114365,0 c -6.491741,0 -11.717943,-5.2262 -11.717943,-11.718 l 0,-328.10216 c 0,-6.49174 5.226202,-11.71793 11.717943,-11.71794 z"
       id="rect4998-6-8"
       sodipodi:nodetypes="ssssssssssssssssss" />
    <path
       inkscape:connector-curvature="0"
       style="color:#000000;fill:#1a1a1a;fill-opacity:1;stroke:none;overflow:visible"
       d="m 52.740066,947.02975 0,59.00235 c 0,6.4917 5.185809,11.7248 11.67754,11.7248 l 471.167634,0 c 6.49178,0 11.67751,-5.2331 11.67751,-11.7248 l 0,-59.00235 -494.522684,0 z"
       id="path14859" />
    <path
       style="fill:#0096dc;fill-opacity:1"
       inkscape:connector-curvature="0"
       id="path18162"
       d="m 264.31405,699.60612 c 0,0 -10.4973,15.54248 8.54072,33.37735 32.46474,30.39838 74.35273,47.15702 82.44568,50.67406 8.08239,3.51486 32.71663,9.28117 40.99687,-1.61647 8.28034,-10.89764 -17.08152,-31.15392 -17.08152,-31.15392 0,0 -28.50632,-15.68888 -54.1652,-32.11604 -25.64806,-16.42715 -60.73655,-19.16498 -60.73655,-19.16498 z" />
    <path
       style="fill:#0096dc;fill-opacity:1"
       d="m 403.76981,666.22377 c -11.48515,33.1725 -27.64739,70.79238 -29.45394,79.01686 -1.88973,8.61393 -2.78533,33.92921 9.50289,39.94949 12.28578,6.02245 27.27911,-22.78775 27.27911,-22.78775 0,0 9.91473,-30.99473 21.08573,-59.33326 11.17527,-28.34077 9.93637,-32.76244 9.93637,-32.76244 0,0 2.867,-2.33841 -1.10401,-4.0829 z"
       id="path18164"
       inkscape:connector-curvature="0"
       sodipodi:nodetypes="cccccccc" />
    <path
       d="m 293.34997,698.82908 c -0.76408,9.09607 -5.65005,16.97817 -10.79645,17.35053 -4.87736,0 -9.75255,0 -14.63204,0 -5.14859,-0.37223 -10.03883,-8.25446 -10.8008,-17.35053 -1.20104,-15.00012 -2.39345,-30.00025 -3.59449,-44.9982 -0.80074,-8.99706 2.71846,-27.05787 10.50801,-32.3894 7.12018,-4.74606 15.28855,-4.74606 22.40656,0 7.78957,5.33153 11.30226,23.39234 10.51021,32.3894 -1.20319,14.99584 -2.40423,29.99808 -3.601,44.9982 z"
       id="path18168"
       inkscape:connector-curvature="0"
       style="fill:#e0c59a;fill-opacity:1" />
    <path
       d="m 181.14723,849.8849 39.14798,63.64228 c 0,0 -58.22257,-27.96186 -55.21137,-53.99952 3.00906,-26.0355 16.06339,-9.64276 16.06339,-9.64276 z"
       id="path18170"
       inkscape:connector-curvature="0"
       style="fill:#e9d6b8" />
    <path
       style="fill:#3d418b;fill-opacity:1"
       d="m 262.59244,873.05197 c 0,0 -4.16459,1.52095 9.2191,49.07404 0,0 2.14893,10.1401 5.57875,24.91525 l 59.42782,0 -13.56865,-69.40337 -60.65702,-4.58592 z"
       id="path13571"
       inkscape:connector-curvature="0" />
    <path
       style="fill:#3d418b;fill-opacity:1"
       d="m 212.85651,866.57495 -1.37105,62.4063 c -0.12482,5.83975 -0.14886,11.8951 -0.14175,18.06001 l 72.28728,0 -6.76066,-73.51652 -64.01375,-6.94979 z"
       id="path13575"
       inkscape:connector-curvature="0" />
    <path
       inkscape:connector-curvature="0"
       style="fill:#0096dc;fill-opacity:1"
       d="m 250.0504,703.70397 -46.80473,16.02707 c 0,0 -9.53779,12.36953 -1.0401,56.87484 8.45678,44.29001 9.26639,115.68803 9.26639,115.68803 l 116.72814,6.94979 c 0,0 16.18255,-143.79144 5.05869,-175.25768 -2.7526,-1.71059 -5.50036,-3.45536 -8.22628,-5.20053 -11.78031,-7.54507 -25.47516,-12.20387 -36.92373,-15.03424 l -0.0472,0 -7.84806,3.21487 -30.16304,-3.26215 z m 83.20839,20.28205 c -0.18156,-0.51358 -0.371,-0.9657 -0.56734,-1.41832 0.18956,0.44901 0.38855,0.91257 0.56734,1.41832 z"
       id="path18176" />
    <path
       d="m 223.30641,721.64674 c 0,0 -15.86969,-13.70223 -34.13068,11.56702 -27.172,37.61329 -43.1622,80.99286 -46.17773,89.67781 -3.0112,8.66988 -7.0233,34.70753 5.01943,42.41958 12.04915,7.71639 12.04915,7.71639 12.04915,7.71639 l 26.80823,-15.6566 -4.60833,-8.44816 -3.12525,-3.85715 c 0,0 14.04872,-30.85901 29.1134,-58.81877 15.05178,-27.96189 15.05178,-64.60012 15.05178,-64.60012 z"
       id="path18178"
       inkscape:connector-curvature="0"
       style="fill:#0096dc;fill-opacity:1" />
    <path
       style="fill:#b9f3ff;fill-opacity:1"
       d="m 282.16181,705.97504 -7.53341,14.42112 -23.27612,-17.0449 4.59324,-8.19205 z"
       id="polygon18180"
       inkscape:connector-curvature="0" />
    <path
       style="fill:#b9f3ff;fill-opacity:1"
       d="m 294.64792,695.61336 -10.51881,10.36168 10.15075,12.19553 5.79858,-15.55113 z"
       id="polygon18182"
       inkscape:connector-curvature="0" />
    <path
       style="fill:#181a38;fill-opacity:1"
       inkscape:connector-curvature="0"
       id="path18194"
       d="m 277.39203,610.84091 v -10.40904 h 4.29839 11.33239 6.84465 c 7.56144,0 13.68715,6.13004 13.68715,13.69144 v 10.40472 h -4.30481 -11.33243 -6.84893 c -7.55063,0 -13.67641,-6.13218 -13.67641,-13.68712 z" />
    <path
       style="fill:#e9d6b8"
       inkscape:connector-curvature="0"
       id="path18196"
       d="m 255.85722,674.0054 c 0,6.72411 5.44774,12.1697 12.16969,12.1697 h 27.62184 c 6.72411,0 12.16969,-5.44559 12.16969,-12.1697 v -55.24148 c 0,-6.71981 -5.44558,-12.17618 -12.16969,-12.17618 h -27.62184 c -6.72195,0 -12.16969,5.45637 -12.16969,12.17618 v 55.24148 z" />
    <path
       style="fill:#181a38;fill-opacity:1"
       inkscape:connector-curvature="0"
       id="path18198"
       d="m 276.51816,600.43187 c -4.79125,0 -8.99918,2.46665 -11.44434,6.19032 h -4.70085 c -5.85452,0 -10.60489,4.74604 -10.60489,10.60919 v 26.19694 h 7.4624 v -10.65223 c 0,-4.10899 3.34911,-7.45165 7.4667,-7.45165 h 4.3586 11.33027 6.83818 c 7.56572,0 13.68717,-6.13651 13.68717,-13.68931 v -11.20111 h -24.39324 z" />
    <path
       style="fill:#e9d6b8"
       inkscape:connector-curvature="0"
       id="path18200"
       d="m 259.58518,650.23851 c 0,-3.5816 -2.90356,-6.48734 -6.49163,-6.48734 h -0.5381 c -3.59021,0 -6.49812,2.90574 -6.49812,6.48734 v 7.89503 c 0,3.57515 2.90791,6.48734 6.49812,6.48734 h 0.5381 c 2.65174,0 4.93115,-1.59493 5.94276,-3.86783" />
    <g
       id="g18226"
       transform="matrix(3.1491737,0,0,3.1491737,-1001.1623,229.78732)">
      <path
         style="fill:#e9d6b8"
         inkscape:connector-curvature="0"
         id="path18228"
         d="m 454.471,131.953 c -2.25,0.25 -7.75,3.25 -7.75,3.25 l 8.25,0.25 c 0.194,1.083 0.051,1.697 0.051,1.697 l 0.259,5.201 -0.074,2.418 c 0,0 -0.143,1.369 0.101,1.725 0.7,1.034 1.219,0.118 1.219,0.118 l 1.088,-9.361 1.334,8.937 c 0,0 0.363,1.119 0.975,1.154 0.57,0.032 0.539,-0.34 0.539,-0.34 l 0.85,-10.44 1.205,4.54 c 0,0 0.379,1.084 0.974,1.15 0.649,0.074 0.826,0.112 0.826,0.112 l -1.185,-9.551 c -0.002,0 -4.183,-1.358 -8.662,-0.86 z" />
      <path
         style="fill:#e9d6b8"
         inkscape:connector-curvature="0"
         id="path18230"
         d="m 459.271,137.592 1.301,6.236 c 0,0 0.14,1.425 0.615,2.05 0.542,0.716 1.177,0.271 1.177,0.271 l -1.053,-9.588 -2.04,1.031 z" />
    </g>
    <path
       style="color:#000000;fill:#608890;fill-opacity:1;stroke:none;overflow:visible"
       d="m 117.53001,1024.1024 c -3.42799,0 -6.1878,2.7598 -6.1878,6.1878 l 0,4.475 24.33666,0 0,-4.475 c 0,-3.428 -2.75972,-6.1878 -6.18772,-6.1878 l -11.96114,0 z"
       id="path5766-6"
       inkscape:connector-curvature="0" />
    <path
       inkscape:connector-curvature="0"
       id="path7899-8"
       d="m 482.46987,1024.1024 c 3.42794,0 6.18778,2.7598 6.18778,6.1878 l 0,4.475 -24.33665,0 0,-4.475 c 0,-3.428 2.75964,-6.1878 6.18779,-6.1878 l 11.96108,0 z"
       style="color:#000000;fill:#608890;fill-opacity:1;stroke:none;overflow:visible" />
    <path
       inkscape:connector-curvature="0"
       style="fill:#0089c8;fill-opacity:1;stroke:none"
       d="m 204.93623,793.70558 c 5.8968,43.43196 6.53829,98.58215 6.53829,98.58215 l 14.85397,0.8887 C 217.72892,795.9825 206.34908,793.6044 204.93623,793.70558 z"
       id="path14732" />
    <path
       inkscape:connector-curvature="0"
       style="fill:#0089c8;fill-opacity:1;stroke:none"
       d="m 340.11374,774.5668 c -2.56491,0.0641 -2.95175,0.69827 -2.95175,0.69827 l 0.19044,0.34913 c 8.67132,4.16394 15.22098,6.8516 17.93268,8.03003 8.08239,3.51487 32.72689,9.27894 41.00713,-1.6187 0.0142,-0.0191 0.0173,-0.0444 0.0315,-0.0635 1.15704,-0.9644 2.28117,-2.04877 3.36447,-3.20566 -22.62893,3.60582 -26.77494,2.97948 -43.54627,-1.46001 -8.72083,-2.30842 -13.46344,-2.79369 -16.02838,-2.72958 z"
       id="path14737" />
    <path
       inkscape:connector-curvature="0"
       style="fill:#0089c8;fill-opacity:1;stroke:none"
       d="m 403.7827,666.20897 c -11.48514,33.17249 -27.64748,70.80628 -29.45403,79.03076 -0.0874,0.39651 -0.17236,0.86927 -0.25392,1.33305 l 0.19044,1.84087 c 0,0 2.18549,0.3582 9.07743,-10.88656 6.89194,-11.24477 26.12146,-54.78197 26.12146,-54.78197 l 6.03036,-16.53615 -11.71174,0 z"
       id="path14745" />
    <path
       inkscape:connector-curvature="0"
       style="fill:#0089c8;fill-opacity:1;stroke:none"
       d="m 250.03772,703.69303 -46.78367,16.02833 c 0,0 -0.17636,0.25552 -0.44435,0.73 -4.21678,2.21642 -8.85913,6.13259 -13.64788,12.75919 -27.172,37.61329 -43.13336,81.0102 -46.14889,89.69515 -3.0112,8.66988 -7.02793,34.6916 5.0148,42.40365 l 12.02918,7.71264 3.30089,-1.93609 c -17.92994,-13.45904 -16.8613,-23.84207 -16.50442,-35.26232 0.36274,-11.60751 24.66141,-59.47938 24.66141,-59.47938 0,0 28.99608,-44.9836 34.4371,-51.51282 5.43532,-6.52239 48.50273,-20.63273 48.5928,-20.66226 l -4.50697,-0.47609 z"
       id="path14750" />
    <g
       id="g15585"
       transform="matrix(0.85563851,0,0,0.85563851,-560.07057,281.64246)">
      <g
         style="font-size:21.53796768px;font-style:normal;font-variant:normal;font-weight:normal;font-stretch:normal;text-align:start;line-height:125%;letter-spacing:0px;word-spacing:0px;writing-mode:lr-tb;text-anchor:start;fill:#a8a8a8;fill-opacity:1;stroke:none;font-family:FontAwesome;-inkscape-font-specification:FontAwesome"
         id="text15435">
        <path
           d="m 757.00527,810.51306 c -0.006,-0.21608 -0.0814,-0.39687 -0.22686,-0.54237 -0.1455,-0.14547 -0.32629,-0.22109 -0.54237,-0.22686 -0.21611,0.006 -0.3969,0.0814 -0.54237,0.22686 -0.14549,0.1455 -0.22111,0.32629 -0.22686,0.54237 l 0,1.53846 c -0.0388,1.5232 -0.56517,2.79173 -1.57903,3.80559 -1.01388,1.01388 -2.28241,1.54022 -3.80558,1.57903 -1.5232,-0.0388 -2.79173,-0.56515 -3.80559,-1.57903 -1.01388,-1.01386 -1.54022,-2.28239 -1.57903,-3.80559 l 0,-1.53846 c -0.006,-0.21608 -0.0814,-0.39687 -0.22686,-0.54237 -0.14549,-0.14547 -0.32628,-0.22109 -0.54237,-0.22686 -0.2161,0.006 -0.39689,0.0814 -0.54237,0.22686 -0.14548,0.1455 -0.2211,0.32629 -0.22686,0.54237 l 0,1.53846 c 0.0401,1.81892 0.63301,3.36139 1.77884,4.62741 1.14584,1.26602 2.60417,2.01522 4.375,2.24759 l 0,1.58654 -3.07692,0 c -0.2161,0.006 -0.39689,0.0814 -0.54237,0.22686 -0.14548,0.14549 -0.2211,0.32628 -0.22686,0.54237 0.006,0.2161 0.0814,0.39689 0.22686,0.54237 0.14548,0.14548 0.32627,0.2211 0.54237,0.22686 l 7.69231,0 c 0.21608,-0.006 0.39687,-0.0814 0.54237,-0.22686 0.14547,-0.14548 0.22109,-0.32627 0.22686,-0.54237 -0.006,-0.21609 -0.0814,-0.39688 -0.22686,-0.54237 -0.1455,-0.14548 -0.32629,-0.2211 -0.54237,-0.22686 l -3.07692,0 0,-1.58654 c 1.77082,-0.23237 3.22915,-0.98156 4.375,-2.24759 1.14582,-1.26602 1.73876,-2.80849 1.77884,-4.62741 z m -3.07692,-4.61538 c -0.0281,-1.08572 -0.40466,-1.99117 -1.12981,-2.71635 -0.72517,-0.72514 -1.63062,-1.10174 -2.71634,-1.12981 -1.08575,0.0281 -1.9912,0.40467 -2.71635,1.12981 -0.72516,0.72518 -1.10177,1.63063 -1.12981,2.71635 l 0,6.15384 c 0.028,1.08575 0.40465,1.9912 1.12981,2.71635 0.72515,0.72516 1.6306,1.10177 2.71635,1.12981 1.08572,-0.028 1.99117,-0.40465 2.71634,-1.12981 0.72515,-0.72515 1.10175,-1.6306 1.12981,-2.71635 z"
           id="path15812"
           inkscape:connector-curvature="0" />
      </g>
      <g
         style="font-size:9.05960464px;font-style:normal;font-variant:normal;font-weight:normal;font-stretch:normal;text-align:center;line-height:125%;letter-spacing:0px;word-spacing:0px;writing-mode:lr-tb;text-anchor:middle;fill:#a8a8a8;fill-opacity:1;stroke:none;font-family:Inter Medium;-inkscape-font-specification:'Inter Medium,'"
         id="text15514">
        <path
           d="m 739.35781,829.21983 0,6.58901 0.94588,0 0,-4.77124 0.0611,0 1.94324,4.76159 0.78502,0 1.94324,-4.75837 0.0611,0 0,4.76802 0.94588,0 0,-6.58901 -1.20648,0 -2.09767,5.12192 -0.0772,0 -2.09767,-5.12192 z"
           id="path15815"
           inkscape:connector-curvature="0" />
        <path
           d="m 750.5505,833.75943 c -0.0132,0.41898 -0.13881,0.73039 -0.37682,0.93422 -0.23802,0.20382 -0.49956,0.3053 -0.78462,0.30443 -0.30236,-0.004 -0.54459,-0.10382 -0.7267,-0.29961 -0.18212,-0.19578 -0.27555,-0.46376 -0.28031,-0.80392 l 0,-3.02747 -0.96197,0 0,3.14329 c 0.008,0.6139 0.15986,1.0776 0.45485,1.39108 0.29498,0.31348 0.68387,0.47073 1.16667,0.47173 0.37239,-0.005 0.68286,-0.0928 0.9314,-0.26221 0.24853,-0.16944 0.43031,-0.38875 0.54533,-0.65793 l 0.0515,0 0,0.8558 0.94588,0 0,-4.94176 -0.96519,0 z"
           id="path15817"
           inkscape:connector-curvature="0" />
        <path
           d="m 755.10602,830.86708 -1.01345,0 0,-1.18396 -0.96197,0 0,1.18396 -0.72389,0 0,0.77215 0.72389,0 0,2.91808 c 0.0112,0.44855 0.15611,0.78207 0.43474,1.00058 0.27863,0.21851 0.61416,0.3236 1.00661,0.31529 0.15268,-0.003 0.28084,-0.0154 0.38446,-0.037 0.10363,-0.0216 0.18352,-0.0436 0.23969,-0.066 l -0.17373,-0.79467 c -0.0326,0.007 -0.0776,0.0159 -0.13513,0.0257 -0.0575,0.01 -0.12507,0.0151 -0.20269,0.0161 -0.1612,0.007 -0.29887,-0.0331 -0.41302,-0.12106 -0.11414,-0.088 -0.1738,-0.2675 -0.17896,-0.53849 l 0,-2.71861 1.01345,0 z"
           id="path15819"
           inkscape:connector-curvature="0" />
        <path
           d="m 758.29103,835.90857 c 0.54365,-0.005 0.9942,-0.12735 1.35166,-0.36596 0.35745,-0.23862 0.59325,-0.56169 0.7074,-0.96921 l -0.91049,-0.16408 c -0.0893,0.23345 -0.23245,0.4092 -0.42951,0.52723 -0.19706,0.11804 -0.43353,0.17715 -0.70941,0.17735 -0.41718,-0.002 -0.7507,-0.1311 -1.00058,-0.38607 -0.24987,-0.25497 -0.38393,-0.62174 -0.40216,-1.10031 l 3.51328,0 0,-0.34104 c -0.0212,-0.88468 -0.24586,-1.52184 -0.67402,-1.91147 -0.42817,-0.38962 -0.93275,-0.58038 -1.51373,-0.57227 -0.69762,0.0121 -1.25046,0.25015 -1.65852,0.71424 -0.40806,0.46409 -0.61664,1.08181 -0.62576,1.85315 0.007,0.77718 0.2167,1.39209 0.62938,1.84472 0.41269,0.45263 0.98684,0.68387 1.72246,0.69372 z m -1.38987,-3.00173 c 0.0234,-0.3614 0.15195,-0.66731 0.38567,-0.91773 0.23372,-0.2504 0.54808,-0.38097 0.94307,-0.3917 0.37796,0.007 0.6773,0.13104 0.89803,0.37119 0.22071,0.24016 0.33425,0.55291 0.34063,0.93824 z"
           id="path15821"
           inkscape:connector-curvature="0" />
      </g>
      <g
         style="font-size:6.928792px;font-style:normal;font-variant:normal;font-weight:normal;font-stretch:normal;text-align:center;line-height:125%;letter-spacing:0px;word-spacing:0px;writing-mode:lr-tb;text-anchor:middle;fill:#a8a8a8;fill-opacity:1;stroke:none;font-family:FontAwesome;-inkscape-font-specification:FontAwesome"
         id="text15530">
        <path
           d="m 777.86286,813.34101 c 0.0483,-0.0509 0.0725,-0.10955 0.0725,-0.17593 -10e-6,-0.0664 -0.0242,-0.12502 -0.0725,-0.17593 l -2.86902,-2.86515 c -0.0507,-0.0483 -0.10875,-0.0725 -0.174,-0.0725 -0.0652,10e-6 -0.12325,0.0242 -0.17399,0.0725 l -2.86902,2.86515 c -0.0483,0.0509 -0.0725,0.10956 -0.0725,0.17593 0,0.0664 0.0242,0.12502 0.0725,0.17593 l 0.64185,0.63799 c 0.0507,0.0483 0.10875,0.0725 0.174,0.0725 0.0652,0 0.12325,-0.0242 0.174,-0.0725 l 2.05316,-2.05316 2.05317,2.05316 c 0.0507,0.0483 0.10874,0.0725 0.174,0.0725 0.0652,0 0.12324,-0.0242 0.17399,-0.0725 l 0.64186,-0.63799 z"
           id="path15824"
           inkscape:connector-curvature="0" />
      </g>
    </g>
    <g
       id="g15593"
       transform="matrix(0.85563851,0,0,0.85563851,-553.90408,281.63833)">
      <g
         style="font-size:9.05960464px;font-style:normal;font-variant:normal;font-weight:normal;font-stretch:normal;text-align:center;line-height:125%;letter-spacing:0px;word-spacing:0px;writing-mode:lr-tb;text-anchor:middle;fill:#a8a8a8;fill-opacity:1;stroke:none;font-family:Inter Medium;-inkscape-font-specification:'Inter Medium,'"
         id="text15518">
        <path
           d="m 794.40117,830.95073 0.95875,0 c -0.0249,-0.53755 -0.24458,-0.97295 -0.65914,-1.30621 -0.41456,-0.33326 -0.96164,-0.50484 -1.64122,-0.51477 -0.67583,0.008 -1.23041,0.18118 -1.66374,0.51999 -0.43333,0.33883 -0.65733,0.79609 -0.67201,1.37177 0.005,0.45579 0.15879,0.82471 0.46048,1.10675 0.30168,0.28205 0.7198,0.49332 1.25434,0.63381 l 0.77858,0.21234 c 0.36027,0.0869 0.65639,0.2043 0.88837,0.35229 0.23198,0.148 0.35196,0.36516 0.35994,0.6515 -0.008,0.32602 -0.14566,0.58448 -0.41302,0.77537 -0.26737,0.19089 -0.61658,0.28848 -1.04763,0.29277 -0.39224,7.4e-4 -0.72416,-0.086 -0.99575,-0.2602 -0.2716,-0.1742 -0.42656,-0.4403 -0.4649,-0.79829 l -0.99736,0 c 0.0385,0.60264 0.27273,1.07357 0.70258,1.41279 0.42984,0.33923 1.01713,0.51175 1.76186,0.51759 0.77865,-0.0107 1.37854,-0.19284 1.79967,-0.54654 0.42113,-0.3537 0.63414,-0.81498 0.63904,-1.38384 -0.0267,-0.58373 -0.23795,-1.01525 -0.63381,-1.29455 -0.39586,-0.2793 -0.81625,-0.4655 -1.26117,-0.5586 l -0.64346,-0.1673 c -0.27528,-0.0601 -0.5395,-0.16509 -0.79266,-0.3149 -0.25316,-0.1498 -0.38789,-0.37943 -0.40417,-0.6889 0.004,-0.28553 0.12346,-0.51797 0.35712,-0.69734 0.23365,-0.17936 0.55538,-0.27186 0.96518,-0.27749 0.38319,0.002 0.69621,0.0864 0.93905,0.25295 0.24283,0.16657 0.38453,0.40291 0.42508,0.70901 z"
           id="path15785"
           inkscape:connector-curvature="0" />
        <path
           d="m 798.85855,830.86708 -1.01345,0 0,-1.18396 -0.96197,0 0,1.18396 -0.72389,0 0,0.77215 0.72389,0 0,2.91808 c 0.0112,0.44855 0.15611,0.78207 0.43474,1.00058 0.27863,0.21851 0.61416,0.3236 1.00661,0.31529 0.15268,-0.003 0.28084,-0.0154 0.38446,-0.037 0.10362,-0.0216 0.18352,-0.0436 0.23969,-0.066 l -0.17373,-0.79467 c -0.0326,0.007 -0.0776,0.0159 -0.13513,0.0257 -0.0575,0.01 -0.12507,0.0151 -0.20269,0.0161 -0.1612,0.007 -0.29887,-0.0331 -0.41302,-0.12106 -0.11415,-0.088 -0.1738,-0.2675 -0.17896,-0.53849 l 0,-2.71861 1.01345,0 z"
           id="path15787"
           inkscape:connector-curvature="0" />
        <path
           d="m 801.35184,835.91823 c 0.40692,-0.01 0.72959,-0.0942 0.968,-0.25377 0.23841,-0.15959 0.40263,-0.33667 0.49265,-0.53125 l 0.0386,0 0,0.67563 0.93944,0 0,-3.28164 c -0.009,-0.47403 -0.1167,-0.83611 -0.32268,-1.08625 -0.20599,-0.25013 -0.45559,-0.42036 -0.74879,-0.51071 -0.29321,-0.0903 -0.57522,-0.13284 -0.84603,-0.1275 -0.45619,-0.004 -0.86773,0.0938 -1.23463,0.29277 -0.36691,0.19894 -0.63528,0.52174 -0.80513,0.96841 l 0.90406,0.2059 c 0.0694,-0.18211 0.19766,-0.34069 0.38487,-0.47575 0.1872,-0.13506 0.44177,-0.20597 0.7637,-0.21275 0.3108,0.002 0.54499,0.0794 0.70258,0.23245 0.15757,0.15309 0.23653,0.37053 0.23687,0.65231 l 0,0.0225 c 0.003,0.16562 -0.0936,0.27112 -0.29117,0.3165 -0.19759,0.0454 -0.51664,0.0889 -0.95714,0.1307 -0.48856,0.0392 -0.92142,0.15866 -1.29858,0.35833 -0.37716,0.19967 -0.57596,0.57247 -0.5964,1.11841 0.0109,0.48782 0.17172,0.86022 0.48259,1.1172 0.31087,0.25698 0.7066,0.38647 1.18718,0.38849 z m 0.20912,-0.77215 c -0.27689,-2.7e-4 -0.50089,-0.0609 -0.67201,-0.18178 -0.17112,-0.12092 -0.25919,-0.30055 -0.26422,-0.5389 0.007,-0.25275 0.10678,-0.43654 0.29801,-0.55136 0.19122,-0.11481 0.4297,-0.18841 0.71544,-0.22078 0.17748,-0.0207 0.3976,-0.0525 0.66035,-0.0957 0.26274,-0.0432 0.43942,-0.0992 0.53005,-0.1681 l 0,0.63702 c -0.003,0.30283 -0.11389,0.56262 -0.3334,0.77939 -0.21951,0.21676 -0.53092,0.33017 -0.93422,0.34023 z"
           id="path15789"
           inkscape:connector-curvature="0" />
        <path
           d="m 805.06283,835.80884 0.96196,0 0,-3.01782 c 0.007,-0.3293 0.1181,-0.59566 0.3346,-0.79909 0.2165,-0.20342 0.49855,-0.30812 0.84615,-0.31409 0.10335,0.001 0.20228,0.008 0.29679,0.0205 0.0945,0.0127 0.16288,0.0251 0.20511,0.0374 l 0,-0.92014 c -0.0516,-0.007 -0.1165,-0.0119 -0.19465,-0.0161 -0.0782,-0.004 -0.14947,-0.006 -0.21395,-0.006 -0.29438,0.003 -0.55338,0.0794 -0.77697,0.23044 -0.22361,0.15101 -0.38286,0.36054 -0.47777,0.62857 l -0.0515,0 0,-0.78502 -0.92979,0 z"
           id="path15791"
           inkscape:connector-curvature="0" />
        <path
           d="m 810.85544,830.86708 -1.01344,0 0,-1.18396 -0.96197,0 0,1.18396 -0.72389,0 0,0.77215 0.72389,0 0,2.91808 c 0.0112,0.44855 0.1561,0.78207 0.43474,1.00058 0.27862,0.21851 0.61416,0.3236 1.0066,0.31529 0.15269,-0.003 0.28084,-0.0154 0.38447,-0.037 0.10362,-0.0216 0.18352,-0.0436 0.23969,-0.066 l -0.17374,-0.79467 c -0.0326,0.007 -0.0776,0.0159 -0.13512,0.0257 -0.0575,0.01 -0.12508,0.0151 -0.20269,0.0161 -0.1612,0.007 -0.29888,-0.0331 -0.41302,-0.12106 -0.11415,-0.088 -0.1738,-0.2675 -0.17896,-0.53849 l 0,-2.71861 1.01344,0 z"
           id="path15793"
           inkscape:connector-curvature="0" />
        <path
           d="m 814.97018,829.21983 -1.07457,0 2.37114,6.58901 1.14857,0 2.37114,-6.58901 -1.07458,0 -1.83385,5.36644 -0.074,0 z"
           id="path15795"
           inkscape:connector-curvature="0" />
        <path
           d="m 820.65171,835.80884 0.96197,0 0,-4.94176 -0.96197,0 z m 0.48581,-5.70425 c 0.17032,-0.004 0.31309,-0.0602 0.42831,-0.16811 0.11521,-0.1079 0.17514,-0.24276 0.17976,-0.40457 -0.005,-0.16193 -0.0645,-0.29732 -0.17976,-0.40618 -0.11522,-0.10885 -0.25799,-0.16542 -0.42831,-0.16971 -0.17172,0.004 -0.31489,0.0609 -0.4295,0.16971 -0.11462,0.10886 -0.17414,0.24425 -0.17856,0.40618 0.004,0.16181 0.0639,0.29667 0.17856,0.40457 0.11461,0.10792 0.25778,0.16396 0.4295,0.16811 z"
           id="path15797"
           inkscape:connector-curvature="0" />
        <path
           d="m 824.74886,835.90536 c 0.44278,-0.0164 0.77175,-0.12119 0.9869,-0.31449 0.21516,-0.19331 0.36235,-0.37696 0.44158,-0.55096 l 0.0804,0 0,0.76893 0.93945,0 0,-6.58901 -0.96197,0 0,2.44836 -0.0579,0 c -0.0778,-0.16978 -0.22146,-0.35222 -0.43112,-0.54734 -0.20966,-0.19511 -0.53997,-0.30115 -0.99092,-0.31811 -0.60854,0.006 -1.10307,0.22977 -1.48357,0.67161 -0.38052,0.44184 -0.57664,1.06626 -0.58837,1.87326 0.0111,0.80614 0.20531,1.4323 0.58274,1.8785 0.37742,0.44619 0.87168,0.67261 1.48276,0.67925 z m 0.21234,-0.82041 c -0.43024,-0.0109 -0.75532,-0.17816 -0.97524,-0.5019 -0.21991,-0.32374 -0.33024,-0.73877 -0.33098,-1.24509 1.4e-4,-0.50089 0.10926,-0.90988 0.32736,-1.22699 0.21811,-0.3171 0.54439,-0.48078 0.97886,-0.49104 0.42113,0.007 0.74112,0.16429 0.95996,0.47173 0.21884,0.30746 0.3289,0.72289 0.33018,1.2463 -0.002,0.52744 -0.11315,0.9485 -0.3338,1.26319 -0.22065,0.31469 -0.53943,0.47596 -0.95634,0.4838 z"
           id="path15799"
           inkscape:connector-curvature="0" />
        <path
           d="m 830.69102,835.90857 c 0.54365,-0.005 0.9942,-0.12735 1.35166,-0.36596 0.35745,-0.23862 0.59325,-0.56169 0.7074,-0.96921 l -0.91049,-0.16408 c -0.0893,0.23345 -0.23245,0.4092 -0.42951,0.52723 -0.19706,0.11804 -0.43353,0.17715 -0.70941,0.17735 -0.41718,-0.002 -0.7507,-0.1311 -1.00058,-0.38607 -0.24988,-0.25497 -0.38393,-0.62174 -0.40216,-1.10031 l 3.51328,0 0,-0.34104 c -0.0212,-0.88468 -0.24586,-1.52184 -0.67402,-1.91147 -0.42817,-0.38962 -0.93275,-0.58038 -1.51374,-0.57227 -0.69761,0.0121 -1.25045,0.25015 -1.65851,0.71424 -0.40806,0.46409 -0.61665,1.08181 -0.62576,1.85315 0.007,0.77718 0.2167,1.39209 0.62938,1.84472 0.41268,0.45263 0.98684,0.68387 1.72246,0.69372 z m -1.38987,-3.00173 c 0.0234,-0.3614 0.15195,-0.66731 0.38567,-0.91773 0.23372,-0.2504 0.54808,-0.38097 0.94307,-0.3917 0.37796,0.007 0.6773,0.13104 0.89802,0.37119 0.22072,0.24016 0.33426,0.55291 0.34063,0.93824 z"
           id="path15801"
           inkscape:connector-curvature="0" />
        <path
           d="m 835.96881,835.90857 c 0.70546,-0.0107 1.26352,-0.24431 1.6742,-0.70096 0.41067,-0.45666 0.62046,-1.07236 0.62938,-1.84713 -0.009,-0.77938 -0.21871,-1.39791 -0.62938,-1.85557 -0.41068,-0.45765 -0.96874,-0.69171 -1.6742,-0.70217 -0.70545,0.0105 -1.26352,0.24452 -1.67419,0.70217 -0.41068,0.45766 -0.62047,1.07619 -0.62938,1.85557 0.009,0.77477 0.21871,1.39047 0.62938,1.84713 0.41067,0.45665 0.96874,0.69031 1.67419,0.70096 z m 0.003,-0.80754 c -0.45397,-0.0133 -0.79031,-0.18532 -1.00902,-0.51597 -0.21871,-0.33064 -0.32743,-0.7399 -0.32615,-1.2278 -0.001,-0.48674 0.10744,-0.89668 0.32615,-1.2298 0.21871,-0.33312 0.55505,-0.50659 1.00902,-0.5204 0.45089,0.0138 0.78535,0.18728 1.00339,0.5204 0.21804,0.33312 0.32649,0.74306 0.32535,1.2298 10e-4,0.4879 -0.10731,0.89716 -0.32535,1.2278 -0.21804,0.33065 -0.5525,0.50264 -1.00339,0.51597 z"
           id="path15803"
           inkscape:connector-curvature="0" />
      </g>
      <g
         transform="matrix(0.95977931,0,0,0.95977931,32.369149,31.758829)"
         id="g15536">
        <g
           transform="scale(1.0001188,0.99988123)"
           style="font-size:19.28622246px;font-style:normal;font-variant:normal;font-weight:normal;font-stretch:normal;text-align:start;line-height:125%;letter-spacing:0px;word-spacing:0px;writing-mode:lr-tb;text-anchor:start;fill:#a8a8a8;fill-opacity:1;stroke:none;font-family:FontAwesome;-inkscape-font-specification:FontAwesome"
           id="text15439">
          <path
             d="m 825.34648,806.58442 c -0.002,-0.14215 -0.0411,-0.2695 -0.11705,-0.38208 -0.076,-0.11254 -0.17693,-0.19685 -0.30269,-0.25292 -0.0897,-0.0341 -0.1794,-0.052 -0.26907,-0.0538 -0.18837,-0.002 -0.34981,0.0664 -0.48432,0.20449 l -4.33735,4.32658 0,-1.77583 c -0.0222,-0.87782 -0.32491,-1.60833 -0.9081,-2.19155 -0.58321,-0.58319 -1.31372,-0.88588 -2.19154,-0.9081 l -7.5769,0 c -0.87783,0.0222 -1.60835,0.32492 -2.19155,0.9081 -0.5832,0.58322 -0.8859,1.31373 -0.9081,2.19155 l 0,7.5769 c 0.0222,0.87783 0.3249,1.60834 0.9081,2.19154 0.5832,0.58321 1.31372,0.8859 2.19155,0.9081 l 7.5769,0 c 0.87782,-0.0222 1.60833,-0.32489 2.19154,-0.9081 0.58319,-0.5832 0.88589,-1.31371 0.9081,-2.19154 l 0,-1.7866 4.33735,4.33735 c 0.13451,0.13812 0.29595,0.20628 0.48432,0.20449 0.0897,-0.002 0.17936,-0.0197 0.26907,-0.0538 0.12576,-0.0561 0.22666,-0.14036 0.30269,-0.25292 0.076,-0.11256 0.11501,-0.23991 0.11705,-0.38207 z"
             id="path15806"
             inkscape:connector-curvature="0" />
        </g>
        <path
           style="font-size:medium;font-style:normal;font-variant:normal;font-weight:normal;font-stretch:normal;text-indent:0;text-align:start;text-decoration:none;line-height:normal;letter-spacing:normal;word-spacing:normal;text-transform:none;direction:ltr;block-progression:tb;writing-mode:lr-tb;text-anchor:start;baseline-shift:baseline;color:#000000;fill:#1a1a1a;fill-opacity:1;fill-rule:nonzero;stroke:none;stroke-width:2;marker:none;visibility:visible;display:inline;overflow:visible;enable-background:accumulate;font-family:Sans;-inkscape-font-specification:Sans"
           d="m 822.9375,802.59375 c -0.35595,0.0646 -0.68908,0.23912 -0.9375,0.5 l -0.0312,0.0312 -16.59375,17.3125 -0.0625,0.0625 0.0312,0.0312 c -0.71316,0.67791 -0.75622,1.71296 -0.0312,2.40625 0.72132,0.68979 1.75962,0.60681 2.40625,-0.125 0.0103,-0.0117 0.0212,-0.0192 0.0312,-0.0312 l 0.0312,-0.0312 16.65625,-17.3125 c 0.56799,-0.57869 0.49752,-1.4 0.21875,-1.9375 -0.27877,-0.5375 -0.91857,-1.03688 -1.71875,-0.90625 z"
           id="path15528"
           inkscape:connector-curvature="0" />
        <path
           style="font-size:medium;font-style:normal;font-variant:normal;font-weight:normal;font-stretch:normal;text-indent:0;text-align:start;text-decoration:none;line-height:normal;letter-spacing:normal;word-spacing:normal;text-transform:none;direction:ltr;block-progression:tb;writing-mode:lr-tb;text-anchor:start;baseline-shift:baseline;color:#000000;fill:#ff5c5c;fill-opacity:1;fill-rule:nonzero;stroke:none;stroke-width:2;marker:none;visibility:visible;display:inline;overflow:visible;enable-background:accumulate;font-family:Sans;-inkscape-font-specification:Sans"
           d="m 823.11255,803.58176 a 0.6889601,0.68879645 0 0 0 -0.3875,0.21523 l -16.70561,17.39037 a 0.6889601,0.68879645 0 1 0 0.99028,0.947 l 16.70561,-17.39037 a 0.6889601,0.68879645 0 0 0 -0.60278,-1.16223 z"
           id="path15522"
           inkscape:connector-curvature="0" />
      </g>
      <g
         style="font-size:6.928792px;font-style:normal;font-variant:normal;font-weight:normal;font-stretch:normal;text-align:center;line-height:125%;letter-spacing:0px;word-spacing:0px;writing-mode:lr-tb;text-anchor:middle;fill:#a8a8a8;fill-opacity:1;stroke:none;font-family:FontAwesome;-inkscape-font-specification:FontAwesome"
         id="text15542">
        <path
           d="m 843.77533,813.34101 c 0.0483,-0.0509 0.0725,-0.10955 0.0725,-0.17593 0,-0.0664 -0.0242,-0.12502 -0.0725,-0.17593 l -2.86901,-2.86515 c -0.0508,-0.0483 -0.10876,-0.0725 -0.174,-0.0725 -0.0652,10e-6 -0.12325,0.0242 -0.174,0.0725 l -2.86902,2.86515 c -0.0483,0.0509 -0.0725,0.10956 -0.0725,0.17593 0,0.0664 0.0242,0.12502 0.0725,0.17593 l 0.64186,0.63799 c 0.0507,0.0483 0.10875,0.0725 0.174,0.0725 0.0652,0 0.12324,-0.0242 0.17399,-0.0725 l 2.05317,-2.05316 2.05316,2.05316 c 0.0507,0.0483 0.10875,0.0725 0.174,0.0725 0.0652,0 0.12324,-0.0242 0.174,-0.0725 l 0.64185,-0.63799 z"
           id="path15809"
           inkscape:connector-curvature="0" />
      </g>
    </g>
    <g
       id="g15620"
       transform="matrix(0.85563851,0,0,0.85563851,-543.82664,281.64718)">
      <g
         style="font-size:17.49959755px;font-style:normal;font-variant:normal;font-weight:normal;font-stretch:normal;text-align:start;line-height:125%;letter-spacing:0px;word-spacing:0px;writing-mode:lr-tb;text-anchor:start;fill:#a8a8a8;fill-opacity:1;stroke:none;font-family:FontAwesome;-inkscape-font-specification:FontAwesome"
         id="text15443">
        <path
           d="m 909.32495,812.75214 c -0.0303,0.71472 -0.2822,1.37512 -0.75562,1.9812 -0.47343,0.60608 -0.98654,1.11755 -1.5393,1.53442 -0.39735,0.30843 -0.77943,0.57536 -1.14624,0.80078 -0.36683,0.22543 -0.67811,0.40446 -0.93384,0.53711 l 0,-11.10351 4.375,0 0,6.25 z m 1.875,-7.5 c -0.005,-0.17557 -0.0661,-0.32246 -0.18433,-0.44068 -0.11821,-0.11819 -0.2651,-0.17963 -0.44067,-0.18432 l -11.25,0 c -0.17558,0.005 -0.32247,0.0661 -0.44067,0.18432 -0.11821,0.11822 -0.17965,0.26511 -0.18433,0.44068 l 0,7.5 c 0.0293,1.03038 0.33018,1.95852 0.90256,2.78442 0.57238,0.82591 1.24036,1.53432 2.00393,2.12524 0.76358,0.59093 1.44681,1.0491 2.04972,1.37452 0.60289,0.32541 0.94952,0.50282 1.03988,0.53222 0.0798,0.0391 0.16439,0.0586 0.25392,0.0586 0.0895,0 0.17414,-0.0195 0.2539,-0.0586 0.0904,-0.0294 0.43698,-0.20681 1.03989,-0.53222 0.60289,-0.32542 1.28612,-0.78359 2.04971,-1.37452 0.76356,-0.59092 1.43154,-1.29933 2.00393,-2.12524 0.57237,-0.8259 0.87322,-1.75404 0.90256,-2.78442 z"
           id="path15765"
           inkscape:connector-curvature="0" />
      </g>
      <g
         style="font-size:9.05960464px;font-style:normal;font-variant:normal;font-weight:normal;font-stretch:normal;text-align:center;line-height:125%;letter-spacing:0px;word-spacing:0px;writing-mode:lr-tb;text-anchor:middle;fill:#a8a8a8;fill-opacity:1;stroke:none;font-family:Inter Medium;-inkscape-font-specification:'Inter Medium,'"
         id="text15546">
        <path
           d="m 891.21341,830.95073 0.95875,0 c -0.0249,-0.53755 -0.24458,-0.97295 -0.65914,-1.30621 -0.41456,-0.33326 -0.96164,-0.50484 -1.64122,-0.51477 -0.67583,0.008 -1.23041,0.18118 -1.66374,0.51999 -0.43333,0.33883 -0.65733,0.79609 -0.67201,1.37177 0.005,0.45579 0.15879,0.82471 0.46048,1.10675 0.30168,0.28205 0.7198,0.49332 1.25434,0.63381 l 0.77858,0.21234 c 0.36027,0.0869 0.65639,0.2043 0.88837,0.35229 0.23198,0.148 0.35196,0.36516 0.35994,0.6515 -0.008,0.32602 -0.14566,0.58448 -0.41302,0.77537 -0.26738,0.19089 -0.61658,0.28848 -1.04763,0.29277 -0.39224,7.4e-4 -0.72416,-0.086 -0.99575,-0.2602 -0.2716,-0.1742 -0.42656,-0.4403 -0.4649,-0.79829 l -0.99736,0 c 0.0385,0.60264 0.27273,1.07357 0.70258,1.41279 0.42984,0.33923 1.01713,0.51175 1.76186,0.51759 0.77865,-0.0107 1.37854,-0.19284 1.79967,-0.54654 0.42113,-0.3537 0.63414,-0.81498 0.63904,-1.38384 -0.0267,-0.58373 -0.23795,-1.01525 -0.63381,-1.29455 -0.39586,-0.2793 -0.81625,-0.4655 -1.26117,-0.5586 l -0.64346,-0.1673 c -0.27528,-0.0601 -0.5395,-0.16509 -0.79266,-0.3149 -0.25316,-0.1498 -0.38789,-0.37943 -0.40417,-0.6889 0.004,-0.28553 0.12346,-0.51797 0.35712,-0.69734 0.23365,-0.17936 0.55538,-0.27186 0.96518,-0.27749 0.38319,0.002 0.69621,0.0864 0.93905,0.25295 0.24283,0.16657 0.38453,0.40291 0.42508,0.70901 z"
           id="path15768"
           inkscape:connector-curvature="0" />
        <path
           d="m 895.49384,835.90857 c 0.54365,-0.005 0.9942,-0.12735 1.35166,-0.36596 0.35745,-0.23862 0.59325,-0.56169 0.7074,-0.96921 l -0.91049,-0.16408 c -0.0893,0.23345 -0.23246,0.4092 -0.42951,0.52723 -0.19706,0.11804 -0.43353,0.17715 -0.70941,0.17735 -0.41718,-0.002 -0.75071,-0.1311 -1.00058,-0.38607 -0.24988,-0.25497 -0.38393,-0.62174 -0.40216,-1.10031 l 3.51328,0 0,-0.34104 c -0.0212,-0.88468 -0.24586,-1.52184 -0.67402,-1.91147 -0.42818,-0.38962 -0.93275,-0.58038 -1.51374,-0.57227 -0.69761,0.0121 -1.25045,0.25015 -1.65851,0.71424 -0.40806,0.46409 -0.61665,1.08181 -0.62576,1.85315 0.007,0.77718 0.2167,1.39209 0.62938,1.84472 0.41268,0.45263 0.98683,0.68387 1.72246,0.69372 z m -1.38987,-3.00173 c 0.0234,-0.3614 0.15195,-0.66731 0.38567,-0.91773 0.23372,-0.2504 0.54808,-0.38097 0.94307,-0.3917 0.37796,0.007 0.6773,0.13104 0.89802,0.37119 0.22072,0.24016 0.33426,0.55291 0.34063,0.93824 z"
           id="path15770"
           inkscape:connector-curvature="0" />
        <path
           d="m 900.77163,835.90857 c 0.5889,-0.009 1.05996,-0.16616 1.4132,-0.47093 0.35322,-0.30477 0.55886,-0.70224 0.61691,-1.1924 l -0.93623,0 c -0.0644,0.26904 -0.19217,0.47736 -0.38326,0.62495 -0.1911,0.1476 -0.42582,0.2224 -0.70418,0.22441 -0.41189,-0.006 -0.7367,-0.16388 -0.97444,-0.47415 -0.23774,-0.31026 -0.35906,-0.73776 -0.36395,-1.28249 0.005,-0.53494 0.12802,-0.95466 0.36757,-1.25916 0.23955,-0.3045 0.56316,-0.4596 0.97082,-0.4653 0.30631,0.006 0.55109,0.0901 0.73434,0.25094 0.18325,0.16087 0.30095,0.36034 0.3531,0.59842 l 0.93623,0 c -0.0599,-0.50551 -0.27233,-0.90687 -0.63742,-1.20407 -0.3651,-0.29719 -0.83255,-0.44921 -1.40234,-0.45605 -0.70506,0.0123 -1.26151,0.24995 -1.66937,0.71303 -0.40786,0.46309 -0.61604,1.078 -0.62456,1.84471 0.006,0.75788 0.21087,1.36876 0.6137,1.83265 0.40283,0.46389 0.96612,0.70237 1.68988,0.71544 z"
           id="path15772"
           inkscape:connector-curvature="0" />
        <path
           d="m 906.96958,833.75943 c -0.0132,0.41898 -0.13882,0.73039 -0.37683,0.93422 -0.23801,0.20382 -0.49955,0.3053 -0.78461,0.30443 -0.30236,-0.004 -0.5446,-0.10382 -0.72671,-0.29961 -0.18211,-0.19578 -0.27555,-0.46376 -0.2803,-0.80392 l 0,-3.02747 -0.96197,0 0,3.14329 c 0.008,0.6139 0.15986,1.0776 0.45484,1.39108 0.29499,0.31348 0.68388,0.47073 1.16667,0.47173 0.3724,-0.005 0.68287,-0.0928 0.93141,-0.26221 0.24853,-0.16944 0.4303,-0.38875 0.54533,-0.65793 l 0.0515,0 0,0.8558 0.94589,0 0,-4.94176 -0.96519,0 z"
           id="path15774"
           inkscape:connector-curvature="0" />
        <path
           d="m 909.2183,835.80884 0.96197,0 0,-3.01782 c 0.007,-0.3293 0.1181,-0.59566 0.3346,-0.79909 0.21649,-0.20342 0.49854,-0.30812 0.84614,-0.31409 0.10335,0.001 0.20229,0.008 0.2968,0.0205 0.0945,0.0127 0.16287,0.0251 0.2051,0.0374 l 0,-0.92014 c -0.0516,-0.007 -0.1165,-0.0119 -0.19465,-0.0161 -0.0782,-0.004 -0.14947,-0.006 -0.21395,-0.006 -0.29438,0.003 -0.55337,0.0794 -0.77697,0.23044 -0.2236,0.15101 -0.38286,0.36054 -0.47777,0.62857 l -0.0515,0 0,-0.78502 -0.9298,0 z"
           id="path15776"
           inkscape:connector-curvature="0" />
        <path
           d="m 912.70412,835.80884 0.96197,0 0,-4.94176 -0.96197,0 z m 0.48581,-5.70425 c 0.17032,-0.004 0.31309,-0.0602 0.42831,-0.16811 0.11521,-0.1079 0.17513,-0.24276 0.17976,-0.40457 -0.005,-0.16193 -0.0646,-0.29732 -0.17976,-0.40618 -0.11523,-0.10885 -0.25799,-0.16542 -0.42831,-0.16971 -0.17172,0.004 -0.31489,0.0609 -0.4295,0.16971 -0.11462,0.10886 -0.17414,0.24425 -0.17856,0.40618 0.004,0.16181 0.0639,0.29667 0.17856,0.40457 0.11461,0.10792 0.25778,0.16396 0.4295,0.16811 z"
           id="path15778"
           inkscape:connector-curvature="0" />
        <path
           d="m 917.25812,830.86708 -1.01344,0 0,-1.18396 -0.96197,0 0,1.18396 -0.72389,0 0,0.77215 0.72389,0 0,2.91808 c 0.0112,0.44855 0.1561,0.78207 0.43474,1.00058 0.27862,0.21851 0.61416,0.3236 1.0066,0.31529 0.15269,-0.003 0.28084,-0.0154 0.38447,-0.037 0.10362,-0.0216 0.18352,-0.0436 0.23969,-0.066 l -0.17373,-0.79467 c -0.0326,0.007 -0.0776,0.0159 -0.13513,0.0257 -0.0575,0.01 -0.12508,0.0151 -0.20269,0.0161 -0.1612,0.007 -0.29888,-0.0331 -0.41302,-0.12106 -0.11415,-0.088 -0.1738,-0.2675 -0.17896,-0.53849 l 0,-2.71861 1.01344,0 z"
           id="path15780"
           inkscape:connector-curvature="0" />
        <path
           d="m 918.92136,837.662 c 0.39572,-0.001 0.72308,-0.10269 0.98208,-0.30484 0.25899,-0.20216 0.45926,-0.49842 0.60083,-0.88878 l 2.03654,-5.6013 -1.03275,0 -1.25153,3.83501 -0.0515,0 -1.25153,-3.83501 -1.02953,0 1.80812,5.0061 -0.11904,0.32817 c -0.12052,0.31978 -0.2712,0.51429 -0.45203,0.58353 -0.18084,0.0692 -0.4023,0.0635 -0.66437,-0.0173 l -0.23165,0.78823 c 0.0599,0.0269 0.1476,0.0511 0.26302,0.0724 0.11542,0.0213 0.24652,0.0326 0.39331,0.0338 z"
           id="path15782"
           inkscape:connector-curvature="0" />
      </g>
    </g>
    <g
       id="g15626"
       transform="matrix(0.85563851,0,0,0.85563851,-539.72724,282.07934)">
      <g
         transform="matrix(0.43737746,0,0,0.43737746,536.90131,450.56818)"
         id="g15509">
        <g
           style="font-size:40px;font-style:normal;font-variant:normal;font-weight:normal;font-stretch:normal;text-align:start;line-height:125%;letter-spacing:0px;word-spacing:0px;writing-mode:lr-tb;text-anchor:start;fill:#a8a8a8;fill-opacity:1;stroke:none;font-family:FontAwesome;-inkscape-font-specification:FontAwesome"
           id="text15447">
          <path
             inkscape:connector-curvature="0"
             d="m 985.715,838.00948 c 0.0257,-1.74607 -0.15725,-3.59879 -0.54896,-5.55816 -0.39176,-1.95936 -1.14685,-3.63847 -2.26526,-5.03732 -1.11847,-1.39883 -2.75486,-2.13049 -4.90917,-2.19499 -0.36229,0.1293 -1.23378,0.64642 -2.61446,1.55137 -1.38073,0.90499 -3.17299,1.42211 -5.3768,1.55138 -2.20384,-0.12927 -3.9961,-0.64639 -5.3768,-1.55138 -1.38071,-0.90495 -2.25219,-1.42207 -2.61445,-1.55137 -2.15435,0.0645 -3.79074,0.79616 -4.90918,2.19499 -1.11844,1.39885 -1.87353,3.07796 -2.26526,5.03732 -0.39174,1.95937 -0.57472,3.81209 -0.54895,5.55816 0.0265,1.82296 0.57618,3.23854 1.64903,4.24675 1.07284,1.0082 2.50982,1.51975 4.31092,1.53463 l 19.50938,0 c 1.80107,-0.0149 3.23805,-0.52643 4.31092,-1.53463 1.07282,-1.00821 1.6225,-2.42379 1.64904,-4.24675 z m -7.14302,-19.93349 c -0.0614,-2.42749 -0.89849,-4.44762 -2.51122,-6.06041 -1.61278,-1.61273 -3.63292,-2.4498 -6.06041,-2.51122 -2.42752,0.0614 -4.44766,0.89849 -6.06041,2.51122 -1.61276,1.61279 -2.44984,3.63292 -2.51121,6.06041 0.0614,2.42753 0.89845,4.44766 2.51121,6.06041 1.61275,1.61277 3.63289,2.44984 6.06041,2.51121 2.42749,-0.0614 4.44763,-0.89844 6.06041,-2.51122 1.61273,-1.61274 2.44981,-3.63287 2.51122,-6.0604 z"
             style="fill:#a8a8a8;fill-opacity:1"
             id="path15456" />
        </g>
        <path
           inkscape:connector-curvature="0"
           style="font-size:34.91844177px;font-style:normal;font-variant:normal;font-weight:normal;font-stretch:normal;text-align:start;line-height:125%;letter-spacing:0px;word-spacing:0px;writing-mode:lr-tb;text-anchor:start;fill:#a8a8a8;fill-opacity:1;stroke:none;font-family:FontAwesome;-inkscape-font-specification:FontAwesome"
           d="m 987,813.86218 c -2.11913,0.0536 -3.87338,0.77965 -5.28125,2.1875 -0.26698,0.26698 -0.50075,0.55173 -0.71875,0.84375 0.0431,0.37284 0.0529,0.74487 0.0625,1.125 l 0,0.0625 0,0.0625 c -0.0446,1.76269 -0.5525,3.39439 -1.3125,4.90625 -0.004,0.009 0.004,0.0227 0,0.0312 2.00754,0.40485 3.85843,1.23628 5.09375,2.78125 0.71505,0.89434 1.28702,1.8832 1.75,2.9375 0.13463,0.009 0.26854,0.0278 0.40625,0.0312 2.11911,-0.0536 3.87335,-0.77961 5.28125,-2.1875 1.40785,-1.40786 2.1339,-3.19336 2.1875,-5.3125 -0.0536,-2.1191 -0.77965,-3.87335 -2.1875,-5.28125 -1.4079,-1.40785 -3.16214,-2.13388 -5.28125,-2.1875 z m 6.96875,13.71875 c -0.31626,0.11287 -1.07596,0.55376 -2.28125,1.34375 -1.17075,0.76735 -2.68295,1.21415 -4.53125,1.34375 0.17459,0.55138 0.32134,1.10656 0.4375,1.6875 0.41973,2.09954 0.6538,4.1341 0.625,6.09375 -0.0316,2.1725 -0.73623,4.25115 -2.15625,5.75 l 9.46875,0 c 1.57227,-0.013 2.81342,-0.46363 3.75,-1.34375 0.93655,-0.88013 1.41445,-2.12738 1.43755,-3.71875 0.022,-1.52425 -0.1268,-3.13329 -0.4688,-4.84375 -0.34198,-1.71044 -1.02367,-3.18511 -2,-4.40625 -0.97638,-1.22112 -2.40061,-1.84995 -4.28125,-1.90625 z m -15.5625,0.21875 c -0.1123,0.0901 -0.5849,0.3603 -1.65625,1.0625 -0.29807,0.19537 -0.61891,0.36629 -0.9375,0.53125 -0.0242,0.0289 -0.0388,0.0641 -0.0625,0.0937 -0.97636,1.22114 -1.65803,2.69581 -2,4.40625 -0.34197,1.71046 -0.49125,3.3195 -0.46875,4.84375 0.0144,0.99461 0.19183,1.84235 0.5625,2.5625 l 5.875,0 0.0312,0 c 1.31751,-0.0166 2.03343,-0.3172 2.59375,-0.84375 0.5345,-0.50231 0.8556,-1.13589 0.875,-2.46875 0.0226,-1.53249 -0.13631,-3.21205 -0.5,-5.03125 -0.32676,-1.63428 -0.90292,-2.90927 -1.75,-3.96875 -0.55902,-0.69915 -1.309,-1.05671 -2.5,-1.1875 -0.0189,0.005 -0.0437,-0.005 -0.0625,0 z"
           id="path15476" />
      </g>
      <g
         style="font-size:9.05960464px;font-style:normal;font-variant:normal;font-weight:normal;font-stretch:normal;text-align:center;line-height:125%;letter-spacing:0px;word-spacing:0px;writing-mode:lr-tb;text-anchor:middle;fill:#a8a8a8;fill-opacity:1;stroke:none;font-family:Inter Medium;-inkscape-font-specification:'Inter Medium,'"
         id="text15550">
        <path
           d="m 939.16362,835.30377 0.99415,0 0,-2.31644 1.35126,0 c 0.76376,-0.0131 1.3355,-0.21771 1.71521,-0.6137 0.3797,-0.39599 0.56939,-0.90459 0.56906,-1.5258 6.6e-4,-0.61952 -0.18808,-1.12665 -0.56624,-1.52138 -0.37817,-0.39471 -0.94978,-0.59861 -1.71482,-0.61168 l -2.34862,0 z m 0.99415,-3.15937 0,-2.57705 1.2483,0 c 0.48849,0.007 0.84266,0.12682 1.06251,0.36033 0.21985,0.23353 0.32789,0.54025 0.32414,0.92015 0.003,0.38058 -0.10403,0.68998 -0.32253,0.92819 -0.21851,0.23821 -0.56893,0.36101 -1.05125,0.36838 z"
           id="path15734"
           inkscape:connector-curvature="0" />
        <path
           d="m 946.31065,835.41316 c 0.40692,-0.01 0.72958,-0.0942 0.968,-0.25376 0.23841,-0.15959 0.40263,-0.33668 0.49265,-0.53126 l 0.0386,0 0,0.67563 0.93944,0 0,-3.28163 c -0.009,-0.47403 -0.1167,-0.83611 -0.32268,-1.08625 -0.20599,-0.25013 -0.45559,-0.42037 -0.74879,-0.51072 -0.29321,-0.0903 -0.57522,-0.13283 -0.84603,-0.1275 -0.45619,-0.004 -0.86773,0.0938 -1.23463,0.29278 -0.36691,0.19894 -0.63528,0.52174 -0.80513,0.9684 l 0.90406,0.20591 c 0.0694,-0.18211 0.19766,-0.3407 0.38487,-0.47576 0.1872,-0.13506 0.44177,-0.20597 0.7637,-0.21274 0.3108,0.002 0.54499,0.0794 0.70258,0.23245 0.15757,0.15309 0.23653,0.37052 0.23687,0.6523 l 0,0.0225 c 0.003,0.16563 -0.0936,0.27113 -0.29117,0.3165 -0.19759,0.0454 -0.51664,0.0889 -0.95714,0.1307 -0.48856,0.0392 -0.92142,0.15866 -1.29858,0.35833 -0.37716,0.19968 -0.57596,0.57248 -0.5964,1.11841 0.0109,0.48782 0.17172,0.86022 0.48259,1.1172 0.31087,0.25698 0.7066,0.38648 1.18718,0.38849 z m 0.20912,-0.77215 c -0.27689,-2.7e-4 -0.50089,-0.0609 -0.67201,-0.18178 -0.17112,-0.12091 -0.25919,-0.30054 -0.26422,-0.53889 0.007,-0.25276 0.10678,-0.43655 0.298,-0.55136 0.19123,-0.11482 0.42971,-0.18841 0.71545,-0.22079 0.17748,-0.0206 0.3976,-0.0525 0.66035,-0.0957 0.26274,-0.0432 0.43942,-0.0992 0.53005,-0.16811 l 0,0.63702 c -0.003,0.30283 -0.11389,0.56263 -0.3334,0.77939 -0.21951,0.21677 -0.53092,0.33018 -0.93422,0.34023 z"
           id="path15736"
           inkscape:connector-curvature="0" />
        <path
           d="m 950.02163,835.30377 0.96197,0 0,-3.01781 c 0.007,-0.3293 0.1181,-0.59567 0.3346,-0.7991 0.2165,-0.20342 0.49854,-0.30812 0.84615,-0.31408 0.10335,10e-4 0.20228,0.008 0.29679,0.0205 0.0945,0.0127 0.16287,0.0251 0.2051,0.0374 l 0,-0.92015 c -0.0516,-0.007 -0.11649,-0.0119 -0.19464,-0.0161 -0.0782,-0.004 -0.14947,-0.006 -0.21395,-0.006 -0.29438,0.003 -0.55338,0.0794 -0.77698,0.23044 -0.2236,0.15102 -0.38285,0.36054 -0.47776,0.62858 l -0.0515,0 0,-0.78502 -0.9298,0 z"
           id="path15738"
           inkscape:connector-curvature="0" />
        <path
           d="m 955.81425,830.36202 -1.01344,0 0,-1.18396 -0.96197,0 0,1.18396 -0.72389,0 0,0.77215 0.72389,0 0,2.91808 c 0.0112,0.44854 0.1561,0.78207 0.43473,1.00057 0.27863,0.21851 0.61417,0.32361 1.00661,0.3153 0.15269,-0.003 0.28084,-0.0154 0.38447,-0.037 0.10362,-0.0216 0.18352,-0.0436 0.23969,-0.066 l -0.17374,-0.79467 c -0.0326,0.007 -0.0776,0.016 -0.13512,0.0257 -0.0575,0.01 -0.12508,0.0152 -0.20269,0.0161 -0.1612,0.007 -0.29888,-0.033 -0.41302,-0.12105 -0.11415,-0.088 -0.1738,-0.2675 -0.17896,-0.53849 l 0,-2.71861 1.01344,0 z"
           id="path15740"
           inkscape:connector-curvature="0" />
        <path
           d="m 956.86942,835.30377 0.96197,0 0,-4.94175 -0.96197,0 z m 0.48581,-5.70425 c 0.17031,-0.004 0.31308,-0.0602 0.4283,-0.1681 0.11522,-0.10791 0.17514,-0.24277 0.17977,-0.40458 -0.005,-0.16193 -0.0646,-0.29732 -0.17977,-0.40618 -0.11522,-0.10884 -0.25799,-0.16541 -0.4283,-0.16971 -0.17172,0.004 -0.31489,0.0609 -0.42951,0.16971 -0.11461,0.10886 -0.17413,0.24425 -0.17856,0.40618 0.004,0.16181 0.0639,0.29667 0.17856,0.40458 0.11462,0.10792 0.25779,0.16395 0.42951,0.1681 z"
           id="path15742"
           inkscape:connector-curvature="0" />
        <path
           d="m 961.19821,835.40351 c 0.5889,-0.009 1.05996,-0.16616 1.4132,-0.47093 0.35322,-0.30477 0.55886,-0.70224 0.61691,-1.19241 l -0.93623,0 c -0.0644,0.26905 -0.19217,0.47737 -0.38326,0.62496 -0.1911,0.14759 -0.42582,0.22239 -0.70418,0.2244 -0.41188,-0.006 -0.7367,-0.16388 -0.97444,-0.47414 -0.23774,-0.31027 -0.35906,-0.73777 -0.36395,-1.28249 0.005,-0.53494 0.12802,-0.95466 0.36757,-1.25917 0.23955,-0.3045 0.56316,-0.4596 0.97082,-0.4653 0.30631,0.006 0.55109,0.0901 0.73434,0.25095 0.18325,0.16087 0.30095,0.36034 0.3531,0.59841 l 0.93623,0 c -0.0599,-0.50551 -0.27233,-0.90687 -0.63742,-1.20407 -0.3651,-0.29719 -0.83255,-0.44921 -1.40234,-0.45605 -0.70506,0.0123 -1.26151,0.24995 -1.66937,0.71303 -0.40786,0.4631 -0.61604,1.078 -0.62455,1.84472 0.006,0.75787 0.21086,1.36875 0.61369,1.83264 0.40283,0.4639 0.96613,0.70238 1.68988,0.71545 z"
           id="path15744"
           inkscape:connector-curvature="0" />
        <path
           d="m 964.26574,835.30377 0.96197,0 0,-4.94175 -0.96197,0 z m 0.48581,-5.70425 c 0.17031,-0.004 0.31308,-0.0602 0.4283,-0.1681 0.11522,-0.10791 0.17514,-0.24277 0.17977,-0.40458 -0.005,-0.16193 -0.0645,-0.29732 -0.17977,-0.40618 -0.11522,-0.10884 -0.25799,-0.16541 -0.4283,-0.16971 -0.17172,0.004 -0.31489,0.0609 -0.42951,0.16971 -0.11461,0.10886 -0.17413,0.24425 -0.17856,0.40618 0.004,0.16181 0.064,0.29667 0.17856,0.40458 0.11462,0.10792 0.25779,0.16395 0.42951,0.1681 z"
           id="path15746"
           inkscape:connector-curvature="0" />
        <path
           d="m 966.51294,837.15693 0.96197,0 0,-2.62209 0.0579,0 c 0.0792,0.174 0.22642,0.35766 0.44158,0.55096 0.21515,0.19331 0.54412,0.29814 0.9869,0.31449 0.60967,-0.007 1.10353,-0.23305 1.48156,-0.67925 0.37803,-0.4462 0.57267,-1.07236 0.58394,-1.87849 -0.0119,-0.807 -0.20853,-1.43142 -0.58997,-1.87327 -0.38145,-0.44183 -0.87651,-0.6657 -1.48518,-0.67161 -0.44962,0.017 -0.77939,0.123 -0.98932,0.31811 -0.20993,0.19512 -0.3531,0.37757 -0.42951,0.54734 l -0.0804,0 0,-0.8011 -0.93945,0 z m 0.94267,-4.32403 c 10e-4,-0.52341 0.11133,-0.93885 0.33017,-1.2463 0.21884,-0.30745 0.53883,-0.46469 0.95996,-0.47174 0.43601,0.0103 0.76323,0.17394 0.98168,0.49104 0.21843,0.31711 0.32769,0.72611 0.32776,1.227 -8.8e-4,0.50632 -0.11174,0.92135 -0.33259,1.24509 -0.22086,0.32374 -0.54647,0.49103 -0.97685,0.50189 -0.4155,-0.008 -0.73388,-0.16911 -0.95513,-0.4838 -0.22126,-0.31469 -0.33292,-0.73575 -0.335,-1.26318 z"
           id="path15748"
           inkscape:connector-curvature="0" />
        <path
           d="m 973.54255,835.41316 c 0.40692,-0.01 0.72958,-0.0942 0.968,-0.25376 0.23841,-0.15959 0.40263,-0.33668 0.49265,-0.53126 l 0.0386,0 0,0.67563 0.93945,0 0,-3.28163 c -0.009,-0.47403 -0.1167,-0.83611 -0.32268,-1.08625 -0.20599,-0.25013 -0.45559,-0.42037 -0.74879,-0.51072 -0.29322,-0.0903 -0.57523,-0.13283 -0.84603,-0.1275 -0.45619,-0.004 -0.86773,0.0938 -1.23463,0.29278 -0.36691,0.19894 -0.63529,0.52174 -0.80513,0.9684 l 0.90406,0.20591 c 0.0694,-0.18211 0.19766,-0.3407 0.38487,-0.47576 0.1872,-0.13506 0.44177,-0.20597 0.7637,-0.21274 0.3108,0.002 0.54499,0.0794 0.70257,0.23245 0.15758,0.15309 0.23654,0.37052 0.23688,0.6523 l 0,0.0225 c 0.003,0.16563 -0.0936,0.27113 -0.29117,0.3165 -0.1976,0.0454 -0.51664,0.0889 -0.95714,0.1307 -0.48856,0.0392 -0.92142,0.15866 -1.29858,0.35833 -0.37716,0.19968 -0.57596,0.57248 -0.5964,1.11841 0.0109,0.48782 0.17172,0.86022 0.48259,1.1172 0.31087,0.25698 0.70659,0.38648 1.18718,0.38849 z m 0.20912,-0.77215 c -0.27689,-2.7e-4 -0.50089,-0.0609 -0.67201,-0.18178 -0.17112,-0.12091 -0.25919,-0.30054 -0.26422,-0.53889 0.007,-0.25276 0.10677,-0.43655 0.298,-0.55136 0.19123,-0.11482 0.42971,-0.18841 0.71545,-0.22079 0.17748,-0.0206 0.3976,-0.0525 0.66035,-0.0957 0.26274,-0.0432 0.43942,-0.0992 0.53004,-0.16811 l 0,0.63702 c -0.003,0.30283 -0.11388,0.56263 -0.33339,0.77939 -0.21951,0.21677 -0.53092,0.33018 -0.93422,0.34023 z"
           id="path15750"
           inkscape:connector-curvature="0" />
        <path
           d="m 978.2155,832.36961 c 0.006,-0.39646 0.11448,-0.70144 0.32495,-0.91492 0.21046,-0.21348 0.48607,-0.32139 0.82684,-0.32374 0.32943,0.003 0.58588,0.1041 0.76933,0.30363 0.18345,0.19954 0.27662,0.48012 0.2795,0.84172 l 0,3.02747 0.96197,0 0,-3.14329 c -0.007,-0.61248 -0.16113,-1.07577 -0.46248,-1.38987 -0.30136,-0.31408 -0.70808,-0.47173 -1.22016,-0.47294 -0.3716,0.003 -0.67885,0.0826 -0.92175,0.23768 -0.24291,0.15504 -0.42147,0.36537 -0.53568,0.63099 l -0.0611,0 0,-0.80432 -0.92336,0 0,4.94175 0.96197,0 z"
           id="path15752"
           inkscape:connector-curvature="0" />
        <path
           d="m 984.97486,830.36202 -1.01345,0 0,-1.18396 -0.96197,0 0,1.18396 -0.72389,0 0,0.77215 0.72389,0 0,2.91808 c 0.0112,0.44854 0.15611,0.78207 0.43474,1.00057 0.27863,0.21851 0.61416,0.32361 1.00661,0.3153 0.15268,-0.003 0.28084,-0.0154 0.38446,-0.037 0.10362,-0.0216 0.18352,-0.0436 0.23969,-0.066 l -0.17373,-0.79467 c -0.0326,0.007 -0.0776,0.016 -0.13513,0.0257 -0.0575,0.01 -0.12507,0.0152 -0.20269,0.0161 -0.1612,0.007 -0.29887,-0.033 -0.41302,-0.12105 -0.11415,-0.088 -0.1738,-0.2675 -0.17896,-0.53849 l 0,-2.71861 1.01345,0 z"
           id="path15754"
           inkscape:connector-curvature="0" />
        <path
           d="m 989.73312,831.5685 c -0.0984,-0.38935 -0.30136,-0.69727 -0.60887,-0.92376 -0.30752,-0.22648 -0.72765,-0.34217 -1.26037,-0.34707 -0.56792,0.006 -1.02545,0.1409 -1.37258,0.40377 -0.34713,0.26289 -0.52556,0.61625 -0.53527,1.0601 -0.002,0.35122 0.10777,0.64212 0.32816,0.87269 0.22038,0.23057 0.56141,0.3976 1.0231,0.50109 l 0.83649,0.18339 c 0.23741,0.0533 0.41329,0.13251 0.52764,0.23767 0.11434,0.10517 0.17118,0.23507 0.17051,0.3897 -0.004,0.19592 -0.0983,0.35745 -0.28312,0.4846 -0.18486,0.12715 -0.43688,0.19297 -0.75606,0.19746 -0.28896,-2e-4 -0.52342,-0.0617 -0.70338,-0.18459 -0.17997,-0.12286 -0.29941,-0.30584 -0.35833,-0.54895 l -0.92979,0.14156 c 0.0842,0.43983 0.2986,0.77711 0.64305,1.01184 0.34445,0.23473 0.79608,0.35323 1.35488,0.35551 0.60639,-0.008 1.09234,-0.15068 1.45784,-0.42871 0.36549,-0.27802 0.55303,-0.64452 0.56262,-1.0995 4e-4,-0.34814 -0.1114,-0.63233 -0.3354,-0.85258 -0.22401,-0.22025 -0.56263,-0.38219 -1.01586,-0.48582 l -0.78502,-0.18016 c -0.27039,-0.0623 -0.46798,-0.14438 -0.59278,-0.24613 -0.12481,-0.10174 -0.18567,-0.23526 -0.18259,-0.40055 0.004,-0.19317 0.0947,-0.34894 0.27146,-0.46731 0.17675,-0.11836 0.40478,-0.17922 0.68408,-0.18258 0.29592,0.007 0.52126,0.076 0.67603,0.20711 0.15476,0.13118 0.25865,0.28306 0.31168,0.45565 z"
           id="path15756"
           inkscape:connector-curvature="0" />
      </g>
      <g
         style="font-size:9.05960464px;font-style:normal;font-variant:normal;font-weight:normal;font-stretch:normal;text-align:center;line-height:125%;letter-spacing:0px;word-spacing:0px;writing-mode:lr-tb;text-anchor:middle;fill:#a8a8a8;fill-opacity:1;stroke:none;font-family:Inter Medium;-inkscape-font-specification:'Inter Medium,'"
         id="text15554">
        <path
           d="m 976.36827,811.30621 4.33691,0 0,-0.85258 -2.96634,0 0,-0.0483 1.30944,-1.37056 c 0.59244,-0.59319 1.00171,-1.07658 1.22779,-1.45019 0.22608,-0.37361 0.33372,-0.73636 0.32294,-1.08825 -0.0101,-0.54097 -0.20551,-0.98482 -0.58635,-1.33156 -0.38085,-0.34672 -0.88677,-0.52595 -1.51776,-0.53769 -0.62797,0.008 -1.13751,0.19131 -1.52861,0.54936 -0.3911,0.35806 -0.59259,0.84199 -0.60445,1.4518 l 0.9491,0 c 0.003,-0.35846 0.10751,-0.64211 0.31449,-0.85097 0.20698,-0.20885 0.49037,-0.31556 0.85017,-0.32012 0.34183,0.003 0.62174,0.0995 0.83971,0.28794 0.21797,0.18849 0.33057,0.44855 0.33782,0.78019 2.6e-4,0.28085 -0.0871,0.55164 -0.26221,0.81237 -0.17508,0.26074 -0.43943,0.57335 -0.79306,0.93784 l -2.22959,2.31001 z"
           id="path15759"
           inkscape:connector-curvature="0" />
      </g>
      <g
         style="font-size:6.928792px;font-style:normal;font-variant:normal;font-weight:normal;font-stretch:normal;text-align:center;line-height:125%;letter-spacing:0px;word-spacing:0px;writing-mode:lr-tb;text-anchor:middle;fill:#a8a8a8;fill-opacity:1;stroke:none;font-family:FontAwesome;-inkscape-font-specification:FontAwesome"
         id="text15574">
        <path
           d="m 1001.6325,813.34101 c 0.048,-0.0509 0.072,-0.10955 0.072,-0.17593 0,-0.0664 -0.024,-0.12502 -0.072,-0.17593 l -2.86907,-2.86515 c -0.0507,-0.0483 -0.10875,-0.0725 -0.174,-0.0725 -0.0652,10e-6 -0.12325,0.0242 -0.17399,0.0725 l -2.86902,2.86515 c -0.0483,0.0509 -0.0725,0.10956 -0.0725,0.17593 0,0.0664 0.0242,0.12502 0.0725,0.17593 l 0.64185,0.63799 c 0.0507,0.0483 0.10875,0.0725 0.174,0.0725 0.0652,0 0.12325,-0.0242 0.174,-0.0725 l 2.05316,-2.05316 2.05317,2.05316 c 0.051,0.0483 0.1087,0.0725 0.174,0.0725 0.065,0 0.1232,-0.0242 0.174,-0.0725 l 0.6419,-0.63799 z"
           id="path15762"
           inkscape:connector-curvature="0" />
      </g>
    </g>
    <g
       id="g15638"
       transform="matrix(0.85563851,0,0,0.85563851,-537.16233,282.07049)">
      <g
         transform="matrix(0.9,0,0,0.9,103.01885,67.805769)"
         id="g15565">
        <path
           style="fill:#23d959;fill-opacity:1;stroke:none"
           d="m 1035.4641,817.02374 16.334,0 c 2.9227,0 5.2756,2.35293 5.2756,5.27563 l 0,9.44875 c 0,2.92269 -2.3529,5.27562 -5.2756,5.27562 l -16.334,0 c -2.9227,0 -5.2756,-2.35293 -5.2756,-5.27562 l 0,-9.44875 c 0,-2.9227 2.3529,-5.27563 5.2756,-5.27563 z"
           id="rect15489"
           inkscape:connector-curvature="0" />
        <g
           style="font-size:9.19896889px;font-style:normal;font-variant:normal;font-weight:normal;font-stretch:normal;text-align:start;line-height:125%;letter-spacing:0px;word-spacing:0px;writing-mode:lr-tb;text-anchor:start;fill:#1a1a1a;fill-opacity:1;stroke:none;font-family:FontAwesome;-inkscape-font-specification:FontAwesome"
           id="text15558"
           transform="matrix(1.1500476,0,0,1.1500476,-156.81943,-122.39066)">
          <path
             d="m 1047.8258,824.78221 c -5e-4,-0.0881 -0.017,-0.1724 -0.051,-0.25283 -0.033,-0.0804 -0.08,-0.15186 -0.1392,-0.21432 l -3.3419,-3.34189 c -0.062,-0.0618 -0.1339,-0.10886 -0.2143,-0.14117 -0.081,-0.0323 -0.1647,-0.0485 -0.2529,-0.0488 -0.088,2.2e-4 -0.1723,0.0165 -0.2521,0.0488 -0.08,0.0323 -0.1499,0.0794 -0.2099,0.14117 l -3.3419,3.34189 c -0.062,0.0625 -0.1099,0.1339 -0.1437,0.21432 -0.034,0.0804 -0.051,0.1647 -0.051,0.25283 4e-4,0.0879 0.017,0.17133 0.051,0.25025 0.034,0.0789 0.082,0.14952 0.1437,0.21176 l 0.385,0.38501 c 0.06,0.062 0.13,0.10994 0.2099,0.14374 0.08,0.0338 0.1639,0.0509 0.2522,0.0513 0.088,-4.3e-4 0.1722,-0.0175 0.2521,-0.0513 0.08,-0.0338 0.1499,-0.0817 0.2099,-0.14374 l 1.5092,-1.50411 0,5.57826 c 0.01,0.18672 0.071,0.33303 0.1976,0.43891 0.1262,0.10587 0.2794,0.15978 0.4595,0.1617 l 0.6571,0 c 0.1801,-0.002 0.3332,-0.0558 0.4594,-0.1617 0.1262,-0.10588 0.1921,-0.25219 0.1977,-0.43891 l 0,-5.57826 1.5092,1.50411 c 0.06,0.062 0.1299,0.10994 0.2098,0.14374 0.08,0.0338 0.164,0.0509 0.2522,0.0513 0.088,-4.3e-4 0.1724,-0.0175 0.2528,-0.0513 0.081,-0.0338 0.1519,-0.0817 0.2144,-0.14374 l 0.385,-0.38501 c 0.06,-0.0622 0.1059,-0.13283 0.1392,-0.21176 0.033,-0.0789 0.05,-0.16234 0.051,-0.25025 z"
             id="path15563"
             inkscape:connector-curvature="0"
             sodipodi:nodetypes="cccccccccccccccccccccccccccccccccc" />
        </g>
      </g>
      <g
         style="font-size:9.05960464px;font-style:normal;font-variant:normal;font-weight:normal;font-stretch:normal;text-align:center;line-height:125%;letter-spacing:0px;word-spacing:0px;writing-mode:lr-tb;text-anchor:middle;fill:#23d959;fill-opacity:1;stroke:none;font-family:Inter Medium;-inkscape-font-specification:'Inter Medium,'"
         id="text15570">
        <path
           d="m 1017.6135,830.44567 0.9587,0 c -0.025,-0.53755 -0.2446,-0.97296 -0.6591,-1.30622 -0.4146,-0.33325 -0.9617,-0.50484 -1.6413,-0.51477 -0.6758,0.008 -1.2304,0.18118 -1.6637,0.52 -0.4333,0.33882 -0.6573,0.79608 -0.672,1.37177 0.01,0.45579 0.1588,0.8247 0.4605,1.10675 0.3017,0.28205 0.7198,0.49332 1.2543,0.6338 l 0.7786,0.21234 c 0.3603,0.0869 0.6564,0.2043 0.8884,0.35229 0.2319,0.148 0.3519,0.36517 0.3599,0.65151 -0.01,0.32602 -0.1457,0.58447 -0.413,0.77536 -0.2674,0.19089 -0.6166,0.28849 -1.0476,0.29277 -0.3923,7.4e-4 -0.7242,-0.086 -0.9958,-0.26019 -0.2716,-0.1742 -0.4266,-0.4403 -0.4649,-0.79829 l -0.9974,0 c 0.039,0.60264 0.2728,1.07357 0.7026,1.41279 0.4299,0.33922 1.0171,0.51175 1.7619,0.51758 0.7786,-0.0107 1.3785,-0.19284 1.7997,-0.54654 0.4211,-0.3537 0.6341,-0.81497 0.639,-1.38383 -0.027,-0.58374 -0.238,-1.01526 -0.6338,-1.29456 -0.3959,-0.2793 -0.8163,-0.4655 -1.2612,-0.5586 l -0.6435,-0.1673 c -0.2752,-0.0601 -0.5395,-0.16508 -0.7926,-0.31489 -0.2532,-0.1498 -0.3879,-0.37944 -0.4042,-0.6889 0,-0.28553 0.1235,-0.51798 0.3571,-0.69735 0.2337,-0.17936 0.5554,-0.27185 0.9652,-0.27749 0.3832,0.002 0.6962,0.0864 0.9391,0.25296 0.2428,0.16657 0.3845,0.4029 0.4251,0.70901 z"
           id="path15708"
           inkscape:connector-curvature="0" />
        <path
           d="m 1020.726,832.36961 c 0.01,-0.39646 0.1182,-0.70144 0.335,-0.91492 0.2168,-0.21348 0.4998,-0.32139 0.849,-0.32374 0.334,0.002 0.5933,0.10289 0.7777,0.30122 0.1845,0.19834 0.2781,0.47971 0.2808,0.84413 l 0,3.02747 0.9619,0 0,-3.14329 c -0.01,-0.61671 -0.1619,-1.0812 -0.4649,-1.39349 -0.3029,-0.31227 -0.7121,-0.46871 -1.2274,-0.46932 -0.3829,0.003 -0.694,0.0808 -0.9334,0.23406 -0.2393,0.15323 -0.4162,0.36476 -0.5304,0.63461 l -0.061,0 0,-2.45157 -0.9491,0 0,6.589 0.962,0 z"
           id="path15710"
           inkscape:connector-curvature="0" />
        <path
           d="m 1026.6521,835.41316 c 0.4069,-0.01 0.7296,-0.0942 0.968,-0.25376 0.2384,-0.15959 0.4026,-0.33668 0.4926,-0.53126 l 0.039,0 0,0.67563 0.9395,0 0,-3.28163 c -0.01,-0.47403 -0.1167,-0.83611 -0.3227,-1.08625 -0.206,-0.25013 -0.4556,-0.42037 -0.7488,-0.51072 -0.2932,-0.0903 -0.5752,-0.13283 -0.846,-0.1275 -0.4562,-0.004 -0.8678,0.0938 -1.2347,0.29278 -0.3669,0.19894 -0.6352,0.52174 -0.8051,0.9684 l 0.9041,0.20591 c 0.069,-0.18211 0.1976,-0.3407 0.3848,-0.47576 0.1872,-0.13506 0.4418,-0.20597 0.7637,-0.21274 0.3108,0.002 0.545,0.0794 0.7026,0.23245 0.1576,0.15309 0.2366,0.37052 0.2369,0.6523 l 0,0.0225 c 0,0.16563 -0.094,0.27113 -0.2912,0.3165 -0.1976,0.0454 -0.5166,0.0889 -0.9571,0.1307 -0.4886,0.0392 -0.9214,0.15866 -1.2986,0.35833 -0.3772,0.19968 -0.576,0.57248 -0.5964,1.11841 0.011,0.48782 0.1717,0.86022 0.4826,1.1172 0.3109,0.25698 0.7066,0.38648 1.1872,0.38849 z m 0.2091,-0.77215 c -0.2769,-2.7e-4 -0.5009,-0.0609 -0.672,-0.18178 -0.1711,-0.12091 -0.2592,-0.30054 -0.2642,-0.53889 0.01,-0.25276 0.1067,-0.43655 0.298,-0.55136 0.1912,-0.11482 0.4297,-0.18841 0.7154,-0.22079 0.1775,-0.0206 0.3976,-0.0525 0.6604,-0.0957 0.2627,-0.0432 0.4394,-0.0992 0.53,-0.16811 l 0,0.63702 c 0,0.30283 -0.1139,0.56263 -0.3334,0.77939 -0.2195,0.21677 -0.5309,0.33018 -0.9342,0.34023 z"
           id="path15712"
           inkscape:connector-curvature="0" />
        <path
           d="m 1030.3631,835.30377 0.9619,0 0,-3.01781 c 0.01,-0.3293 0.1181,-0.59567 0.3346,-0.7991 0.2165,-0.20342 0.4986,-0.30812 0.8462,-0.31408 0.1033,10e-4 0.2023,0.008 0.2968,0.0205 0.094,0.0127 0.1628,0.0251 0.2051,0.0374 l 0,-0.92015 c -0.052,-0.007 -0.1165,-0.0119 -0.1947,-0.0161 -0.078,-0.004 -0.1494,-0.006 -0.2139,-0.006 -0.2944,0.003 -0.5534,0.0794 -0.777,0.23044 -0.2236,0.15102 -0.3829,0.36054 -0.4778,0.62858 l -0.051,0 0,-0.78502 -0.9298,0 z"
           id="path15714"
           inkscape:connector-curvature="0" />
        <path
           d="m 1035.9787,835.40351 c 0.5437,-0.005 0.9942,-0.12735 1.3517,-0.36597 0.3574,-0.23861 0.5932,-0.56168 0.7074,-0.96921 l -0.9105,-0.16408 c -0.089,0.23346 -0.2325,0.4092 -0.4295,0.52723 -0.1971,0.11804 -0.4335,0.17716 -0.7094,0.17736 -0.4172,-0.002 -0.7507,-0.13111 -1.0006,-0.38608 -0.2499,-0.25497 -0.3839,-0.62174 -0.4022,-1.10031 l 3.5133,0 0,-0.34103 c -0.021,-0.88468 -0.2458,-1.52184 -0.674,-1.91147 -0.4282,-0.38962 -0.9327,-0.58038 -1.5137,-0.57228 -0.6977,0.0121 -1.2505,0.25015 -1.6585,0.71424 -0.4081,0.4641 -0.6167,1.08182 -0.6258,1.85316 0.01,0.77718 0.2167,1.39208 0.6294,1.84471 0.4127,0.45263 0.9868,0.68387 1.7224,0.69373 z m -1.3898,-3.00173 c 0.023,-0.36141 0.1519,-0.66732 0.3856,-0.91773 0.2338,-0.25041 0.5481,-0.38098 0.9431,-0.39171 0.378,0.007 0.6773,0.13104 0.898,0.3712 0.2207,0.24016 0.3343,0.5529 0.3407,0.93824 z"
           id="path15716"
           inkscape:connector-curvature="0" />
        <path
           d="m 1045.2523,830.44567 0.9588,0 c -0.025,-0.53755 -0.2446,-0.97296 -0.6592,-1.30622 -0.4145,-0.33325 -0.9616,-0.50484 -1.6412,-0.51477 -0.6758,0.008 -1.2304,0.18118 -1.6637,0.52 -0.4334,0.33882 -0.6574,0.79608 -0.672,1.37177 0.01,0.45579 0.1588,0.8247 0.4604,1.10675 0.3017,0.28205 0.7198,0.49332 1.2544,0.6338 l 0.7786,0.21234 c 0.3602,0.0869 0.6564,0.2043 0.8883,0.35229 0.232,0.148 0.352,0.36517 0.36,0.65151 -0.01,0.32602 -0.1457,0.58447 -0.413,0.77536 -0.2674,0.19089 -0.6166,0.28849 -1.0477,0.29277 -0.3922,7.4e-4 -0.7241,-0.086 -0.9957,-0.26019 -0.2716,-0.1742 -0.4266,-0.4403 -0.4649,-0.79829 l -0.9974,0 c 0.039,0.60264 0.2727,1.07357 0.7026,1.41279 0.4298,0.33922 1.0171,0.51175 1.7619,0.51758 0.7786,-0.0107 1.3785,-0.19284 1.7996,-0.54654 0.4212,-0.3537 0.6342,-0.81497 0.6391,-1.38383 -0.027,-0.58374 -0.238,-1.01526 -0.6338,-1.29456 -0.3959,-0.2793 -0.8163,-0.4655 -1.2612,-0.5586 l -0.6435,-0.1673 c -0.2753,-0.0601 -0.5395,-0.16508 -0.7926,-0.31489 -0.2532,-0.1498 -0.3879,-0.37944 -0.4042,-0.6889 0,-0.28553 0.1235,-0.51798 0.3571,-0.69735 0.2337,-0.17936 0.5554,-0.27185 0.9652,-0.27749 0.3832,0.002 0.6962,0.0864 0.939,0.25296 0.2429,0.16657 0.3846,0.4029 0.4251,0.70901 z"
           id="path15718"
           inkscape:connector-curvature="0" />
        <path
           d="m 1049.4845,835.40351 c 0.5889,-0.009 1.0599,-0.16616 1.4132,-0.47093 0.3532,-0.30477 0.5588,-0.70224 0.6169,-1.19241 l -0.9362,0 c -0.064,0.26905 -0.1922,0.47737 -0.3833,0.62496 -0.1911,0.14759 -0.4258,0.22239 -0.7042,0.2244 -0.4119,-0.006 -0.7367,-0.16388 -0.9744,-0.47414 -0.2378,-0.31027 -0.3591,-0.73777 -0.364,-1.28249 0.01,-0.53494 0.1281,-0.95466 0.3676,-1.25917 0.2396,-0.3045 0.5632,-0.4596 0.9708,-0.4653 0.3063,0.006 0.5511,0.0901 0.7344,0.25095 0.1832,0.16087 0.3009,0.36034 0.3531,0.59841 l 0.9362,0 c -0.06,-0.50551 -0.2723,-0.90687 -0.6374,-1.20407 -0.3651,-0.29719 -0.8326,-0.44921 -1.4024,-0.45605 -0.705,0.0123 -1.2615,0.24995 -1.6693,0.71303 -0.4079,0.4631 -0.6161,1.078 -0.6246,1.84472 0.01,0.75787 0.2109,1.36875 0.6137,1.83264 0.4028,0.4639 0.9661,0.70238 1.6899,0.71545 z"
           id="path15720"
           inkscape:connector-curvature="0" />
        <path
           d="m 1052.552,835.30377 0.962,0 0,-3.01781 c 0.01,-0.3293 0.1181,-0.59567 0.3346,-0.7991 0.2165,-0.20342 0.4985,-0.30812 0.8461,-0.31408 0.1034,10e-4 0.2023,0.008 0.2968,0.0205 0.094,0.0127 0.1629,0.0251 0.2051,0.0374 l 0,-0.92015 c -0.052,-0.007 -0.1165,-0.0119 -0.1946,-0.0161 -0.078,-0.004 -0.1495,-0.006 -0.214,-0.006 -0.2944,0.003 -0.5533,0.0794 -0.7769,0.23044 -0.2236,0.15102 -0.3829,0.36054 -0.4778,0.62858 l -0.052,0 0,-0.78502 -0.9298,0 z"
           id="path15722"
           inkscape:connector-curvature="0" />
        <path
           d="m 1058.1677,835.40351 c 0.5436,-0.005 0.9942,-0.12735 1.3516,-0.36597 0.3575,-0.23861 0.5933,-0.56168 0.7074,-0.96921 l -0.9104,-0.16408 c -0.089,0.23346 -0.2325,0.4092 -0.4296,0.52723 -0.197,0.11804 -0.4335,0.17716 -0.7094,0.17736 -0.4171,-0.002 -0.7507,-0.13111 -1.0005,-0.38608 -0.2499,-0.25497 -0.384,-0.62174 -0.4022,-1.10031 l 3.5133,0 0,-0.34103 c -0.021,-0.88468 -0.2459,-1.52184 -0.674,-1.91147 -0.4282,-0.38962 -0.9328,-0.58038 -1.5138,-0.57228 -0.6976,0.0121 -1.2504,0.25015 -1.6585,0.71424 -0.4081,0.4641 -0.6166,1.08182 -0.6258,1.85316 0.01,0.77718 0.2167,1.39208 0.6294,1.84471 0.4127,0.45263 0.9869,0.68387 1.7225,0.69373 z m -1.3899,-3.00173 c 0.023,-0.36141 0.152,-0.66732 0.3857,-0.91773 0.2337,-0.25041 0.5481,-0.38098 0.9431,-0.39171 0.3779,0.007 0.6773,0.13104 0.898,0.3712 0.2207,0.24016 0.3342,0.5529 0.3406,0.93824 z"
           id="path15724"
           inkscape:connector-curvature="0" />
        <path
           d="m 1063.4937,835.40351 c 0.5437,-0.005 0.9942,-0.12735 1.3517,-0.36597 0.3575,-0.23861 0.5933,-0.56168 0.7074,-0.96921 l -0.9105,-0.16408 c -0.089,0.23346 -0.2324,0.4092 -0.4295,0.52723 -0.1971,0.11804 -0.4335,0.17716 -0.7094,0.17736 -0.4172,-0.002 -0.7507,-0.13111 -1.0006,-0.38608 -0.2499,-0.25497 -0.3839,-0.62174 -0.4021,-1.10031 l 3.5132,0 0,-0.34103 c -0.021,-0.88468 -0.2458,-1.52184 -0.674,-1.91147 -0.4282,-0.38962 -0.9327,-0.58038 -1.5137,-0.57228 -0.6976,0.0121 -1.2505,0.25015 -1.6585,0.71424 -0.4081,0.4641 -0.6167,1.08182 -0.6258,1.85316 0.01,0.77718 0.2167,1.39208 0.6294,1.84471 0.4127,0.45263 0.9868,0.68387 1.7224,0.69373 z m -1.3898,-3.00173 c 0.023,-0.36141 0.1519,-0.66732 0.3856,-0.91773 0.2338,-0.25041 0.5481,-0.38098 0.9431,-0.39171 0.378,0.007 0.6773,0.13104 0.898,0.3712 0.2208,0.24016 0.3343,0.5529 0.3407,0.93824 z"
           id="path15726"
           inkscape:connector-curvature="0" />
        <path
           d="m 1067.6519,832.36961 c 0.01,-0.39646 0.1145,-0.70144 0.325,-0.91492 0.2104,-0.21348 0.486,-0.32139 0.8268,-0.32374 0.3294,0.003 0.5859,0.1041 0.7693,0.30363 0.1835,0.19954 0.2767,0.48012 0.2795,0.84172 l 0,3.02747 0.962,0 0,-3.14329 c -0.01,-0.61248 -0.1611,-1.07577 -0.4625,-1.38987 -0.3013,-0.31408 -0.708,-0.47173 -1.2201,-0.47294 -0.3716,0.003 -0.6789,0.0826 -0.9218,0.23768 -0.2429,0.15504 -0.4214,0.36537 -0.5357,0.63099 l -0.061,0 0,-0.80432 -0.9233,0 0,4.94175 0.9619,0 z"
           id="path15728"
           inkscape:connector-curvature="0" />
      </g>
      <g
         style="font-size:6.928792px;font-style:normal;font-variant:normal;font-weight:normal;font-stretch:normal;text-align:center;line-height:125%;letter-spacing:0px;word-spacing:0px;writing-mode:lr-tb;text-anchor:middle;fill:#a8a8a8;fill-opacity:1;stroke:none;font-family:FontAwesome;-inkscape-font-specification:FontAwesome"
         id="text15578">
        <path
           d="m 1079.8467,813.34101 c 0.048,-0.0509 0.072,-0.10955 0.072,-0.17593 0,-0.0664 -0.024,-0.12502 -0.072,-0.17593 l -2.869,-2.86515 c -0.051,-0.0483 -0.1088,-0.0725 -0.174,-0.0725 -0.065,10e-6 -0.1233,0.0242 -0.174,0.0725 l -2.869,2.86515 c -0.048,0.0509 -0.072,0.10956 -0.072,0.17593 0,0.0664 0.024,0.12502 0.072,0.17593 l 0.6418,0.63799 c 0.051,0.0483 0.1088,0.0725 0.174,0.0725 0.065,0 0.1233,-0.0242 0.174,-0.0725 l 2.0532,-2.05316 2.0531,2.05316 c 0.051,0.0483 0.1088,0.0725 0.174,0.0725 0.065,0 0.1233,-0.0242 0.174,-0.0725 l 0.6419,-0.63799 z"
           id="path15731"
           inkscape:connector-curvature="0" />
      </g>
    </g>
    <g
       id="g15678"
       transform="matrix(0.85563851,0,0,0.85563851,-533.57143,281.64659)">
      <g
         style="font-size:9.05960464px;font-style:normal;font-variant:normal;font-weight:normal;font-stretch:normal;text-align:center;line-height:125%;letter-spacing:0px;word-spacing:0px;writing-mode:lr-tb;text-anchor:middle;fill:#a8a8a8;fill-opacity:1;stroke:none;font-family:Inter Medium;-inkscape-font-specification:'Inter Medium,'"
         id="text15654">
        <path
           d="m 1092.6502,835.80884 0.9941,0 0,-2.4934 1.3513,0 c 0.021,0 0.043,0 0.064,0 l 1.3384,2.4934 1.1325,0 -1.4607,-2.66713 c 0.4037,-0.15296 0.7063,-0.38916 0.9077,-0.70861 0.2014,-0.31945 0.3021,-0.70204 0.302,-1.14777 5e-4,-0.61671 -0.1887,-1.11257 -0.5674,-1.48759 -0.3788,-0.37501 -0.95,-0.56765 -1.7136,-0.57791 l -2.3486,0 z m 0.9941,-3.3492 0,-2.38723 1.2483,0 c 0.4871,0.004 0.8409,0.11275 1.0613,0.32656 0.2205,0.21382 0.3289,0.50927 0.3254,0.88636 0,0.37408 -0.1047,0.6627 -0.3238,0.86585 -0.2191,0.20317 -0.5691,0.30599 -1.05,0.30846 z"
           id="path15693"
           inkscape:connector-curvature="0" />
        <path
           d="m 1100.542,835.90857 c 0.5436,-0.005 0.9942,-0.12735 1.3516,-0.36596 0.3575,-0.23862 0.5933,-0.56169 0.7074,-0.96921 l -0.9104,-0.16408 c -0.089,0.23345 -0.2325,0.4092 -0.4296,0.52723 -0.197,0.11804 -0.4335,0.17715 -0.7094,0.17735 -0.4171,-0.002 -0.7507,-0.1311 -1.0005,-0.38607 -0.2499,-0.25497 -0.384,-0.62174 -0.4022,-1.10031 l 3.5133,0 0,-0.34104 c -0.021,-0.88468 -0.2459,-1.52184 -0.674,-1.91147 -0.4282,-0.38962 -0.9328,-0.58038 -1.5138,-0.57227 -0.6976,0.0121 -1.2504,0.25015 -1.6585,0.71424 -0.4081,0.46409 -0.6166,1.08181 -0.6258,1.85315 0.01,0.77718 0.2167,1.39209 0.6294,1.84472 0.4127,0.45263 0.9869,0.68387 1.7225,0.69372 z m -1.3899,-3.00173 c 0.023,-0.3614 0.152,-0.66731 0.3857,-0.91773 0.2337,-0.2504 0.5481,-0.38097 0.9431,-0.3917 0.3779,0.007 0.6773,0.13104 0.898,0.37119 0.2207,0.24016 0.3342,0.55291 0.3406,0.93824 z"
           id="path15695"
           inkscape:connector-curvature="0" />
        <path
           d="m 1105.8198,835.90857 c 0.5889,-0.009 1.0599,-0.16616 1.4132,-0.47093 0.3532,-0.30477 0.5588,-0.70224 0.6169,-1.1924 l -0.9362,0 c -0.064,0.26904 -0.1922,0.47736 -0.3833,0.62495 -0.1911,0.1476 -0.4258,0.2224 -0.7042,0.22441 -0.4119,-0.006 -0.7367,-0.16388 -0.9744,-0.47415 -0.2378,-0.31026 -0.3591,-0.73776 -0.364,-1.28249 0.01,-0.53494 0.128,-0.95466 0.3676,-1.25916 0.2395,-0.3045 0.5632,-0.4596 0.9708,-0.4653 0.3063,0.006 0.5511,0.0901 0.7344,0.25094 0.1832,0.16087 0.3009,0.36034 0.3531,0.59842 l 0.9362,0 c -0.06,-0.50551 -0.2723,-0.90687 -0.6374,-1.20407 -0.3651,-0.29719 -0.8326,-0.44921 -1.4024,-0.45605 -0.705,0.0123 -1.2615,0.24995 -1.6693,0.71303 -0.4079,0.46309 -0.6161,1.078 -0.6246,1.84471 0.01,0.75788 0.2109,1.36876 0.6137,1.83265 0.4028,0.46389 0.9661,0.70237 1.6899,0.71544 z"
           id="path15697"
           inkscape:connector-curvature="0" />
        <path
           d="m 1110.9689,835.90857 c 0.7054,-0.0107 1.2635,-0.24431 1.6742,-0.70096 0.4107,-0.45666 0.6204,-1.07236 0.6294,-1.84713 -0.01,-0.77938 -0.2187,-1.39791 -0.6294,-1.85557 -0.4107,-0.45765 -0.9688,-0.69171 -1.6742,-0.70217 -0.7055,0.0105 -1.2635,0.24452 -1.6742,0.70217 -0.4107,0.45766 -0.6205,1.07619 -0.6294,1.85557 0.01,0.77477 0.2187,1.39047 0.6294,1.84713 0.4107,0.45665 0.9687,0.69031 1.6742,0.70096 z m 0,-0.80754 c -0.454,-0.0133 -0.7903,-0.18532 -1.009,-0.51597 -0.2187,-0.33064 -0.3274,-0.7399 -0.3262,-1.2278 0,-0.48674 0.1075,-0.89668 0.3262,-1.2298 0.2187,-0.33312 0.555,-0.50659 1.009,-0.5204 0.4509,0.0138 0.7854,0.18728 1.0034,0.5204 0.218,0.33312 0.3265,0.74306 0.3253,1.2298 0,0.4879 -0.1073,0.89716 -0.3253,1.2278 -0.218,0.33065 -0.5525,0.50264 -1.0034,0.51597 z"
           id="path15699"
           inkscape:connector-curvature="0" />
        <path
           d="m 1114.3372,835.80884 0.962,0 0,-3.01782 c 0.01,-0.3293 0.1181,-0.59566 0.3346,-0.79909 0.2165,-0.20342 0.4985,-0.30812 0.8461,-0.31409 0.1034,0.001 0.2023,0.008 0.2968,0.0205 0.095,0.0127 0.1629,0.0251 0.2051,0.0374 l 0,-0.92014 c -0.052,-0.007 -0.1165,-0.0119 -0.1946,-0.0161 -0.078,-0.004 -0.1495,-0.006 -0.214,-0.006 -0.2943,0.003 -0.5533,0.0794 -0.7769,0.23044 -0.2236,0.15101 -0.3829,0.36054 -0.4778,0.62857 l -0.052,0 0,-0.78502 -0.9298,0 z"
           id="path15701"
           inkscape:connector-curvature="0" />
        <path
           d="m 1119.673,835.90536 c 0.4428,-0.0164 0.7717,-0.12119 0.9869,-0.31449 0.2151,-0.19331 0.3623,-0.37696 0.4416,-0.55096 l 0.08,0 0,0.76893 0.9394,0 0,-6.58901 -0.9619,0 0,2.44836 -0.058,0 c -0.078,-0.16978 -0.2215,-0.35222 -0.4312,-0.54734 -0.2096,-0.19511 -0.5399,-0.30115 -0.9909,-0.31811 -0.6085,0.006 -1.103,0.22977 -1.4835,0.67161 -0.3806,0.44184 -0.5767,1.06626 -0.5884,1.87326 0.011,0.80614 0.2053,1.4323 0.5827,1.8785 0.3774,0.44619 0.8717,0.67261 1.4828,0.67925 z m 0.2123,-0.82041 c -0.4302,-0.0109 -0.7553,-0.17816 -0.9752,-0.5019 -0.2199,-0.32374 -0.3303,-0.73877 -0.331,-1.24509 10e-5,-0.50089 0.1093,-0.90988 0.3274,-1.22699 0.2181,-0.3171 0.5444,-0.48078 0.9788,-0.49104 0.4212,0.007 0.7411,0.16429 0.96,0.47173 0.2188,0.30746 0.3289,0.72289 0.3302,1.2463 0,0.52744 -0.1132,0.9485 -0.3338,1.26319 -0.2207,0.31469 -0.5395,0.47596 -0.9564,0.4838 z"
           id="path15703"
           inkscape:connector-curvature="0" />
      </g>
      <path
         id="path15662"
         transform="translate(0,287.36218)"
         d="m 1107.625,515.25 c -5.3,0 -9.5938,4.29378 -9.5938,9.59375 0,5.29997 4.2938,9.59375 9.5938,9.59375 5.3,0 9.5938,-4.29378 9.5938,-9.59375 0,-5.29997 -4.2938,-9.59375 -9.5938,-9.59375 z m 0,1.25 c 4.6026,0 8.3438,3.74114 8.3438,8.34375 0,4.60261 -3.7412,8.3125 -8.3438,8.3125 -4.6026,0 -8.3125,-3.70989 -8.3125,-8.3125 0,-4.60261 3.7099,-8.34375 8.3125,-8.34375 z"
         style="fill:#a8a8a8;fill-opacity:1;stroke:none"
         inkscape:connector-curvature="0" />
      <path
         transform="matrix(0.7368421,0,0,0.7368421,291.48217,425.47698)"
         style="fill:#a8a8a8;fill-opacity:1;stroke:none"
         d="m 1117.2287,524.83624 c 0,5.29998 -4.2965,9.59645 -9.5965,9.59645 -5.3,0 -9.5964,-4.29647 -9.5964,-9.59645 0,-5.29997 4.2964,-9.59645 9.5964,-9.59645 5.3,0 9.5965,4.29648 9.5965,9.59645 z"
         id="path15664"
         inkscape:connector-curvature="0" />
    </g>
    <g
       id="g15673"
       transform="matrix(0.85563851,0,0,0.85563851,-479.96461,274.75996)">
      <path
         style="fill:#b72525;fill-opacity:1;stroke:none"
         d="m 1143.0228,817.02374 30.9039,0 c 2.6304,0 4.748,2.11764 4.748,4.74807 l 0,10.50387 c 0,2.63043 -2.1176,4.74806 -4.748,4.74806 l -30.9039,0 c -2.6304,0 -4.748,-2.11763 -4.748,-4.74806 l 0,-10.50387 c 0,-2.63043 2.1176,-4.74807 4.748,-4.74807 z"
         id="rect15491"
         inkscape:connector-curvature="0" />
      <g
         style="font-size:9.05960464px;font-style:normal;font-variant:normal;font-weight:normal;font-stretch:normal;text-align:center;line-height:125%;letter-spacing:0px;word-spacing:0px;writing-mode:lr-tb;text-anchor:middle;fill:#ffffff;fill-opacity:1;stroke:none;font-family:Inter Medium;-inkscape-font-specification:'Inter Medium,'"
         id="text15669">
        <path
           d="m 1150.9231,830.26996 4.1696,0 0,-0.8558 -3.1754,0 0,-2.01724 2.9213,0 0,-0.85258 -2.9213,0 0,-2.00759 3.1368,0 0,-0.8558 -4.131,0 z"
           id="path15686"
           inkscape:connector-curvature="0" />
        <path
           d="m 1157.2755,827.33579 c 0.01,-0.39646 0.1145,-0.70143 0.3249,-0.91491 0.2105,-0.21348 0.4861,-0.32139 0.8269,-0.32374 0.3294,0.003 0.5859,0.10409 0.7693,0.30363 0.1835,0.19954 0.2766,0.48011 0.2795,0.84172 l 0,3.02747 0.962,0 0,-3.14329 c -0.01,-0.61249 -0.1611,-1.07578 -0.4625,-1.38987 -0.3014,-0.31408 -0.7081,-0.47173 -1.2202,-0.47294 -0.3716,0.003 -0.6788,0.0826 -0.9217,0.23768 -0.2429,0.15503 -0.4215,0.36536 -0.5357,0.63099 l -0.061,0 0,-0.80432 -0.9234,0 0,4.94175 0.962,0 z"
           id="path15688"
           inkscape:connector-curvature="0" />
        <path
           d="m 1163.578,830.36648 c 0.4428,-0.0164 0.7717,-0.12119 0.9869,-0.31449 0.2152,-0.19331 0.3623,-0.37696 0.4416,-0.55096 l 0.08,0 0,0.76893 0.9395,0 0,-6.58901 -0.962,0 0,2.44836 -0.058,0 c -0.078,-0.16977 -0.2215,-0.35222 -0.4311,-0.54734 -0.2097,-0.19511 -0.54,-0.30115 -0.991,-0.31811 -0.6085,0.006 -1.103,0.22977 -1.4835,0.67161 -0.3806,0.44184 -0.5767,1.06626 -0.5884,1.87326 0.011,0.80614 0.2053,1.4323 0.5827,1.8785 0.3775,0.44619 0.8717,0.67261 1.4828,0.67925 z m 0.2123,-0.82041 c -0.4302,-0.0109 -0.7553,-0.17816 -0.9752,-0.5019 -0.2199,-0.32374 -0.3302,-0.73877 -0.331,-1.24509 1e-4,-0.50089 0.1093,-0.90988 0.3274,-1.22699 0.2181,-0.3171 0.5444,-0.48078 0.9788,-0.49104 0.4212,0.007 0.7411,0.16429 0.96,0.47174 0.2188,0.30745 0.3289,0.72288 0.3302,1.24629 0,0.52744 -0.1132,0.9485 -0.3338,1.26319 -0.2207,0.31469 -0.5395,0.47596 -0.9564,0.4838 z"
           id="path15690"
           inkscape:connector-curvature="0" />
      </g>
    </g>
  </g>
</svg>
