<svg xmlns="http://www.w3.org/2000/svg" xmlns:xlink="http://www.w3.org/1999/xlink" width="800" height="800" xmlns:v="https://vecta.io/nano"><style><![CDATA[.B{fill:#eebe89}.C{fill:#d939b1}.D{fill:#8b3386}.E{fill:#ec6c78}.F{fill:#e4a468}.G{fill:#f2f3f3}.H{fill:#d8d8e0}.I{fill:#504038}.J{fill:#a83ea2}.K{fill:#3a2920}.L{fill:#5f235c}.M{fill:#fbe5ee}.N{fill:#d8276b}.O{fill:#f0c89f}.P{fill:#e5e5fb}.Q{fill:#e2ac5e}.R{fill:#0096dc}.S{fill:#005278}.T{fill:#402c21}.U{fill:#edc485}.V{fill:#d2edfa}.W{fill:#ecbc87}.X{fill:#523c2a}.Y{fill:#f6e0c1}.Z{fill:#008aaf}.a{fill:#765334}.b{fill:#926740}.c{fill:#846147}.d{fill:#7c2e78}.e{fill-opacity:.196}]]></style><defs><radialGradient id="A" cx="427.463" cy="834.616" fx="427.463" fy="834.616" r="427.463" gradientTransform="matrix(0.93575331,0,0,1.7311312,-2.5556601e-6,-794.46722)" xlink:href="#c"><stop offset="0" stop-color="#fff"/><stop offset="1" stop-color="#e9eaed"/></radialGradient><linearGradient id="B" x1="535.671" y1="975.988" x2="535.671" y2="943.052" xlink:href="#c"><stop offset="0" stop-color="#a83ea2"/><stop offset="1" stop-color="#d939b1"/></linearGradient><linearGradient id="C" x1="529.712" y1="976.42" x2="529.712" y2="928.693" xlink:href="#c"><stop offset="0" stop-color="#3d418b"/><stop offset="1" stop-color="#5f64b9"/></linearGradient><linearGradient id="D" x1="445.384" y1="1039.939" x2="445.384" y2="1001.376" xlink:href="#c"><stop offset="0" stop-color="#0096db"/><stop offset="1" stop-color="#07d3ff"/></linearGradient><linearGradient id="E" x1="764.562" y1="1009.595" x2="764.562" y2="976.659" xlink:href="#c"><stop offset="0" stop-color="#d8276b"/><stop offset="1" stop-color="#ec6c78"/></linearGradient><linearGradient id="F" x1="690.534" y1="1052.046" x2="690.534" y2="1011.284" xlink:href="#c"><stop offset="0" stop-color="#0096db"/><stop offset="1" stop-color="#07d3ff"/></linearGradient><radialGradient id="G" gradientTransform="matrix(0.3302698,0,0,0.23475709,597.42344,698.56512)" cx="440.895" cy="733.706" fx="440.895" fy="733.706" r="422.686" xlink:href="#c"><stop offset="0" stop-color="#3d418b"/><stop offset="1" stop-color="#242754"/></radialGradient><path id="H" d="M565.585 950.984c-.274 0-.494.22-.494.494s.22.494.494.494h71.416v-.989h-71.416z"/><path id="I" d="M565.585 954.104c-.274 0-.494.22-.494.494s.22.494.494.494h71.416v-.988h-71.416z"/><path id="J" d="M593.345 983.684c.237 0 .427.191.427.427s-.19.427-.427.427h-94.162v-.854h94.162z"/><path id="K" d="M593.345 986.326c.237 0 .427.19.427.427s-.19.427-.427.427h-94.162v-.854h94.162z"/><path id="L" d="M589.652 1027.295c.274 0 .494.22.494.494s-.22.494-.494.494h-71.416v-.989h71.416z"/><path id="M" d="M589.652 1030.415c.274 0 .494.22.494.494s-.22.494-.494.494h-71.416v-.988h71.416z"/><path id="N" d="M743.737 1017.291c-.237 0-.427.191-.427.427s.19.427.427.427H837.9v-.854h-94.162z"/><path id="O" d="M743.737 1019.934c-.237 0-.427.19-.427.427s.19.427.427.427H837.9v-.854h-94.162z"/><path id="P" d="M547.599 798.322c0 .19-.154.344-.344.344s-.344-.154-.344-.344.154-.344.344-.344.344.154.344.344z"/><path id="Q" d="M573.09 848.348h66.877v47.536H573.09z"/><path id="R" d="M606.735 845.643c0 .145-.117.262-.262.262s-.262-.117-.262-.262.117-.262.262-.262.262.117.262.262z"/><path id="S" d="M603.529 799.574c0 .368-.299.667-.667.667s-.667-.299-.667-.667.299-.667.667-.667.667.299.667.667z"/><path id="T" d="M678.294 834.101c0 .225-.183.408-.408.408s-.408-.183-.408-.408.183-.408.408-.408.408.183.408.408z"/><path id="U" d="M678.143 834.101c0 .142-.115.256-.256.256s-.256-.115-.256-.256.115-.256.256-.256.256.115.256.256z"/><path id="V" d="M673.993 885.108a.37.37 0 0 1-.369.369.37.37 0 0 1-.369-.369.37.37 0 0 1 .369-.369.37.37 0 0 1 .369.369z"/><path id="W" d="M673.816 885.108c0 .106-.086.192-.192.192s-.192-.086-.192-.192.086-.192.192-.192.192.086.192.192z"/><path id="X" d="M168.596 726.167c0 32.749-26.549 59.298-59.298 59.298s-59.298-26.549-59.298-59.298 26.549-59.298 59.298-59.298 59.298 26.549 59.298 59.298z"/><path id="Y" d="M213.733 498.997c.039-2.125.617-3.767 1.734-4.927s2.606-1.748 4.467-1.763c1.838.016 3.265.581 4.283 1.694s1.529 2.679 1.534 4.698v19.219h9.077V497.08c-.044-3.85-1.074-6.857-3.09-9.018s-4.75-3.261-8.203-3.297c-2.444.02-4.508.577-6.192 1.67s-2.902 2.604-3.652 4.53h-.384v-5.774h-8.651v32.728h9.077z"/><path id="Z" d="M408.966 518.558c5.015-.073 8.941-1.626 11.778-4.658s4.28-7.105 4.331-12.217c-.051-5.142-1.494-9.23-4.331-12.262s-6.762-4.585-11.778-4.656c-5.015.071-8.941 1.623-11.778 4.656s-4.28 7.12-4.331 12.262c.051 5.112 1.494 9.185 4.331 12.217s6.762 4.585 11.778 4.658zm.043-7.031c-2.293-.056-4.02-.993-5.18-2.813s-1.742-4.184-1.745-7.095.584-5.281 1.745-7.106 2.888-2.766 5.18-2.823c2.252.057 3.954.998 5.106 2.823s1.73 4.194 1.734 7.106c-.004 2.911-.582 5.276-1.734 7.095s-2.854 2.757-5.106 2.813z"/><path id="a" d="M274.135 583.067c2.198-.042 4.006-.551 5.423-1.529s2.379-2.172 2.887-3.585l-2.401-.781c-.419 1.007-1.122 1.848-2.108 2.525s-2.253 1.028-3.802 1.055c-2.253-.03-4.029-.783-5.33-2.257s-1.991-3.487-2.07-6.039h16.25v-1.25c-.089-3.634-1.037-6.33-2.843-8.088s-3.936-2.632-6.39-2.623c-2.872.059-5.172 1.123-6.9 3.191s-2.615 4.783-2.66 8.145c.033 3.364.926 6.064 2.681 8.1s4.176 3.081 7.262 3.136zm-7.387-12.841c.16-2.087.862-3.833 2.106-5.238s2.876-2.135 4.897-2.191c1.986.047 3.582.759 4.789 2.138s1.826 3.142 1.859 5.291z"/><path id="b" d="M328.294 583.067c2.874-.054 5.181-1.1 6.921-3.139s2.634-4.747 2.681-8.125c-.047-3.398-.941-6.119-2.681-8.163s-4.048-3.092-6.921-3.145c-2.874.053-5.181 1.101-6.921 3.145s-2.634 4.764-2.681 8.163c.047 3.378.94 6.086 2.681 8.125s4.048 3.085 6.921 3.139zm0-2.315c-2.277-.067-4.02-.948-5.229-2.642s-1.82-3.796-1.831-6.307c.011-2.513.621-4.625 1.831-6.335s2.953-2.601 5.229-2.671c2.277.07 4.02.96 5.229 2.671s1.82 3.822 1.831 6.335c-.011 2.511-.621 4.613-1.831 6.307s-2.953 2.575-5.229 2.642z"/><linearGradient id="c" gradientUnits="userSpaceOnUse"/></defs><g transform="translate(0 -252.362)"><path d="M0 250.362h800v800H0z" fill="url(#A)"/><g transform="matrix(1.437373 0 0 1.437373 -563.35601 -462.27456)"><path d="M567.762 765.581c-6.663 0-12 5.337-12 12v164.844h-23.687v.031h-85.781c-9.309 0-16.812 7.472-16.812 16.781s7.503 16.813 16.813 16.813h5.219v4.281h6v34.156h-6v4.281h18.844v4.438h6.188v24.719h-6.187v4.438h331.875v-4.281h-6v-34.156h6v-4.281h-31.656c9.309 0 16.813-7.472 16.813-16.781s-7.503-16.812-16.812-16.812h64.375a12.01 12.01 0 0 0 12.031-12.031V777.581c0-6.663-5.368-12-12.031-12H567.762zm-56.344 188.125c-.297.594-.582 1.199-.781 1.844-.36 1.163-.531 2.403-.531 3.688s.171 2.524.531 3.688c.24.776.558 1.518.938 2.219a12.27 12.27 0 0 1-.937-2.219c-.361-1.163-.562-2.403-.562-3.687 0-.429.02-.833.063-1.25.084-.833.259-1.662.5-2.437.12-.388.25-.755.406-1.125.107-.252.251-.476.375-.719zm48.281 74.937c.447.656.81 1.355 1.125 2.094.158.369.316.738.438 1.125s.199.784.281 1.188a12.18 12.18 0 0 0-1.844-4.406zm1.844 9.406c-.165.806-.406 1.604-.719 2.344a12.16 12.16 0 0 1-1.125 2.094 12.18 12.18 0 0 0 1.125-2.094c.312-.74.555-1.537.719-2.344z" fill-opacity=".098"/><path d="M487.97 942.443a16.77 16.77 0 1 0 0 33.608h155.25v-4.448h-79.077c-6.852 0-12.387-5.504-12.387-12.356s5.535-12.356 12.387-12.356h79.077v-4.448H487.97z" fill="url(#B)"/><path d="M564.135 946.878a12.34 12.34 0 1 0 0 24.737h72.873v-24.737z" class="G"/><path d="M563.454 942.443a16.77 16.77 0 1 0 0 33.608h79.756v-4.448h-79.077a12.3 12.3 0 0 1-8.742-3.614 12.25 12.25 0 0 1 0-17.483 12.74 12.74 0 0 1 .865-.803c2.136-1.762 4.879-2.811 7.877-2.811h79.077v-4.448h-79.756z" class="D"/><g class="H"><use xlink:href="#H"/><use xlink:href="#I"/><use xlink:href="#I" y="3.089"/><use xlink:href="#H" y="9.328"/><use xlink:href="#H" y="12.417"/><use xlink:href="#I" y="12.417"/></g><path d="M573.754 942.424v21.614c0 6.663 5.383 12.003 12.046 12.003h57.404v-4.436h-6.175v-24.701h6.175v-4.479h-69.451z" class="e"/><path d="M483.091 926.79a9.98 9.98 0 0 0-10 10v30a9.98 9.98 0 0 0 10 10h226.188v-5H586.435c-3.324 0-6-2.676-6-6v-28c0-3.324 2.676-6 6-6h122.844v-5H483.091z" fill="url(#C)" transform="matrix(-.854077 0 0 .854077 1098.9624 184.50056)"/><path d="M598.1 980.321h-98.91v34.163h98.91c2.839 0 5.124-2.286 5.124-5.124v-23.914c0-2.839-2.286-5.124-5.124-5.124z" class="G"/><path d="M599.751 976.05c4.732 0 8.541 3.809 8.541 8.541v25.622c0 4.732-3.809 8.541-8.541 8.541H493.178v-4.27h104.918c2.839 0 5.124-2.285 5.124-5.124v-23.914c0-2.839-2.286-5.124-5.124-5.124H493.178v-4.27h106.573z" fill="#31346f"/><g class="H"><use xlink:href="#J"/><use xlink:href="#K"/><use xlink:href="#K" y="2.669"/><use xlink:href="#K" y="5.338"/><use xlink:href="#J" y="10.622"/><use xlink:href="#K" y="10.649"/><use xlink:href="#J" y="15.96"/><use xlink:href="#K" y="15.961"/><use xlink:href="#K" y="18.63"/><use xlink:href="#K" y="21.299"/><use xlink:href="#J" y="26.583"/></g><path d="M501.235 1000.663c10.9 0 19.675 8.775 19.675 19.675s-8.775 19.675-19.675 19.675H319.46v-5.208h92.587c8.023 0 14.503-6.444 14.503-14.467s-6.48-14.467-14.503-14.467H319.46v-5.208h181.775z" fill="url(#D)" transform="matrix(.854077 0 0 .854077 239.17473 164.11086)"/><path d="M591.103 1023.19a12.34 12.34 0 1 1 0 24.737H518.23v-24.737z" class="G"/><path d="M591.784 1018.754a16.77 16.77 0 1 1 0 33.608h-79.756v-4.448h79.077a12.3 12.3 0 0 0 8.742-3.614 12.25 12.25 0 0 0 0-17.483l-.865-.803c-2.136-1.762-4.879-2.811-7.877-2.811h-79.077v-4.448h79.756z" fill="#0089c8"/><g class="H"><use xlink:href="#L"/><use xlink:href="#M"/><use xlink:href="#M" y="3.089"/><use xlink:href="#L" y="9.329"/><use xlink:href="#L" y="12.418"/><use xlink:href="#M" y="12.418"/></g><path d="M633.347 976.036v4.459h6.189v24.724h-6.189v4.429h-6.28a8.55 8.55 0 0 0-8.555 8.555v25.604a8.55 8.55 0 0 0 8.555 8.555H820.25v-4.277H715.316a5.12 5.12 0 0 1-5.127-5.127v-23.905a5.12 5.12 0 0 1 5.127-5.127H820.25v-4.277h-31.671c9.309 0 16.806-7.497 16.806-16.806s-7.497-16.806-16.806-16.806H633.347zm91.191 14.319c.082.403.17.827.212 1.244a12.11 12.11 0 0 1 .061 1.244 12.71 12.71 0 0 1-.061 1.274c-.042.417-.13.841-.212 1.244.164-.807.243-1.661.243-2.518s-.078-1.681-.243-2.488z" class="e"/><path d="M812.263 976.051a16.77 16.77 0 1 1 0 33.608h-155.25v-4.448h79.077c6.852 0 12.387-5.504 12.387-12.356s-5.535-12.356-12.387-12.356h-79.077v-4.448h155.25z" fill="url(#E)"/><path d="M736.098 980.486a12.34 12.34 0 1 1 0 24.737h-72.874v-24.737z" class="G"/><path d="M736.779 976.05a16.77 16.77 0 1 1 0 33.608h-79.757v-4.448H736.1a12.3 12.3 0 0 0 8.742-3.614 12.25 12.25 0 0 0 0-17.483l-.865-.803c-2.136-1.762-4.879-2.811-7.877-2.811h-79.077v-4.448h79.757z" fill="#b7215a"/><g class="H"><use xlink:href="#M" x="144.996" y="-45.824"/><use xlink:href="#M" x="144.996" y="-42.704"/><use xlink:href="#M" x="144.996" y="-39.615"/><use xlink:href="#M" x="144.996" y="-36.495"/><use xlink:href="#M" x="144.996" y="-33.406"/><use xlink:href="#M" x="144.996" y="-30.286"/></g><path d="M650.717 1009.658c-4.732 0-8.541 3.809-8.541 8.541v25.622c0 4.732 3.809 8.541 8.541 8.541h193.182v-4.271H738.981c-2.839 0-5.124-2.285-5.124-5.124v-23.914c0-2.839 2.285-5.124 5.124-5.124h104.918v-4.27H650.717z" fill="url(#F)"/><path d="M738.983 1013.929h98.911v34.163h-98.911c-2.839 0-5.124-2.285-5.124-5.124v-23.914c0-2.839 2.286-5.125 5.124-5.125z" class="G"/><path d="M737.332 1009.658c-4.732 0-8.541 3.809-8.541 8.541v25.622c0 4.732 3.809 8.541 8.541 8.541h106.573v-4.271H738.986c-2.839 0-5.125-2.285-5.125-5.124v-23.914c0-2.839 2.286-5.125 5.125-5.125h104.918v-4.27H737.332z" fill="#0089c8"/><g class="H"><use xlink:href="#N"/><use xlink:href="#O"/><use xlink:href="#N" y="5.312"/><use xlink:href="#N" y="7.981"/><use xlink:href="#O" y="7.98"/><use xlink:href="#O" y="10.649"/><use xlink:href="#O" y="13.318"/><use xlink:href="#O" y="15.96"/><use xlink:href="#O" y="18.629"/><use xlink:href="#O" y="21.298"/><use xlink:href="#O" y="23.941"/></g><path d="M609.451 765.565h267.173a12 12 0 0 1 12.028 12.028v186.429a12 12 0 0 1-12.028 12.028H609.451a12 12 0 0 1-12.028-12.028V777.593a12 12 0 0 1 12.028-12.028z" fill="#363942"/><path d="M610.053 771.579h265.97a6.6 6.6 0 0 1 6.615 6.615v185.227a6.6 6.6 0 0 1-6.615 6.615h-265.97a6.6 6.6 0 0 1-6.615-6.615V778.194a6.6 6.6 0 0 1 6.615-6.615z" fill="url(#G)"/><path d="M610.055 770.964c-3.988 0-7.217 3.229-7.217 7.217v185.227c0 3.988 3.229 7.217 7.217 7.217h265.963c3.988 0 7.217-3.229 7.217-7.217V778.181c0-3.988-3.229-7.217-7.217-7.217H610.055zm0 .62h265.963a6.6 6.6 0 0 1 6.615 6.615v185.227a6.6 6.6 0 0 1-6.615 6.615H610.055a6.6 6.6 0 0 1-6.615-6.615V778.199a6.6 6.6 0 0 1 6.615-6.615z"/><g transform="matrix(1.391621 0 0 1.391621 -101.01999 -276.69646)"><path d="M506.213 800.812h66.877v47.536h-66.877z" class="M"/><path d="M531.273 813.914h17.299v23.266h-17.299z" class="I"/><path d="M551.255 824.06c-.091 2.18-1.38 17.135-3.233 17.471-.457.083-3.846-.609-3.695-1.228 2.001-8.214 3.613-12.14 3.613-19.58 0-7.149-6.112-15.736-8.265-16.441 4.603-3.601 12.16 5.751 11.58 19.778z" fill="#665044"/><g class="B"><path d="M549.756 848.348h-20.175l-.76-2.035s-5.106-5.91-4.934-6.867c.375-2.088.854-3.693 1.481-4.334 2.86-2.931 8.334-1.73 10.229-3.626s.979-8.391.979-8.391h6.185s-.917 6.495.979 8.391 7.368.695 10.229 3.626c.611.627 1.083 2.171 1.454 4.188.149.813-4.908 7.013-4.908 7.013s-.326.796-.76 2.035z"/><path d="M551.09 848.348l-.423-2.222c-.137-1.306 2.725-6.396 4.565-7.784.619 2.426 1.13 6.209 1.558 10.006h-5.7zm-22.844 0h-5.699c.428-3.797.939-7.58 1.558-10.006 1.84 1.388 4.701 6.478 4.564 7.784-.032.296-.191 1.112-.423 2.222z"/></g><path d="M550.696 848.348h-22.089v-1.583l-6.372-7.398s2.662-4.442 3.785-5.186 6.131-1.686 6.131-1.686l7.501.162 7.501-.162s5.007.942 6.131 1.686 3.785 5.186 3.785 5.186l-6.372 7.398v1.583z" class="N"/><path d="M533.393 835.764s1.745 1.549 3.017 1.781c1.258.23 2.753.323 2.981.308-.534.095-2.833.264-4.32-.448-1.323-.633-1.679-1.641-1.679-1.641zm-.87-3.246c.466 0 5.626 1.358 8.031 1.513s4.679-.272 5.774-.757c-.847.621-3.474 1.873-5.987 1.804-3.55-.097-4.565-.864-6.835-2.024l-.983-.536z" fill="#b7215b"/><path d="M532.151 832.497c.662-.125 2.917-.446 6.77.318 4.494.89 6.716-.801 8.231-.318-.072.227-1.557 1.86-4.79 1.86s-5.425-.448-7.133-1.017c-1.479-.493-3.078-.842-3.078-.842z" class="E"/><path d="M530.018 818.869c.287 1.4 1.618 2.689 2.725 2.467s.124-4.771-1.039-5.067c-1.569-.402-1.973 1.201-1.686 2.6z" class="O"/><path d="M530.542 818.609c.204.994 1.15 1.91 1.936 1.752s.088-3.389-.738-3.6c-1.115-.284-1.401.854-1.197 1.848z" fill="#ebbb8d"/><path d="M549.573 818.869c-.287 1.4-1.618 2.689-2.725 2.467s-.124-4.771 1.039-5.067c1.569-.402 1.973 1.201 1.686 2.6z" class="O"/><path d="M549.049 818.609c-.204.994-1.15 1.91-1.935 1.752s-.089-3.389.737-3.6c1.115-.284 1.402.854 1.197 1.848z" fill="#ebbb8d"/><path d="M531.273 816.521c0 6.022 4.631 11.882 8.522 11.882s8.522-5.859 8.522-11.882-3.815-9.352-8.522-9.352-8.522 3.33-8.522 9.352z" class="O"/><path d="M539.955 804.063c-6.73-2.854-10.544 7.777-11.191 10.784-1.562 7.254 1.716 14.821-2.04 20.787-2.297 3.649 5.083 5.774 7.527 2.343-2.14.342-3.77-1.08-1.266-5.78 3.66-6.867-6.083-11.819 6.656-23.351 3.788 3.293 7.614 3.663 8.677 7.358 3.647-7.227-6.71-12.911-8.363-12.143z" fill="#665044"/><path d="M546.746 833.303c-1.072 1.124-2.559 2.841-6.892 3.733-3.702.763-4.928-.137-4.928-.137s1.493 1.308 5.647.87c3.737-.392 5.564-3.652 6.172-4.467zm-13.889.255v.098s.777 1.652 2.28 2.253c1.786.714 3.279.4 3.736.142-4.35 0-5.689-2.057-6.016-2.493zm-4.25 13.208l-6.104-7.982-.595.776 6.699 7.501zm22.087 0l6.104-7.982.595.776-6.699 7.501z" class="E"/><path d="M510.969 753.268c-2.634 0-4.75 2.116-4.75 4.75V800.8h66.875v-47.531h-62.125z" class="P"/><path d="M543.908 783.104c-1.991-1.99-1.028-8.81-1.028-8.81h-6.494s.963 6.82-1.028 8.81c-.566.566-1.434.868-2.456 1.083v14.345h13.499v-14.338c-1.038-.215-1.921-.518-2.493-1.09z" class="Q"/><path d="M554.625 786.852c-1.726-1.44-9.013-2.888-9.013-2.888s-.94 3.6-2.537 7.408c-1.845 4.396-3.425 6.023-3.425 6.023s-1.58-1.628-3.425-6.023c-1.598-3.808-2.537-7.408-2.537-7.408s-7.286 1.448-9.012 2.888c-2.397 2.001-3.316 13.96-3.316 13.96h36.58c0 .001-.919-11.96-3.315-13.96z" class="R"/><path d="M542.055 785.945c-.168.233.039 1.754.039 1.754s-.353.244-.304 1.765c.033 1.029.48 4.201-2.139 7.931 2.306-2.588 4.063-5.943 4.356-7.914l-1.953-3.536z" fill="#007bb4"/><path d="M544.218 790.173s.678-1.286 1.056-2.962c.439-1.946.339-3.248.339-3.248l-2.704-3.073c.279 1.001.053 3.407-.854 5.055l2.163 4.228zm6.587 8.243l-3.534.66-3.527-.66v-1.862h7.061z" fill="#07d3ff"/><use xlink:href="#P" class="S"/><path d="M535.559 798.416l-3.533.66-3.528-.66v-1.862h7.061z" fill="#07d3ff"/><use xlink:href="#P" x="-15.246" class="S"/><path d="M537.247 785.945c.168.233-.038 1.754-.038 1.754s-.373.991-.348 2.661c.027 1.75 1.246 5.25 2.79 7.034-2.306-2.588-4.063-5.943-4.356-7.914l1.952-3.536z" fill="#007bb4"/><path d="M535.085 790.173s-.678-1.286-1.057-2.962c-.439-1.946-.339-3.248-.339-3.248l2.705-3.073c-.28 1.001-.054 3.407.853 5.055l-2.162 4.228z" fill="#c9bead"/><path d="M540.18 798.093a.472.472 0 1 1-.944 0 .472.472 0 1 1 .944 0zm2.282-4.519c.216.068.328.324.25.573s-.316.395-.532.328-.328-.324-.25-.573.316-.395.532-.328zm-.104-5.321c.173.02.289.246.26.505s-.194.453-.367.433-.289-.246-.26-.505.194-.453.367-.433z" class="S"/><path d="M534.332 792.331c-.227.675-.219 1.465.188 2.05s1.668.834 2.673.117c-1.045 4.35-8.213 3.269-9.077-2.055-.42-2.592-.079-5.437 1.846-7.224.716-.665 1.566-1.17 2.302-1.814s1.377-1.484 1.464-2.457c.078-.869-.529-4.699.364-6.181.268-.444 1.475 1.404 1.761 1.834-.962 2.032 1.548 4.867 1.492 8.514-.05 3.236-2.779 6.519-3.013 7.216z" class="T"/><path d="M549.496 770.089c-.295 1.44-1.665 2.767-2.804 2.539s-.127-4.909 1.07-5.215c1.615-.413 2.03 1.236 1.734 2.676z" class="U"/><path d="M548.957 769.821c-.21 1.022-1.183 1.965-1.991 1.803s-.091-3.487.76-3.705c1.147-.293 1.441.878 1.232 1.902z" class="Q"/><path d="M529.374 770.089c.295 1.44 1.665 2.767 2.804 2.539s.127-4.909-1.069-5.215c-1.615-.413-2.03 1.236-1.735 2.676z" class="U"/><path d="M529.912 769.821c.21 1.022 1.183 1.965 1.991 1.803s.091-3.487-.759-3.705c-1.147-.293-1.442.878-1.232 1.902z" class="Q"/><path d="M548.204 767.672c0 6.196-4.765 12.226-8.769 12.226s-8.769-6.03-8.769-12.226 3.926-9.622 8.769-9.622 8.769 3.426 8.769 9.622z" class="U"/><path d="M549.481 768.014c1.924-5.271-5.383-15.603-10.722-11.801-6.501-3.558-12.061 8.625-10.092 13.204 1.972-2.123 9.905-9.749 9.905-9.749l7.4 5.566 3.508 2.78z" fill="#312219"/><g class="T"><path d="M545.263 765.027c.933.659 1.878 1.328 2.607 2.209s1.228 2.009 1.113 3.146c-.126 1.248-.947 2.296-1.497 3.423s-.771 2.641.134 3.509c.188-2.593 2.342-4.721 2.554-7.313.16-1.952-.844-3.858-2.254-5.216s-3.194-2.254-4.97-3.08l-4.379-2.037 6.691 5.359z"/><path d="M534.295 763.974c-1.812 1.354-3.394 3.103-4.193 5.219s-.726 4.628.524 6.513l1.197 1.661c.346.588.559 1.306.349 1.955a1.69 1.69 0 0 1-1.397 1.132 1.69 1.69 0 0 1-1.602-.819c.328.392 1.034.232 1.292-.209s.155-1.016-.1-1.459-.639-.793-.975-1.178c-1.76-2.017-2.114-5.021-1.299-7.571s2.664-4.67 4.818-6.26c1.296-.957 4.951-2.792 5.663-3.292-1.263 2.404-3.452 3.69-4.278 4.307z"/></g><path d="M506.219 848.362v42.781c0 2.633 2.116 4.75 4.75 4.75h62.125v-47.531h-66.875z" class="P"/><path d="M559.037 895.885l-.348-2.429-1.292-6.846c-.574-2.744-1.954-4.117-3.853-4.712l-5.104-1.483-4.014-.953c-.244-.074-.391-.223-.458-.375-1.912 1.845-4.316 2.621-4.316 2.621s-2.404-.776-4.316-2.621c-.067.151-.215.301-.458.375-.798.243-2.312.517-4.014.953l-5.104 1.483c-1.899.594-3.279 1.968-3.853 4.712l-1.292 6.846-.348 2.429h38.771z" fill="#79daef"/><path d="M544.054 879.153c-.522-1.186-.534-4.412-.534-4.412h-7.74s-.012 3.227-.534 4.412l4.404 2.672 4.404-2.672z" class="F"/><path d="M539.755 879.813c-.057.005-.103.061-.103.127 0-.067-.046-.122-.103-.127-.532.599-1.327 1.325-1.435 1.448 1.002.595 1.538.766 1.538.766s.536-.17 1.538-.766c-.107-.122-.903-.848-1.435-1.448z" fill="#79daef"/><path d="M537.058 882.691c-1.521-1.603-2.18-3.231-2.18-3.231l.772-2.316s.503 2.541 3.898 2.669c-.149.136-.987 1.22-2.49 2.878zm5.184 0c1.521-1.603 2.18-3.231 2.18-3.231l-.773-2.316s-.503 2.541-3.898 2.669c.149.136.988 1.22 2.491 2.878z" fill="#57d1eb"/><path d="M548.377 868.675c-.427 1.326-1.41 2.17-2.196 1.885s-1.077-1.591-.65-2.917 1.41-2.17 2.196-1.885 1.077 1.591.65 2.917zm-17.452 0c.427 1.326 1.41 2.17 2.196 1.885s1.077-1.591.65-2.917-1.41-2.17-2.196-1.885-1.077 1.591-.65 2.917z" class="B"/><path d="M547.56 866.168c-.247-.029-.375-.049-.404.435l-.173 2.734c-.005.191.134.339.342.161.303-.259.574-.611.725-1.181.272-1.022-.055-2.097-.489-2.149zm-15.818 0c.247-.029.375-.049.404.435l.173 2.734c.004.191-.134.339-.342.161-.303-.259-.574-.611-.725-1.181-.272-1.022.055-2.097.489-2.149z" class="F"/><path d="M539.651 855.892c6.365 0 7.576 4.114 7.397 9.775-.071 2.251-.238 3.924-.514 5.29-.484 2.396-.836 3.05-3.814 5.386-1.249.979-2.148.602-3.064.602s-1.825.377-3.075-.602c-2.978-2.335-3.33-2.989-3.814-5.386-.277-1.367-.443-3.039-.514-5.29-.179-5.661 1.032-9.775 7.397-9.775z" class="B"/><path d="M533.037 858.019c.689-2.383 2.857-3.688 6.621-3.688 4.915 0 6.986 2.275 7.706 4.738.749 2.56.529 3.67.362 6.688l-.449-.056-.289 1.856h-.321s.397-5.548-.355-6.613c-.156-.222-3.869.691-6.274.401-1.882-.227-4.868-2.473-5.876-1.705-2.08 1.584-1.513 7.917-1.513 7.917h-.382l-.323-1.856-.369.056c-.422-2.448-.66-6.688 1.461-7.739z" fill="#d8d6d6"/><path d="M546.916 866.044l-.007-.044-.033-.032c-.532-.512-3.38-.669-4.985-.392-.571.098-.965.244-1.178.435-.175-.058-.627-.192-1.064-.192s-.889.134-1.064.192c-.213-.191-.606-.337-1.178-.435-1.604-.276-4.453-.12-4.985.392l-.033.032-.006.044c-.086.575-.022 1.407.168 2.17.123.493.399 1.366.882 1.674.385.246 1.193.405 2.036.405.767 0 1.563-.132 2.098-.449.999-.593 1.421-2.57 1.231-3.437a3.16 3.16 0 0 1 .851-.146c.321 0 .666.09.851.146-.189.867.231 2.844 1.231 3.437.535.317 1.331.449 2.098.449.843 0 1.651-.16 2.036-.405.482-.308.76-1.181.882-1.674.19-.763.254-1.594.168-2.17zm-9.456 3.581c-1.008.597-3.116.464-3.768.047-.621-.397-1.06-2.341-.915-3.451.479-.358 2.956-.573 4.615-.288.86.148 1.055.368 1.098.456.254.506-.049 2.655-1.03 3.236zm8.15.047c-.652.416-2.76.55-3.768-.047-.981-.581-1.284-2.73-1.03-3.237.044-.088.238-.307 1.098-.456 1.659-.285 4.137-.07 4.615.288.145 1.11-.293 3.055-.914 3.452z" fill="#3b3a3c"/><g fill="#edebeb"><path d="M539.492 870.986c-.69-.17-1.271.168-1.892.422-.696.285-1.13.525-2.038.638.573.3 1.361.416 2.151.419s1.763.015 2.023-.269c.356-.391.322-1.071-.244-1.21z"/><path d="M539.98 870.986c.69-.17 1.27.168 1.892.422.696.285 1.13.525 2.038.638-.573.3-1.361.416-2.152.419s-1.763.015-2.023-.269c-.356-.391-.322-1.071.244-1.21z"/></g><path d="M558.714 893.456l-1.292-6.846c-.574-2.744-1.978-4.143-3.877-4.738l-5.104-1.483-3.369-.798s-.178 4.568-5.443 4.568-5.398-4.568-5.398-4.568l-3.369.798-5.104 1.483c-1.899.595-3.303 1.993-3.877 4.738l-1.292 6.846-.323 2.429h38.77l-.322-2.429z" class="R"/><use xlink:href="#Q" class="V"/><use xlink:href="#Q" y="-47.536" class="P"/><use xlink:href="#Q" y="-95.072" class="V"/><path d="M619.086 824.523c-.186-.502-.036-1.07.222-1.539s.616-.874.891-1.333.466-1.007.338-1.526c-.232-.941-1.4-1.44-1.584-2.391-.131-.679.288-1.327.472-1.993.358-1.292-.189-2.677-.978-3.759s-1.818-1.973-2.626-3.042c-.891-1.18-1.51-2.573-2.565-3.609-1.279-1.256-3.166-1.82-4.931-1.579-.541.074-1.324.189-1.725.615-.401-.426-1.183-.541-1.724-.615-1.765-.241-3.651.323-4.931 1.579-1.055 1.036-1.674 2.429-2.565 3.609-.808 1.07-1.836 1.959-2.626 3.042s-1.336 2.468-.978 3.759c.184.666.603 1.314.472 1.993-.183.952-1.351 1.45-1.584 2.391-.128.519.063 1.067.338 1.526l.891 1.333c.258.469.289 1.009.222 1.539-.135 1.067.6 2.541 3.87 2.563 1.23.008 2.227 1.312 3.45 1.176.619-.069 4.068.501 5.166.236 1.097.265 4.548-.305 5.167-.236 1.222.137 2.234-.986 3.45-1.176.962-.15 1.933.302 2.901.2a2.63 2.63 0 0 0 2.25-2.143c-.48.237-1.096-.118-1.282-.62z" fill="#6b4c38"/><path d="M612.034 832.217c-.313-1.855-1.281-5.265-2.017-5.664-1.16-.628-3.181-.621-3.181-.621v7.604l5.199-1.319zm-11.063 0c.313-1.855 1.28-5.265 2.017-5.664 1.16-.628 3.181-.621 3.181-.621v7.604l-5.199-1.319z" fill="#6e286a"/><path d="M616.607 848.348h-20.175l-.76-2.035s-5.106-5.91-4.934-6.866c.375-2.088.854-3.693 1.481-4.335 2.861-2.931 8.334-1.73 10.23-3.625s.979-8.391.979-8.391h6.185s-.917 6.495.979 8.391 7.369.695 10.23 3.625c.611.627 1.083 2.172 1.454 4.189.15.813-4.908 7.012-4.908 7.012s-.326.796-.76 2.035z" class="F"/><path d="M617.942 848.348l-.423-2.222c-.137-1.306 2.725-6.396 4.564-7.784.62 2.426 1.13 6.209 1.558 10.006h-5.699zm-22.844 0h-5.699c.428-3.797.939-7.58 1.558-10.006 1.84 1.387 4.702 6.478 4.564 7.784-.031.295-.191 1.112-.423 2.222z" class="B"/><path d="M620.133 834.181c-.926-.613-4.496-1.362-5.718-1.605l-1.756-.306s-2.645 2.757-3.685 3.438-2.472 3.105-2.472 3.105l-6.157-6.543-1.757.306c-1.222.243-4.792.992-5.718 1.605-1.123.744-3.785 5.186-3.785 5.186l6.372 7.398v1.583h22.088v-1.583l6.372-7.398s-2.662-4.442-3.785-5.186z" class="J"/><path d="M589.848 838.142l-.305 1.754.286.332c.129-.991.308-1.976.556-2.913l-.536.827zm2.673-3.667a5.31 5.31 0 0 0-.416.434c-.428 2.086-.34 4.808-.309 7.604l.314.364c-.042-3.133-.138-6.245.411-8.402zm3.549 13.873c.34-5.897-.554-12.454-1.448-14.853l-.299.094c.804 2.357 1.78 8.835 1.434 14.759h.313zm9.41-.105l-.001.105h.31l.001-.103c.018-2.381.05-6.577-.077-10.27l-.322-.342c.14 3.764.107 8.156.089 10.611zm-12.141-7.222l-.045-7.057a3.12 3.12 0 0 0-.326.162c-.143 1.698-.044 4.243.061 6.907l.109 3.036.321.372-.119-3.421zm.646-7.319l-.297.108c.4 2.785.765 7.551.81 11.84l.313.364c-.017-4.438-.412-9.45-.826-12.312zm-2.954 2.64c-.353 1.512-.375 3.026-.456 4.753l.298.346c.086-2.123.15-4.037.66-5.781l-.503.682zm11.124 12.006c.086-4.003-.142-11.616-.892-15.102l-.425-.451c.847 3.12 1.099 11.347 1.006 15.554h.31zm1.213 0c.049-3.207-.029-9.364-.475-13.371l-.356-.378c.473 3.842.587 10.146.523 13.749h.308zm1.212 0c.035-2.946.016-7.941-.235-11.827l-.332-.353c.274 3.914.293 9.141.257 12.181h.31zm-6.071 0c.231-5.265-.435-12.925-1.594-15.416l-.31.071c1.066 2.211 1.844 9.789 1.593 15.345h.31zm2.432 0c.137-4.708-.271-13.333-1.343-15.95l-.313.054c1.003 2.325 1.5 10.884 1.347 15.895h.31zm-3.651 0c.284-5.576-.508-12.663-1.681-15.105l-.307.08c1.15 2.291 1.955 9.51 1.677 15.025h.311zm2.435 0c.179-4.947-.358-13.158-1.479-15.702l-.313.065c1.039 2.249 1.679 10.39 1.483 15.637h.309z" class="C"/><g class="D"><path d="M601.051 832.619c-.299 1.011-.813 2.92.754 3.374 1.607.465 1.837.127 4.697 2.82-.643-1.397-5.532-5.425-5.452-6.194z"/><path d="M600.906 833.218c.996-3.561 1.849-6.768 4.332-8.528-1.26 0-2.897.725-4.552 2.639l-5.768 6.955c1.648-1.356 4.05-2.035 5.988-1.066z"/></g><path d="M596.508 833.304a6.38 6.38 0 0 1 .692-.263c1.456-1.438 3.428-2.841 4.899-3.725l.178-.469c-1.664.962-4.176 2.73-5.769 4.456zm3.292-.458l.353.082c.32-.298.686-.547 1.044-.747l.117-.408c-.513.258-1.065.615-1.514 1.073zm-1.366-.058l.475-.023c.832-.764 1.828-1.444 2.687-1.942l.137-.435c-1.024.567-2.31 1.428-3.299 2.4zm2.025-5.191l-.85 1.003 4-2.688-.155-.269c-.857.495-1.893 1.172-2.995 1.955zm-3.89 4.69c1.945-1.764 4.432-3.571 6.252-4.651l.282-.521c-1.329.746-3.427 2.158-5.384 3.765l-1.15 1.407z" class="J"/><path d="M595.458 846.765l-6.505-8.043-1.185 2.311c3.556 4.266 7.674 6.933 7.674 6.933l.016-1.201zm11.543-.314h-1.052v-8.37l.554.731.498-.731z" class="D"/><path d="M623.158 838.142l.305 1.754-.286.332c-.129-.991-.308-1.976-.556-2.913l.537.827zm-2.674-3.667a5.31 5.31 0 0 1 .416.434c.428 2.086.34 4.808.309 7.604l-.314.364c.042-3.133.139-6.245-.411-8.402zm-3.549 13.873c-.34-5.897.554-12.454 1.448-14.853l.299.094c-.804 2.357-1.78 8.835-1.434 14.759h-.313zm-9.41-.105l.001.105h-.31v-.103c-.018-2.381-.015-7.015.11-10.708l.322-.342c-.14 3.762-.141 8.593-.122 11.048zm12.142-7.222l.045-7.057a3.12 3.12 0 0 1 .326.162c.143 1.698.044 4.243-.061 6.907l-.109 3.036-.321.372.119-3.421zm-.647-7.319l.297.108c-.4 2.785-.765 7.551-.81 11.84l-.313.364c.018-4.438.412-9.45.826-12.312zm2.954 2.64c.353 1.512.375 3.026.456 4.753l-.298.346c-.085-2.123-.15-4.037-.66-5.781l.503.682zm-11.124 12.006c-.086-4.003.142-11.616.892-15.102l.425-.451c-.847 3.12-1.099 11.347-1.006 15.554h-.311zm-1.212 0c-.049-3.207.029-9.364.476-13.371l.356-.378c-.473 3.842-.587 10.146-.523 13.749h-.309zm-1.213 0c-.035-2.946.02-8.472.272-12.359l.332-.353c-.273 3.914-.33 9.673-.294 12.711h-.31zm6.071 0c-.232-5.265.435-12.925 1.594-15.416l.31.071c-1.066 2.211-1.844 9.789-1.593 15.345h-.31zm-2.433 0c-.137-4.708.271-13.333 1.343-15.95l.314.054c-1.004 2.325-1.501 10.884-1.347 15.895h-.31zm3.652 0c-.285-5.576.508-12.663 1.681-15.105l.307.08c-1.15 2.291-1.955 9.51-1.677 15.025h-.311zm-2.435 0c-.179-4.947.358-13.158 1.479-15.702l.313.065c-1.039 2.249-1.679 10.39-1.483 15.637h-.309z" class="C"/><g class="D"><path d="M611.954 832.619c.299 1.011.251 1.093-.857 1.772-1.427.873-2.905 1.862-4.594 4.423 1.676-3.575 5.531-5.426 5.451-6.195z"/><path d="M612.099 833.218c-.996-3.561-1.849-6.768-4.332-8.528 1.26 0 2.897.725 4.552 2.639l5.768 6.955c-1.647-1.356-4.049-2.035-5.988-1.066z"/></g><path d="M616.497 833.304a6.38 6.38 0 0 0-.692-.263c-1.456-1.438-3.428-2.841-4.899-3.725l-.178-.469c1.665.962 4.176 2.73 5.769 4.456zm-3.292-.458l-.353.082c-.32-.298-.686-.547-1.044-.747l-.117-.408c.513.258 1.065.615 1.514 1.073zm1.366-.058l-.475-.023c-.832-.764-1.828-1.444-2.687-1.942l-.137-.435c1.023.567 2.31 1.428 3.299 2.4zm-2.025-5.191l.85 1.003-4-2.688.155-.269c.857.495 1.893 1.172 2.995 1.955zm3.889 4.69c-1.945-1.764-4.432-3.571-6.252-4.651l-.282-.521c1.33.746 3.427 2.158 5.384 3.765l1.15 1.407z" class="J"/><path d="M617.547 846.765l6.505-8.043 1.185 2.311c-3.556 4.266-7.674 6.933-7.674 6.933l-.015-1.201z" class="D"/><path d="M596.697 818.589c.292 1.422 1.644 2.733 2.769 2.507s.126-4.848-1.056-5.15c-1.594-.408-2.004 1.221-1.713 2.643z" class="W"/><path d="M597.229 818.325c.207 1.01 1.168 1.941 1.967 1.781s.089-3.443-.75-3.658c-1.132-.291-1.423.867-1.217 1.877z" fill="#e2a268"/><path d="M616.568 818.589c-.292 1.422-1.644 2.733-2.769 2.507s-.126-4.848 1.056-5.15c1.594-.408 2.004 1.221 1.713 2.643z" class="W"/><path d="M616.036 818.325c-.207 1.01-1.168 1.941-1.967 1.781s-.089-3.443.75-3.658c1.132-.291 1.423.867 1.217 1.877z" fill="#e2a268"/><path d="M597.973 816.204c0 6.119 4.705 12.074 8.66 12.074s8.66-5.954 8.66-12.074-3.877-9.503-8.66-9.503-8.66 3.383-8.66 9.503z" class="W"/><path d="M606.094 815.759c-1.981-.143-2.441-1.549-8.147-.397v1.055c.914.422 0 4.044 4.396 4.044 4.027 0 2.919-3.552 4.291-3.534 1.371-.017.264 3.534 4.291 3.534 4.396 0 3.481-3.622 4.396-4.044v-1.055c-5.815-1.173-6.182.308-8.261.404-.135.006-.798.005-.965-.007zm-3.945 4.35c-2.515-.106-3.64-2.012-2.866-3.605s5.819-1.232 6.101.124c.351 1.687-.721 3.586-3.235 3.481zm8.967 0c-2.515.106-3.587-1.793-3.235-3.481.282-1.355 5.328-1.716 6.101-.124s-.351 3.499-2.866 3.605z" fill="#3e494c"/><g fill="#6b4c38"><path d="M607.408 805.556c2.741.222 5.306 1.586 7.319 3.461 1.08 1.006 2.046 2.211 2.407 3.642.248.98.197 2.01.071 3.013a20.49 20.49 0 0 1-1.715 6c-.253-1.294-.518-2.595-1.022-3.815s-1.261-2.364-2.336-3.127c-1.242-.883-2.873-1.246-3.841-2.422-.507-.616-.811-1.434-1.497-1.842-.698-.416-1.574-.281-2.386-.276-.825.006-4.81-.66-4.113-1.936.724-1.325 2.907-2.165 4.276-2.484a9.23 9.23 0 0 1 2.836-.212z"/><path d="M599.307 812.887c-1.021.83-1.336 2.987-1.336 2.987l-.145-.01s-.512-2.865-.181-4.234c.195-.806 1.291-3.546 2.436-3.322 1.464.287.824 3.278-.775 4.579z"/></g><path d="M603.313 811.403c1.184.227 2.576-.228 3.502.543.719.598.88 1.688 1.611 2.27.652.519 1.564.495 2.38.659 1.322.266 2.52 1.117 3.18 2.293s.759 2.657.234 3.898c-.3.711-.785 1.325-1.203 1.973s-.785 1.368-.802 2.139.405 1.596 1.138 1.834 1.671-.369 1.579-1.135c-.426.348-1.104-.155-1.136-.704s.322-1.036.633-1.49c1.083-1.576 1.876-3.437 1.781-5.347s-1.241-3.842-3.051-4.46c-1.04-.354-2.265-.294-3.106-1-1.106-.929-1.398-2.486-2.658-3.193-2.641-1.483-3.245.913-7.313-1.375.608 1.228.811 2.63 3.23 3.094z" fill="#785844"/><g fill="#e8eaea"><use xlink:href="#R"/><use xlink:href="#R" y="-3.243"/><use xlink:href="#R" y="-6.486"/></g><path d="M596.859 841.752h6.363v.941h-6.363zm12.926 0h6.363v.941h-6.363z" class="D"/><g fill="#d81c2e"><path d="M606.528 784.109v-4.504s3.365-.074 4.647 1.57.719 2.935.719 2.935h-5.365z"/><path d="M606.528 784.109v-4.504s-3.364-.074-4.646 1.57-.719 2.935-.719 2.935h5.365z"/></g><path d="M611.362 783.958c-1.025-1.072-.834-4.999-.834-4.999h-7.999s.185 3.737-.866 4.959l4.866 6.855 4.833-6.814z" class="X"/><path d="M626.563 800.812l-.36-2.511-1.335-7.076c-.594-2.836-2.019-4.255-3.982-4.87l-5.275-1.533-4.149-.985-4.934 3.749-4.934-3.749-4.149.985-5.275 1.533c-1.963.614-3.389 2.034-3.982 4.87l-1.335 7.076-.36 2.511h40.068z" fill="#eaeae1"/><path d="M588.19 791.226l-.364 1.869h37.407l-.364-1.869a9.51 9.51 0 0 0-.356-1.266h-35.968a9.43 9.43 0 0 0-.355 1.266zm-1.335 7.075l-.154 1.063h39.658l-.154-1.063-.38-2.072h-38.591l-.38 2.072zm28.757-13.478l-4.149-.985-3.931 2.987h14.459a5.97 5.97 0 0 0-1.105-.469l-5.275-1.533zm-18.166 0l-5.275 1.533a5.97 5.97 0 0 0-1.105.469h14.46l-3.931-2.987c-.001 0-2.389.534-4.149.985z" fill="#92898e"/><g fill="#7b7b7b"><path d="M600.7 784.036l5.828 4.813v-1.267l-4.933-3.749-.895.203z"/><path d="M612.356 784.036l-5.828 4.813v-1.267l4.934-3.749.895.203z"/></g><path d="M606.531 759.186c-6.477 0-7.709 4.252-7.527 10.103.072 2.327.425 4.055.706 5.468.493 2.477.667 3.152 3.697 5.565 1.271 1.012 2.191 1.163 3.124 1.163s1.852-.15 3.123-1.163c3.031-2.413 3.204-3.089 3.697-5.565.282-1.413.634-3.141.706-5.468.181-5.851-1.051-10.103-7.527-10.103z" fill="#6c4f37"/><path d="M614.191 762.655c-.159-.413-.393-.855-.825-1.27-.713-2.463-2.954-3.812-6.843-3.812-5.08 0-6.913 2.34-7.658 4.886-.774 2.647-.549 4.412-.376 7.53.169 0 .221.033.342-.006.354-.19.507-1.085.715-2.488.03-.205.272-1.767.862-2.909a.62.62 0 0 1 .674-.331c1.08.229 2.561.865 5.047.566 1.945-.235 4.489-1.466 5.606-.782.72.44 1.404 1.209 1.78 3.455.234 1.399.35 2.298.703 2.488.125.054.239.054.357.072.186-2.535.372-5.435-.385-7.402z" class="K"/><path d="M597.513 772.7c.441 1.37 1.457 2.243 2.269 1.948s1.114-1.645.673-3.015-1.458-2.243-2.27-1.948-1.114 1.644-.672 3.015zm18.036 0c-.441 1.37-1.457 2.243-2.269 1.948s-1.114-1.645-.673-3.015 1.458-2.243 2.27-1.948 1.114 1.644.672 3.015z" fill="#6c4f37"/><path d="M598.357 770.109c.255-.031.387-.051.418.45l.18 2.825c.004.197-.139.351-.354.167-.313-.268-.593-.632-.75-1.221-.282-1.056.056-2.167.506-2.221z" class="X"/><path d="M599.54 767.496s-.262 1.422-.262 3.499v1.95h-.332l-.293-3.686c.222-.344.886-1.763.886-1.763z" class="K"/><path d="M614.704 770.109c-.255-.031-.387-.051-.418.45l-.179 2.825c-.005.197.138.351.353.167.313-.268.593-.632.75-1.221.282-1.056-.056-2.167-.506-2.221z" class="X"/><path d="M613.505 767.496s.262 1.422.262 3.499v1.95h.395l.23-3.686c-.222-.344-.886-1.763-.886-1.763zm-6.974 7.293c-3.889 0-3.166 4.955-3.166 4.955 0 1 .906 1.811 2.022 1.811h2.287c1.117 0 2.022-.811 2.022-1.811.001 0 .723-4.955-3.165-4.955zm0 3.057c-1.594 0-2.023.302-2.023-.516s.906-1.48 2.023-1.48h0c1.117 0 2.022.662 2.022 1.48s-.428.516-2.022.516z" class="K"/><path d="M626.563 800.812l-.36-2.511-1.335-7.076c-.594-2.836-2.019-4.255-3.982-4.87l-5.275-1.533-2.077-.53s-2.165 2.642-2.879 4.561-1.475 4.891-1.475 4.891l-.199 7.068h17.582zm-40.07 0l.36-2.511 1.335-7.076c.594-2.836 2.019-4.255 3.982-4.87l5.274-1.533 2.077-.53s2.164 2.642 2.879 4.561 1.475 4.891 1.475 4.891l.199 7.068h-17.582z" class="N"/><g class="E"><use xlink:href="#S"/><use xlink:href="#S" x="-0.189" y="-5.69"/><path d="M611.531 787.862c.25-.403 4.034-.253 4.034-.253l-2.029-3.389-2.362-3.046s.103 3.253-.658 5.374c-.655 1.826-1.339 7.203-1.339 7.203s.855-3.469 2.353-5.889zm-10.005 0c-.25-.403-4.034-.253-4.034-.253l2.029-3.389 2.362-3.046s-.103 3.253.658 5.374c.655 1.826 1.339 7.203 1.339 7.203s-.855-3.469-2.353-5.889zm9.659 4.679v5.235a1.54 1.54 0 0 0 .844 1.374l2.245 1.136 2.258-1.137a1.54 1.54 0 0 0 .847-1.375v-5.233h-6.194z"/></g><g fill="#353333"><path d="M601.872 877.969c.593-.384 1.828-1.427 4.643-1.427V880h-4.989l.346-2.031z"/><path d="M611.16 877.969c-.593-.384-1.828-1.427-4.644-1.427V880h4.989l-.345-2.031z"/></g><path d="M610.726 878.834c-1.917-1.917-.99-8.484-.99-8.484h-6.254s.927 6.567-.99 8.484c-.544.544-1.38.836-2.364 1.043v7.994h12.998v-7.986c-.999-.208-1.85-.5-2.4-1.05z" class="F"/><path d="M590.452 887.204c-.898 3.939-1.314 8.68-1.314 8.68h34.878s-.363-4.767-1.231-8.68h-32.333z" class="E"/><path d="M592.209 882.442c-2.209 2.332-3.193 13.442-3.193 13.442h15.179l-4.094-16.029c-.001 0-6.955 1.598-7.892 2.586zm28.639 0c2.209 2.332 3.193 13.442 3.193 13.442h-15.179l4.094-16.029s6.955 1.598 7.892 2.586z" class="N"/><path d="M589.536 895.884h.296a78.93 78.93 0 0 1 2.789-13.735c-.168.093-.298.184-.387.269-.906 3.092-2.092 7.894-2.698 13.466zm5.812-14.766l-.322.1c-.643 3.109-1.6 8.545-1.936 14.666h.295c.342-6.205 1.323-11.701 1.963-14.766zm-1.32.434l-.335.123c-.78 3.101-1.889 8.277-2.376 14.209h.296c.497-6.032 1.637-11.273 2.415-14.332zm2.596-.807l-.312.088c-.504 3.11-1.282 8.784-1.454 15.051h.295c.174-6.339.97-12.071 1.471-15.139zm4.953 4.893l-.331-1.295c.08 3.262.253 7.385.617 11.542h.296c-.318-3.623-.49-7.221-.582-10.247zm-1.312-5.136l-.165-.647-.108.025c-.111 3.096-.252 9.439.13 16.003h.295c-.358-6.152-.258-12.114-.152-15.382zm-2.397-.094l-.307.081c-.369 3.109-.947 9.013-.944 15.395h.295c-.004-6.449.589-12.407.955-15.476zm1.22-.31l-.301.075c-.237 3.104-.602 9.23-.414 15.711h.295c-.192-6.538.183-12.719.42-15.786z" class="E"/><path d="M600.778 886.598l-3.302 1.8 5.344 7.486h1.721s-1.136-2.102-2.124-8.277c-.752-4.699-.543-9.638-.543-9.638l-3.181 2.187-1.538 5.861 3.624.581z" fill="#a61e53"/><path d="M599.232 861.227h15.016l1.103 15.754s-3.329-1.87-8.617-1.87-7.943 1.87-7.943 1.87l.442-15.754z" fill="#f2d29f"/><path d="M602.298 852.766l.167.705c-5.877 3.83-2.965 22.427-1.682 24.601-2.79-1.116-4.074-2.288-4.074-2.288-1.746-16.332 1.597-22.802 5.588-23.018z" class="Y"/><path d="M616.061 867.189c-.276 1.343-1.554 2.581-2.616 2.368s-.118-4.579.997-4.865c1.507-.385 1.894 1.154 1.619 2.496z" class="B"/><path d="M615.559 866.94c-.196.954-1.103 1.834-1.858 1.682s-.085-3.253.708-3.456c1.069-.273 1.345.82 1.149 1.774z" class="F"/><path d="M597.291 867.189c.275 1.343 1.553 2.581 2.615 2.368s.119-4.579-.997-4.865c-1.507-.385-1.894 1.154-1.619 2.496z" class="B"/><path d="M597.793 866.94c.196.954 1.103 1.834 1.858 1.682s.084-3.253-.708-3.456c-1.07-.273-1.345.82-1.149 1.774z" fill="#e19e62"/><path d="M614.856 864.936c0 5.78-4.444 11.405-8.18 11.405s-8.18-5.625-8.18-11.405 3.663-8.976 8.18-8.976 8.18 3.196 8.18 8.976z" class="B"/><path d="M606.668 852.456c-9.737 0-8.284 12.114-8.284 12.114h.121l3.821-6.57 12.529 6.57h.096c.001 0 1.453-12.114-8.283-12.114z" class="Y"/><path d="M614.706 863.785c-3.192-.487-5.834.891-7.975 1.179a.33.33 0 0 1-.108 0c-2.142-.287-4.784-1.666-7.975-1.179-.357.447.23 2.824.375 3.387a.16.16 0 0 0 .156.12h.087c.154.332.98 1.847 3.245 1.847 2.796-.002 3.13-2.602 3.15-2.795h.082c.061 0 .114-.037.136-.092.072-.175.284-.539.798-.552.514.013.726.377.798.552.023.055.077.092.136.092h.082c.021.193.354 2.793 3.146 2.795 2.269 0 3.095-1.514 3.249-1.847h.087a.16.16 0 0 0 .156-.12c.146-.563.733-2.94.375-3.387zm-15.699.568c0-.089.133-.161.296-.161s.296.072.296.161-.133.161-.296.161-.296-.072-.296-.161zm6.544 2.047c-.059.446-.477 2.635-3.037 2.636-1.291 0-2.087-.503-2.529-.924a2.94 2.94 0 0 1-.623-.849c-.127-.303-1.12-2.929 2.859-2.631 2.832.212 3.261 1.265 3.326 1.604a.54.54 0 0 1 .004.163zm8.439.863c-.068.147-.256.499-.623.849-.441.421-1.237.924-2.524.924-2.564-.002-2.983-2.19-3.04-2.636-.008-.055-.007-.11.004-.164.065-.34.494-1.392 3.326-1.604 3.978-.298 2.986 2.328 2.858 2.631zm.059-2.75c-.164 0-.296-.072-.296-.161s.133-.161.296-.161.296.072.296.161-.133.161-.296.161z"/><path d="M602.327 852.771c4.349-2.269 9.292-.459 12.167 2.915 3.234 3.795 3.452 12.229 2.81 20.097-2.289 1.674-4.911 2.288-4.911 2.288s6.424-21.428-9.902-24.617c-.008.006-.016.011-.024.016a10.13 10.13 0 0 0-.167-.705l.028.006z" class="Y"/><path d="M623.496 895.884h-.296a78.93 78.93 0 0 0-2.789-13.735c.169.093.298.184.387.269.906 3.092 2.092 7.894 2.698 13.466zm-5.813-14.766l.322.1c.642 3.109 1.599 8.545 1.936 14.666h-.295c-.342-6.205-1.323-11.701-1.963-14.766zm1.321.434l.335.123c.78 3.101 1.889 8.277 2.376 14.209h-.296c-.497-6.032-1.637-11.273-2.415-14.332zm-2.596-.807l.312.088c.504 3.11 1.282 8.784 1.454 15.051h-.295c-.174-6.339-.97-12.071-1.471-15.139zm-4.953 4.893l.331-1.295c-.081 3.262-.253 7.385-.617 11.542h-.296c.318-3.623.49-7.221.582-10.247zm1.311-5.136l.166-.647.108.025c.111 3.096.251 9.439-.13 16.003h-.295c.358-6.152.258-12.114.151-15.382zm2.398-.094l.307.081c.368 3.109.947 9.013.944 15.395h-.295c.004-6.449-.589-12.407-.955-15.476zm-1.22-.31l.302.075c.237 3.104.602 9.23.413 15.711h-.295c.191-6.538-.183-12.719-.42-15.786z" class="E"/><path d="M612.254 886.598l3.302 1.8-5.344 7.486h-1.721s1.136-2.102 2.124-8.277c.752-4.699.543-9.638.543-9.638l3.181 2.187 1.537 5.861-3.623.581z" fill="#a61e53"/><path d="M639.969 848.362v47.531h62.125c2.634 0 4.75-2.117 4.75-4.75v-42.781h-66.875z" class="M"/><path d="M639.966 800.812h66.877v47.536h-66.877z" class="V"/><path d="M679.407 829.345c-.806-.272-2.946-1.191-6.02-1.191s-5.194.874-6.019 1.191c-.87.333-.999 2.096-.999 2.781s3.554 1.37 7.019 1.37 7.019-.685 7.019-1.37-.118-2.482-1-2.781z" class="Z"/><path d="M682.335 820.7c-.437 1.357-1.443 2.221-2.248 1.929s-1.102-1.629-.666-2.986 1.443-2.221 2.248-1.929 1.102 1.628.666 2.986zm-17.862 0c.437 1.357 1.443 2.221 2.247 1.929s1.102-1.629.666-2.986-1.443-2.221-2.248-1.929-1.102 1.628-.665 2.986z" class="B"/><path d="M681.499 818.134c-.253-.031-.384-.05-.414.445l-.178 2.798c-.004.195.137.347.35.165.31-.266.587-.626.743-1.209.279-1.046-.056-2.146-.501-2.199zm-16.191 0c.253-.031.384-.05.414.445l.178 2.798c.005.195-.137.347-.35.165-.31-.266-.587-.626-.742-1.209-.278-1.046.056-2.146.501-2.199zm3.304 13.088c.568-1.214.385-4.516.385-4.516h8.819s-.184 3.303.384 4.516v5.13h-9.588v-5.13z" class="F"/><path d="M653.564 848.348l.357-2.486 1.323-7.008c.588-2.808 2-4.214 3.944-4.823l5.224-1.518 4.202-1.291s1.611 1.805 4.793 1.805 4.795-1.805 4.795-1.805l4.2 1.291 5.224 1.518c1.943.608 3.356 2.014 3.944 4.823l1.323 7.008.357 2.486h-39.684z" fill="#edebeb"/><path d="M673.404 807.617c6.515 0 7.754 4.211 7.571 10.005-.072 2.304-.243 4.016-.526 5.415-.496 2.453-.855 3.121-3.904 5.512-1.279 1.003-2.199.616-3.136.616s-1.868.386-3.147-.616c-3.048-2.39-3.408-3.059-3.904-5.512-.283-1.399-.454-3.11-.526-5.415-.184-5.795 1.056-10.005 7.571-10.005z" class="B"/><path d="M666.634 809.794c.706-2.439 1.311-4.608 6.409-5.185 4.34-.491 6.176 4.791 9.646 3.008.477.678.009 2.636-1.392 3.252.767 2.621.542 3.757.371 6.845l-.459-.057-.295 1.9h-.329s.647-6.105-.258-7.789c-.131-.245-3.763 1.562-6.527 1.431-1.938-.091-4.28-.77-6.409-2.162-1.312 1.925-1.155 8.52-1.155 8.52h-.391l-.331-1.9-.377.057c-.433-2.506-.676-6.845 1.496-7.921z" class="T"/><path d="M692.89 845.862l-1.323-7.008c-.588-2.808-2-4.214-3.944-4.823l-5.224-1.518-2.949-.89-1.339 2.621h-9.382l-1.329-2.621-2.991.89-5.224 1.518c-1.943.608-3.356 2.014-3.944 4.823l-1.323 7.008-.357 2.486h39.683l-.356-2.486z" class="R"/><path d="M676.293 834.242c.582 0 .921-.434 1.866-1.272 1.044-.925 1.755-3.476 1.24-3.627 1.068.276 1.198 1.317 2.975 1.791 1.23.328 1.962 1.931 1.962 1.931s-1.962-.173-3.015.3-2.486 2.084-5.029.877z" fill="#00a2db"/><use xlink:href="#T" fill="#bcc9cc"/><use xlink:href="#U" class="Z"/><path d="M678.318 846.408h-.822v-10.706c0-1.031.136-1.587.136-1.587h.5s.186 1.254.186 1.587v10.706z" fill="#d3dfe2"/><path d="M670.482 834.242c-.582 0-.921-.434-1.866-1.272-1.044-.925-1.755-3.476-1.24-3.627-1.068.276-1.198 1.317-2.975 1.791-1.23.328-1.962 1.942-1.962 1.942s1.962-.184 3.015.29 2.486 2.083 5.029.877z" fill="#00a2db"/><use xlink:href="#T" x="-9.042" y="-0.054" fill="#bcc9cc"/><use xlink:href="#U" x="-9.042" y="-0.054" class="Z"/><path d="M668.414 846.353h.822v-10.706c0-1.031-.136-1.587-.136-1.587h-.501s-.186 1.254-.186 1.587l.001 10.706z" fill="#d3dfe2"/><path d="M679.014 833.499c.431-.962 1.591-1.457 1.797-2.533 1.003 1.131-1.12 2.055-1.797 2.533zm-11.305.002c-1.09-.345-2.089-1.324-1.795-2.535.511.964.94 1.819 1.795 2.535z" fill="#008fc1"/><path d="M639.969 753.268V800.8h66.875v-42.781c0-2.634-2.116-4.75-4.75-4.75h-62.125z" class="M"/><path d="M677.029 785.722c-1.695-1.695-.875-7.504-.875-7.504h-5.531s.82 5.808-.875 7.504c-.481.481-1.221.739-2.091.922v12.215h11.495V786.65c-.884-.183-1.636-.441-2.123-.928z" class="a"/><path d="M680.258 763.029c0 3.785-3.068 6.854-6.854 6.854s-6.854-3.068-6.854-6.854 3.068-6.854 6.854-6.854 6.854 3.068 6.854 6.854z" fill="#281b16"/><path d="M663.927 773.894c.278 1.356 1.569 2.606 2.641 2.391s.12-4.624-1.007-4.912c-1.52-.389-1.912 1.165-1.634 2.521z" class="b"/><path d="M664.434 773.642c.198.964 1.114 1.851 1.876 1.699s.086-3.285-.716-3.489c-1.08-.276-1.357.828-1.16 1.791z" class="a"/><path d="M682.88 773.894c-.278 1.356-1.569 2.606-2.641 2.391s-.12-4.624 1.007-4.912c1.521-.389 1.912 1.165 1.634 2.521z" class="b"/><path d="M682.373 773.642c-.198.964-1.115 1.851-1.876 1.699s-.085-3.285.715-3.489c1.081-.276 1.359.828 1.161 1.791z" class="a"/><path d="M665.144 771.618c0 5.837 4.488 11.516 8.26 11.516s8.26-5.679 8.26-11.516-3.698-9.064-8.26-9.064-8.26 3.227-8.26 9.064z" class="b"/><path d="M664.669 768.823c0 .838.311 1.672.475 2.489.817-9.16 4.818-5.543 8.26-5.543s7.225-3.616 8.26 5.543c.165-.817.475-1.652.475-2.489 0-6.105-3.911-9.479-8.735-9.479s-8.734 3.375-8.734 9.479z" class="K"/><path d="M677.06 785.722l-3.656 2.461-3.656-2.462-1.389.866v14.225h10.09v-14.225c-.416-.208-1.389-.865-1.389-.865z" fill="#e7d4f6"/><g class="J"><path d="M673.404 800.801s-2.94-3.689-3.68-7.575-.428-7.055-.428-7.055l-8.888 2.494c-.933.714-2.579 12.136-2.579 12.136h15.574z"/><path d="M673.404 800.801s2.94-3.689 3.68-7.575.428-7.055.428-7.055l8.888 2.494c.933.714 2.579 12.136 2.579 12.136h-15.575z"/></g><path d="M677.911 878.759c-.534-1.214-.546-4.516-.546-4.516h-7.922s-.012 3.303-.546 4.516l4.507 8.116 4.507-8.116z" class="c"/><path d="M693.246 895.885l-.357-2.486-1.322-7.008c-.588-2.809-2-4.214-3.944-4.823l-5.224-1.518-4.109-.976c-.249-.076-.4-.228-.468-.384-.885 1.503-2.083 2.97-3.52 4.195-.314-1.406-.9-1.524-.9-1.524s-2.459-.783-4.416-2.672c-.068.155-.22.308-.468.384-.817.249-2.366.528-4.109.976l-5.224 1.518c-1.944.608-3.356 2.014-3.944 4.823l-1.323 7.008-.357 2.486h39.683z" class="J"/><path d="M674.678 882.535l-.376.351c-.314-1.406-.9-1.524-.9-1.524s-.302-.098-.774-.301v8.19h2.05v-6.715z" class="d"/><path d="M672.626 884.943c0-.124 1.397-1.857 2.037-2.394.376-.29.677-.266 1.217-.19-1.69.79-3.165 2.358-3.254 2.584z" class="L"/><path d="M669.625 883.016c-.971-1.942-1.107-3.943-1.107-3.943l.791-2.371s-.009 3.048 3.607 4.478c-.318-.079-.863-.066-3.291 1.835z" class="C"/><path d="M673.406 854.661c-6.414 0-7.634 4.211-7.454 10.005.072 2.304.421 4.015.7 5.415.489 2.453.66 3.121 3.662 5.512 1.259 1.003 2.17 1.152 3.093 1.152s1.834-.149 3.093-1.152c3.002-2.39 3.173-3.059 3.662-5.512.279-1.399.628-3.11.7-5.415.18-5.794-1.04-10.005-7.454-10.005z" fill="#9c7a5d"/><path d="M680.993 858.096c-.158-.409-.39-.847-.817-1.258-.706-2.44-2.925-3.775-6.777-3.775-5.031 0-6.846 2.318-7.584 4.839-.766 2.621-.543 4.369-.373 7.457.167.002.219.032.339-.004.35-.188.502-1.074.708-2.464.03-.203.27-1.75.854-2.881.128-.247.4-.384.667-.328 1.069.227 2.536.857 4.998.56 1.926-.232 4.446-1.451 5.552-.774.713.436 1.39 1.197 1.763 3.422.232 1.385.346 2.276.696 2.464.124.054.237.054.354.072.184-2.51.369-5.382-.381-7.33z" class="I"/><path d="M664.475 868.044c.437 1.357 1.443 2.221 2.247 1.929s1.103-1.628.666-2.985-1.443-2.221-2.248-1.929-1.102 1.628-.665 2.985zm17.862 0c-.437 1.357-1.444 2.221-2.248 1.929s-1.103-1.628-.666-2.985 1.443-2.221 2.248-1.929 1.102 1.628.666 2.985z" fill="#9c7a5d"/><path d="M665.311 865.478c.253-.031.384-.05.414.445l.178 2.798c.005.195-.137.347-.35.165-.31-.266-.587-.626-.742-1.21-.279-1.045.056-2.146.501-2.199z" class="c"/><path d="M666.482 862.891s-.259 1.409-.259 3.465v1.931h-.329l-.29-3.651c.221-.341.878-1.746.878-1.746z" class="I"/><path d="M681.5 865.478c-.253-.031-.383-.05-.414.445l-.178 2.798c-.005.195.137.347.35.165.31-.266.587-.626.742-1.21.279-1.045-.056-2.146-.501-2.199z" class="c"/><path d="M680.313 862.891s.259 1.409.259 3.465v1.931h.391l.227-3.651c-.22-.341-.877-1.746-.877-1.746z" class="I"/><path d="M673.282 864.64c-3.054-.213-2.575-.605-7.438-.171v.898c.579.359.519 2.254 1.077 2.613s3.99.459 4.808 0c.779-.437.726-2.283 1.544-2.409a1.74 1.74 0 0 1 .238-.003c.845.091.783 1.971 1.57 2.411.818.459 4.249.359 4.808 0s.499-2.254 1.078-2.613v-.898c-4.876-.434-4.38-.039-7.462.173a2.98 2.98 0 0 1-.222-.001zm-1.755 3.126c-.484.233-1.41.279-2.309.248-.937-.033-1.761-.042-2.112-.341-.431-.369-.757-2.347-.404-2.825s5.067-.439 5.586.24-.385 2.497-.762 2.678zm8.178-.093c-.35.299-1.174.308-2.112.341-.899.031-1.825-.014-2.309-.248-.377-.181-1.281-2-.762-2.679s5.233-.718 5.586-.24.028 2.457-.403 2.825z"/><path d="M670.408 881.642c-.253-.413-.562-.981-.83-1.569a12.16 12.16 0 0 1-.621-1.66l-.096-.372-.196.587a12.47 12.47 0 0 0 .524 1.61c.247.617.536 1.217.776 1.655l.338.605.438-.32-.334-.536z" class="d"/><path d="M677.614 883.361c.911-2.296.684-4.287.684-4.287l-.791-2.371s.233 3.18-2.875 5.872c.186-.093.509-.434 1.693.089a11.2 11.2 0 0 1 1.289.697z" class="C"/><path d="M678.173 878.7l-.249-.748-.058.505c-.077.512-.227 1.191-.442 1.85s-.47 1.306-.691 1.777l-.3.631.483.244.285-.674a15.95 15.95 0 0 0 .628-1.858c.168-.607.281-1.221.344-1.726z" class="d"/><path d="M673.097 881.648c.136-.078.329.003.43.18s.072.383-.065.461-.329-.003-.43-.18-.072-.383.065-.461z" class="L"/><path d="M673.18 881.803c.071-.04.171.001.223.093s.037.199-.034.24-.171-.001-.223-.093-.037-.199.034-.24z" class="C"/><use xlink:href="#V" class="L"/><use xlink:href="#W" class="C"/><use xlink:href="#V" y="3.27" class="L"/><use xlink:href="#W" y="3.27" class="C"/><path d="M680.342 869.148c-.221.462-.485 1.169-1.008 2.072-.834 1.444-1.452.865-2.834 2.341-.284-.768-.353-1.534-1.35-1.643-.855-.094-1.702-.279-1.702-.279s-.847.185-1.702.279c-.997.11-1.066.875-1.35 1.643-1.382-1.477-1.999-.898-2.834-2.341-.628-1.088-.885-1.893-1.141-2.322l.229 1.182c.489 2.453.66 3.121 3.662 5.512 1.259 1.003 2.17 1.152 3.093 1.152s1.834-.149 3.093-1.152c3.002-2.39 3.173-3.059 3.662-5.512l.182-.933zm-5.399 6.44c-.441.116-.5-.527-1.494-.527s-1.053.643-1.494.527c-.558-.147-.917-.145-.917-1.435 0-.768.061-1.327.638-1.327 1.102 0 1.773-.21 1.773-.21s.671.21 1.773.21c.578 0 .638.559.638 1.327 0 1.29-.359 1.288-.917 1.435z" class="I"/></g></g><g transform="matrix(.625 0 0 .625 243.75 -59.806977)"><g fill="#fff"><use xlink:href="#X" fill-opacity="0"/><use xlink:href="#X" fill-opacity="0"/></g><path d="M109.298 666.869c-32.749 0-59.298 26.55-59.298 59.298s26.55 59.298 59.298 59.298c18.274 0 34.611-8.271 45.488-21.268-9.998 10.421-24.058 16.907-39.64 16.907-30.342 0-54.948-24.595-54.948-54.937s24.607-54.937 54.948-54.937c15.571 0 29.621 6.477 39.618 16.885-10.877-12.983-27.204-21.246-45.466-21.246z" fill="#0096db"/><path d="M115.132 674.232c28.682 0 51.934 23.253 51.934 51.935s-23.253 51.935-51.934 51.935c-16.005 0-30.313-7.244-39.84-18.627 8.757 9.127 21.071 14.808 34.718 14.808 26.574 0 48.125-21.541 48.125-48.115s-21.551-48.115-48.125-48.115c-13.637 0-25.942 5.673-34.698 14.788 9.527-11.37 23.826-18.608 39.82-18.608zm11.758 32.17c-6.208 0-11.102 1.306-14.694 3.899 1.908 2.294 3.295 5.019 4.194 8.093.127-.119.254-.244.388-.357 2.246-1.888 5.618-2.827 10.112-2.827h17.521v-8.807H126.89zm-9.196 28.581v9.739c2.658.814 5.716 1.212 9.196 1.212h17.521v-8.807H126.89c-3.921 0-6.986-.706-9.196-2.144z" fill="#a83da3"/><path d="M93.959 706.402c-5.99 0-10.79 1.847-14.384 5.53s-5.39 9.188-5.39 16.496v17.506h8.807v-17.506c0-4.493.94-7.867 2.827-10.112s4.606-3.371 8.139-3.371 6.237 1.125 8.124 3.371c1.723 2.05 2.661 5.041 2.812 8.963.216 5.476 2.045 9.896 5.499 13.265.978.954 2.09 1.784 3.324 2.485v-14.601c0-7.308-1.796-12.813-5.39-16.496s-8.378-5.53-14.368-5.53zm120.752 18.754c0-6.332-1.557-11.094-4.671-14.286s-7.266-4.787-12.456-4.787-9.343 1.596-12.457 4.787-4.671 7.954-4.671 14.286v20.475h7.629v-20.475c0-3.893.818-6.813 2.453-8.759s3.984-2.919 7.046-2.919 5.41.973 7.046 2.919 2.453 4.865 2.453 8.759v20.475h7.629zm31.297-18.451v20.475c0 3.893-.818 6.813-2.453 8.759s-3.984 2.919-7.046 2.919-5.41-.973-7.046-2.919-2.453-4.865-2.453-8.759v-20.475h-7.629v20.475c0 6.332 1.557 11.094 4.671 14.286s7.266 4.787 12.456 4.787 9.343-1.596 12.457-4.787 4.671-7.953 4.671-14.286v-20.475z" fill="#0096db"/><path d="M278.003 746.253c-3.632 0-6.992-.895-10.081-2.686a19.8 19.8 0 0 1-7.319-7.318c-1.791-3.088-2.686-6.448-2.686-10.082s.895-6.994 2.686-10.082a19.8 19.8 0 0 1 7.319-7.318c3.089-1.791 6.449-2.686 10.081-2.686 4.205 0 7.994 1.194 11.367 3.582s5.76 5.476 7.162 9.265h-8.175c-1.14-1.661-2.593-2.985-4.358-3.971s-3.738-1.479-5.917-1.479c-2.335 0-4.462.558-6.383 1.674a12 12 0 0 0-4.516 4.592c-1.091 1.946-1.636 4.087-1.636 6.423s.558 4.477 1.674 6.423 2.621 3.477 4.516 4.592 4.01 1.674 6.345 1.674c2.129 0 4.062-.467 5.801-1.401a12.17 12.17 0 0 0 4.32-3.893h8.33c-1.402 3.789-3.789 6.851-7.162 9.186s-7.162 3.503-11.367 3.503zm42.575 0c-3.632 0-6.979-.895-10.041-2.686a20.19 20.19 0 0 1-7.319-7.318c-1.817-3.088-2.725-6.448-2.725-10.082s.908-6.994 2.725-10.082 4.256-5.527 7.319-7.318 6.41-2.686 10.041-2.686 6.981.895 10.044 2.686a19.89 19.89 0 0 1 7.28 7.318c1.791 3.088 2.686 6.448 2.686 10.082v19.463h-7.631v-6.151c-.933 1.921-2.554 3.53-4.865 4.828a15.09 15.09 0 0 1-7.514 1.946zm.078-7.396c2.336 0 4.438-.558 6.307-1.674a12.17 12.17 0 0 0 4.437-4.592c1.09-1.946 1.635-4.087 1.635-6.423s-.532-4.477-1.595-6.423-2.543-3.477-4.437-4.592-4.01-1.674-6.346-1.674-4.462.558-6.383 1.674a12 12 0 0 0-4.516 4.592c-1.09 1.945-1.636 4.087-1.636 6.423s.558 4.477 1.674 6.423 2.621 3.477 4.516 4.592 4.01 1.674 6.345 1.674zm67.678-32.774c5.086 0 9.173 1.609 12.26 4.827s4.632 7.967 4.632 14.247v20.475h-7.629v-20.475c0-3.893-.792-6.813-2.375-8.759s-3.879-2.919-6.889-2.919c-2.959 0-5.243.973-6.852 2.919s-2.414 4.865-2.414 8.759v20.475h-7.629v-20.475c0-3.893-.792-6.813-2.375-8.759s-3.879-2.919-6.889-2.919c-2.959 0-5.243.973-6.852 2.919s-2.414 4.865-2.414 8.759v20.475h-7.629v-20.475c0-6.28 1.544-11.029 4.632-14.247s7.175-4.826 12.263-4.827c2.906 0 5.501.61 7.784 1.829s4.048 3.023 5.295 5.41c1.245-2.387 3.009-4.19 5.293-5.41s4.879-1.829 7.786-1.829zm21.571 20.085c0-3.633.895-6.994 2.686-10.082a19.89 19.89 0 0 1 7.28-7.318c3.062-1.791 6.41-2.686 10.041-2.686s6.981.895 10.044 2.686 5.502 4.23 7.319 7.318S450 722.535 450 726.168s-.908 6.994-2.725 10.082a20.19 20.19 0 0 1-7.319 7.318c-3.062 1.791-6.41 2.686-10.044 2.686-2.542 0-4.851-.493-6.928-1.479a16.01 16.01 0 0 1-5.372-4.126v20.553h-7.707v-35.034zm20.007 12.689c2.336 0 4.452-.558 6.346-1.674s3.386-2.647 4.476-4.592 1.635-4.087 1.635-6.423-.545-4.477-1.635-6.423a12.08 12.08 0 0 0-4.476-4.592c-1.894-1.116-4.01-1.674-6.346-1.674s-4.449.558-6.344 1.674a12.08 12.08 0 0 0-4.476 4.592c-1.09 1.946-1.635 4.087-1.635 6.423s.545 4.477 1.635 6.423a11.99 11.99 0 0 0 4.515 4.592c1.92 1.116 4.022 1.674 6.304 1.674z" fill="#a83da3"/></g><g fill="#424247"><path d="M199.052 496.1c-.128-7.18-2.088-12.7-5.878-16.561s-8.642-5.812-14.556-5.854c-5.941.042-10.801 1.993-14.58 5.854s-5.73 9.382-5.854 16.561c.124 7.152 2.076 12.664 5.854 16.537s8.638 5.832 14.58 5.878c5.913-.042 10.765-1.993 14.556-5.854s5.75-9.381 5.878-16.561zm-9.354 0c-.043 4.64-1.054 8.171-3.031 10.595s-4.66 3.644-8.049 3.66c-3.398-.016-6.084-1.236-8.057-3.66s-2.981-5.955-3.023-10.595c.042-4.64 1.05-8.171 3.023-10.595s4.659-3.644 8.057-3.66c3.389.016 6.072 1.236 8.049 3.66s2.987 5.955 3.031 10.595z"/><use xlink:href="#Y"/><path d="M249.998 474.281h-9.077v43.638h9.077zm6.212 43.637h9.077V485.19h-9.077zm4.56-36.947c1.389-.033 2.548-.483 3.476-1.35s1.41-1.951 1.446-3.252c-.036-1.291-.518-2.369-1.446-3.233s-2.087-1.314-3.476-1.348c-1.379.034-2.531.483-3.457 1.348a4.42 4.42 0 0 0-1.444 3.233c.036 1.301.518 2.385 1.444 3.252s2.078 1.317 3.457 1.35z"/><use xlink:href="#Y" x="66.843"/><path d="M322.68 518.558c4.08-.038 7.404-.948 9.972-2.73s4.187-4.21 4.858-7.284l-8.395-.554c-.474 1.249-1.258 2.192-2.352 2.831s-2.406.959-3.934.962c-2.295-.024-4.098-.728-5.409-2.112s-1.98-3.308-2.006-5.772v-.021h22.288v-2.493c-.1-5.559-1.583-9.719-4.448-12.481s-6.51-4.142-10.936-4.139c-4.875.075-8.725 1.635-11.549 4.682s-4.266 7.133-4.325 12.257c.047 5.242 1.493 9.348 4.339 12.318s6.812 4.482 11.898 4.536zm-7.266-20.306c.126-1.911.822-3.496 2.088-4.754s2.921-1.911 4.965-1.958c2.002.036 3.607.667 4.815 1.894s1.833 2.833 1.875 4.818zm40.326 19.666h18.644c4.914-.068 8.643-1.21 11.186-3.425s3.822-5.093 3.835-8.635c-.089-3.251-1.067-5.794-2.932-7.628s-4.084-2.821-6.656-2.962v-.426c2.314-.517 4.195-1.566 5.644-3.146s2.195-3.656 2.24-6.23c-.002-3.328-1.213-6.01-3.633-8.046s-6.039-3.083-10.856-3.14H355.74zm9.226-7.543v-11.591h7.735c2.238.032 3.989.608 5.252 1.729s1.906 2.597 1.928 4.429c.014 1.662-.574 2.978-1.763 3.947s-3.067 1.465-5.63 1.486zm0-17.834v-10.803h7.01c2.057.022 3.637.505 4.741 1.449s1.661 2.215 1.673 3.814c-.039 1.741-.665 3.096-1.878 4.064s-2.782 1.46-4.706 1.476z"/><use xlink:href="#Z"/><use xlink:href="#Z" x="35.797"/><path d="M483.181 485.19h-6.158v-7.841h-9.077v7.841h-4.475v6.818h4.475v17.046c.024 3.211 1.014 5.599 2.97 7.165s4.602 2.281 7.94 2.147c1.173-.054 2.172-.17 2.996-.346l1.926-.506-1.428-6.754-.977.181a8.39 8.39 0 0 1-1.281.117c-.92.024-1.658-.194-2.213-.655s-.84-1.308-.855-2.541v-15.853h6.158zm19.699 33.368c4.395-.056 7.867-1.222 10.417-3.497s3.949-5.321 4.2-9.138h-8.566c-.286 1.756-.955 3.102-2.006 4.038s-2.364 1.408-3.939 1.417c-2.146-.018-3.841-.872-5.084-2.562s-1.878-4.111-1.904-7.261c.028-3.108.665-5.5 1.912-7.175s2.94-2.522 5.077-2.541c1.671.024 3.016.525 4.035 1.505s1.655 2.296 1.91 3.95h8.566c-.245-3.831-1.668-6.865-4.269-9.101s-6.065-3.379-10.39-3.428c-5.013.078-8.932 1.643-11.756 4.696s-4.261 7.127-4.309 12.222c.041 5.057 1.466 9.113 4.275 12.169s6.753 4.625 11.834 4.706zm28.819-.022c2.415-.024 4.414-.503 5.998-1.436s2.774-2.173 3.569-3.721h.256v4.538h8.608v-22.075c-.123-3.874-1.528-6.695-4.214-8.464s-5.912-2.641-9.679-2.615c-3.946.032-7.145.906-9.596 2.621s-4.004 4.08-4.658 7.095l8.395.682c.309-1.108.948-2.008 1.918-2.701s2.269-1.049 3.899-1.071c1.554.009 2.75.38 3.588 1.113s1.261 1.776 1.27 3.127v.128c.025 1.011-.585 1.695-1.83 2.054s-3.277.654-6.097.887c-3.346.224-6.205 1.065-8.576 2.522s-3.611 3.976-3.718 7.556c.063 3.241 1.093 5.677 3.092 7.308s4.59 2.449 7.775 2.45zm2.6-6.264c-1.421-.002-2.569-.323-3.444-.962s-1.325-1.583-1.35-2.831c.021-1.268.506-2.242 1.454-2.922s2.232-1.126 3.851-1.34a59.33 59.33 0 0 0 3.489-.567c1.264-.241 2.204-.542 2.818-.903v3.473c-.035 1.753-.673 3.19-1.915 4.312s-2.876 1.702-4.903 1.739zm21.872 5.646h9.077v-19.645c.033-1.836.542-3.294 1.529-4.373s2.252-1.632 3.798-1.657c1.513.018 2.717.493 3.612 1.425s1.353 2.211 1.374 3.838v20.413h8.8v-19.986c.012-1.719.473-3.091 1.382-4.115s2.196-1.549 3.859-1.574c1.479 0 2.686.453 3.622 1.361s1.419 2.272 1.449 4.094v20.221h9.056v-22.011c-.049-3.569-1.006-6.313-2.871-8.233s-4.346-2.89-7.442-2.911c-2.425.024-4.5.589-6.227 1.694s-2.94 2.608-3.638 4.507h-.341c-.546-1.918-1.595-3.425-3.148-4.523s-3.465-1.657-5.737-1.678c-2.224.017-4.125.569-5.702 1.654s-2.716 2.601-3.417 4.546h-.384v-5.774h-8.651zm53.727 12.274h9.077v-17.515h.277c.607 1.434 1.652 2.737 3.135 3.91s3.535 1.794 6.155 1.864c3.816-.018 6.96-1.458 9.434-4.32s3.754-7.04 3.841-12.534c-.103-5.623-1.415-9.835-3.934-12.635s-5.626-4.199-9.319-4.198c-2.708.08-4.792.735-6.254 1.963s-2.481 2.548-3.058 3.961h-.405v-5.497h-8.949zm8.885-28.637c.011-2.953.607-5.277 1.787-6.973s2.879-2.56 5.095-2.594c2.254.044 3.963.93 5.127 2.658s1.749 4.031 1.755 6.909c-.008 2.901-.599 5.227-1.771 6.978s-2.876 2.649-5.111 2.695c-2.198-.038-3.891-.921-5.079-2.647s-1.789-4.069-1.803-7.026z"/></g><g fill="#737782"><path d="M242.105 582.612h2.656V570.85h6.776l1.108-.043 6.378 11.804h3.068l-6.719-12.316c1.814-.615 3.183-1.622 4.107-3.022s1.388-3.082 1.39-5.046c-.004-2.588-.795-4.675-2.37-6.261s-3.911-2.402-7.005-2.447h-9.389zm2.656-14.191v-12.515h6.662c2.298.025 4.012.603 5.142 1.733s1.693 2.659 1.69 4.588c.002 1.924-.56 3.432-1.685 4.524s-2.827 1.649-5.105 1.669z"/><use xlink:href="#a"/><path d="M287.017 582.612h2.528v-13.978c.031-1.727.534-3.12 1.508-4.178s2.233-1.602 3.777-1.632c1.502.021 2.66.476 3.477 1.364s1.229 2.081 1.239 3.58v14.844h2.585v-14.361c.009-1.6.46-2.896 1.353-3.89s2.175-1.506 3.846-1.536c1.462.001 2.622.433 3.482 1.296s1.299 2.155 1.319 3.874v14.617h2.528v-14.617c-.02-2.45-.608-4.308-1.763-5.575s-2.755-1.904-4.8-1.911c-1.6.014-2.953.373-4.057 1.076s-1.907 1.666-2.406 2.887h-.185c-.48-1.246-1.207-2.216-2.18-2.908s-2.212-1.044-3.715-1.055c-1.439.01-2.663.334-3.672.971s-1.736 1.526-2.18 2.665h-.227v-3.352h-2.457z"/><use xlink:href="#b"/><path d="M350.58 560.793h-4.617v-5.227h-2.543v5.227h-3.253v2.202h3.253v14.517c.059 1.786.644 3.136 1.756 4.05s2.397 1.373 3.855 1.376c.523-.004.968-.045 1.335-.123s.67-.164.909-.261l-.54-2.287a5.19 5.19 0 0 1-.621.137c-.239.039-.524.06-.856.062-.889.023-1.653-.226-2.292-.748s-.973-1.456-1.003-2.804v-13.921h4.617z"/><use xlink:href="#a" x="89.469"/><path d="M391.818 582.612h2.841l6.747-24.674h.185l6.747 24.674h2.841l7.969-29.092h-2.713l-6.591 25.015h-.227l-6.591-25.015h-3.068l-6.591 25.015h-.227l-6.591-25.015h-2.699zm38.586.455c2.874-.054 5.181-1.1 6.921-3.139s2.634-4.747 2.681-8.125c-.047-3.398-.94-6.119-2.681-8.163s-4.048-3.092-6.921-3.145c-2.874.053-5.181 1.101-6.921 3.145s-2.634 4.764-2.681 8.163c.047 3.378.94 6.086 2.681 8.125s4.048 3.085 6.921 3.139zm0-2.315c-2.277-.067-4.02-.948-5.229-2.642s-1.82-3.796-1.831-6.307c.011-2.513.621-4.625 1.831-6.335s2.953-2.601 5.229-2.671c2.277.07 4.02.96 5.229 2.671s1.82 3.822 1.831 6.335c-.011 2.511-.621 4.613-1.831 6.307s-2.953 2.575-5.229 2.642zm13.691 1.86h2.528v-14.091c.033-1.65.589-2.985 1.669-4.006s2.489-1.547 4.226-1.577c.341.004.65.024.925.06l.595.082v-2.571l-.641-.027-.694-.016c-1.393.016-2.62.354-3.681 1.014s-1.823 1.549-2.285 2.665h-.185v-3.352h-2.457zm12.797 0h2.528v-8.452l2.514-2.358 8.551 10.81h3.239l-9.901-12.472 9.333-9.347h-3.196l-10.228 10.27h-.313V553.52h-2.528zm34.175-17.032c-.524-1.592-1.39-2.833-2.596-3.725s-2.803-1.345-4.791-1.36c-2.243.03-4.06.599-5.451 1.706s-2.107 2.575-2.149 4.402c-.005 1.466.449 2.689 1.362 3.668s2.315 1.698 4.206 2.156l3.565.852c1.198.287 2.09.732 2.676 1.333s.877 1.341.875 2.218c-.021 1.159-.523 2.104-1.506 2.834s-2.323 1.106-4.02 1.129c-1.494-.002-2.7-.335-3.617-.998s-1.53-1.642-1.838-2.937l-2.429.597c.399 1.825 1.281 3.214 2.647 4.169s3.126 1.435 5.279 1.442c2.438-.033 4.388-.628 5.849-1.784s2.211-2.679 2.248-4.565c0-1.458-.458-2.669-1.373-3.633s-2.285-1.671-4.111-2.12l-3.296-.81c-1.353-.333-2.355-.793-3.006-1.38s-.975-1.349-.971-2.285c.027-1.126.502-2.031 1.426-2.713s2.134-1.033 3.631-1.051c1.455.024 2.583.363 3.383 1.019s1.363 1.486 1.689 2.489zm6.916 3.395c.034-1.922.605-3.423 1.715-4.503s2.555-1.629 4.336-1.648c1.71.018 3.056.537 4.038 1.557s1.483 2.438 1.502 4.253v13.978h2.543v-14.134c-.033-2.607-.72-4.585-2.06-5.934s-3.135-2.028-5.384-2.035c-1.647.013-3.009.349-4.084 1.007a5.94 5.94 0 0 0-2.379 2.701h-.227V553.52h-2.528v29.092h2.528z"/><use xlink:href="#b" x="197.5"/><path d="M539.443 590.794h2.543v-12.23h.227c.411 1.064 1.141 2.065 2.191 3.003s2.555 1.438 4.514 1.5c2.711-.048 4.875-1.088 6.492-3.118s2.446-4.76 2.486-8.189c-.038-3.415-.867-6.134-2.486-8.157s-3.797-3.059-6.534-3.107c-1.975.063-3.476.562-4.503 1.495s-1.747 1.922-2.159 2.965h-.313v-4.162h-2.457zm2.5-19.077c.011-2.659.589-4.799 1.733-6.421s2.787-2.455 4.929-2.5c2.201.057 3.875.916 5.02 2.575s1.721 3.774 1.728 6.346c-.009 2.601-.591 4.743-1.744 6.424s-2.821 2.552-5.004 2.61c-2.123-.047-3.761-.894-4.913-2.541s-1.735-3.811-1.749-6.493z"/></g></g></svg>