<?xml version="1.0" encoding="UTF-8" standalone="no"?>
<svg
   xmlns:dc="http://purl.org/dc/elements/1.1/"
   xmlns:cc="http://creativecommons.org/ns#"
   xmlns:rdf="http://www.w3.org/1999/02/22-rdf-syntax-ns#"
   xmlns:svg="http://www.w3.org/2000/svg"
   xmlns="http://www.w3.org/2000/svg"
   xmlns:sodipodi="http://sodipodi.sourceforge.net/DTD/sodipodi-0.dtd"
   xmlns:inkscape="http://www.inkscape.org/namespaces/inkscape"
   viewBox="0 0 612 612"
   focusable="false"
   role="img"
   id="svg16058"
   version="1.1"
   inkscape:version="0.48.5 r10040"
   width="100%"
   height="100%"
   sodipodi:docname="logo-react-native.svg">
  <metadata
     id="metadata16070">
    <rdf:RDF>
      <cc:Work
         rdf:about="">
        <dc:format>image/svg+xml</dc:format>
        <dc:type
           rdf:resource="http://purl.org/dc/dcmitype/StillImage" />
        <dc:title>Bootstrap</dc:title>
      </cc:Work>
    </rdf:RDF>
  </metadata>
  <defs
     id="defs16068" />
  <sodipodi:namedview
     pagecolor="#ffffff"
     bordercolor="#666666"
     borderopacity="1"
     objecttolerance="10"
     gridtolerance="10"
     guidetolerance="10"
     inkscape:pageopacity="0"
     inkscape:pageshadow="2"
     inkscape:window-width="3440"
     inkscape:window-height="1377"
     id="namedview16066"
     showgrid="false"
     inkscape:zoom="0.38562092"
     inkscape:cx="409.72881"
     inkscape:cy="212.64407"
     inkscape:window-x="1912"
     inkscape:window-y="-8"
     inkscape:window-maximized="1"
     inkscape:current-layer="svg16058" />
  <title
     id="title16060">Bootstrap</title>
  <path
     fill="#563D7C"
     d="M612 510c0 56.1-45.9 102-102 102H102C45.9 612 0 566.1 0 510V102C0 45.9 45.9 0 102 0h408c56.1 0 102 45.9 102 102v408z"
     id="path16062"
     style="fill:#cb3837;fill-opacity:1" />
  <g
     id="g17207"
     transform="matrix(1.0987893,0,0,1.0987893,875.88058,25.477611)">
    <path
       id="path16634"
       d="m -788.64407,162.10169 h 540 v 180 h -270 v 30 h -120 v -30 h -150 v -180 z m 30,150 h 60 v -90 h 30 v 90 h 30 v -120 h -120 v 120 z m 150,-120 v 150 h 60 v -30 h 60 v -120 h -120 z m 60,30 h 30 v 60 h -30 v -60 z m 90,-30 v 120 h 60 v -90 h 30 v 90 h 30 v -90 h 30 v 90 h 30 v -120 h -180 z"
       inkscape:connector-curvature="0"
       style="fill:#cb3837" />
    <polygon
       id="polygon16636"
       points="4,5 5,5 5,1 1,1 1,5 3,5 3,2 4,2 "
       transform="matrix(30,0,0,30,-788.64407,162.10169)"
       style="fill:#ffffff" />
    <path
       id="path16638"
       d="m -608.64407,192.10169 v 150 h 60 v -30 h 60 v -120 h -120 z m 90,90 h -30 v -60 h 30 v 60 z"
       inkscape:connector-curvature="0"
       style="fill:#ffffff" />
    <polygon
       id="polygon16640"
       points="11,1 11,5 13,5 13,2 14,2 14,5 15,5 15,2 16,2 16,5 17,5 17,1 "
       transform="matrix(30,0,0,30,-788.64407,162.10169)"
       style="fill:#ffffff" />
  </g>
</svg>
